<?xml version="1.0" encoding="UTF-8"?>
<svg width="406px" height="338px" viewBox="0 0 406 338" version="1.1" xmlns="http://www.w3.org/2000/svg" xmlns:xlink="http://www.w3.org/1999/xlink">
    <!-- Generator: Sketch 52.6 (67491) - http://www.bohemiancoding.com/sketch -->
    <title>map_interface</title>
    <desc>Created with Sketch.</desc>
    <defs>
        <linearGradient x1="-77.2034144%" y1="59.1416147%" x2="180.497681%" y2="59.1416147%" id="linearGradient-1">
            <stop stop-color="#23A74E" offset="0%"></stop>
            <stop stop-color="#F5FF00" offset="100%"></stop>
        </linearGradient>
        <polygon id="path-2" points="0.982578397 0.0407024391 1.62724808 0.0407024391 1.62724808 1.01912646 0.982578397 1.01912646"></polygon>
        <polygon id="path-4" points="0.982578397 0.355950657 1.63540348 0.355950657 1.63540348 3.89980244 0.982578397 3.89980244"></polygon>
        <linearGradient x1="-19.1563395%" y1="59.1416147%" x2="122.175555%" y2="64.1433615%" id="linearGradient-6">
            <stop stop-color="#23A74E" offset="0%"></stop>
            <stop stop-color="#F5FF00" offset="100%"></stop>
        </linearGradient>
        <polygon id="path-7" points="0.982578397 0.0407024391 1.62724808 0.0407024391 1.62724808 1.01912646 0.982578397 1.01912646"></polygon>
        <polygon id="path-9" points="0.982578397 0.355950657 1.63540348 0.355950657 1.63540348 3.89980244 0.982578397 3.89980244"></polygon>
        <linearGradient x1="-97.7485718%" y1="54.4830729%" x2="146.170677%" y2="66.6728922%" id="linearGradient-11">
            <stop stop-color="#F3FF00" offset="0%"></stop>
            <stop stop-color="#F5FF00" offset="100%"></stop>
        </linearGradient>
    </defs>
    <g id="Page-1" stroke="none" stroke-width="1" fill="none" fill-rule="evenodd">
        <g id="map_interface" transform="translate(-7.000000, -1.000000)">
            <rect id="Rectangle-Copy-19" fill="#D8D8D8" fill-rule="nonzero" opacity="0" x="0" y="0" width="420" height="340"></rect>
            <g transform="translate(7.000000, 1.000000)">
                <path d="M366.926302,277.787053 C368.820831,279.606753 370,282.165671 370,285 C370,288.754862 367.930508,292.026368 364.869904,293.736139 L359.714787,322.761825 C359.699474,322.84805 359.673536,322.929717 359.63856,323.005719 C359.758514,323.66055 359.849553,324.325755 359.910282,325 L363,325 C366.313708,325 369,327.686292 369,331 C369,334.313708 366.313708,337 363,337 L237,337 C233.686292,337 231,334.313708 231,331 C231,327.686292 233.686292,325 237,325 L277.986406,325 L283.463892,301.499818 C282.23878,299.970908 281.50602,298.030445 281.50602,295.918836 C281.50602,290.985917 285.504942,286.986995 290.437861,286.986995 C291.969308,286.986995 293.410734,287.372419 294.67043,288.051557 C294.681118,288.049051 294.691885,288.04671 294.702729,288.044536 L328.546254,281.259929 C328.540764,281.248209 328.535476,281.236335 328.530396,281.224309 L325.384878,273.779005 C323.39639,273.426343 321.886302,271.689294 321.886302,269.599546 C321.886302,269.077606 321.980503,268.577668 322.152831,268.115805 L317.548266,265.191472 L311.349079,265.191472 C310.796794,265.191472 310.349079,264.743757 310.349079,264.191472 L310.349079,261.307166 C310.349079,260.754882 310.796794,260.307166 311.349079,260.307166 L338.749984,260.307166 C339.302269,260.307166 339.749984,260.754882 339.749984,261.307166 L339.749984,264.191472 C339.749984,264.743757 339.302269,265.191472 338.749984,265.191472 L334.711859,265.191472 L330.101141,268.093695 C330.278755,268.561697 330.37599,269.069266 330.37599,269.599546 C330.37599,270.254838 330.227505,270.875449 329.962344,271.429569 L334.707997,277.71942 C334.733403,277.753092 334.756356,277.78785 334.776887,277.82348 C336.81986,278.439113 338.307831,280.33525 338.307831,282.578922 C338.307831,285.321524 336.084513,287.544843 333.341911,287.544843 C332.422937,287.544843 331.562265,287.295221 330.824002,286.860083 L299.08704,298.156727 C298.693396,299.682508 297.906671,301.050312 296.841299,302.145703 L302.16824,325 L316.089728,325 C316.799885,317.116675 321.651616,310.472708 328.415197,307.193936 C328.461087,307.092206 328.524919,306.996484 328.60678,306.911504 L349.969937,284.734361 C349.981215,284.722654 349.992709,284.711281 350.004407,284.700242 C350.080084,282.129671 351.125871,279.802568 352.788311,278.072389 C352.753026,278.002994 352.725338,277.928342 352.706566,277.849246 L350.01488,266.50802 C347.658024,265.53206 346,263.209656 346,260.5 C346,258.033306 347.374019,255.887532 349.398442,254.786294 L359.610707,236.388881 C358.615523,235.393593 358,234.018678 358,232.5 C358,231.713455 358.165105,230.965473 358.462548,230.288819 L351.709505,226 L343,226 C342.447715,226 342,225.552285 342,225 L342,221 C342,220.447715 342.447715,220 343,220 L381,220 C381.552285,220 382,220.447715 382,221 L382,225 C382,225.552285 381.552285,226 381,226 L375.288327,226 L368.523773,230.257959 C368.829829,230.942703 369,231.701478 369,232.5 C369,234.996633 367.336501,237.104735 365.057424,237.776386 L359.050493,259.269171 C359.02304,259.367399 358.981841,259.458083 358.929559,259.539722 C358.975962,259.853084 359,260.173735 359,260.5 C359,261.545411 358.753205,262.53318 358.314698,263.408223 C362.277546,269.908871 365.109093,274.602898 366.810665,277.492586 C366.866025,277.5866 366.904258,277.685963 366.926302,277.787053 Z M363.342076,275.572114 C361.756695,272.924264 359.654842,269.451563 357.036926,265.154712 C355.865637,266.296545 354.264969,267 352.5,267 C352.394537,267 352.28966,266.997488 352.185426,266.992521 L354.479941,276.660292 C356.061865,275.611112 357.959566,275 360,275 C361.172052,275 362.29701,275.201637 363.342076,275.572114 Z M362.926538,237.970464 C362.340908,237.909791 361.782563,237.757226 361.266172,237.527435 L352.11619,254.011144 C352.243182,254.003749 352.371153,254 352.5,254 C354.635013,254 356.529608,255.029351 357.714578,256.618845 L362.926538,237.970464 Z M356.154512,263.126324 C356.204518,262.931375 356.313049,262.751283 356.473156,262.61472 C356.809409,261.984281 357,261.264398 357,260.5 C357,258.014719 354.985281,256 352.5,256 C351.880905,256 351.29101,256.12502 350.754184,256.351189 C350.617539,256.473396 350.45095,256.554229 350.274531,256.587933 C348.915961,257.362452 348,258.824259 348,260.5 C348,262.985281 350.014719,265 352.5,265 C354.005059,265 355.337544,264.261126 356.154512,263.126324 Z M332.574735,305.675176 C334.311829,305.234134 336.12977,305 338,305 C347.196631,305 355.124345,310.660084 358.397904,318.739337 L362.678569,294.637219 C361.826068,294.87365 360.92779,295 360,295 C355.271554,295 351.309615,291.718196 350.267681,287.308088 L332.574735,305.675176 Z M318.09865,325 L330.291513,325 L329.895648,324.885136 C330.976715,321.159345 334.401577,318.548387 338.33871,318.548387 C342.322992,318.548387 345.774163,321.221226 346.81426,325 L357.901356,325 C356.895276,314.852135 348.327444,307 338,307 C327.67663,307 319.105178,314.847966 318.09865,325 Z M331.961439,325 L344.71609,325 C343.751789,322.366236 341.226125,320.548387 338.33871,320.548387 C335.455847,320.548387 332.92793,322.361052 331.961439,325 Z M328.969252,266.442939 L330.957438,265.191472 L321.278825,265.191472 L323.27502,266.459244 C324.029077,265.773023 325.031259,265.354702 326.131146,265.354702 C327.222294,265.354702 328.217284,265.766402 328.969252,266.442939 Z M329.802328,279.095858 C330.451968,278.435743 331.284861,277.956508 332.218568,277.740592 L328.652802,273.014553 C328.302524,273.273629 327.910978,273.480098 327.489835,273.622289 L329.802328,279.095858 Z M325,234.28838 L337.714799,228.100486 L325,221.912591 L312.285201,228.100486 L325,234.28838 Z M309.562402,227.201315 L324.562402,219.901285 C324.838646,219.766845 325.161354,219.766845 325.437598,219.901285 L340.437598,227.201315 C341.187467,227.566253 341.187467,228.634718 340.437598,228.999656 L325.437598,236.299687 C325.161354,236.434126 324.838646,236.434126 324.562402,236.299687 L309.562402,228.999656 C308.812533,228.634718 308.812533,227.566253 309.562402,227.201315 Z M339.562402,233.601254 C340.059,233.359575 340.657492,233.566228 340.899171,234.062827 C341.140849,234.559425 340.934196,235.157917 340.437598,235.399595 L325.437598,242.699626 C325.161354,242.834065 324.838646,242.834065 324.562402,242.699626 L309.562402,235.399595 C309.065804,235.157917 308.859151,234.559425 309.100829,234.062827 C309.342508,233.566228 309.941,233.359575 310.437598,233.601254 L325,240.688319 L339.562402,233.601254 Z M339.562402,239.601254 C340.059,239.359575 340.657492,239.566228 340.899171,240.062827 C341.140849,240.559425 340.934196,241.157917 340.437598,241.399595 L325.437598,248.699626 C325.161354,248.834065 324.838646,248.834065 324.562402,248.699626 L309.562402,241.399595 C309.065804,241.157917 308.859151,240.559425 309.100829,240.062827 C309.342508,239.566228 309.941,239.359575 310.437598,239.601254 L325,246.688319 L339.562402,239.601254 Z M339.562402,245.601254 C340.059,245.359575 340.657492,245.566228 340.899171,246.062827 C341.140849,246.559425 340.934196,247.157917 340.437598,247.399595 L325.437598,254.699626 C325.161354,254.834065 324.838646,254.834065 324.562402,254.699626 L309.562402,247.399595 C309.065804,247.157917 308.859151,246.559425 309.100829,246.062827 C309.342508,245.566228 309.941,245.359575 310.437598,245.601254 L325,252.688319 L339.562402,245.601254 Z M317.821725,263.191472 C317.827388,263.191388 317.833072,263.191345 317.838776,263.191345 L334.423535,263.191345 C334.429241,263.191345 334.434927,263.191388 334.440593,263.191472 L337.749984,263.191472 L337.749984,262.307166 L312.349079,262.307166 L312.349079,263.191472 L317.821725,263.191472 Z M285.752535,324.482971 C286.623344,322.942128 288.262367,321.959204 290.077323,321.959204 C291.888756,321.959204 293.528509,322.938216 294.402046,324.482971 L299.959447,324.482971 C298.855669,319.993237 294.803106,316.748439 290.077323,316.748439 C285.354824,316.748439 281.300112,319.98958 280.195234,324.482971 L285.752535,324.482971 Z M288.393332,324.482971 L291.761403,324.482971 C291.2772,324.148879 290.694112,323.959204 290.077323,323.959204 C289.460046,323.959204 288.877067,324.149315 288.393332,324.482971 Z M281.637332,318.147116 C283.839289,316.032129 286.825839,314.748439 290.077323,314.748439 C293.330191,314.748439 296.316121,316.032878 298.517343,318.147116 L295.11086,303.532205 C293.751414,304.368398 292.150959,304.850678 290.437861,304.850678 C288.455308,304.850678 286.623619,304.204749 285.141762,303.111858 L281.637332,318.147116 Z M328.431327,283.322761 L296.811588,289.661565 C298.393838,291.273078 299.369702,293.481994 299.369702,295.918836 L299.369691,295.933199 L329.197749,285.316021 C328.808204,284.727408 328.540706,284.050963 328.431327,283.322761 Z M290.437861,302.850678 C294.266211,302.850678 297.369702,299.747187 297.369702,295.918836 C297.369702,292.090486 294.266211,288.986995 290.437861,288.986995 C286.609511,288.986995 283.50602,292.090486 283.50602,295.918836 C283.50602,299.747187 286.609511,302.850678 290.437861,302.850678 Z M290.437861,299.803142 C288.292618,299.803142 286.553555,298.064079 286.553555,295.918836 C286.553555,293.773594 288.292618,292.034531 290.437861,292.034531 C292.583104,292.034531 294.322167,293.773594 294.322167,295.918836 C294.322167,298.064079 292.583104,299.803142 290.437861,299.803142 Z M290.437861,297.803142 C291.478535,297.803142 292.322167,296.95951 292.322167,295.918836 C292.322167,294.878163 291.478535,294.034531 290.437861,294.034531 C289.397188,294.034531 288.553555,294.878163 288.553555,295.918836 C288.553555,296.95951 289.397188,297.803142 290.437861,297.803142 Z M333.341911,285.544843 C334.979943,285.544843 336.307831,284.216955 336.307831,282.578922 C336.307831,280.940889 334.979943,279.613001 333.341911,279.613001 C331.703878,279.613001 330.37599,280.940889 330.37599,282.578922 C330.37599,284.216955 331.703878,285.544843 333.341911,285.544843 Z M326.131146,271.84439 C327.370939,271.84439 328.37599,270.839339 328.37599,269.599546 C328.37599,268.359753 327.370939,267.354702 326.131146,267.354702 C324.891353,267.354702 323.886302,268.359753 323.886302,269.599546 C323.886302,270.839339 324.891353,271.84439 326.131146,271.84439 Z M110.19942,16.0000011 L21,16 C20.4477153,16 20,15.5522847 20,15 L20,7 C20,6.4477153 20.4477153,6 21,6 L110,6 C110.065039,6 110.128627,6.0062089 110.190205,6.0180664 C112.007609,2.4465722 115.718091,0 120,0 C124.300939,0 128.02536,2.4683667 129.833914,6.0657504 C129.944892,6.0232723 130.065373,6 130.19129,6 L306,6 C306.552285,6 307,6.4477153 307,7 L307,15 C307,15.5522847 306.552285,16 306,16 L130,16 C129.934961,16 129.871373,15.9937911 129.809795,15.9819336 C128.358856,18.8332643 125.701316,20.9675973 122.509702,21.7124063 C122.821128,22.2356139 123,22.846918 123,23.5 C123,25.0855103 121.945744,26.4247861 120.5,26.8550607 L120.5,33 L383.959524,33 C391.179436,33 397,39.2844141 397,47 L397,257 C397,257.552285 396.552285,258 396,258 C395.447715,258 395,257.552285 395,257 L395,63.5 L120.5,63.5 L120.5,73.998168 C120.5,74.181068 120.450897,74.3525 120.365155,74.5 L229.003587,74.5 C229.555872,74.5 230.003587,74.947715 230.003587,75.5 C230.003587,76.052285 229.555872,76.5 229.003587,76.5 L68,76.5 C67.447715,76.5 67,76.052285 67,75.5 C67,74.947715 67.447715,74.5 68,74.5 L118.634845,74.5 C118.549103,74.3525 118.5,74.181068 118.5,73.998168 L118.5,63.5 L2,63.5 L2,266 C2,272.643818 6.9608452,278 13.0404762,278 L71,278 C71.552285,278 72,278.447715 72,279 C72,279.552285 71.552285,280 71,280 L13.0404762,280 C5.8205645,280 0,273.715586 0,266 L0,47 C0,39.2844141 5.8205645,33 13.0404762,33 L118.5,33 L118.5,26.8550607 C117.054256,26.4247861 116,25.0855103 116,23.5 C116,22.7468315 116.237899,22.0492272 116.642652,21.4782316 C113.836972,20.579995 111.521433,18.5861231 110.19942,16.0000011 Z M130.585935,8 C130.855666,8.9536636 131,9.9599762 131,11 C131,12.0400238 130.855666,13.0463364 130.585935,14 L305,14 L305,8 L130.585935,8 Z M109.414065,14 C109.144334,13.0463364 109,12.0400238 109,11 C109,9.9599762 109.144334,8.9536636 109.414065,8 L22,8 L22,14 L109.414065,14 Z M111.579887,14.1852067 C111.834181,14.3665128 112,14.6638918 112,15 C112,15.0387582 111.997795,15.0770014 111.993504,15.114611 C113.487471,18.0158197 116.51202,20 120,20 C124.970563,20 129,15.9705627 129,11 C129,6.0294373 124.970563,2 120,2 C115.029437,2 111,6.0294373 111,11 C111,12.1214672 111.205119,13.1950262 111.579887,14.1852067 Z M395,61.5 L395,47 C395,40.3561824 390.039155,35 383.959524,35 L120.5,35 L120.5,61.5 L395,61.5 Z M118.5,35 L13.0404762,35 C6.9608452,35 2,40.3561824 2,47 L2,61.5 L118.5,61.5 L118.5,35 Z M34.5943396,293 L272.291287,293 C272.843571,293 273.291287,293.447715 273.291287,294 C273.291287,294.552285 272.843571,295 272.291287,295 L34.5943396,295 C20.65982,295 12,303.277594 12,315.09434 C12,326.911085 20.65982,335.188679 34.5943396,335.188679 L221,335.188679 C221.552285,335.188679 222,335.636394 222,336.188679 C222,336.740964 221.552285,337.188679 221,337.188679 L34.5943396,337.188679 C19.5749419,337.188679 10,328.036355 10,315.09434 C10,302.152324 19.5749419,293 34.5943396,293 Z M208,297.260787 C208.057252,297.250599 208.11619,297.245283 208.17637,297.245283 L273.970727,297.245283 C274.523012,297.245283 274.970727,297.692998 274.970727,298.245283 C274.970727,298.797568 274.523012,299.245283 273.970727,299.245283 L208.17637,299.245283 C208.11619,299.245283 208.057252,299.239967 208,299.229779 C207.942748,299.239967 207.88381,299.245283 207.82363,299.245283 L34.880925,299.245283 C23.2886802,299.245283 16.5318683,305.632828 16.5318683,315.09434 C16.5318683,324.555851 23.2886802,330.943396 34.880925,330.943396 L218,330.943396 C218.552285,330.943396 219,331.391111 219,331.943396 C219,332.495681 218.552285,332.943396 218,332.943396 L34.880925,332.943396 C22.2084625,332.943396 14.5318683,325.686336 14.5318683,315.09434 C14.5318683,304.502343 22.2084625,297.245283 34.880925,297.245283 L207.82363,297.245283 C207.88381,297.245283 207.942748,297.250599 208,297.260787 Z M237,327 C234.790861,327 233,328.790861 233,331 C233,333.209139 234.790861,335 237,335 L363,335 C365.209139,335 367,333.209139 367,331 C367,328.790861 365.209139,327 363,327 L237,327 Z M381.119075,330.943396 C392.71132,330.943396 399.468132,324.555851 399.468132,315.09434 C399.468132,305.632828 392.71132,299.245283 381.119075,299.245283 L370.662604,299.245283 C370.110319,299.245283 369.662604,298.797568 369.662604,298.245283 C369.662604,297.692998 370.110319,297.245283 370.662604,297.245283 L381.119075,297.245283 C393.791538,297.245283 401.468132,304.502343 401.468132,315.09434 C401.468132,325.686336 393.791538,332.943396 381.119075,332.943396 C380.56679,332.943396 380.119075,332.495681 380.119075,331.943396 C380.119075,331.391111 380.56679,330.943396 381.119075,330.943396 Z M330.765597,299.245283 L310.719637,299.245283 C310.167353,299.245283 309.719637,298.797568 309.719637,298.245283 C309.719637,297.692998 310.167353,297.245283 310.719637,297.245283 L330.765597,297.245283 C331.317882,297.245283 331.765597,297.692998 331.765597,298.245283 C331.765597,298.797568 331.317882,299.245283 330.765597,299.245283 Z M376,335.188679 L381.40566,335.188679 C395.34018,335.188679 404,326.911085 404,315.09434 C404,303.277594 395.34018,295 381.40566,295 L374.911755,295 C374.35947,295 373.911755,294.552285 373.911755,294 C373.911755,293.447715 374.35947,293 374.911755,293 L381.40566,293 C396.425058,293 406,302.152324 406,315.09434 C406,328.036355 396.425058,337.188679 381.40566,337.188679 L376,337.188679 C375.447715,337.188679 375,336.740964 375,336.188679 C375,335.636394 375.447715,335.188679 376,335.188679 Z M332.678587,295 L320.07069,295 C319.518405,295 319.07069,294.552285 319.07069,294 C319.07069,293.447715 319.518405,293 320.07069,293 L332.678587,293 C333.230872,293 333.678587,293.447715 333.678587,294 C333.678587,294.552285 333.230872,295 332.678587,295 Z M119.5,25 C120.328427,25 121,24.3284271 121,23.5 C121,22.6715729 120.328427,22 119.5,22 C118.671573,22 118,22.6715729 118,23.5 C118,24.3284271 118.671573,25 119.5,25 Z M370,56 C365.581722,56 362,52.418278 362,48 C362,43.581722 365.581722,40 370,40 C374.418278,40 378,43.581722 378,48 C378,52.418278 374.418278,56 370,56 Z M370,54 C373.313708,54 376,51.313708 376,48 C376,44.6862915 373.313708,42 370,42 C366.686292,42 364,44.6862915 364,48 C364,51.313708 366.686292,54 370,54 Z M315,45 C314.447715,45 314,45.4477153 314,46 L314,51 C314,51.552285 314.447715,52 315,52 L338,52 C338.552285,52 339,51.552285 339,51 L339,46 C339,45.4477153 338.552285,45 338,45 L315,45 Z M315,43 L338,43 C339.656854,43 341,44.3431458 341,46 L341,51 C341,52.656854 339.656854,54 338,54 L315,54 C313.343146,54 312,52.656854 312,51 L312,46 C312,44.3431458 313.343146,43 315,43 Z M255,45 C254.447715,45 254,45.4477153 254,46 L254,51 C254,51.552285 254.447715,52 255,52 L278,52 C278.552285,52 279,51.552285 279,51 L279,46 C279,45.4477153 278.552285,45 278,45 L255,45 Z M255,43 L278,43 C279.656854,43 281,44.3431458 281,46 L281,51 C281,52.656854 279.656854,54 278,54 L255,54 C253.343146,54 252,52.656854 252,51 L252,46 C252,44.3431458 253.343146,43 255,43 Z M308,76 L279,76 C278.447715,76 278,75.552285 278,75 C278,74.447715 278.447715,74 279,74 L309,74 C309.552285,74 310,74.447715 310,75 L310,100 C310,100.552285 309.552285,101 309,101 C308.447715,101 308,100.552285 308,100 L308,76 Z M16,76 L16,100 C16,100.552285 15.5522847,101 15,101 C14.4477153,101 14,100.552285 14,100 L14,75 C14,74.447715 14.4477153,74 15,74 L45,74 C45.5522847,74 46,74.447715 46,75 C46,75.552285 45.5522847,76 45,76 L16,76 Z M16,265 L45,265 C45.5522847,265 46,265.447715 46,266 C46,266.552285 45.5522847,267 45,267 L15,267 C14.4477153,267 14,266.552285 14,266 L14,241 C14,240.447715 14.4477153,240 15,240 C15.5522847,240 16,240.447715 16,241 L16,265 Z M196,45 C195.447715,45 195,45.4477153 195,46 L195,51 C195,51.552285 195.447715,52 196,52 L219,52 C219.552285,52 220,51.552285 220,51 L220,46 C220,45.4477153 219.552285,45 219,45 L196,45 Z M196,43 L219,43 C220.656854,43 222,44.3431458 222,46 L222,51 C222,52.656854 220.656854,54 219,54 L196,54 C194.343146,54 193,52.656854 193,51 L193,46 C193,44.3431458 194.343146,43 196,43 Z M29.0721391,302.691861 C29.6024387,302.537586 30.1573961,302.842414 30.3116711,303.372714 C30.4659461,303.903013 30.1611179,304.457971 29.6308183,304.612246 C24.9178312,305.98335 21.6110191,310.33902 21.6110191,315.347133 C21.6110191,320.299458 24.8449409,324.618497 29.4848605,326.038458 C30.0129686,326.200076 30.3100678,326.759209 30.1484502,327.287317 C29.9868325,327.815425 29.4276993,328.112524 28.8995912,327.950907 C23.4234879,326.275047 19.6110191,321.183334 19.6110191,315.347133 C19.6110191,309.445092 23.5094418,304.310163 29.0721391,302.691861 Z M36.7383832,327.893646 C36.2127115,328.063021 35.6492652,327.774185 35.4798905,327.248514 C35.3105159,326.722842 35.5993516,326.159396 36.1250233,325.990021 C40.6871801,324.520066 43.8446562,320.24034 43.8446562,315.347133 C43.8446562,310.551436 40.8114601,306.337644 36.3782537,304.789251 C35.8568568,304.607142 35.5818097,304.036837 35.7639188,303.51544 C35.946028,302.994044 36.5163323,302.718996 37.0377291,302.901106 C42.2688483,304.728187 45.8446562,309.695789 45.8446562,315.347133 C45.8446562,321.113562 42.1223256,326.158907 36.7383832,327.893646 Z M36.0640544,321.480547 C35.5808134,321.747935 34.972308,321.572952 34.7049196,321.089711 C34.4375313,320.60647 34.6125144,319.997964 35.0957554,319.730576 C36.6535629,318.868605 37.6309031,317.269711 37.6309031,315.508759 C37.6309031,313.817074 36.7296471,312.272806 35.2693187,311.387515 C34.7970409,311.101207 34.6462823,310.486252 34.93259,310.013974 C35.2188977,309.541696 35.8338528,309.390938 36.3061306,309.677246 C38.3547416,310.919169 39.6309031,313.105825 39.6309031,315.508759 C39.6309031,318.009818 38.248074,320.272078 36.0640544,321.480547 Z M29.5766723,309.481253 C30.0652248,309.223698 30.6700649,309.410958 30.9276205,309.89951 C31.1851761,310.388063 30.9979161,310.992903 30.5093636,311.250459 C28.8594939,312.120238 27.8247722,313.750416 27.8247722,315.542762 C27.8247722,317.304382 28.8239664,318.910356 30.4288079,319.791716 C30.9128944,320.05757 31.0898063,320.665518 30.8239517,321.149604 C30.5580971,321.633691 29.9501497,321.810603 29.4660631,321.544748 C27.2358859,320.319961 25.8247722,318.051922 25.8247722,315.542762 C25.8247722,312.990178 27.2852366,310.689255 29.5766723,309.481253 Z M85.072139,302.691861 C85.602439,302.537586 86.157396,302.842414 86.311671,303.372714 C86.465946,303.903013 86.161118,304.457971 85.630818,304.612246 C80.917831,305.98335 77.611019,310.33902 77.611019,315.347133 C77.611019,320.299458 80.844941,324.618497 85.48486,326.038458 C86.012969,326.200076 86.310068,326.759209 86.14845,327.287317 C85.986833,327.815425 85.427699,328.112524 84.899591,327.950907 C79.423488,326.275047 75.611019,321.183334 75.611019,315.347133 C75.611019,309.445092 79.509442,304.310163 85.072139,302.691861 Z M92.738383,327.893646 C92.212712,328.063021 91.649265,327.774185 91.479891,327.248514 C91.310516,326.722842 91.599352,326.159396 92.125023,325.990021 C96.68718,324.520066 99.844656,320.24034 99.844656,315.347133 C99.844656,310.551436 96.81146,306.337644 92.378254,304.789251 C91.856857,304.607142 91.58181,304.036837 91.763919,303.51544 C91.946028,302.994044 92.516332,302.718996 93.037729,302.901106 C98.268848,304.728187 101.844656,309.695789 101.844656,315.347133 C101.844656,321.113562 98.122326,326.158907 92.738383,327.893646 Z M92.064054,321.480547 C91.580813,321.747935 90.972308,321.572952 90.70492,321.089711 C90.437531,320.60647 90.612514,319.997964 91.095755,319.730576 C92.653563,318.868605 93.630903,317.269711 93.630903,315.508759 C93.630903,313.817074 92.729647,312.272806 91.269319,311.387515 C90.797041,311.101207 90.646282,310.486252 90.93259,310.013974 C91.218898,309.541696 91.833853,309.390938 92.306131,309.677246 C94.354742,310.919169 95.630903,313.105825 95.630903,315.508759 C95.630903,318.009818 94.248074,320.272078 92.064054,321.480547 Z M85.576672,309.481253 C86.065225,309.223698 86.670065,309.410958 86.927621,309.89951 C87.185176,310.388063 86.997916,310.992903 86.509364,311.250459 C84.859494,312.120238 83.824772,313.750416 83.824772,315.542762 C83.824772,317.304382 84.823966,318.910356 86.428808,319.791716 C86.912894,320.05757 87.089806,320.665518 86.823952,321.149604 C86.558097,321.633691 85.95015,321.810603 85.466063,321.544748 C83.235886,320.319961 81.824772,318.051922 81.824772,315.542762 C81.824772,312.990178 83.285237,310.689255 85.576672,309.481253 Z M198.072139,302.691861 C198.602439,302.537586 199.157396,302.842414 199.311671,303.372714 C199.465946,303.903013 199.161118,304.457971 198.630818,304.612246 C193.917831,305.98335 190.611019,310.33902 190.611019,315.347133 C190.611019,320.299458 193.844941,324.618497 198.48486,326.038458 C199.012969,326.200076 199.310068,326.759209 199.14845,327.287317 C198.986833,327.815425 198.427699,328.112524 197.899591,327.950907 C192.423488,326.275047 188.611019,321.183334 188.611019,315.347133 C188.611019,309.445092 192.509442,304.310163 198.072139,302.691861 Z M205.738383,327.893646 C205.212712,328.063021 204.649265,327.774185 204.479891,327.248514 C204.310516,326.722842 204.599352,326.159396 205.125023,325.990021 C209.68718,324.520066 212.844656,320.24034 212.844656,315.347133 C212.844656,310.551436 209.81146,306.337644 205.378254,304.789251 C204.856857,304.607142 204.58181,304.036837 204.763919,303.51544 C204.946028,302.994044 205.516332,302.718996 206.037729,302.901106 C211.268848,304.728187 214.844656,309.695789 214.844656,315.347133 C214.844656,321.113562 211.122326,326.158907 205.738383,327.893646 Z M205.064054,321.480547 C204.580813,321.747935 203.972308,321.572952 203.70492,321.089711 C203.437531,320.60647 203.612514,319.997964 204.095755,319.730576 C205.653563,318.868605 206.630903,317.269711 206.630903,315.508759 C206.630903,313.817074 205.729647,312.272806 204.269319,311.387515 C203.797041,311.101207 203.646282,310.486252 203.93259,310.013974 C204.218898,309.541696 204.833853,309.390938 205.306131,309.677246 C207.354742,310.919169 208.630903,313.105825 208.630903,315.508759 C208.630903,318.009818 207.248074,320.272078 205.064054,321.480547 Z M198.576672,309.481253 C199.065225,309.223698 199.670065,309.410958 199.927621,309.89951 C200.185176,310.388063 199.997916,310.992903 199.509364,311.250459 C197.859494,312.120238 196.824772,313.750416 196.824772,315.542762 C196.824772,317.304382 197.823966,318.910356 199.428808,319.791716 C199.912894,320.05757 200.089806,320.665518 199.823952,321.149604 C199.558097,321.633691 198.95015,321.810603 198.466063,321.544748 C196.235886,320.319961 194.824772,318.051922 194.824772,315.542762 C194.824772,312.990178 196.285237,310.689255 198.576672,309.481253 Z M142.072139,302.691861 C142.602439,302.537586 143.157396,302.842414 143.311671,303.372714 C143.465946,303.903013 143.161118,304.457971 142.630818,304.612246 C137.917831,305.98335 134.611019,310.33902 134.611019,315.347133 C134.611019,320.299458 137.844941,324.618497 142.48486,326.038458 C143.012969,326.200076 143.310068,326.759209 143.14845,327.287317 C142.986833,327.815425 142.427699,328.112524 141.899591,327.950907 C136.423488,326.275047 132.611019,321.183334 132.611019,315.347133 C132.611019,309.445092 136.509442,304.310163 142.072139,302.691861 Z M149.738383,327.893646 C149.212712,328.063021 148.649265,327.774185 148.479891,327.248514 C148.310516,326.722842 148.599352,326.159396 149.125023,325.990021 C153.68718,324.520066 156.844656,320.24034 156.844656,315.347133 C156.844656,310.551436 153.81146,306.337644 149.378254,304.789251 C148.856857,304.607142 148.58181,304.036837 148.763919,303.51544 C148.946028,302.994044 149.516332,302.718996 150.037729,302.901106 C155.268848,304.728187 158.844656,309.695789 158.844656,315.347133 C158.844656,321.113562 155.122326,326.158907 149.738383,327.893646 Z M149.064054,321.480547 C148.580813,321.747935 147.972308,321.572952 147.70492,321.089711 C147.437531,320.60647 147.612514,319.997964 148.095755,319.730576 C149.653563,318.868605 150.630903,317.269711 150.630903,315.508759 C150.630903,313.817074 149.729647,312.272806 148.269319,311.387515 C147.797041,311.101207 147.646282,310.486252 147.93259,310.013974 C148.218898,309.541696 148.833853,309.390938 149.306131,309.677246 C151.354742,310.919169 152.630903,313.105825 152.630903,315.508759 C152.630903,318.009818 151.248074,320.272078 149.064054,321.480547 Z M142.576672,309.481253 C143.065225,309.223698 143.670065,309.410958 143.927621,309.89951 C144.185176,310.388063 143.997916,310.992903 143.509364,311.250459 C141.859494,312.120238 140.824772,313.750416 140.824772,315.542762 C140.824772,317.304382 141.823966,318.910356 143.428808,319.791716 C143.912894,320.05757 144.089806,320.665518 143.823952,321.149604 C143.558097,321.633691 142.95015,321.810603 142.466063,321.544748 C140.235886,320.319961 138.824772,318.051922 138.824772,315.542762 C138.824772,312.990178 140.285237,310.689255 142.576672,309.481253 Z M254.072139,302.691861 C254.602439,302.537586 255.157396,302.842414 255.311671,303.372714 C255.465946,303.903013 255.161118,304.457971 254.630818,304.612246 C249.917831,305.98335 246.611019,310.33902 246.611019,315.347133 C246.611019,315.899418 246.163304,316.347133 245.611019,316.347133 C245.058734,316.347133 244.611019,315.899418 244.611019,315.347133 C244.611019,309.445092 248.509442,304.310163 254.072139,302.691861 Z M270.844656,315.347133 C270.844656,315.899418 270.396941,316.347133 269.844656,316.347133 C269.292371,316.347133 268.844656,315.899418 268.844656,315.347133 C268.844656,310.551436 265.81146,306.337644 261.378254,304.789251 C260.856857,304.607142 260.58181,304.036837 260.763919,303.51544 C260.946028,302.994044 261.516332,302.718996 262.037729,302.901106 C267.268848,304.728187 270.844656,309.695789 270.844656,315.347133 Z M261.064054,321.480547 C260.580813,321.747935 259.972308,321.572952 259.70492,321.089711 C259.437531,320.60647 259.612514,319.997964 260.095755,319.730576 C261.653563,318.868605 262.630903,317.269711 262.630903,315.508759 C262.630903,313.817074 261.729647,312.272806 260.269319,311.387515 C259.797041,311.101207 259.646282,310.486252 259.93259,310.013974 C260.218898,309.541696 260.833853,309.390938 261.306131,309.677246 C263.354742,310.919169 264.630903,313.105825 264.630903,315.508759 C264.630903,318.009818 263.248074,320.272078 261.064054,321.480547 Z M254.576672,309.481253 C255.065225,309.223698 255.670065,309.410958 255.927621,309.89951 C256.185176,310.388063 255.997916,310.992903 255.509364,311.250459 C253.859494,312.120238 252.824772,313.750416 252.824772,315.542762 C252.824772,317.304382 253.823966,318.910356 255.428808,319.791716 C255.912894,320.05757 256.089806,320.665518 255.823952,321.149604 C255.558097,321.633691 254.95015,321.810603 254.466063,321.544748 C252.235886,320.319961 250.824772,318.051922 250.824772,315.542762 C250.824772,312.990178 252.285237,310.689255 254.576672,309.481253 Z M379.072139,302.691861 C379.602439,302.537586 380.157396,302.842414 380.311671,303.372714 C380.465946,303.903013 380.161118,304.457971 379.630818,304.612246 C374.917831,305.98335 371.611019,310.33902 371.611019,315.347133 C371.611019,320.299458 374.844941,324.618497 379.48486,326.038458 C380.012969,326.200076 380.310068,326.759209 380.14845,327.287317 C379.986833,327.815425 379.427699,328.112524 378.899591,327.950907 C373.423488,326.275047 369.611019,321.183334 369.611019,315.347133 C369.611019,309.445092 373.509442,304.310163 379.072139,302.691861 Z M386.738383,327.893646 C386.212712,328.063021 385.649265,327.774185 385.479891,327.248514 C385.310516,326.722842 385.599352,326.159396 386.125023,325.990021 C390.68718,324.520066 393.844656,320.24034 393.844656,315.347133 C393.844656,310.551436 390.81146,306.337644 386.378254,304.789251 C385.856857,304.607142 385.58181,304.036837 385.763919,303.51544 C385.946028,302.994044 386.516332,302.718996 387.037729,302.901106 C392.268848,304.728187 395.844656,309.695789 395.844656,315.347133 C395.844656,321.113562 392.122326,326.158907 386.738383,327.893646 Z M386.064054,321.480547 C385.580813,321.747935 384.972308,321.572952 384.70492,321.089711 C384.437531,320.60647 384.612514,319.997964 385.095755,319.730576 C386.653563,318.868605 387.630903,317.269711 387.630903,315.508759 C387.630903,313.817074 386.729647,312.272806 385.269319,311.387515 C384.797041,311.101207 384.646282,310.486252 384.93259,310.013974 C385.218898,309.541696 385.833853,309.390938 386.306131,309.677246 C388.354742,310.919169 389.630903,313.105825 389.630903,315.508759 C389.630903,318.009818 388.248074,320.272078 386.064054,321.480547 Z M379.576672,309.481253 C380.065225,309.223698 380.670065,309.410958 380.927621,309.89951 C381.185176,310.388063 380.997916,310.992903 380.509364,311.250459 C378.859494,312.120238 377.824772,313.750416 377.824772,315.542762 C377.824772,317.304382 378.823966,318.910356 380.428808,319.791716 C380.912894,320.05757 381.089806,320.665518 380.823952,321.149604 C380.558097,321.633691 379.95015,321.810603 379.466063,321.544748 C377.235886,320.319961 375.824772,318.051922 375.824772,315.542762 C375.824772,312.990178 377.285237,310.689255 379.576672,309.481253 Z M120,16.8148148 C116.788566,16.8148148 114.185185,14.2114335 114.185185,11 C114.185185,7.7885665 116.788566,5.1851852 120,5.1851852 C123.211434,5.1851852 125.814815,7.7885665 125.814815,11 C125.814815,14.2114335 123.211434,16.8148148 120,16.8148148 Z M120,14.8148148 C122.106864,14.8148148 123.814815,13.106864 123.814815,11 C123.814815,8.893136 122.106864,7.1851852 120,7.1851852 C117.893136,7.1851852 116.185185,8.893136 116.185185,11 C116.185185,13.106864 117.893136,14.8148148 120,14.8148148 Z M18,44.5 C17.4477153,44.5 17,44.0522847 17,43.5 C17,42.9477153 17.4477153,42.5 18,42.5 L33.2182366,42.5 C33.7705213,42.5 34.2182366,42.9477153 34.2182366,43.5 C34.2182366,44.0522847 33.7705213,44.5 33.2182366,44.5 L18,44.5 Z M18,49.5 C17.4477153,49.5 17,49.052285 17,48.5 C17,47.9477153 17.4477153,47.5 18,47.5 L33.2182366,47.5 C33.7705213,47.5 34.2182366,47.9477153 34.2182366,48.5 C34.2182366,49.052285 33.7705213,49.5 33.2182366,49.5 L18,49.5 Z M18,54.5 C17.4477153,54.5 17,54.052285 17,53.5 C17,52.947715 17.4477153,52.5 18,52.5 L33.2182366,52.5 C33.7705213,52.5 34.2182366,52.947715 34.2182366,53.5 C34.2182366,54.052285 33.7705213,54.5 33.2182366,54.5 L18,54.5 Z M188.694554,283.999319 L188.693719,285.911 L192.820689,285.911 L192.820689,267.407815 L188.701807,267.407815 L188.700883,269.522467 L189.690963,269.522467 C190.243248,269.522467 190.690963,269.970182 190.690963,270.522467 C190.690963,271.074751 190.243248,271.522467 189.690963,271.522467 L188.700009,271.522467 L188.699046,273.723896 L189.690963,273.723896 C190.243248,273.723896 190.690963,274.171612 190.690963,274.723896 C190.690963,275.276181 190.243248,275.723896 189.690963,275.723896 L188.698172,275.723896 L188.697254,277.823393 L189.690963,277.823393 C190.243248,277.823393 190.690963,278.271108 190.690963,278.823393 C190.690963,279.375677 190.243248,279.823393 189.690963,279.823393 L188.69638,279.823393 L188.695429,281.999319 L189.690963,281.999319 C190.243248,281.999319 190.690963,282.447034 190.690963,282.999319 C190.690963,283.551603 190.243248,283.999319 189.690963,283.999319 L188.694554,283.999319 Z M187.702244,265.407815 L193.820689,265.407815 C194.372974,265.407815 194.820689,265.85553 194.820689,266.407815 L194.820689,286.911 C194.820689,287.463285 194.372974,287.911 193.820689,287.911 L187.693281,287.911 C187.140826,287.911 186.69304,287.463018 186.693282,286.910563 L186.702245,266.407378 C186.702486,265.855264 187.15013,265.407815 187.702244,265.407815 Z M181.790741,270.910267 L181.790741,283.406341 L182.500956,283.406341 C183.304587,283.406341 183.779945,284.306289 183.326921,284.970061 L182.685232,285.910267 L183.169837,285.910267 C183.722122,285.910267 184.169837,286.357982 184.169837,286.910267 C184.169837,287.462551 183.722122,287.910267 183.169837,287.910267 L178.407407,287.910267 C177.855123,287.910267 177.407407,287.462551 177.407407,286.910267 C177.407407,286.357982 177.855123,285.910267 178.407407,285.910267 L178.895883,285.910267 L178.253833,284.970427 C177.800401,284.30669 178.275715,283.406341 179.079548,283.406341 L179.790578,283.406341 L179.790578,270.910267 L179.079548,270.910267 C178.275715,270.910267 177.800401,270.009918 178.253833,269.34618 L179.109388,268.09381 L179.578831,267.407081 L178.410667,267.407081 C177.858382,267.407081 177.410667,266.959366 177.410667,266.407081 C177.410667,265.854797 177.858382,265.407081 178.410667,265.407081 L183.173911,265.407081 C183.726196,265.407081 184.173911,265.854797 184.173911,266.407081 C184.173911,266.959366 183.726196,267.407081 183.173911,267.407081 L182.002487,267.407081 L182.471759,268.093559 L183.326921,269.346546 C183.779945,270.010319 183.304587,270.910267 182.500956,270.910267 L181.790741,270.910267 Z M247.148075,271.106504 C247.148075,270.213541 248.22947,269.768312 248.858191,270.40242 L253.710117,275.295916 C254.096628,275.685739 254.096628,276.314261 253.710117,276.704084 L248.858191,281.59758 C248.22947,282.231688 247.148075,281.786459 247.148075,280.893496 L247.148075,278.442504 L243.442972,278.442504 L243.442972,282.148243 L245.893248,282.148243 C246.786187,282.148243 247.231427,283.229589 246.597368,283.858324 L241.704537,288.710081 C241.31473,289.096616 240.686199,289.096643 240.296358,288.710141 L235.402692,283.858385 C234.76855,283.229674 235.213772,282.148243 236.106752,282.148243 L238.557863,282.148243 L238.557863,278.442504 L234.851925,278.442504 L234.851925,280.893496 C234.851925,281.786459 233.77053,282.231688 233.141809,281.59758 L228.289883,276.704084 C227.903372,276.314261 227.903372,275.685739 228.289883,275.295916 L233.141809,270.40242 C233.77053,269.768312 234.851925,270.213541 234.851925,271.106504 L234.851925,273.557496 L238.557863,273.557496 L238.557863,269.851757 L236.106752,269.851757 C235.213772,269.851757 234.76855,268.770326 235.402692,268.141615 L240.296358,263.289859 C240.686199,262.903357 241.31473,262.903384 241.704537,263.289919 L246.597368,268.141676 C247.231427,268.770411 246.786187,269.851757 245.893248,269.851757 L243.442972,269.851757 L243.442972,273.557496 L247.148075,273.557496 L247.148075,271.106504 Z M249.148075,273.535357 L249.148075,274.557496 C249.148075,275.10978 248.700359,275.557496 248.148075,275.557496 L242.442972,275.557496 C241.890687,275.557496 241.442972,275.10978 241.442972,274.557496 L241.442972,268.851757 C241.442972,268.299472 241.890687,267.851757 242.442972,267.851757 L243.46457,267.851757 L241.000357,265.40823 L238.535724,267.851757 L239.557863,267.851757 C240.110148,267.851757 240.557863,268.299472 240.557863,268.851757 L240.557863,274.557496 C240.557863,275.10978 240.110148,275.557496 239.557863,275.557496 L233.851925,275.557496 C233.299641,275.557496 232.851925,275.10978 232.851925,274.557496 L232.851925,273.535357 L230.408219,276 L232.851925,278.464643 L232.851925,277.442504 C232.851925,276.89022 233.299641,276.442504 233.851925,276.442504 L239.557863,276.442504 C240.110148,276.442504 240.557863,276.89022 240.557863,277.442504 L240.557863,283.148243 C240.557863,283.700528 240.110148,284.148243 239.557863,284.148243 L238.535724,284.148243 L241.000357,286.59177 L243.46457,284.148243 L242.442972,284.148243 C241.890687,284.148243 241.442972,283.700528 241.442972,283.148243 L241.442972,277.442504 C241.442972,276.89022 241.890687,276.442504 242.442972,276.442504 L248.148075,276.442504 C248.700359,276.442504 249.148075,276.89022 249.148075,277.442504 L249.148075,278.464643 L251.591781,276 L249.148075,273.535357 Z M333.341911,284.381613 C332.346312,284.381613 331.539219,283.574521 331.539219,282.578922 C331.539219,281.583323 332.346312,280.776231 333.341911,280.776231 C334.337509,280.776231 335.144602,281.583323 335.144602,282.578922 C335.144602,283.574521 334.337509,284.381613 333.341911,284.381613 Z M326.131146,270.68116 C325.533787,270.68116 325.049531,270.196905 325.049531,269.599546 C325.049531,269.002186 325.533787,268.517931 326.131146,268.517931 C326.728505,268.517931 327.212761,269.002186 327.212761,269.599546 C327.212761,270.196905 326.728505,270.68116 326.131146,270.68116 Z M351.982704,224 C351.988452,223.999913 351.99422,223.999869 352.00001,223.999869 L375.00001,223.999869 C375.005801,223.999869 375.011572,223.999913 375.017322,224 L380,224 L380,222 L344,222 L344,224 L351.982704,224 Z M371.533906,226 L355.440064,226 L359.587775,228.634188 C360.584853,227.625215 361.969413,227 363.5,227 C365.018174,227 366.392681,227.615115 367.38789,228.609716 L371.533906,226 Z M360,293 C364.418278,293 368,289.418278 368,285 C368,280.581722 364.418278,277 360,277 C355.581722,277 352,280.581722 352,285 C352,289.418278 355.581722,293 360,293 Z M360,289.272727 C357.640238,289.272727 355.727273,287.359762 355.727273,285 C355.727273,282.640238 357.640238,280.727273 360,280.727273 C362.359762,280.727273 364.272727,282.640238 364.272727,285 C364.272727,287.359762 362.359762,289.272727 360,289.272727 Z M360,287.272727 C361.255193,287.272727 362.272727,286.255193 362.272727,285 C362.272727,283.744807 361.255193,282.727273 360,282.727273 C358.744807,282.727273 357.727273,283.744807 357.727273,285 C357.727273,286.255193 358.744807,287.272727 360,287.272727 Z M363.5,236 C365.432997,236 367,234.432997 367,232.5 C367,230.567003 365.432997,229 363.5,229 C361.567003,229 360,230.567003 360,232.5 C360,234.432997 361.567003,236 363.5,236 Z M363.5,235 C362.119288,235 361,233.880712 361,232.5 C361,231.119288 362.119288,230 363.5,230 C364.880712,230 366,231.119288 366,232.5 C366,233.880712 364.880712,235 363.5,235 Z M363.5,233 C363.776142,233 364,232.776142 364,232.5 C364,232.223858 363.776142,232 363.5,232 C363.223858,232 363,232.223858 363,232.5 C363,232.776142 363.223858,233 363.5,233 Z M352.5,264 C350.567003,264 349,262.432997 349,260.5 C349,258.567003 350.567003,257 352.5,257 C354.432997,257 356,258.567003 356,260.5 C356,262.432997 354.432997,264 352.5,264 Z M352.5,262 C353.328427,262 354,261.328427 354,260.5 C354,259.671573 353.328427,259 352.5,259 C351.671573,259 351,259.671573 351,260.5 C351,261.328427 351.671573,262 352.5,262 Z M367.969134,158.752494 C367.989288,158.831647 368,158.914573 368,159 L368,164.585786 L371,167.585786 L371,159 C371,158.82659 371.044139,158.663488 371.121796,158.521319 C371.162578,158.295761 371.2807,158.082993 371.471869,157.926306 L378.702402,152 L360.297967,152 L367.602975,157.986327 C367.842036,158.182232 367.966888,158.465835 367.969134,158.752494 Z M366,159.258486 L356.86616,151.773464 C356.139571,151.178037 356.560604,150 357.5,150 L381.5,150 C382.439354,150 382.860412,151.17795 382.133905,151.773411 L373,159.259763 L373,170 C373,170.890905 371.922858,171.337072 371.292893,170.707107 L366.292893,165.707107 C366.105357,165.51957 366,165.265216 366,165 L366,159.258486 Z M374,110.5 L363,110.5 L363,121.193684 L367.820327,116.680113 C368.205028,116.319894 368.803264,116.32007 369.187753,116.680515 L374,121.191827 L374,110.5 Z M362.683499,124.229952 C362.044681,124.828116 361,124.375151 361,123.5 L361,109.5 C361,108.947715 361.447715,108.5 362,108.5 L375,108.5 C375.552285,108.5 376,108.947715 376,109.5 L376,123.5 C376,124.375431 374.954743,124.828281 374.316073,124.22955 L368.503423,118.780395 L362.683499,124.229952 Z M375.654923,87.606099 C375.654923,87.053815 376.102638,86.606099 376.654923,86.606099 C377.207207,86.606099 377.654923,87.053815 377.654923,87.606099 L377.654923,93.358783 C377.654923,95.915342 375.60232,97.994562 373.065051,97.994562 L361.704952,97.994562 C359.167778,97.994562 357.116001,95.915442 357.116001,93.358783 L357.116001,81.853415 C357.116001,79.296757 359.167778,77.217637 361.704952,77.217637 L367.385001,77.217637 C367.937286,77.217637 368.385001,77.665352 368.385001,78.217637 C368.385001,78.769922 367.937286,79.217637 367.385001,79.217637 L361.704952,79.217637 C360.278318,79.217637 359.116001,80.395443 359.116001,81.853415 L359.116001,93.358783 C359.116001,94.816756 360.278318,95.994562 361.704952,95.994562 L373.065051,95.994562 C374.491941,95.994562 375.654923,94.8165 375.654923,93.358783 L375.654923,87.606099 Z M378.415566,78.05231 L378.900675,77.560999 L377.777326,76.423285 L377.293445,76.913353 L378.415566,78.05231 Z M375.177304,76.209985 L377.065741,74.2974 C377.457267,73.900867 378.097384,73.900867 378.48891,74.2974 L381.017573,76.858398 C381.402127,77.24787 381.402127,77.874128 381.017573,78.263599 L379.126373,80.178983 C378.734546,80.575821 378.093829,80.575471 377.702436,80.178205 L375.176537,77.614408 C374.792708,77.22482 374.79305,76.599154 375.177304,76.209985 Z M366.513806,89.627528 L373.652987,82.396222 L372.529383,81.257835 L365.429835,88.448999 L365.001199,90.092323 L366.513806,89.627528 Z M362.61342,91.322464 L363.562244,87.684819 C363.606568,87.514887 363.694862,87.359625 363.818244,87.234651 L371.817846,79.131819 C372.209416,78.735196 372.849664,78.735236 373.241184,79.131908 L375.769847,81.693839 C376.154264,82.083314 376.154225,82.709442 375.769759,83.098869 L367.760024,91.211963 C367.643819,91.329668 367.500232,91.416711 367.342125,91.465294 L363.874771,92.530744 C363.126266,92.760745 362.415786,92.080159 362.61342,91.322464 Z M361,147 C359.895431,147 359,146.104569 359,145 C359,143.895431 359.895431,143 361,143 C362.104569,143 363,143.895431 363,145 C363,146.104569 362.104569,147 361,147 Z M370,149 C368.895431,149 368,148.104569 368,147 C368,145.895431 368.895431,145 370,145 C371.104569,145 372,145.895431 372,147 C372,148.104569 371.104569,149 370,149 Z M368,174 C366.895431,174 366,173.104569 366,172 C366,170.895431 366.895431,170 368,170 C369.104569,170 370,170.895431 370,172 C370,173.104569 369.104569,174 368,174 Z M378,148 C376.895431,148 376,147.104569 376,146 C376,144.895431 376.895431,144 378,144 C379.104569,144 380,144.895431 380,146 C380,147.104569 379.104569,148 378,148 Z M357.345202,197.128984 C357.755001,197.641968 358,198.292373 358,199 C358,200.656854 356.656854,202 355,202 C353.343146,202 352,200.656854 352,199 C352,197.642375 352.901809,196.495378 354.139074,196.125362 L353.5643,186.968591 C352.113937,186.757574 351,185.508874 351,184 C351,182.343146 352.343146,181 354,181 C355.656854,181 357,182.343146 357,184 C357,185.092409 356.416118,186.048445 355.543409,186.573054 L356.100593,195.44962 L360.450844,189.582484 C360.165065,189.123109 360,188.580831 360,188 C360,186.343146 361.343146,185 363,185 C364.656854,185 366,186.343146 366,188 C366,189.241126 365.246321,190.306221 364.171671,190.762577 L365.016299,195.000043 C365.298948,195.001547 365.572346,195.042138 365.831363,195.116688 L367.909034,192.15125 C367.348331,191.606162 367,190.843759 367,190 C367,188.343146 368.343146,187 370,187 C371.656854,187 373,188.343146 373,190 C373,191.154244 372.348147,192.156239 371.39249,192.657937 L372.997515,200.4521 L378.042534,183.711455 C378.077365,183.595875 378.131235,183.49125 378.199677,183.399977 C377.471193,182.852638 377,181.981346 377,181 C377,179.343146 378.343146,178 380,178 C381.656854,178 383,179.343146 383,181 C383,182.656766 381.656997,183.999857 380.000264,184 C380.000227,184.095432 379.98642,184.192468 379.957466,184.288545 L374.499088,202.400819 C375.396293,202.919404 376,203.8892 376,205 C376,206.656854 374.656854,208 373,208 C371.343146,208 370,206.656854 370,205 C370,203.942866 370.546783,203.013439 371.372963,202.479106 L369.497161,193.37002 L367.458313,196.280046 C367.799672,196.767044 368,197.360128 368,198 C368,199.656854 366.656854,201 365,201 C363.343146,201 362,199.656854 362,198 C362,197.059327 362.432944,196.219773 363.110441,195.669731 L362.155642,190.87954 C362.107527,190.865455 362.059914,190.850196 362.012834,190.833798 L357.345202,197.128984 Z M362.986636,188.999913 C362.995925,188.999778 363.005195,188.999773 363.014445,188.999898 C363.56007,188.992172 364,188.547462 364,188 C364,187.447715 363.552285,187 363,187 C362.447715,187 362,187.447715 362,188 C362,188.547823 362.440511,188.992759 362.986636,188.999913 Z M354.523848,184.851976 C354.809548,184.675936 355,184.360209 355,184 C355,183.447715 354.552285,183 354,183 C353.447715,183 353,183.447715 353,184 C353,184.543018 353.432818,184.984947 353.972291,184.999624 C354.107328,184.916436 354.264171,184.86425 354.433511,184.85362 C354.463875,184.851714 354.494008,184.851184 354.523848,184.851976 Z M373,206 C373.552285,206 374,205.552285 374,205 C374,204.447715 373.552285,204 373,204 C372.447715,204 372,204.447715 372,205 C372,205.552285 372.447715,206 373,206 Z M365,199 C365.552285,199 366,198.552285 366,198 C366,197.447715 365.552285,197 365,197 C364.447715,197 364,197.447715 364,198 C364,198.552285 364.447715,199 365,199 Z M370,191 C370.552285,191 371,190.552285 371,190 C371,189.447715 370.552285,189 370,189 C369.447715,189 369,189.447715 369,190 C369,190.552285 369.447715,191 370,191 Z M380,182 C380.552285,182 381,181.552285 381,181 C381,180.447715 380.552285,180 380,180 C379.447715,180 379,180.447715 379,181 C379,181.552285 379.447715,182 380,182 Z M355,200 C355.552285,200 356,199.552285 356,199 C356,198.447715 355.552285,198 355,198 C354.447715,198 354,198.447715 354,199 C354,199.552285 354.447715,200 355,200 Z" id="Combined-Shape" fill="url(#linearGradient-1)" fill-rule="nonzero"></path>
                <g id="Group-140" transform="translate(21.000000, 81.000000)">
                    <polygon id="Fill-10" fill="url(#linearGradient-1)" opacity="0.75" points="151.167623 8.69985283 230.319226 20.4830133 234.445072 1.00356951 153.951268 0.489896905"></polygon>
                    <polygon id="Fill-11" fill="url(#linearGradient-1)" opacity="0.749441964" points="232.204106 96.1116674 246.479987 118.160453 281.200378 116.404182 281.200378 80.3267527 271.710636 77.1537237 271.48759 76.8582396 268.958433 76.099961 251.922489 52.3046889"></polygon>
                    <polygon id="Fill-12" fill="url(#linearGradient-1)" opacity="0.75" points="144.96942 144.24602 167.256263 176.606416 201.853831 176.606416 192.877978 173.992067 158.194925 128.081476"></polygon>
                    <path d="M90.8773003,46.3392377 L78.565593,71.554203 L83.033377,77.3758259 C83.2446314,77.3308184 83.4725895,77.304401 83.7152864,77.304401 C86.2188962,77.304401 87.0590007,79.8463466 86.2650774,81.585006 L98.461823,97.4755905 L114.664541,93.1568269 L98.5129171,60.9021007 L90.8773003,46.3392377 Z" id="Fill-13" fill="url(#linearGradient-1)" opacity="0.75"></path>
                    <polygon id="Fill-15" fill="url(#linearGradient-1)" opacity="0.75" points="1.17378815 81.7660145 1.16494495 111.80461 19.5568474 135.602818 19.5568474 84.5144075 8.80154425 70.1354882"></polygon>
                    <g id="Group-19" transform="translate(0.000000, 37.723138)">
                        <g id="Fill-17-Clipped">
                            <mask id="mask-3" fill="white">
                                <use xlink:href="#path-2"></use>
                            </mask>
                            <g id="path-2"></g>
                            <path d="M1.13645017,0.378747937 L1.1354676,0.681080958 L1.13645017,0.378747937 Z" id="Fill-17" fill="#B4ACA7" mask="url(#mask-3)"></path>
                        </g>
                    </g>
                    <g id="Group-22" transform="translate(0.000000, 37.723138)">
                        <g id="Fill-20-Clipped">
                            <mask id="mask-5" fill="white">
                                <use xlink:href="#path-4"></use>
                            </mask>
                            <g id="path-4"></g>
                            <polygon id="Fill-20" fill="#B4ACA7" mask="url(#mask-5)" points="1.16523972 3.89980244 1.16523972 0.355950657 1.13674495 0.37845441 1.13576237 0.680787431 1.12298885 3.86360076"></polygon>
                        </g>
                    </g>
                    <path d="M217.539713,146.158545 L216.522744,141.017905 L209.235943,104.194917 L230.670891,97.356712 L235.097406,104.191982 L244.800368,119.178503 L241.370187,124.71834 L229.060445,144.597959 L224.148535,152.531021 L220.096382,159.074721 L217.539713,146.158545 Z M155.973119,55.3218551 L127.307377,7.12566643 L156.878074,11.5285745 L171.265969,13.6713231 L175.145189,24.6277152 L177.029774,29.948385 L182.409391,45.1472237 L188.935677,63.5817106 L155.973119,55.3218551 Z M92.1304808,43.7727336 L104.4923,18.4540554 L124.752084,52.5169091 L133.695512,67.5523509 L133.688634,67.8360939 L133.204223,88.2147093 L116.600613,92.6401212 L92.1304808,43.7727336 Z M149.192935,8.40524936 L126.015876,4.95532627 L123.359967,0.489799063 L151.877339,0.489799063 L149.192935,8.40524936 Z M219.0971,40.0693009 L181.942863,37.9431855 L173.467141,13.9982146 L229.5085,22.3412361 L219.0971,40.0693009 Z M133.59637,21.5413745 L109.836642,23.5999786 L96.9255617,1.89168499 C98.6362307,1.51597017 100.309562,1.04241295 101.945555,0.489603378 L121.075374,0.489603378 L133.59637,21.5413745 Z M153.972491,94.6651653 L135.168889,88.2770349 L135.673934,67.0383848 L123.302289,46.2390471 L134.684477,46.2390471 C135.227843,46.2390471 135.667056,45.8016915 135.667056,45.2606231 C135.667056,44.7195546 135.227843,44.282199 134.684477,44.282199 L122.138916,44.282199 L116.478282,34.7650686 L130.42893,34.7650686 C130.972296,34.7650686 131.411509,34.3277131 131.411509,33.7866446 C131.411509,33.2465546 130.972296,32.8082206 130.42893,32.8082206 L115.313927,32.8082206 L110.948331,25.4671052 L134.708059,23.4094795 L154.350784,56.4352037 L153.972491,94.6651653 Z M259.992111,33.2824627 L241.412536,33.6640481 L232.142891,21.3564524 L236.394508,1.27723471 L236.91724,1.35061651 L253.203477,3.63132289 L255.742459,14.7198023 L256.353623,17.3908998 L258.550668,26.9863042 L259.992111,33.2824627 Z M229.568634,95.6531779 L208.223101,102.463009 L197.974808,96.4026507 L213.857206,91.0242539 C214.370111,90.8500944 214.645233,90.2943496 214.470334,89.7826338 C214.296418,89.2728749 213.745192,88.9950025 213.223443,89.1720972 L195.752216,95.0886273 L185.825226,89.2180832 L201.783282,83.8142473 C202.296188,83.6410663 202.57131,83.0853214 202.396411,82.5736057 C202.222495,82.0618899 201.669303,81.7849959 201.149519,81.9630691 L183.604599,87.9040597 L156.165115,71.6788542 L156.305624,57.4241947 L163.327129,59.1834011 L176.188098,62.4053514 L181.233638,63.6694752 L191.494704,66.2397951 L214.209951,71.9322661 L229.568634,95.6531779 Z M215.652278,70.5476004 L215.442006,70.223742 L191.222431,64.1545779 L182.6514,39.9434756 L195.973198,40.7056679 L204.89894,41.2164052 L208.792898,41.4394859 L215.61101,41.8288987 L219.166961,42.0324109 L242.277205,68.949834 L230.933337,94.1491445 L215.652278,70.5476004 Z M205.723815,103.260718 L192.079731,107.612748 L155.930672,95.3315699 L156.142909,73.9402857 L194.82309,96.8138823 C194.962616,96.9772791 195.149306,97.0849058 195.357613,97.1299133 L205.723815,103.260718 Z M77.2305638,69.8156414 L61.4700063,49.2843918 L74.2769331,1.37879512 C78.229846,2.43744991 82.378292,3.01178481 86.6613512,3.01178481 C89.4646474,3.01178481 92.2070237,2.75543772 94.8786544,2.29068631 L103.291491,16.4357623 L100.538306,22.0773552 L93.320285,36.8593852 L85.0626962,53.7743796 L76.6960411,33.4163111 C76.4896997,32.915358 75.9139087,32.6766226 75.4137763,32.8811132 C74.9126613,33.0856038 74.6719296,33.6570034 74.8763059,34.1579565 L83.9091491,56.1372736 L77.2305638,69.8156414 Z M85.4471791,167.947559 L93.0641268,164.482959 L88.8645868,176.606611 L66.4087401,176.606611 L85.4442314,167.948537 C85.4452139,167.948537 85.4461965,167.947559 85.4471791,167.947559 Z M149.854997,154.799986 L136.819129,169.687686 L140.991157,176.606122 L119.110118,176.606122 L102.749206,145.173272 L143.224557,145.173272 L149.854997,154.799986 Z M139.239514,169.901569 L151.002943,156.466829 L164.874002,176.606709 L143.281842,176.606709 L139.239514,169.901569 Z M163.429808,118.584991 L143.809683,142.563228 L134.209892,128.6246 L135.11976,90.3271268 L175.364206,104.001581 L169.806742,110.790865 L163.429808,118.584991 Z M132.229014,129.20911 L141.876951,143.216228 L103.373634,143.216228 L132.648575,111.566168 L132.229014,129.20911 Z M218.327446,160.262527 L201.502756,154.760849 L174.019056,145.773046 L159.472965,126.519618 L177.347049,104.675324 L182.035913,106.268198 L173.66238,120.52775 C173.389223,120.993479 173.546436,121.593253 174.014143,121.866234 C174.171355,121.957227 174.340359,122.000278 174.509362,122.000278 C174.847369,122.000278 175.175551,121.827097 175.359293,121.514979 L183.934254,106.913958 L189.634192,108.84928 L180.859767,123.789815 C180.58661,124.255545 180.743822,124.855319 181.212512,125.128299 C181.368742,125.219293 181.538728,125.262343 181.706749,125.262343 C182.044756,125.262343 182.372937,125.089162 182.556679,124.777045 L191.531551,109.494062 L191.752631,109.569401 L192.06116,109.67507 L207.352045,104.796648 L209.117739,113.721832 L212.519425,130.909807 L213.317279,134.945806 L215.122275,144.066675 L215.786498,147.42169 L218.327446,160.262527 Z M176.085222,148.509013 L218.871598,162.500477 L224.472295,176.606416 L208.854211,176.606416 L194.05658,172.296458 L176.085222,148.509013 Z M220.842454,40.9741474 L225.49398,33.0528266 L229.515673,26.2048369 L231.190969,23.3527309 L231.616426,23.9172816 L246.002356,43.0200321 L250.976168,49.6234157 L243.165652,66.9747872 L220.842454,40.9741474 Z M266.435467,148.981103 L266.700763,148.615172 L281.19969,128.623034 L281.19969,163.114438 L274.144777,160.887545 L266.435467,148.981103 Z M265.291647,147.214362 L247.708407,120.057225 L281.199592,118.364552 L281.199592,125.280053 L267.648853,143.964038 L265.439034,147.01085 L265.291647,147.214362 Z M245.979757,121.000426 L272.174314,161.458259 L250.716767,176.60622 L228.872084,176.60622 L239.988976,161.91127 C240.315192,161.479785 240.228725,160.866313 239.795408,160.541476 C239.363074,160.215661 238.745032,160.303719 238.419799,160.734225 L226.525687,176.455543 L224.372858,171.033117 L237.138516,154.160195 C237.464732,153.727731 237.378266,153.114259 236.944948,152.789422 C236.511631,152.463607 235.89359,152.551665 235.568356,152.98315 L223.524893,168.900152 L220.710788,161.810492 L245.979757,121.000426 Z M260.212798,35.2354949 L273.354784,34.9664283 L281.19969,41.2126872 L281.19969,78.2636479 L272.915571,75.4937295 L242.864394,35.5916412 L260.212798,35.2354949 Z M11.975469,0.489896905 L2.9052878,28.2693116 L1.16514146,28.6088247 L1.16514146,0.489896905 L11.975469,0.489896905 Z M8.10371707,67.6209385 L1.16474843,78.2006374 L0.982971429,78.4794882 L1.13527108,38.4042189 L1.13625366,38.1018859 L1.16474843,30.6032442 L3.36179373,30.1746945 L6.88040697,33.3966448 L20.2385603,45.6347724 L23.4958077,48.6199441 L33.9121213,58.1615351 L15.121292,65.0486617 L8.10371707,67.6209385 Z M16.7818495,39.8094315 L4.79046272,28.8227082 L14.0424209,0.489505535 L71.3807833,0.489505535 C71.7168251,0.603981145 72.047954,0.731176268 72.3879261,0.836846061 L71.3206155,4.8570925 L69.1179052,13.0700815 L67.165522,20.3701031 L49.5940725,15.3165431 L37.6360934,24.2427054 L26.9603791,15.6306172 C26.5378704,15.2911041 25.9198286,15.3576369 25.5778913,15.7754239 C25.235954,16.1951678 25.3017868,16.811575 25.7233129,17.1520665 L36.0138564,25.4530159 L27.874177,31.529029 L16.983278,22.7447382 C16.5588042,22.4052251 15.9427275,22.4707795 15.6007902,22.8885665 C15.258853,23.3092889 15.3246857,23.925696 15.7452293,24.2652091 L26.2519401,32.740318 L16.7818495,39.8094315 Z M44.4667819,89.2513496 L31.1892,96.7891282 L10.3221826,68.8932811 L60.0544056,50.6642632 L71.2862592,65.295616 L75.4832748,71.2923739 L64.2539456,78.0180634 L59.5699944,80.6764415 L44.4667819,89.2513496 Z M65.4434551,131.37808 L31.5955944,151.179426 L21.5222007,138.145839 L21.5222007,87.1405954 L42.0227164,114.546252 L50.9887443,112.155962 L65.4434551,131.37808 Z M30.4103101,152.856542 L32.3528676,165.810876 L23.8889373,176.605829 L3.0838223,176.605829 L1.16484669,173.970933 L1.16484669,159.637021 L7.44843554,168.188447 C7.64003833,168.450664 7.93874216,168.588622 8.24137631,168.588622 C8.44378746,168.588622 8.64619861,168.52796 8.82109756,168.399786 C9.25932753,168.081798 9.35365505,167.469305 9.03333449,167.03195 L1.16484669,156.323099 L1.16484669,154.091313 L5.14920209,151.131581 L13.8371603,162.953878 C14.0287631,163.216096 14.3274669,163.354054 14.630101,163.354054 C14.8325122,163.354054 15.0349233,163.293391 15.2098223,163.165218 C15.6480523,162.846252 15.7423798,162.234737 15.4220592,161.798359 L6.72525784,149.961386 L12.8801289,145.388232 L21.554331,157.194874 C21.7469164,157.456114 22.0446376,157.59505 22.3482544,157.59505 C22.5496829,157.59505 22.7520941,157.533409 22.9279756,157.405236 C23.365223,157.087248 23.4605331,156.474754 23.1402125,156.038377 L14.4561847,144.219015 L20.3506725,139.839589 L30.4103101,152.856542 Z M80.4921345,77.2885505 L70.5867617,84.6521696 C70.152462,84.976028 70.0630474,85.5885214 70.3872983,86.0229417 C70.5808662,86.2792888 70.8766223,86.4152897 71.1763087,86.4152897 C71.380685,86.4152897 71.5870265,86.3526706 71.762908,86.2215618 L80.9981624,79.3559604 C80.5304551,81.0505908 81.4275491,83.1757278 83.7149916,83.1757278 C84.1433958,83.1757278 84.5148105,83.0925618 84.8459394,82.9604745 L87.3072983,86.1657916 L76.0184551,92.9540974 C75.554678,93.2339267 75.4043436,93.834679 75.6843784,94.2974736 C75.8700857,94.6017635 76.1943366,94.7700524 76.5274307,94.7700524 C76.7003645,94.7700524 76.8752634,94.7250449 77.0334585,94.6301378 L88.5070265,87.7302916 L96.4079394,98.0223338 L42.8023923,112.312217 L32.3733052,98.3706528 L77.1562808,72.9443479 L80.4921345,77.2885505 Z M78.8272537,145.911102 L78.3821456,145.319155 L53.0345707,111.610491 L133.154996,90.2534514 L132.719714,108.600859 L111.754438,131.267029 L100.538011,143.497292 L78.8272537,145.911102 Z M64.320761,31.0140845 L59.5778551,48.7548687 L43.979423,54.4718003 L35.9841826,57.4021802 L18.2515902,41.1564278 L37.7292418,26.6180254 C37.7616669,26.6209606 37.7931094,26.6336802 37.8255345,26.6336802 C38.1124474,26.6336802 38.39543,26.5094203 38.5899805,26.2716633 C38.6970815,26.1405544 38.7511233,25.9888987 38.7796181,25.8333293 L49.9888725,17.4658471 L66.6602801,22.2620816 L64.320761,31.0140845 Z M247.609756,0.489212008 L281.017422,0.489212008 L281.017422,32.7772046 L262.348432,32.7772046 L255.465972,4.40290807 L255.465972,2.49370929 L247.609756,0.489212008 Z M274.139373,162.79371 L281.017422,165.461383 L281.017422,176.605829 L254.487805,176.605829 L274.139373,162.79371 Z" id="Shape" fill="url(#linearGradient-6)" fill-rule="nonzero" opacity="0.351911272"></path>
                    <polygon id="Fill-67" fill="#EBE4DE" points="90.8773003 46.3392377 98.5129171 60.9021007 91.0463038 45.9928756"></polygon>
                    <path d="M64.8494864,160.32182 C64.4584202,159.948062 64.4446641,159.327741 64.8209916,158.938328 C65.1973192,158.548915 65.8183087,158.536196 66.2103575,158.909954 L77.3017024,169.501394 L83.3416118,166.753979 L73.0962669,156.968761 C72.7042181,156.595003 72.6914446,155.97566 73.0667895,155.585269 C73.4421345,155.196835 74.0641066,155.184115 74.4561554,155.556895 L85.2645178,165.880247 L93.9485456,161.931327 L99.6917164,145.354868 L77.9344829,147.989763 L66.6289359,132.954322 L32.4145735,152.969942 L35.9577512,176.606709 L61.6787059,176.606709 L75.3778139,170.376105 L64.8494864,160.32182 Z" id="Fill-100" fill="url(#linearGradient-1)" opacity="0.75"></path>
                    <g id="Group-19" transform="translate(0.000000, 37.723138)">
                        <g id="Fill-17-Clipped">
                            <mask id="mask-8" fill="white">
                                <use xlink:href="#path-7"></use>
                            </mask>
                            <g id="path-7"></g>
                            <path d="M1.13645017,0.378747937 L1.1354676,0.681080958 L1.13645017,0.378747937 Z" id="Fill-17" fill="#B4ACA7" mask="url(#mask-8)"></path>
                        </g>
                    </g>
                    <g id="Group-22" transform="translate(0.000000, 37.723138)">
                        <g id="Fill-20-Clipped">
                            <mask id="mask-10" fill="white">
                                <use xlink:href="#path-9"></use>
                            </mask>
                            <g id="path-9"></g>
                            <polygon id="Fill-20" fill="#B4ACA7" mask="url(#mask-10)" points="1.16523972 3.89980244 1.16523972 0.355950657 1.13674495 0.37845441 1.13576237 0.680787431 1.12298885 3.86360076"></polygon>
                        </g>
                    </g>
                    <path d="M26.3821317,176.60622 L32.7521875,168.480408 L33.9705847,176.60622 L26.3821317,176.60622 Z M100.538011,22.0773552 L93.3199902,36.8593852 L86.6610564,24.6271282 L89.4171889,16.3907548 L100.538011,22.0773552 Z M116.669983,62.5787281 L124.752673,52.5166156 L133.695119,67.5520574 L133.688241,67.8358004 L125.409036,72.3257882 L116.669983,62.5787281 Z M101.132962,148.18036 L108.109269,159.722829 L115.119966,173.191814 L103.557966,176.572269 L91.9890878,173.58514 L100.791025,148.18036 L101.132962,148.18036 Z M175.144894,24.6276174 L163.327424,24.6276174 L156.877779,11.5284767 L171.266657,13.6712253 L175.144894,24.6276174 Z M169.344439,43.7785064 L163.327129,29.9484829 L177.029185,29.9484829 L182.409784,45.1463431 L169.344439,43.7785064 Z M163.327129,70.1261932 L163.327129,59.1825205 L176.188098,62.4044708 L176.188098,72.3256904 L163.327129,70.1261932 Z M181.233245,73.3529377 L181.233245,63.6694752 L191.494311,66.2397951 L190.787837,76.1003524 L181.233245,73.3529377 Z M209.117739,113.721539 L212.519425,130.909513 L198.736798,129.604296 L194.326003,118.312304 L209.117739,113.721539 Z M215.12257,144.066968 L202.887504,142.53867 L200.206047,133.367901 L213.317574,134.946099 L215.12257,144.066968 Z M203.932378,147.42169 L215.786203,147.42169 L218.327151,160.262527 L201.502461,154.760849 L203.932378,147.42169 Z M271.379998,154.567806 L266.699977,148.615074 L281.199886,128.622936 L281.199886,150.120869 L271.379998,154.567806 Z M204.898645,41.2167966 L206.923739,52.6858829 L192.978987,51.3816437 L189.143983,41.0798172 L195.972903,40.7060593 L204.898645,41.2167966 Z M215.61101,52.6855894 L210.358146,52.6855894 L208.792898,41.4395837 L215.61101,41.8289965 L215.61101,52.6855894 Z M229.51587,26.2051304 L231.616622,23.9175751 L246.002553,43.0203256 L239.254204,49.4974926 L225.494176,33.0531201 L229.51587,26.2051304 Z M255.742263,14.7200958 L245.5205,17.0761408 L235.520799,9.57945602 L236.917043,1.35091004 L253.20328,3.63161642 L255.742263,14.7200958 Z M1.16523972,123.395902 L4.58264739,119.43622 L19.1513373,138.288494 L12.5877136,143.163981 C12.5582362,143.181592 12.523846,143.186484 12.4943686,143.207031 C12.4629261,143.229535 12.4462223,143.26378 12.4187101,143.290197 L5.81185296,148.198951 L1.16523972,142.136635 L1.16523972,123.395902 Z M7.04911568,55.4785007 L23.4955129,48.6197484 L33.9118265,58.1613394 L15.1209972,65.048466 L7.04911568,55.4785007 Z M20.2381672,45.6350659 L8.74887805,48.2044074 L1.16533798,41.622549 L1.16533798,38.0786972 L6.88001394,33.3969383 L20.2381672,45.6350659 Z M59.5777568,48.7546731 L43.9793247,54.4716046 C38.9947045,28.9680042 59.5630181,30.3603015 64.3206627,31.0138888 L59.5777568,48.7546731 Z M70.974612,5.72488553 L69.1173157,13.0698859 L58.9888976,10.4976091 L61.1269882,2.03326295 L70.974612,5.72488553 Z M111.754242,131.267225 L100.655036,143.267596 L78.8270571,145.911297 L78.3819491,145.318372 L78.3819491,131.6674 L93.896862,123.862512 L111.754242,131.267225 Z M148.12782,113.429088 L149.861089,106.146678 L169.806447,110.791256 L163.429514,118.585382 L158.224796,123.862023 L148.12782,113.429088 Z M270.559643,21.5871648 L265.111246,20.6302661 L261.21827,4.8570925 L263.160828,5.02635986 L267.709183,5.66429232 L270.559643,21.5871648 Z" id="Combined-Shape" fill="url(#linearGradient-1)" fill-rule="nonzero" opacity="0.453520275"></path>
                    <path d="M125.623197,71.0955224 L132.456554,67.3896484 L124.631809,54.2334606 L117.956085,62.5440463 L125.623197,71.0955224 Z M133.232558,67.8248476 L133.572578,67.624325 L133.530893,67.5481101 L132.712827,67.5284472 L132.706024,67.8090957 L133.232558,67.8248476 Z M115.902675,61.9675659 L123.985365,51.9054533 C124.414587,51.3711155 125.247947,51.429288 125.598107,52.0180304 L134.540553,67.0534723 C134.634433,67.2113191 134.681857,67.3922685 134.677411,67.5756677 L134.670533,67.8594106 C134.662056,68.2091314 134.466718,68.5277378 134.158198,68.6950544 L125.878993,73.1850422 C125.478246,73.4023755 124.979978,73.3163704 124.67607,72.9774078 L115.937018,63.2303478 C115.617662,62.8741561 115.603147,62.3404467 115.902675,61.9675659 Z M180.966117,44.0113861 L176.333732,30.9269069 L164.823665,30.9269069 L170.017899,42.8651955 L180.966117,44.0113861 Z M168.442842,44.1674726 L162.425531,30.3374492 C162.144438,29.6913908 162.620052,28.9700589 163.327129,28.9700589 L177.029185,28.9700589 C177.44591,28.9700589 177.817309,29.2318176 177.955863,29.6231731 L183.336463,44.8210333 C183.576477,45.4989712 183.024974,46.1945653 182.307045,46.119404 L169.2417,44.7515672 C168.889087,44.7146514 168.583794,44.4914329 168.442842,44.1674726 Z M175.205519,71.1648992 L175.205519,63.1672274 L164.309707,60.4375913 L164.309707,69.3014853 L175.205519,71.1648992 Z M162.344551,70.1261932 L162.344551,59.1825205 C162.344551,58.5453837 162.946355,58.0782147 163.566861,58.2336648 L176.427829,61.4556151 C176.864547,61.5650224 177.170676,61.9560477 177.170676,62.4044708 L177.170676,72.3256904 C177.170676,72.9322551 176.622128,73.3926682 176.021778,73.2899956 L163.160809,71.0904984 C162.689225,71.0098476 162.344551,70.6026586 162.344551,70.1261932 Z M189.894138,74.8249682 L190.455592,66.9885107 L182.215823,64.9245105 L182.215823,72.6170755 L189.894138,74.8249682 Z M180.250666,73.3529377 L180.250666,63.6694752 C180.250666,63.0323495 180.852451,62.5651825 181.47295,62.7206129 L191.734016,65.2909328 C192.196201,65.4067067 192.508313,65.8360563 192.474398,66.3094224 L191.767924,76.1699796 C191.723442,76.7908316 191.115771,77.2130514 190.515236,77.040368 L180.960644,74.2929533 C180.540151,74.172041 180.250666,73.7887612 180.250666,73.3529377 Z M195.971677,41.6860272 L190.528472,41.9839427 L193.685671,50.4650088 L205.732902,51.5917747 L204.065624,42.1491686 L195.971677,41.6860272 Z M205.866379,41.0473659 L207.891473,52.5164522 C208.003768,53.1524296 207.477487,53.7204048 206.831854,53.6600194 L192.887101,52.3557802 C192.511264,52.3206285 192.188879,52.0741814 192.057671,51.7217226 L188.222668,41.4198962 C187.992664,40.8020452 188.429323,40.1390309 189.090058,40.1028678 L195.918978,39.7291098 L196.029273,39.7292467 L204.955015,40.239984 C205.410101,40.2660244 205.787443,40.6003137 205.866379,41.0473659 Z M63.0799085,31.8515862 C58.9083784,31.4331883 54.5207235,31.8760733 50.9646253,33.7941242 C45.4435367,36.772031 42.9788588,42.8891733 44.735923,53.1517127 L58.7595141,48.0119711 L63.0799085,31.8515862 Z M59.9171487,49.6728771 L44.3187166,55.3898086 C43.750664,55.5980038 43.1304789,55.2501677 43.0148426,54.6585197 C40.7219002,42.926776 43.4894829,35.6005131 50.0286636,32.0734784 C54.3521113,29.7415425 59.5861811,29.3757924 64.4549469,30.044645 C65.039925,30.1250071 65.4220848,30.6973615 65.2701711,31.2655929 L60.5272652,49.0063772 C60.4449721,49.3141937 60.21735,49.5628513 59.9171487,49.6728771 Z" id="Combined-Shape" fill="url(#linearGradient-11)" fill-rule="nonzero"></path>
                </g>
            </g>
        </g>
    </g>
</svg>