<?xml version="1.0" encoding="UTF-8"?>
<svg width="415px" height="340px" viewBox="0 0 415 340" version="1.1" xmlns="http://www.w3.org/2000/svg" xmlns:xlink="http://www.w3.org/1999/xlink">
    <!-- Generator: Sketch 52.6 (67491) - http://www.bohemiancoding.com/sketch -->
    <title>web_mapping</title>
    <desc>Created with Sketch.</desc>
    <defs>
        <linearGradient x1="-9.3302%" y1="54.834%" x2="100%" y2="54.834%" id="linearGradient-1">
            <stop stop-color="#23A74E" offset="0%"></stop>
            <stop stop-color="#F5FF00" offset="100%"></stop>
        </linearGradient>
        <linearGradient x1="-77.203%" y1="59.142%" x2="180.5%" y2="59.142%" id="linearGradient-2">
            <stop stop-color="#23A74E" offset="0%"></stop>
            <stop stop-color="#F5FF00" offset="100%"></stop>
        </linearGradient>
    </defs>
    <g id="Page-1" stroke="none" stroke-width="1" fill="none" fill-rule="evenodd">
        <g id="web_mapping" transform="translate(-2.000000, 0.000000)">
            <rect id="Rectangle-Copy-20" fill="#D8D8D8" fill-rule="nonzero" opacity="0" x="0" y="0" width="420" height="340"></rect>
            <g transform="translate(2.000000, 0.000000)">
                <path d="M79,191.5 C79,181.174293 91.378215,173 106.5,173 C121.621785,173 134,181.174293 134,191.5 C134,192.065475 133.962558,192.627895 133.8882,193.185982 C143.055969,194.203629 150,199.270021 150,205.5 C150,212.52933 141.199357,218 130.5,218 C122.124955,218 114.757929,214.626182 112.069694,209.622487 C110.251137,209.872737 108.387841,210 106.5,210 C103.036972,210 99.71783,209.571297 96.658293,208.786229 C111.006622,215.086426 125.834757,219.345042 141.143431,221.563691 L141.032841,222.326765 L145.37097,219.85359 L145.37097,217.633976 C145.37097,217.081691 145.818685,216.633976 146.37097,216.633976 C146.923254,216.633976 147.37097,217.081691 147.37097,217.633976 L147.37097,218.713387 L150.959008,216.66784 L151.770964,215.997095 C151.813764,216.048905 151.856568,216.10069 151.899378,216.152451 C152.344225,216.000934 152.848167,216.18091 153.089548,216.60431 C153.269543,216.920036 153.258688,217.292443 153.093498,217.588159 C161.652384,227.820949 170.411483,237.05539 179.37097,245.292058 L179.37097,243.021073 C179.37097,242.697019 179.525108,242.408966 179.764067,242.226231 C179.819663,241.964253 179.980109,241.721214 180.246668,241.569248 L192.23629,234.733945 C192.532454,234.565101 192.894231,234.558768 193.196123,234.717143 L202.814893,239.763238 C202.863262,239.788613 202.908372,239.816989 202.950214,239.847961 C203.344947,239.98175 203.629034,240.355332 203.629034,240.795267 L203.629034,259.313509 C203.629034,259.865793 203.181319,260.313509 202.629034,260.313509 C202.076749,260.313509 201.629034,259.865793 201.629034,259.313509 L201.629034,242.211083 L191.758066,247.838538 L191.758066,255.941864 C203.308914,265.198379 215.179765,272.86258 227.37097,278.935629 L227.37097,253.021073 C227.37097,252.697019 227.525108,252.408966 227.764067,252.226231 C227.819663,251.964253 227.980109,251.721214 228.246668,251.569248 L240.23629,244.733945 C240.532454,244.565101 240.894231,244.558768 241.196123,244.717143 L250.814893,249.763238 C250.863262,249.788613 250.908372,249.816989 250.950214,249.847961 C251.344947,249.98175 251.629034,250.355332 251.629034,250.795267 L251.629034,281.150423 C251.629034,281.702707 251.181319,282.150423 250.629034,282.150423 C250.076749,282.150423 249.629034,281.702707 249.629034,281.150423 L249.629034,252.211083 L239.758066,257.838538 L239.758066,284.514309 C251.912171,289.417347 264.37385,292.793652 277.143431,294.644316 L277.113493,294.850886 L282.37097,291.85359 L282.37097,289.633976 C282.37097,289.081691 282.818685,288.633976 283.37097,288.633976 C283.923254,288.633976 284.37097,289.081691 284.37097,289.633976 L284.37097,290.713387 L288.725539,288.23084 C289.20533,287.95731 289.816018,288.124518 290.089548,288.60431 C290.242808,288.873141 290.257702,289.183066 290.156771,289.451752 C289.654384,291.229561 290.089548,295.528946 289.654384,295.003491 L284.37097,298.015574 L284.37097,315.186715 C284.37097,315.739 283.923254,316.186715 283.37097,316.186715 C282.818685,316.186715 282.37097,315.739 282.37097,315.186715 L282.37097,299.155777 L277.726455,301.803622 C277.294737,302.049745 276.75704,301.939027 276.45435,301.564829 C246.364477,297.127022 218.13082,284.320408 191.758066,263.15913 L191.758066,264.959295 C191.758066,265.511579 191.310351,265.959295 190.758066,265.959295 C190.205782,265.959295 189.758066,265.511579 189.758066,264.959295 L189.758066,261.535401 C186.940979,259.221525 184.145278,256.81164 181.37097,254.305765 L181.37097,259.313509 C181.37097,259.865793 180.923254,260.313509 180.37097,260.313509 C179.818685,260.313509 179.37097,259.865793 179.37097,259.313509 L179.37097,252.479227 C170.032657,243.856872 160.938549,234.13887 152.088869,223.325892 L147.37097,226.015574 L147.37097,243.186715 C147.37097,243.739 146.923254,244.186715 146.37097,244.186715 C145.818685,244.186715 145.37097,243.739 145.37097,243.186715 L145.37097,227.155777 L140.726455,229.803622 C140.246664,230.077152 139.635976,229.909944 139.362446,229.430153 C139.12587,229.01518 139.21899,228.502291 139.55889,228.194311 C118.99508,224.932532 99.301659,218.011728 80.4803498,207.435716 C80.4932389,207.499798 80.500002,207.566097 80.500002,207.633976 L80.500002,218.671542 L91.073929,224.193351 C91.5958913,224.465925 91.7389713,225.086923 91.496382,225.548287 C91.498779,225.576532 91.500002,225.605111 91.500002,225.633976 L91.500002,265.633976 C91.500002,266.186261 91.0522867,266.633976 90.500002,266.633976 C89.9477172,266.633976 89.500002,266.186261 89.500002,265.633976 L89.500002,226.842793 L72.500002,236.306711 L72.500002,275.633976 C72.500002,276.186261 72.0522867,276.633976 71.500002,276.633976 C70.9477172,276.633976 70.500002,276.186261 70.500002,275.633976 L70.500002,235.783367 L43.500002,221.423752 L43.500002,259.633976 C43.500002,260.186261 43.0522867,260.633976 42.500002,260.633976 C41.9477172,260.633976 41.500002,260.186261 41.500002,259.633976 L41.500002,220.359433 C40.8368085,219.978363 40.8299461,219.014447 41.4997625,218.62748 L48.0302402,214.854683 C48.1786482,214.768945 48.3399058,214.725581 48.500002,214.72084 L48.500002,204.204461 C48.500002,203.792874 48.7486575,203.439364 49.1039409,203.285959 C49.1864779,203.119477 49.3182835,202.97228 49.4997625,202.867436 L60.2823748,196.638091 C60.5787499,196.466868 60.9421085,196.459124 61.2455097,196.617563 L70.6494468,201.528392 C54.9665541,191.483298 39.9095878,178.816198 25.4795938,163.529411 L25.4795938,163.899282 C25.4795938,164.451567 25.0318785,164.899282 24.4795938,164.899282 C23.927309,164.899282 23.4795938,164.451567 23.4795938,163.899282 L23.4795938,161.389547 C21.0672398,158.782924 18.6725516,156.102496 16.2955341,153.348275 L13.3709697,155.015574 L13.3709697,172.186715 C13.3709697,172.739 12.9232544,173.186715 12.3709697,173.186715 C11.8186849,173.186715 11.3709697,172.739 11.3709697,172.186715 L11.3709697,156.155777 L6.7264554,158.803622 C6.2466639,159.077152 5.6359763,158.909944 5.3624464,158.430153 C5.0889165,157.950361 5.2561246,157.339674 5.735916,157.066144 L11.3709697,153.85359 L11.3709697,151.155777 L6.7264554,153.803622 C6.2466639,154.077152 5.6359763,153.909944 5.3624464,153.430153 C5.0889165,152.950361 5.2561246,152.339674 5.735916,152.066144 L11.3709697,148.85359 L11.3709697,146.633976 C11.3709697,146.081691 11.8186849,145.633976 12.3709697,145.633976 C12.9232544,145.633976 13.3709697,146.081691 13.3709697,146.633976 L13.3709697,147.713387 L17.7255386,145.23084 C18.2053301,144.95731 18.8160177,145.124518 19.0895476,145.60431 C19.3630775,146.084101 19.1958694,146.694789 18.716078,146.968319 L17.3970698,147.720288 C19.4120652,150.041819 21.4395722,152.309871 23.4795938,154.524451 L23.4795938,132.30406 L2.3979611,121.092055 L2.3979611,151.164588 C2.3979611,151.716873 1.95024589,152.164588 1.39796114,152.164588 C0.84567639,152.164588 0.39796114,151.716873 0.39796114,151.164588 L0.39796114,120.015097 C-0.16194776,119.598149 -0.13375247,118.716047 0.49976248,118.350052 L5.6974896,115.347214 C5.7846378,115.296867 5.8762169,115.261131 5.9693897,115.239248 L5.9693897,107.047219 C5.9693897,106.662128 6.1870619,106.327877 6.5060794,106.160793 C6.5890336,106.020727 6.7092882,105.89752 6.8671094,105.806344 L15.4491886,100.848293 C15.7455637,100.677071 16.1089223,100.669327 16.4123235,100.827766 L31.0071178,108.449311 C31.2525813,108.577495 31.4142533,108.782734 31.491428,109.01219 C31.7088417,109.195626 31.8469407,109.470103 31.8469407,109.776833 L31.8469407,118.438174 L40.1533103,122.775842 C40.6554634,123.038071 40.8069468,123.622781 40.601717,124.077588 C40.6019338,124.086154 40.6020428,124.094746 40.6020428,124.103364 L40.6020428,155.940099 C40.6020428,156.492383 40.1543275,156.940099 39.6020428,156.940099 C39.049758,156.940099 38.6020428,156.492383 38.6020428,155.940099 L38.6020428,125.41267 L25.4795938,132.717951 L25.4795938,156.674187 C44.3642764,176.771481 64.3129446,192.323181 85.3280087,203.334631 C81.3801255,200.141991 79,196.027836 79,191.5 Z M13.3709697,152.713387 L17.1974152,150.531924 C16.6726403,149.93491 16.1487198,149.334326 15.6256537,148.730175 L13.3709697,150.015574 L13.3709697,152.713387 Z M18.0663985,152.338702 C19.8608571,154.412769 21.6652518,156.444364 23.4795938,158.433493 L23.4795938,157.464768 C21.828612,155.698347 20.1858708,153.897496 18.551372,152.062218 L18.0663985,152.338702 Z M147.37097,223.713387 L151.725539,221.23084 C151.995866,221.076726 152.307746,221.062524 152.577463,221.165313 L152.77646,221.003807 C161.411194,231.643033 170.275959,241.22428 179.37097,249.748193 L179.37097,247.999375 C169.824981,239.34901 160.508424,229.584447 151.421502,218.706359 L147.37097,221.015574 L147.37097,223.713387 Z M145.37097,224.85359 L145.37097,222.155777 L140.726455,224.803622 C140.246664,225.077152 139.635976,224.909944 139.362446,224.430153 C139.158098,224.071711 139.199737,223.640212 139.433928,223.330819 C97.902842,216.96042 59.9133554,195.700887 25.4795938,159.583541 L25.4795938,160.604658 C60.6560671,198.414342 99.538789,220.389105 142.143431,226.563691 L142.122905,226.705317 L145.37097,224.85359 Z M277.113493,299.850886 L282.37097,296.85359 L282.37097,294.155777 L277.726455,296.803622 C277.294738,297.049745 276.757041,296.939027 276.454351,296.564831 C263.92478,294.716984 251.692584,291.418163 239.758066,286.669366 L239.758066,289.482658 C251.884756,294.402832 264.34642,297.789676 277.143431,299.644316 L277.113493,299.850886 Z M181.37097,247.111138 C184.147548,249.609471 186.943245,252.012615 189.758066,254.320587 L189.758066,248.297184 L181.37097,243.897237 L181.37097,247.111138 Z M181.37097,249.792451 L181.37097,251.602163 C184.145398,254.145759 186.941095,256.591693 189.758066,258.939985 L189.758066,256.89903 C186.943093,254.623809 184.147393,252.254944 181.37097,249.792451 Z M191.758066,258.497225 L191.758066,260.587913 C206.511642,272.602336 221.844692,281.957515 237.758066,288.656015 L237.758066,285.858834 C234.945743,284.698334 232.150043,283.45687 229.37097,282.134455 L229.37097,282.920581 C229.37097,283.472866 228.923254,283.920581 228.37097,283.920581 C227.818685,283.920581 227.37097,283.472866 227.37097,282.920581 L227.37097,281.167375 C215.177952,275.177496 203.306871,267.620405 191.758066,258.497225 Z M229.37097,279.916269 C232.150114,281.257238 234.945811,282.515995 237.758066,283.692555 L237.758066,258.297184 L229.37097,253.897237 L229.37097,279.916269 Z M284.37097,295.713387 L288.364574,293.436627 C288.318274,293.380039 288.271972,293.323416 288.22567,293.266756 L289.733047,292.034936 C289.335599,291.572049 288.938126,291.10655 288.540631,290.638443 L284.37097,293.015574 L284.37097,295.713387 Z M218.306454,188.919068 L218.306454,149.455943 C218.27122,149.442309 218.236563,149.426601 218.202662,149.408816 L203.596776,141.746436 L203.596776,189.085589 C203.596776,189.637874 203.149061,190.085589 202.596776,190.085589 C202.044491,190.085589 201.596776,189.637874 201.596776,189.085589 L201.596776,141.343654 C201.596776,140.934741 201.842211,140.583153 202.193804,140.428167 C202.186062,140.082782 202.353309,139.733576 202.698281,139.536907 L221.985934,128.540984 C222.282098,128.37214 222.643875,128.365808 222.945767,128.524183 L238.419441,136.641813 C238.498766,136.683427 238.569324,136.733116 238.631083,136.789084 C239.073582,136.892203 239.403228,137.289109 239.403228,137.763008 L239.403228,185.504944 C239.403228,186.057229 238.955513,186.504944 238.403228,186.504944 C237.850943,186.504944 237.403228,186.057229 237.403228,185.504944 L237.403228,138.992943 L220.306454,148.739842 L220.306454,187.778865 L225.985934,184.540984 C226.282098,184.37214 226.643875,184.365808 226.945767,184.524183 L242.419441,192.641813 C242.498766,192.683427 242.569324,192.733116 242.631083,192.789084 C243.073582,192.892203 243.403228,193.289109 243.403228,193.763008 L243.403228,241.504944 C243.403228,242.057229 242.955513,242.504944 242.403228,242.504944 C241.850943,242.504944 241.403228,242.057229 241.403228,241.504944 L241.403228,194.992943 L224.306454,204.739842 L224.306454,252.246879 C224.306454,252.799164 223.858738,253.246879 223.306454,253.246879 C222.754169,253.246879 222.306454,252.799164 222.306454,252.246879 L222.306454,205.455942 C222.27122,205.442309 222.236563,205.426601 222.202662,205.408816 L207.596776,197.746436 L207.596776,245.085589 C207.596776,245.637874 207.149061,246.085589 206.596776,246.085589 C206.044491,246.085589 205.596776,245.637874 205.596776,245.085589 L205.596776,197.343654 C205.596776,196.934741 205.842211,196.583153 206.193804,196.428167 C206.186062,196.082782 206.353309,195.733576 206.698281,195.536907 L218.306454,188.919068 Z M72.9285734,44.4711839 L75.6060856,43.040839 C75.9138962,42.8764046 76.2851641,42.8843309 76.5856763,43.0617526 L82.5084452,46.5585417 C83.0265711,46.8644421 83.1321739,47.5157819 82.8392877,47.9664661 L82.8392877,56.7114842 L88.5084452,60.0585417 C89.0897983,60.4017713 89.1518044,61.1798927 88.7142877,61.6215013 L88.7142877,74.809584 L100.508445,81.772827 C100.880197,81.992309 101.039584,82.389622 100.991788,82.763059 C101.295213,82.934764 101.500002,83.260454 101.500002,83.633976 L101.500002,123.633976 C101.500002,124.186261 101.052287,124.633976 100.500002,124.633976 C99.947717,124.633976 99.500002,124.186261 99.500002,123.633976 L99.500002,84.024055 L63.500002,102.85502 L63.500002,142.633976 C63.500002,143.186261 63.0522867,143.633976 62.500002,143.633976 C61.9477172,143.633976 61.500002,143.186261 61.500002,142.633976 L61.500002,102.633976 C61.500002,102.52353 61.5179072,102.417265 61.5509732,102.317927 L45.500002,93.382335 L45.500002,131.633976 C45.500002,132.186261 45.0522867,132.633976 44.500002,132.633976 C43.9477172,132.633976 43.500002,132.186261 43.500002,131.633976 L43.500002,92.080709 C43.2640492,91.62292 43.4047421,91.011388 43.9178229,90.737296 L55.2857162,84.664492 L55.2857162,66.4078835 C55.1210819,65.9660686 55.2773348,65.4252328 55.7511221,65.1721324 L63.1607162,61.2138779 L63.1607162,50.5752629 C63.0452269,50.15142 63.2105305,49.6626271 63.65388,49.4257868 L70.9285734,45.5395972 L70.9285734,39.3872448 C70.9285734,38.8349601 71.3762886,38.3872448 71.9285734,38.3872448 C72.4808581,38.3872448 72.9285734,38.8349601 72.9285734,39.3872448 L72.9285734,44.4711839 Z M70.9285734,47.8070863 L66.2134757,50.3259229 L70.1243223,52.5030952 L79.9435844,47.3668123 L76.0527896,45.0696959 L72.9285734,46.738673 L72.9285734,49.3526739 C72.9285734,49.9049586 72.4808581,50.3526739 71.9285734,50.3526739 C71.3762886,50.3526739 70.9285734,49.9049586 70.9285734,49.3526739 L70.9285734,47.8070863 Z M347.500002,150.247273 L347.500002,178.633976 C347.500002,179.186261 347.052287,179.633976 346.500002,179.633976 C345.947717,179.633976 345.500002,179.186261 345.500002,178.633976 L345.500002,149.633976 C345.500002,149.262481 345.702575,148.9383 346.003285,148.765867 C346.028198,148.456052 346.194824,148.155987 346.504798,147.979301 L367.557357,135.979301 C367.855415,135.809408 368.219759,135.804168 368.522579,135.965421 L385.522579,145.01798 C385.839906,145.186958 386.015354,145.485337 386.04725,145.796869 C386.319902,145.975475 386.500002,146.283693 386.500002,146.633976 L386.500002,176.633976 C386.500002,177.186261 386.052287,177.633976 385.500002,177.633976 C384.947717,177.633976 384.500002,177.186261 384.500002,176.633976 L384.500002,147.36664 L365.500002,158.196678 L365.500002,187.633976 C365.500002,188.186261 365.052287,188.633976 364.500002,188.633976 C363.947717,188.633976 363.500002,188.186261 363.500002,187.633976 L363.500002,158.767328 L347.500002,150.247273 Z M347.360397,7.1240432 C347.44908,7.2733523 347.500002,7.4477175 347.500002,7.6339762 L347.500002,61.6339762 C347.500002,62.186261 347.052287,62.6339762 346.500002,62.6339762 C345.947717,62.6339762 345.500002,62.186261 345.500002,61.6339762 L345.500002,8.7603436 L319.487502,23.7474715 L319.487502,85.362083 C319.487502,85.914368 319.039787,86.362083 318.487502,86.362083 C317.935217,86.362083 317.487502,85.914368 317.487502,85.362083 L317.487502,24.1441316 L307.337502,18.7392214 L307.337502,73.750078 C307.337502,74.302362 306.889787,74.750078 306.337502,74.750078 C305.785217,74.750078 305.337502,74.302362 305.337502,73.750078 L305.337502,17.7839762 C305.337502,17.4718927 305.480463,17.1931994 305.704469,17.0098124 C305.765699,16.7614391 305.922455,16.5329741 306.175782,16.3870198 L334.386259,0.1335251 C334.684953,-0.0385679 335.051225,-0.044683 335.355497,0.1173432 L346.830497,6.2278205 C347.187389,6.4178665 347.364944,6.7718063 347.360397,7.1240432 Z M282.412502,225.281399 L282.412502,248.408976 C282.412502,248.961261 281.964787,249.408976 281.412502,249.408976 C280.860217,249.408976 280.412502,248.961261 280.412502,248.408976 L280.412502,224.483976 C280.412502,224.144885 280.581278,223.845213 280.839407,223.664382 C280.886574,223.387008 281.049635,223.126527 281.329798,222.966834 L298.698159,213.066834 C298.996217,212.89694 299.360561,212.8917 299.663381,213.052953 L313.688381,220.521314 C313.978228,220.675659 314.149705,220.937963 314.201537,221.21964 C314.436426,221.402625 314.587502,221.688158 314.587502,222.008976 L314.587502,246.758976 C314.587502,247.311261 314.139787,247.758976 313.587502,247.758976 C313.035217,247.758976 312.587502,247.311261 312.587502,246.758976 L312.587502,222.914607 L297.262502,231.649887 L297.262502,255.107663 C297.262502,255.659947 296.814787,256.107663 296.262502,256.107663 C295.710217,256.107663 295.262502,255.659947 295.262502,255.107663 L295.262502,232.124068 L282.412502,225.281399 Z M351.337502,290.739221 L351.337502,316.783976 C351.337502,317.336261 350.889787,317.783976 350.337502,317.783976 C349.785217,317.783976 349.337502,317.336261 349.337502,316.783976 L349.337502,289.783976 C349.337502,289.47189 349.480465,289.193196 349.704474,289.009809 C349.766045,288.760024 349.924181,288.53042 350.179798,288.384718 L364.390275,280.284718 C364.688333,280.114825 365.052677,280.109585 365.355497,280.270838 L376.830497,286.381315 C377.097573,286.523534 377.264147,286.757416 377.329222,287.013656 C377.533774,287.196761 377.662502,287.462836 377.662502,287.758976 L377.662502,314.758976 C377.662502,315.311261 377.214787,315.758976 376.662502,315.758976 C376.110217,315.758976 375.662502,315.311261 375.662502,314.758976 L375.662502,288.812864 L363.487502,295.752638 L363.487502,322.183976 C363.487502,322.736261 363.039787,323.183976 362.487502,323.183976 C361.935217,323.183976 361.487502,322.736261 361.487502,322.183976 L361.487502,296.144132 L351.337502,290.739221 Z M288.500002,164.247273 L288.500002,203.633976 C288.500002,204.186261 288.052287,204.633976 287.500002,204.633976 C286.947717,204.633976 286.500002,204.186261 286.500002,203.633976 L286.500002,163.633976 C286.500002,163.262481 286.702575,162.9383 287.003285,162.765867 C287.028198,162.456052 287.194824,162.155987 287.504798,161.979301 L308.557357,149.979301 C308.855415,149.809408 309.219759,149.804168 309.522579,149.965421 L326.522579,159.01798 C326.839906,159.186958 327.015354,159.485337 327.04725,159.796869 C327.319902,159.975475 327.500002,160.283693 327.500002,160.633976 L327.500002,200.633976 C327.500002,201.186261 327.052287,201.633976 326.500002,201.633976 C325.947717,201.633976 325.500002,201.186261 325.500002,200.633976 L325.500002,161.36664 L306.500002,172.196678 L306.500002,211.633976 C306.500002,212.186261 306.052287,212.633976 305.500002,212.633976 C304.947717,212.633976 304.500002,212.186261 304.500002,211.633976 L304.500002,172.767328 L288.500002,164.247273 Z M304.983584,170.758951 L323.980927,159.930428 L309.068979,151.989764 L290.071635,162.818287 L304.983584,170.758951 Z M362.133584,294.222286 L374.288846,287.293763 L364.901897,282.295181 L352.746635,289.223704 L362.133584,294.222286 Z M295.833584,230.162285 L311.14673,221.433762 L299.209781,215.077296 L283.896635,223.805819 L295.833584,230.162285 Z M328.500002,207.940032 L328.500002,246.633976 C328.500002,247.186261 328.052287,247.633976 327.500002,247.633976 C326.947717,247.633976 326.500002,247.186261 326.500002,246.633976 L326.500002,206.633976 C326.500002,206.097014 326.923218,205.6589 327.454282,205.635003 L348.504798,193.636167 C348.804705,193.465219 349.171575,193.461042 349.475297,193.625118 L383.527856,212.02081 C383.841999,212.190515 384.015565,212.487229 384.047255,212.796873 C384.319904,212.975479 384.500002,213.283696 384.500002,213.633976 L384.500002,253.633976 C384.500002,254.186261 384.052287,254.633976 383.500002,254.633976 C382.947717,254.633976 382.500002,254.186261 382.500002,253.633976 L382.500002,214.36664 L363.500002,225.196678 L363.500002,264.633976 C363.500002,265.186261 363.052287,265.633976 362.500002,265.633976 C361.947717,265.633976 361.500002,265.186261 361.500002,264.633976 L361.500002,225.767117 L328.500002,207.940032 Z M361.986981,223.757015 L380.992033,212.924097 L349.013023,195.648566 L330.00797,206.481483 L361.986981,223.757015 Z M388.37097,231.897237 L388.37097,247.313509 C388.37097,247.865793 387.923254,248.313509 387.37097,248.313509 C386.818685,248.313509 386.37097,247.865793 386.37097,247.313509 L386.37097,231.021073 C386.37097,230.697019 386.525108,230.408966 386.764067,230.226231 C386.819663,229.964253 386.980109,229.721214 387.246668,229.569248 L399.23629,222.733945 C399.532454,222.565101 399.894231,222.558768 400.196123,222.717143 L409.814893,227.763238 C409.863262,227.788613 409.908372,227.816989 409.950214,227.847961 C410.344947,227.98175 410.629034,228.355332 410.629034,228.795267 L410.629034,247.313509 C410.629034,247.865793 410.181319,248.313509 409.629034,248.313509 C409.076749,248.313509 408.629034,247.865793 408.629034,247.313509 L408.629034,230.211083 L398.758066,235.838538 L398.758066,252.959295 C398.758066,253.511579 398.310351,253.959295 397.758066,253.959295 C397.205782,253.959295 396.758066,253.511579 396.758066,252.959295 L396.758066,236.297184 L388.37097,231.897237 Z M397.340758,234.344361 L407.267271,228.68524 L399.75151,224.742404 L389.824997,230.401525 L397.340758,234.344361 Z M329.500002,99.747273 L329.500002,129.286728 C329.500002,129.839013 329.052287,130.286728 328.500002,130.286728 C327.947717,130.286728 327.500002,129.839013 327.500002,129.286728 L327.500002,98.633976 C327.500002,98.159911 327.829879,97.762892 328.272612,97.659943 C328.338143,97.591305 328.415526,97.530186 328.504798,97.479301 L334.500002,94.062023 L334.500002,73.633976 C334.500002,73.262481 334.702575,72.9383 335.003285,72.765867 C335.028198,72.456052 335.194824,72.155987 335.504798,71.979301 L342.500002,67.992021 L342.500002,62.3872448 C342.500002,61.8349601 342.947717,61.3872448 343.500002,61.3872448 C344.052287,61.3872448 344.500002,61.8349601 344.500002,62.3872448 L344.500002,66.8725947 C344.759066,66.7842531 345.046283,66.8052078 345.292746,66.9364498 L352.417121,70.730205 C352.81113,70.940016 352.986404,71.349324 352.939744,71.735602 C353.271561,71.898328 353.500002,72.239474 353.500002,72.633976 L353.500002,93.118465 L357.575123,95.288481 C357.794159,95.405119 357.945597,95.58341 358.028887,95.785124 C358.311786,95.96176 358.500002,96.275888 358.500002,96.633976 L358.500002,128.897067 C358.500002,129.449352 358.052287,129.897067 357.500002,129.897067 C356.947717,129.897067 356.500002,129.449352 356.500002,128.897067 L356.500002,97.667092 L342.500002,105.647119 L342.500002,136.460901 C342.500002,137.013186 342.052287,137.460901 341.500002,137.460901 C340.947717,137.460901 340.500002,137.013186 340.500002,136.460901 L340.500002,105.604811 L329.500002,99.747273 Z M344.500002,69.154105 L344.500002,72.352674 C344.500002,72.904959 344.052287,73.352674 343.500002,73.352674 C342.947717,73.352674 342.500002,72.904959 342.500002,72.352674 L342.500002,70.294109 L338.071635,72.818287 L343.10796,75.500147 L349.87547,71.642653 L344.839146,68.960792 L344.500002,69.154105 Z M343.497953,77.569448 C343.499312,77.590782 343.500002,77.612299 343.500002,77.633976 L343.500002,98.352674 C343.500002,98.904959 343.052287,99.352674 342.500002,99.352674 C341.947717,99.352674 341.500002,98.904959 341.500002,98.352674 L341.500002,77.633976 C341.500002,77.403162 341.578201,77.190612 341.70955,77.021375 L336.500002,74.247273 L336.500002,94.352674 C336.500002,94.613694 336.399997,94.851356 336.236211,95.029436 C336.170159,95.280021 336.007353,95.504918 335.764429,95.643385 L331.071635,98.318287 L341.163235,103.692099 C341.268464,103.654471 341.38184,103.633976 341.500002,103.633976 C341.630502,103.633976 341.755163,103.658974 341.869459,103.704442 L355.033471,96.200929 L351.547977,94.344891 C351.060499,94.085307 350.875754,93.479694 351.135337,92.992216 C351.223229,92.827163 351.350789,92.696815 351.500002,92.606669 L351.500002,73.018754 L343.619582,77.510609 C343.580103,77.533112 343.539461,77.552726 343.497953,77.569448 Z M353.337502,18.7392214 L353.337502,44.7839762 C353.337502,45.336261 352.889787,45.7839762 352.337502,45.7839762 C351.785217,45.7839762 351.337502,45.336261 351.337502,44.7839762 L351.337502,17.7839762 C351.337502,17.4718905 351.480465,17.1931955 351.704474,17.0098086 C351.766045,16.760024 351.924181,16.5304202 352.179798,16.3847183 L366.390275,8.2847183 C366.688333,8.1148246 367.052677,8.1095852 367.355497,8.2708379 L378.830497,14.3813152 C379.097573,14.5235342 379.264147,14.7574163 379.329222,15.0136556 C379.533774,15.1967609 379.662502,15.4628356 379.662502,15.7589762 L379.662502,42.7589762 C379.662502,43.311261 379.214787,43.7589762 378.662502,43.7589762 C378.110217,43.7589762 377.662502,43.311261 377.662502,42.7589762 L377.662502,16.8128645 L365.487502,23.7526384 L365.487502,50.1839762 C365.487502,50.736261 365.039787,51.1839762 364.487502,51.1839762 C363.935217,51.1839762 363.487502,50.736261 363.487502,50.1839762 L363.487502,24.1441316 L353.337502,18.7392214 Z M364.133584,22.2222864 L376.288846,15.2937632 L366.901897,10.2951805 L354.746635,17.2237037 L364.133584,22.2222864 Z M318.130917,22.2208664 L344.297578,7.1449185 L334.904564,2.1431059 L308.737903,17.2190537 L318.130917,22.2208664 Z M214.500002,67.0240294 L214.500002,106.633976 C214.500002,107.186261 214.052287,107.633976 213.500002,107.633976 C212.947717,107.633976 212.500002,107.186261 212.500002,106.633976 L212.500002,66.6339762 C212.500002,66.260436 212.704812,65.9347317 213.008261,65.7630332 C212.960476,65.3896041 213.119863,64.9923041 213.491607,64.7728274 L231.917999,53.8939279 C232.218511,53.7165062 232.589779,53.7085799 232.89759,53.8730144 L270.082229,73.737296 C270.595345,74.011406 270.736022,74.623003 270.500002,75.080803 L270.500002,114.633976 C270.500002,115.186261 270.052287,115.633976 269.500002,115.633976 C268.947717,115.633976 268.500002,115.186261 268.500002,114.633976 L268.500002,76.382362 L252.449038,85.31795 C252.482099,85.417281 252.500002,85.523538 252.500002,85.633976 L252.500002,125.633976 C252.500002,126.186261 252.052287,126.633976 251.500002,126.633976 C250.947717,126.633976 250.500002,126.186261 250.500002,125.633976 L250.500002,85.854995 L214.500002,67.0240294 Z M276.337502,60.7392214 L276.337502,86.783976 C276.337502,87.336261 275.889787,87.783976 275.337502,87.783976 C274.785217,87.783976 274.337502,87.336261 274.337502,86.783976 L274.337502,59.7839762 C274.337502,59.4718905 274.480465,59.1931955 274.704474,59.0098086 C274.766045,58.760024 274.924181,58.5304202 275.179798,58.3847183 L289.390275,50.2847183 C289.688333,50.1148246 290.052677,50.1095852 290.355497,50.2708379 L301.830497,56.3813152 C302.097573,56.5235342 302.264147,56.7574163 302.329222,57.0136556 C302.533774,57.1967609 302.662502,57.4628356 302.662502,57.7589762 L302.662502,84.758976 C302.662502,85.311261 302.214787,85.758976 301.662502,85.758976 C301.110217,85.758976 300.662502,85.311261 300.662502,84.758976 L300.662502,58.8128645 L288.487502,65.7526384 L288.487502,92.183976 C288.487502,92.736261 288.039787,93.183976 287.487502,93.183976 C286.935217,93.183976 286.487502,92.736261 286.487502,92.183976 L286.487502,66.1441316 L276.337502,60.7392214 Z M278.500002,102.247273 L278.500002,141.633976 C278.500002,142.186261 278.052287,142.633976 277.500002,142.633976 C276.947717,142.633976 276.500002,142.186261 276.500002,141.633976 L276.500002,101.633976 C276.500002,101.262481 276.702575,100.9383 277.003285,100.765867 C277.028198,100.456052 277.194824,100.155987 277.504798,99.979301 L298.557357,87.979301 C298.855415,87.809408 299.219759,87.804168 299.522579,87.965421 L316.522579,97.01798 C316.839906,97.186958 317.015354,97.485337 317.04725,97.796869 C317.319902,97.975475 317.500002,98.283693 317.500002,98.633976 L317.500002,138.633976 C317.500002,139.186261 317.052287,139.633976 316.500002,139.633976 C315.947717,139.633976 315.500002,139.186261 315.500002,138.633976 L315.500002,99.36664 L296.500002,110.196678 L296.500002,149.633976 C296.500002,150.186261 296.052287,150.633976 295.500002,150.633976 C294.947717,150.633976 294.500002,150.186261 294.500002,149.633976 L294.500002,110.767328 L278.500002,102.247273 Z M294.983584,108.758951 L313.980927,97.930428 L299.068979,89.989764 L280.071635,100.818287 L294.983584,108.758951 Z M287.133584,64.2222864 L299.288846,57.2937632 L289.901897,52.2951805 L277.746635,59.2237037 L287.133584,64.2222864 Z M232.450886,55.9018713 L216.056468,65.581098 L250.977918,83.847893 L267.522634,74.637432 L232.450886,55.9018713 Z M363.983584,156.758951 L382.980927,145.930428 L368.068979,137.989764 L349.071635,148.818287 L363.983584,156.758951 Z M80.8392877,49.1553769 L70.9464305,54.330156 L70.9464305,66.7054048 C70.9464305,67.2576896 70.4987153,67.7054048 69.9464305,67.7054048 C69.3941458,67.7054048 68.9464305,67.2576896 68.9464305,66.7054048 L68.9464305,54.1363929 L65.1607162,52.0288819 L65.1607162,61.3291845 C65.29606,61.6113166 65.2872606,61.9282429 65.1607162,62.1930138 L65.1607162,63.1696905 C65.1607162,63.7219753 64.713001,64.1696905 64.1607162,64.1696905 C63.7089243,64.1696905 63.3271095,63.870083 63.203119,63.4587152 L58.3107178,66.0722685 L66.8761478,70.840652 L85.9435844,60.8668123 L82.8392877,59.0340426 L82.8392877,60.2768334 C82.8392877,60.8291181 82.3915724,61.2768334 81.8392877,61.2768334 C81.2870029,61.2768334 80.8392877,60.8291181 80.8392877,60.2768334 L80.8392877,49.1553769 Z M88.7142877,77.132142 L88.7142877,83.776833 C88.7142877,84.329118 88.2665724,84.776833 87.7142877,84.776833 C87.1620029,84.776833 86.7142877,84.329118 86.7142877,83.776833 L86.7142877,75.788174 C86.5559721,75.498195 86.5453134,75.136846 86.7142877,74.828281 L86.7142877,62.7207622 L67.5714305,72.734053 L67.5714305,95.205405 C67.5714305,95.75769 67.1237153,96.205405 66.5714305,96.205405 C66.0191458,96.205405 65.5714305,95.75769 65.5714305,95.205405 L65.5714305,72.403346 L57.2857162,67.7906803 L57.2857162,88.919691 C57.2857162,89.471975 56.838001,89.919691 56.2857162,89.919691 C55.7334315,89.919691 55.2857162,89.471975 55.2857162,88.919691 L55.2857162,86.931981 L46.4774186,91.637432 L63.0221344,100.847893 L97.943584,82.581098 L88.7142877,77.132142 Z M143.500002,23.8930642 L139.061648,26.4571958 L166.981783,41.3061728 L183.504599,32.1079041 L175.500002,27.9278248 L175.500002,29.3481371 C175.500002,29.9004218 175.052287,30.3481371 174.500002,30.3481371 C173.947717,30.3481371 173.500002,29.9004218 173.500002,29.3481371 L173.500002,15.5692474 L163.500002,21.1362577 L163.500002,34.3481371 C163.500002,34.9004218 163.052287,35.3481371 162.500002,35.3481371 C161.947717,35.3481371 161.500002,34.9004218 161.500002,34.3481371 L161.500002,20.6412716 L145.500002,12.1318702 L145.500002,25.3481371 C145.500002,25.9004218 145.052287,26.3481371 144.500002,26.3481371 C143.947717,26.3481371 143.500002,25.9004218 143.500002,25.3481371 L143.500002,23.8930642 Z M143.500002,21.7208402 L143.500002,11.204461 C143.500002,10.7928744 143.748658,10.4393644 144.103941,10.2859588 C144.186478,10.1194767 144.318283,9.97228 144.499762,9.8674357 L155.282375,3.6380906 C155.57875,3.4668684 155.942108,3.4591241 156.24551,3.6175632 L174.582559,13.1933511 C174.8521,13.3341083 175.020606,13.5677796 175.08714,13.8244013 C175.33733,14.006164 175.500002,14.3010731 175.500002,14.6339762 L175.500002,25.6715419 L186.073929,31.1933508 C186.595891,31.4659247 186.738971,32.0869234 186.496382,32.5482873 C186.498779,32.576532 186.500002,32.6051113 186.500002,32.6339762 L186.500002,72.633976 C186.500002,73.186261 186.052287,73.633976 185.500002,73.633976 C184.947717,73.633976 184.500002,73.186261 184.500002,72.633976 L184.500002,33.8427934 L167.500002,43.3067109 L167.500002,82.633976 C167.500002,83.186261 167.052287,83.633976 166.500002,83.633976 C165.947717,83.633976 165.500002,83.186261 165.500002,82.633976 L165.500002,42.7833666 L138.500002,28.4237517 L138.500002,66.6339762 C138.500002,67.186261 138.052287,67.6339762 137.500002,67.6339762 C136.947717,67.6339762 136.500002,67.186261 136.500002,66.6339762 L136.500002,27.3594333 C135.836809,26.9783627 135.829946,26.0144468 136.499762,25.6274796 L143.03024,21.8546834 C143.178648,21.7689449 143.339906,21.7255805 143.500002,21.7208402 Z M155.806931,5.6448157 L147.061648,10.6971519 L162.955731,19.1502226 L172.013229,14.1079044 L155.806931,5.6448157 Z M238.340758,256.344361 L248.267271,250.68524 L240.75151,246.742404 L230.824997,252.401525 L238.340758,256.344361 Z M190.340758,246.344361 L200.267271,240.68524 L192.75151,236.742404 L182.824997,242.401525 L190.340758,246.344361 Z M222.647275,203.383556 L239.871819,193.563815 L226.501154,186.549443 L209.27661,196.369184 L222.647275,203.383556 Z M152.996719,112.765867 C153.297429,112.9383 153.500002,113.262481 153.500002,113.633976 L153.500002,153.633976 C153.500002,154.186261 153.052287,154.633976 152.500002,154.633976 C151.947717,154.633976 151.500002,154.186261 151.500002,153.633976 L151.500002,114.247273 L135.500002,122.767328 L135.500002,161.633976 C135.500002,162.186261 135.052287,162.633976 134.500002,162.633976 C133.947717,162.633976 133.500002,162.186261 133.500002,161.633976 L133.500002,122.196678 L114.500002,111.36664 L114.500002,150.633976 C114.500002,151.186261 114.052287,151.633976 113.500002,151.633976 C112.947717,151.633976 112.500002,151.186261 112.500002,150.633976 L112.500002,110.633976 C112.500002,110.283693 112.680102,109.975475 112.952754,109.796869 C112.98465,109.485337 113.160098,109.186958 113.477425,109.01798 L130.477425,99.965421 C130.780245,99.804168 131.144589,99.809408 131.442647,99.979301 L152.495206,111.979301 C152.80518,112.155987 152.971806,112.456052 152.996719,112.765867 Z M163.500002,130.239636 L163.500002,169.633976 C163.500002,170.186261 163.052287,170.633976 162.500002,170.633976 C161.947717,170.633976 161.500002,170.186261 161.500002,169.633976 L161.500002,129.633976 C161.500002,129.262485 161.702571,128.938306 162.003277,128.765872 C162.028153,128.456153 162.194642,128.156121 162.504732,127.979339 L178.664658,118.766538 C178.960822,118.597695 179.322599,118.591362 179.624491,118.749737 L192.58892,125.550995 C192.654835,125.585574 192.714697,125.625729 192.768488,125.670429 C193.190384,125.787736 193.500002,126.174699 193.500002,126.633976 L193.500002,166.633976 C193.500002,167.186261 193.052287,167.633976 192.500002,167.633976 C191.947717,167.633976 191.500002,167.186261 191.500002,166.633976 L191.500002,127.943575 L177.500002,135.924997 L177.500002,175.633976 C177.500002,176.186261 177.052287,176.633976 176.500002,176.633976 C175.947717,176.633976 175.500002,176.186261 175.500002,175.633976 L175.500002,136.534945 L163.500002,130.239636 Z M175.944482,134.509615 L190.041298,126.472997 L179.179878,120.774998 L165.083061,128.811616 L175.944482,134.509615 Z M218.647275,147.383556 L235.871819,137.563815 L222.501154,130.549443 L205.27661,140.369184 L218.647275,147.383556 Z M135.01642,120.758951 L149.928369,112.818287 L130.931025,101.989764 L116.019076,109.930428 L135.01642,120.758951 Z M48.500002,216.893064 L44.0616482,219.457196 L71.9817827,234.306173 L88.5045987,225.107904 L80.500002,220.927825 L80.500002,222.348137 C80.500002,222.900422 80.0522867,223.348137 79.500002,223.348137 C78.9477172,223.348137 78.500002,222.900422 78.500002,222.348137 L78.500002,208.569247 L68.500002,214.136258 L68.500002,227.348137 C68.500002,227.900422 68.0522867,228.348137 67.500002,228.348137 C66.9477172,228.348137 66.500002,227.900422 66.500002,227.348137 L66.500002,213.641272 L50.500002,205.13187 L50.500002,218.348137 C50.500002,218.900422 50.0522867,219.348137 49.500002,219.348137 C48.9477172,219.348137 48.500002,218.900422 48.500002,218.348137 L48.500002,216.893064 Z M5.9693897,117.499904 L3.0616482,119.179768 L24.8608239,130.773389 L37.58398,123.690395 L31.8469407,120.694457 L31.8469407,121.488104 C31.8469407,122.040389 31.3992255,122.488104 30.8469407,122.488104 C30.294656,122.488104 29.8469407,122.040389 29.8469407,121.488104 L29.8469407,110.868419 L22.2959203,115.07208 L22.2959203,125.467696 C22.2959203,126.019981 21.8482051,126.467696 21.2959203,126.467696 C20.7436356,126.467696 20.2959203,126.019981 20.2959203,125.467696 L20.2959203,114.68076 L7.9693897,108.125047 L7.9693897,118.304431 C7.9693897,118.856716 7.5216745,119.304431 6.9693897,119.304431 C6.417105,119.304431 5.9693897,118.856716 5.9693897,118.304431 L5.9693897,117.499904 Z M10.3709697,182.897237 L10.3709697,211.698492 C10.3709697,212.250777 9.9232544,212.698492 9.3709697,212.698492 C8.8186849,212.698492 8.3709697,212.250777 8.3709697,211.698492 L8.3709697,182.021073 C8.3709697,181.697019 8.5251078,181.408966 8.7640669,181.226231 C8.8196627,180.964253 8.9801088,180.721214 9.2466678,180.569248 L21.2362903,173.733945 C21.5324544,173.565101 21.8942308,173.558768 22.1961225,173.717143 L31.8148928,178.763238 C31.863262,178.788613 31.9083715,178.816989 31.9502144,178.847961 C32.3449471,178.98175 32.6290342,179.355332 32.6290342,179.795267 L32.6290342,209.472686 C32.6290342,210.024971 32.181319,210.472686 31.6290342,210.472686 C31.0767495,210.472686 30.6290342,210.024971 30.6290342,209.472686 L30.6290342,181.211083 L20.7580665,186.838538 L20.7580665,216.150105 C20.7580665,216.70239 20.3103512,217.150105 19.7580665,217.150105 C19.2057817,217.150105 18.7580665,216.70239 18.7580665,216.150105 L18.7580665,187.297184 L10.3709697,182.897237 Z M19.3407579,185.344361 L29.267271,179.68524 L21.7515099,175.742404 L11.8249968,181.401525 L19.3407579,185.344361 Z M15.9737444,102.855019 L9.4289951,106.63606 L21.6564155,113.139062 L28.4377875,109.363865 L15.9737444,102.855019 Z M60.8069306,198.644816 L52.0616482,203.697152 L67.9557311,212.150223 L77.0132286,207.107904 L60.8069306,198.644816 Z M59.000002,329.728523 L59.000002,338.253904 C59.000002,339.016097 58.3284291,339.633976 57.500002,339.633976 C56.6715748,339.633976 56.000002,339.016097 56.000002,338.253904 L56.000002,332.227912 C54.9372414,333.111908 53.584861,333.633976 52.1304367,333.633976 C48.7446911,333.633976 46.000002,330.8277 46.000002,327.365983 C46.000002,325.366871 46.9240971,323.535257 48.4268012,322.370305 C48.385883,322.023703 48.3652194,321.67322 48.3652194,321.320259 C48.3652194,316.522958 52.1688524,312.633976 56.8608715,312.633976 C60.5010767,312.633976 63.6833194,314.994492 64.8687517,318.412875 C66.7735443,319.505529 68.000002,321.577691 68.000002,323.880801 C68.000002,327.342518 65.2553128,330.148794 61.8695672,330.148794 C61.0041005,330.148794 60.1629037,329.964379 59.3902371,329.614675 C59.2611162,329.655803 59.1310078,329.693764 59.000002,329.728523 Z M58.9702134,326.731719 C59.3705962,326.568391 59.8222459,326.602757 60.1945729,326.82488 C60.6985479,327.125542 61.270934,327.285966 61.8695672,327.285966 C63.7089155,327.285966 65.200002,325.761422 65.200002,323.880801 C65.200002,322.499858 64.3889334,321.272074 63.1662101,320.742953 C62.7697097,320.571372 62.472478,320.222798 62.3602684,319.797798 C61.6954016,317.279581 59.4504797,315.496804 56.8608715,315.496804 C53.7152497,315.496804 51.1652193,318.104054 51.1652193,321.320259 C51.1652193,321.797375 51.2210451,322.265824 51.3302984,322.719229 C51.4854439,323.363087 51.1877673,324.031602 50.6109436,324.334737 C49.5076113,324.914566 48.8000019,326.075362 48.8000019,327.365983 C48.8000019,329.246604 50.2910884,330.771148 52.1304367,330.771148 C53.659198,330.771148 54.9814321,329.708482 55.3563058,328.217241 C55.5180385,327.573871 56.0914321,327.128808 56.7409974,327.142456 C56.800815,327.143503 56.800815,327.143503 56.8608715,327.143714 C57.5940856,327.143714 58.3058693,327.002724 58.9702134,326.731719 Z M71.000002,299.728523 L71.000002,308.253904 C71.000002,309.016097 70.3284291,309.633976 69.500002,309.633976 C68.6715748,309.633976 68.000002,309.016097 68.000002,308.253904 L68.000002,302.227912 C66.9372414,303.111908 65.584861,303.633976 64.1304367,303.633976 C60.7446911,303.633976 58.000002,300.8277 58.000002,297.365983 C58.000002,295.366871 58.9240971,293.535257 60.4268012,292.370305 C60.385883,292.023703 60.3652194,291.67322 60.3652194,291.320259 C60.3652194,286.522958 64.1688524,282.633976 68.8608715,282.633976 C72.5010767,282.633976 75.6833194,284.994492 76.8687517,288.412875 C78.7735443,289.505529 80.000002,291.577691 80.000002,293.880801 C80.000002,297.342518 77.2553128,300.148794 73.8695672,300.148794 C73.0041005,300.148794 72.1629037,299.964379 71.3902371,299.614675 C71.2611162,299.655803 71.1310078,299.693764 71.000002,299.728523 Z M70.9702134,296.731719 C71.3705962,296.568391 71.8222459,296.602757 72.1945729,296.82488 C72.6985479,297.125542 73.270934,297.285966 73.8695672,297.285966 C75.7089155,297.285966 77.200002,295.761422 77.200002,293.880801 C77.200002,292.499858 76.3889334,291.272074 75.1662101,290.742953 C74.7697097,290.571372 74.472478,290.222798 74.3602684,289.797798 C73.6954016,287.279581 71.4504797,285.496804 68.8608715,285.496804 C65.7152497,285.496804 63.1652193,288.104054 63.1652193,291.320259 C63.1652193,291.797375 63.2210451,292.265824 63.3302984,292.719229 C63.4854439,293.363087 63.1877673,294.031602 62.6109436,294.334737 C61.5076113,294.914566 60.8000019,296.075362 60.8000019,297.365983 C60.8000019,299.246604 62.2910884,300.771148 64.1304367,300.771148 C65.659198,300.771148 66.9814321,299.708482 67.3563058,298.217241 C67.5180385,297.573871 68.0914321,297.128808 68.7409974,297.142456 C68.800815,297.143503 68.800815,297.143503 68.8608715,297.143714 C69.5940856,297.143714 70.3058693,297.002724 70.9702134,296.731719 Z M127.000002,270.728523 L127.000002,279.253904 C127.000002,280.016097 126.328429,280.633976 125.500002,280.633976 C124.671575,280.633976 124.000002,280.016097 124.000002,279.253904 L124.000002,273.227912 C122.937241,274.111908 121.584861,274.633976 120.130437,274.633976 C116.744691,274.633976 114.000002,271.8277 114.000002,268.365983 C114.000002,266.366871 114.924097,264.535257 116.426801,263.370305 C116.385883,263.023703 116.365219,262.67322 116.365219,262.320259 C116.365219,257.522958 120.168852,253.633976 124.860872,253.633976 C128.501077,253.633976 131.683319,255.994492 132.868752,259.412875 C134.773544,260.505529 136.000002,262.577691 136.000002,264.880801 C136.000002,268.342518 133.255313,271.148794 129.869567,271.148794 C129.004101,271.148794 128.162904,270.964379 127.390237,270.614675 C127.261116,270.655803 127.131008,270.693764 127.000002,270.728523 Z M126.970213,267.731719 C127.370596,267.568391 127.822246,267.602757 128.194573,267.82488 C128.698548,268.125542 129.270934,268.285966 129.869567,268.285966 C131.708916,268.285966 133.200002,266.761422 133.200002,264.880801 C133.200002,263.499858 132.388933,262.272074 131.16621,261.742953 C130.76971,261.571372 130.472478,261.222798 130.360268,260.797798 C129.695402,258.279581 127.45048,256.496804 124.860872,256.496804 C121.71525,256.496804 119.165219,259.104054 119.165219,262.320259 C119.165219,262.797375 119.221045,263.265824 119.330298,263.719229 C119.485444,264.363087 119.187767,265.031602 118.610944,265.334737 C117.507611,265.914566 116.800002,267.075362 116.800002,268.365983 C116.800002,270.246604 118.291088,271.771148 120.130437,271.771148 C121.659198,271.771148 122.981432,270.708482 123.356306,269.217241 C123.518039,268.573871 124.091432,268.128808 124.740997,268.142456 C124.800815,268.143503 124.800815,268.143503 124.860872,268.143714 C125.594086,268.143714 126.305869,268.002724 126.970213,267.731719 Z M147.000002,286.728523 L147.000002,295.253904 C147.000002,296.016097 146.328429,296.633976 145.500002,296.633976 C144.671575,296.633976 144.000002,296.016097 144.000002,295.253904 L144.000002,289.227912 C142.937241,290.111908 141.584861,290.633976 140.130437,290.633976 C136.744691,290.633976 134.000002,287.8277 134.000002,284.365983 C134.000002,282.366871 134.924097,280.535257 136.426801,279.370305 C136.385883,279.023703 136.365219,278.67322 136.365219,278.320259 C136.365219,273.522958 140.168852,269.633976 144.860872,269.633976 C148.501077,269.633976 151.683319,271.994492 152.868752,275.412875 C154.773544,276.505529 156.000002,278.577691 156.000002,280.880801 C156.000002,284.342518 153.255313,287.148794 149.869567,287.148794 C149.004101,287.148794 148.162904,286.964379 147.390237,286.614675 C147.261116,286.655803 147.131008,286.693764 147.000002,286.728523 Z M146.970213,283.731719 C147.370596,283.568391 147.822246,283.602757 148.194573,283.82488 C148.698548,284.125542 149.270934,284.285966 149.869567,284.285966 C151.708916,284.285966 153.200002,282.761422 153.200002,280.880801 C153.200002,279.499858 152.388933,278.272074 151.16621,277.742953 C150.76971,277.571372 150.472478,277.222798 150.360268,276.797798 C149.695402,274.279581 147.45048,272.496804 144.860872,272.496804 C141.71525,272.496804 139.165219,275.104054 139.165219,278.320259 C139.165219,278.797375 139.221045,279.265824 139.330298,279.719229 C139.485444,280.363087 139.187767,281.031602 138.610944,281.334737 C137.507611,281.914566 136.800002,283.075362 136.800002,284.365983 C136.800002,286.246604 138.291088,287.771148 140.130437,287.771148 C141.659198,287.771148 142.981432,286.708482 143.356306,285.217241 C143.518039,284.573871 144.091432,284.128808 144.740997,284.142456 C144.800815,284.143503 144.800815,284.143503 144.860872,284.143714 C145.594086,284.143714 146.305869,284.002724 146.970213,283.731719 Z M114.000002,329.728523 L114.000002,338.253904 C114.000002,339.016097 113.328429,339.633976 112.500002,339.633976 C111.671575,339.633976 111.000002,339.016097 111.000002,338.253904 L111.000002,332.227912 C109.937241,333.111908 108.584861,333.633976 107.130437,333.633976 C103.744691,333.633976 101.000002,330.8277 101.000002,327.365983 C101.000002,325.366871 101.924097,323.535257 103.426801,322.370305 C103.385883,322.023703 103.365219,321.67322 103.365219,321.320259 C103.365219,316.522958 107.168852,312.633976 111.860872,312.633976 C115.501077,312.633976 118.683319,314.994492 119.868752,318.412875 C121.773544,319.505529 123.000002,321.577691 123.000002,323.880801 C123.000002,327.342518 120.255313,330.148794 116.869567,330.148794 C116.004101,330.148794 115.162904,329.964379 114.390237,329.614675 C114.261116,329.655803 114.131008,329.693764 114.000002,329.728523 Z M113.970213,326.731719 C114.370596,326.568391 114.822246,326.602757 115.194573,326.82488 C115.698548,327.125542 116.270934,327.285966 116.869567,327.285966 C118.708916,327.285966 120.200002,325.761422 120.200002,323.880801 C120.200002,322.499858 119.388933,321.272074 118.16621,320.742953 C117.76971,320.571372 117.472478,320.222798 117.360268,319.797798 C116.695402,317.279581 114.45048,315.496804 111.860872,315.496804 C108.71525,315.496804 106.165219,318.104054 106.165219,321.320259 C106.165219,321.797375 106.221045,322.265824 106.330298,322.719229 C106.485444,323.363087 106.187767,324.031602 105.610944,324.334737 C104.507611,324.914566 103.800002,326.075362 103.800002,327.365983 C103.800002,329.246604 105.291088,330.771148 107.130437,330.771148 C108.659198,330.771148 109.981432,329.708482 110.356306,328.217241 C110.518039,327.573871 111.091432,327.128808 111.740997,327.142456 C111.800815,327.143503 111.800815,327.143503 111.860872,327.143714 C112.594086,327.143714 113.305869,327.002724 113.970213,326.731719 Z M141.000002,315.728523 L141.000002,324.253904 C141.000002,325.016097 140.328429,325.633976 139.500002,325.633976 C138.671575,325.633976 138.000002,325.016097 138.000002,324.253904 L138.000002,318.227912 C136.937241,319.111908 135.584861,319.633976 134.130437,319.633976 C130.744691,319.633976 128.000002,316.8277 128.000002,313.365983 C128.000002,311.366871 128.924097,309.535257 130.426801,308.370305 C130.385883,308.023703 130.365219,307.67322 130.365219,307.320259 C130.365219,302.522958 134.168852,298.633976 138.860872,298.633976 C142.501077,298.633976 145.683319,300.994492 146.868752,304.412875 C148.773544,305.505529 150.000002,307.577691 150.000002,309.880801 C150.000002,313.342518 147.255313,316.148794 143.869567,316.148794 C143.004101,316.148794 142.162904,315.964379 141.390237,315.614675 C141.261116,315.655803 141.131008,315.693764 141.000002,315.728523 Z M140.970213,312.731719 C141.370596,312.568391 141.822246,312.602757 142.194573,312.82488 C142.698548,313.125542 143.270934,313.285966 143.869567,313.285966 C145.708916,313.285966 147.200002,311.761422 147.200002,309.880801 C147.200002,308.499858 146.388933,307.272074 145.16621,306.742953 C144.76971,306.571372 144.472478,306.222798 144.360268,305.797798 C143.695402,303.279581 141.45048,301.496804 138.860872,301.496804 C135.71525,301.496804 133.165219,304.104054 133.165219,307.320259 C133.165219,307.797375 133.221045,308.265824 133.330298,308.719229 C133.485444,309.363087 133.187767,310.031602 132.610944,310.334737 C131.507611,310.914566 130.800002,312.075362 130.800002,313.365983 C130.800002,315.246604 132.291088,316.771148 134.130437,316.771148 C135.659198,316.771148 136.981432,315.708482 137.356306,314.217241 C137.518039,313.573871 138.091432,313.128808 138.740997,313.142456 C138.800815,313.143503 138.800815,313.143503 138.860872,313.143714 C139.594086,313.143714 140.305869,313.002724 140.970213,312.731719 Z M167.000002,329.728523 L167.000002,338.253904 C167.000002,339.016097 166.328429,339.633976 165.500002,339.633976 C164.671575,339.633976 164.000002,339.016097 164.000002,338.253904 L164.000002,332.227912 C162.937241,333.111908 161.584861,333.633976 160.130437,333.633976 C156.744691,333.633976 154.000002,330.8277 154.000002,327.365983 C154.000002,325.366871 154.924097,323.535257 156.426801,322.370305 C156.385883,322.023703 156.365219,321.67322 156.365219,321.320259 C156.365219,316.522958 160.168852,312.633976 164.860872,312.633976 C168.501077,312.633976 171.683319,314.994492 172.868752,318.412875 C174.773544,319.505529 176.000002,321.577691 176.000002,323.880801 C176.000002,327.342518 173.255313,330.148794 169.869567,330.148794 C169.004101,330.148794 168.162904,329.964379 167.390237,329.614675 C167.261116,329.655803 167.131008,329.693764 167.000002,329.728523 Z M166.970213,326.731719 C167.370596,326.568391 167.822246,326.602757 168.194573,326.82488 C168.698548,327.125542 169.270934,327.285966 169.869567,327.285966 C171.708916,327.285966 173.200002,325.761422 173.200002,323.880801 C173.200002,322.499858 172.388933,321.272074 171.16621,320.742953 C170.76971,320.571372 170.472478,320.222798 170.360268,319.797798 C169.695402,317.279581 167.45048,315.496804 164.860872,315.496804 C161.71525,315.496804 159.165219,318.104054 159.165219,321.320259 C159.165219,321.797375 159.221045,322.265824 159.330298,322.719229 C159.485444,323.363087 159.187767,324.031602 158.610944,324.334737 C157.507611,324.914566 156.800002,326.075362 156.800002,327.365983 C156.800002,329.246604 158.291088,330.771148 160.130437,330.771148 C161.659198,330.771148 162.981432,329.708482 163.356306,328.217241 C163.518039,327.573871 164.091432,327.128808 164.740997,327.142456 C164.800815,327.143503 164.800815,327.143503 164.860872,327.143714 C165.594086,327.143714 166.305869,327.002724 166.970213,326.731719 Z M196.000002,315.728523 L196.000002,324.253904 C196.000002,325.016097 195.328429,325.633976 194.500002,325.633976 C193.671575,325.633976 193.000002,325.016097 193.000002,324.253904 L193.000002,318.227912 C191.937241,319.111908 190.584861,319.633976 189.130437,319.633976 C185.744691,319.633976 183.000002,316.8277 183.000002,313.365983 C183.000002,311.366871 183.924097,309.535257 185.426801,308.370305 C185.385883,308.023703 185.365219,307.67322 185.365219,307.320259 C185.365219,302.522958 189.168852,298.633976 193.860872,298.633976 C197.501077,298.633976 200.683319,300.994492 201.868752,304.412875 C203.773544,305.505529 205.000002,307.577691 205.000002,309.880801 C205.000002,313.342518 202.255313,316.148794 198.869567,316.148794 C198.004101,316.148794 197.162904,315.964379 196.390237,315.614675 C196.261116,315.655803 196.131008,315.693764 196.000002,315.728523 Z M195.970213,312.731719 C196.370596,312.568391 196.822246,312.602757 197.194573,312.82488 C197.698548,313.125542 198.270934,313.285966 198.869567,313.285966 C200.708916,313.285966 202.200002,311.761422 202.200002,309.880801 C202.200002,308.499858 201.388933,307.272074 200.16621,306.742953 C199.76971,306.571372 199.472478,306.222798 199.360268,305.797798 C198.695402,303.279581 196.45048,301.496804 193.860872,301.496804 C190.71525,301.496804 188.165219,304.104054 188.165219,307.320259 C188.165219,307.797375 188.221045,308.265824 188.330298,308.719229 C188.485444,309.363087 188.187767,310.031602 187.610944,310.334737 C186.507611,310.914566 185.800002,312.075362 185.800002,313.365983 C185.800002,315.246604 187.291088,316.771148 189.130437,316.771148 C190.659198,316.771148 191.981432,315.708482 192.356306,314.217241 C192.518039,313.573871 193.091432,313.128808 193.740997,313.142456 C193.800815,313.143503 193.800815,313.143503 193.860872,313.143714 C194.594086,313.143714 195.305869,313.002724 195.970213,312.731719 Z M132.639768,195.078745 C132.031128,195.033629 131.604509,194.458569 131.737847,193.863004 C131.912035,193.084982 132,192.296195 132,191.5 C132,182.495741 120.649307,175 106.5,175 C92.350693,175 81,182.495741 81,191.5 C81,200.504259 92.350693,208 106.5,208 C108.538668,208 110.545679,207.844172 112.492467,207.538789 C112.941369,207.468372 113.381316,207.70946 113.563521,208.12572 C115.553298,212.671501 122.460887,216 130.5,216 C140.235178,216 148,211.173219 148,205.5 C148,200.298941 141.430156,195.73033 132.639768,195.078745 Z" id="Shape" fill="url(#linearGradient-1)" fill-rule="nonzero"></path>
                <path d="M165.366594,105.639089 C165.668545,105.392255 166.100781,105.33544 166.467255,105.52912 L216.773707,132.115877 C217.261994,132.373935 217.448632,132.978968 217.190574,133.467255 C216.932516,133.955543 216.327484,134.14218 215.839196,133.884123 L165.532745,107.297365 C165.518578,107.289878 165.504665,107.282099 165.491009,107.274039 C165.440164,107.315559 165.384456,107.352661 165.324155,107.384472 L153.078298,113.84463 C152.589817,114.102323 151.984925,113.915232 151.727233,113.426751 C151.46954,112.938271 151.656631,112.333378 152.145112,112.075686 L164.390969,105.615528 C164.70953,105.447475 165.077599,105.468586 165.366594,105.639089 Z M151.446401,99.113824 L87.7454284,65.5689593 C87.2567586,65.3116263 87.069223,64.7068715 87.326556,64.2182017 C87.583889,63.7295319 88.1886438,63.5419964 88.6773136,63.7993294 L153.390925,97.877449 C153.875342,98.132542 154.063844,98.729037 153.816415,99.215422 C153.94992,99.663486 153.7534,100.158029 153.324155,100.384472 L141.392261,106.679003 C140.903781,106.936695 140.298888,106.749604 140.041196,106.261123 C139.783504,105.772643 139.970595,105.16775 140.459075,104.910058 L151.446401,99.113824 Z M165.271644,93.548396 L94.534057,56.2980579 C94.045388,56.0407249 93.857852,55.4359701 94.115185,54.9473003 C94.372518,54.4586305 94.977273,54.271095 95.465943,54.528428 L166.057509,91.701872 L212.52227,67.1899334 C213.010751,66.9322412 213.615643,67.1193321 213.873335,67.6078126 C214.131027,68.096293 213.943937,68.701186 213.455456,68.958878 L166.466593,93.7473 C166.059744,93.961929 165.57214,93.868011 165.271644,93.548396 Z M142.132765,246.85425 C141.842749,247.030464 141.4702,247.05464 141.14784,246.88543 L79.2016527,214.369157 C78.7126431,214.11247 78.5243083,213.507963 78.7809951,213.018954 C79.0376819,212.529944 79.6421882,212.34161 80.1311978,212.598296 L141.675292,244.903506 L206.012763,210.963029 C206.501244,210.705337 207.106136,210.892428 207.363828,211.380909 C207.62152,211.869389 207.43443,212.474282 206.945949,212.731974 L142.466593,246.7473 C142.359296,246.803904 142.246382,246.839047 142.132765,246.85425 Z M129.997807,250.281764 L90.3575811,229.474149 C89.8685716,229.217462 89.6802368,228.612956 89.9369236,228.123947 C90.1936104,227.634937 90.7981167,227.446602 91.2871262,227.703289 L132.077386,249.11457 C132.566395,249.371257 132.75473,249.975763 132.498043,250.464773 C132.473796,250.510965 132.446445,250.554475 132.416382,250.59518 C132.441414,250.976395 132.245663,251.354805 131.886158,251.545105 L70.4314737,284.075428 C69.9433563,284.333807 69.3382012,284.147568 69.0798219,283.65945 C68.8214426,283.171333 69.0076822,282.566178 69.4957996,282.307798 L129.997807,250.281764 Z M263.997807,311.281764 L153.535227,253.298673 C153.107881,253.074354 152.910161,252.584403 153.038406,252.138039 C152.910391,251.692468 153.107151,251.203222 153.533407,250.978356 L205.995118,223.302797 C206.483599,223.045105 207.088491,223.232195 207.346183,223.720676 C207.603876,224.209156 207.416785,224.814049 206.928304,225.071741 L155.624398,252.136514 L266.077386,310.11457 C266.566395,310.371257 266.75473,310.975763 266.498043,311.464773 C266.473796,311.510965 266.446445,311.554475 266.416382,311.59518 C266.441414,311.976395 266.245663,312.354805 265.886158,312.545105 L215,339.633976 C214.511883,339.892355 213.906728,339.706115 213.648348,339.217998 C213.389969,338.729881 213.576209,338.124726 214.064326,337.866346 L263.997807,311.281764 Z M243.234104,311.156683 L143.012199,258.549041 L134.234309,263.179714 C133.745829,263.437406 133.140936,263.250315 132.883244,262.761834 C132.625552,262.273354 132.812643,261.668461 133.301124,261.410769 L142.390969,256.615528 C142.397033,256.612329 142.403114,256.609199 142.409212,256.606137 C142.707489,256.388145 143.115578,256.344516 143.464773,256.527813 L245.555395,310.116366 C246.044404,310.373053 246.232739,310.977559 245.976052,311.466569 C245.844946,311.716338 245.6231,311.887666 245.37225,311.961321 C245.296092,312.203495 245.128256,312.416953 244.886158,312.545105 L193.500002,339.633976 C193.011885,339.892355 192.40673,339.706115 192.14835,339.217998 C191.889971,338.729881 192.076211,338.124726 192.564328,337.866346 L243.234104,311.156683 Z M179.104101,100.857662 C178.709726,100.898804 178.311859,100.701585 178.115528,100.329421 C177.857836,99.84094 178.044927,99.236048 178.533407,98.978356 L213.181772,80.700018 C213.670252,80.442326 214.275145,80.629417 214.532837,81.117897 C214.790529,81.606378 214.603438,82.21127 214.114958,82.468963 L181.12315,99.873403 L292.077386,158.11457 C292.566395,158.371257 292.75473,158.975763 292.498043,159.464773 C292.241356,159.953782 291.63685,160.142117 291.14784,159.88543 L179.535227,101.298673 C179.341151,101.1968 179.194435,101.040142 179.104101,100.857662 Z M283.914458,169.866906 L238.32677,145.773996 C237.838482,145.515938 237.651844,144.910906 237.909902,144.422619 C238.16796,143.934331 238.772993,143.747693 239.26128,144.005751 L285.832373,168.618386 C286.32066,168.876444 286.507298,169.481477 286.24924,169.969764 C286.154994,170.148093 286.014468,170.286188 285.850251,170.37708 C285.899769,170.777563 285.70224,171.185018 285.324155,171.384472 L242.706381,193.866978 C242.2179,194.12467 241.613008,193.937579 241.355316,193.449099 C241.097624,192.960618 241.284715,192.355726 241.773195,192.098034 L283.914458,169.866906 Z M22.2712328,309.568492 C21.7831154,309.826871 21.1779603,309.640631 20.919581,309.152514 C20.6612017,308.664397 20.8474413,308.059242 21.3355587,307.800862 L61.6169088,286.478398 C62.1050262,286.220018 62.7101814,286.406258 62.9685606,286.894375 C63.2269399,287.382493 63.0407004,287.987648 62.552583,288.246027 L22.2712328,309.568492 Z M27.2173987,319.635227 C26.7289181,319.892919 26.1240257,319.705828 25.8663336,319.217348 C25.6086414,318.728867 25.7957323,318.123975 26.2842128,317.866283 L60.2828435,299.930705 C60.771324,299.673012 61.3762165,299.860103 61.6339086,300.348584 C61.8916008,300.837064 61.7045099,301.441957 61.2160294,301.699649 L27.2173987,319.635227 Z M78.8468422,292.398721 C78.3583617,292.656413 77.7534692,292.469322 77.4957771,291.980842 C77.2380849,291.492361 77.4251759,290.887469 77.9136564,290.629777 L116.061418,270.505373 C116.549899,270.247681 117.154791,270.434772 117.412483,270.923252 C117.670176,271.411733 117.483085,272.016625 116.994604,272.274317 L78.8468422,292.398721 Z M316.952407,154.90242 C316.463926,155.160112 315.859034,154.973021 315.601342,154.48454 C315.343649,153.99606 315.53074,153.391167 316.019221,153.133475 L364.390969,127.615528 C364.87945,127.357836 365.484342,127.544927 365.742035,128.033407 C365.999727,128.521888 365.812636,129.12678 365.324155,129.384472 L316.952407,154.90242 Z M243.258198,205.906333 C242.769717,206.164025 242.164825,205.976934 241.907133,205.488453 C241.649441,204.999973 241.836532,204.39508 242.325012,204.137388 L286.964357,180.588426 C287.452837,180.330734 288.05773,180.517825 288.315422,181.006306 C288.573114,181.494786 288.386023,182.099679 287.897543,182.357371 L243.258198,205.906333 Z M29.1623276,179.215044 C28.6738471,179.472736 28.0689547,179.285645 27.8112625,178.797165 C27.5535704,178.308684 27.7406613,177.703792 28.2291418,177.4461 L112.701029,132.883948 C113.189509,132.626256 113.794402,132.813347 114.052094,133.301828 C114.309786,133.790308 114.122695,134.395201 113.634215,134.652893 L29.1623276,179.215044 Z M10.4665929,175.7473 C9.9781124,176.004992 9.37322,175.817901 9.1155278,175.329421 C8.8578357,174.84094 9.0449266,174.236048 9.5334071,173.978356 L113.037286,119.376101 C113.525767,119.118409 114.130659,119.3055 114.388351,119.79398 C114.646044,120.282461 114.458953,120.887353 113.970472,121.145045 L10.4665929,175.7473 Z M236.232192,56.9432784 C235.743712,57.2009705 235.138819,57.0138796 234.881127,56.5253991 C234.623435,56.0369186 234.810526,55.4320261 235.299006,55.174334 L304.85859,18.4789931 C305.347071,18.2213009 305.951963,18.4083918 306.209655,18.8968723 C306.467347,19.3853528 306.280256,19.9902453 305.791776,20.2479374 L236.232192,56.9432784 Z M249.244877,63.9365864 C248.756397,64.1942786 248.151504,64.0071876 247.893812,63.5187071 C247.63612,63.0302266 247.823211,62.4253342 248.311691,62.167642 L305.695177,31.8956589 C306.183657,31.6379667 306.78855,31.8250576 307.046242,32.3135381 C307.303934,32.8020186 307.116843,33.4069111 306.628362,33.6646032 L249.244877,63.9365864 Z M327.466593,162.694744 C326.978112,162.952436 326.37322,162.765345 326.115528,162.276865 C325.857836,161.788384 326.044927,161.183492 326.533407,160.9258 L345.129731,151.115528 C345.618211,150.857836 346.223104,151.044927 346.480796,151.533407 C346.738488,152.021888 346.551397,152.62678 346.062917,152.884472 L327.466593,162.694744 Z M31.2479439,198.446814 C30.7589344,198.190127 30.5705996,197.585621 30.8272864,197.096611 C31.0839732,196.607602 31.6884795,196.419267 32.177489,196.675954 L49.3518898,205.690996 C49.8408994,205.947683 50.0292342,206.552189 49.7725474,207.041199 C49.5158606,207.530208 48.9113543,207.718543 48.4223447,207.461856 L31.2479439,198.446814 Z M31.1517946,189.147228 C30.6627851,188.890541 30.4744503,188.286035 30.7311371,187.797025 C30.9878239,187.308016 31.5923302,187.119681 32.0813397,187.376368 L55.2285698,199.526618 C55.7175793,199.783304 55.9059141,200.387811 55.6492273,200.87682 C55.3925406,201.36583 54.7880342,201.554165 54.2990247,201.297478 L31.1517946,189.147228 Z M326.105623,178.131433 C325.617696,177.872695 325.431902,177.267403 325.69064,176.779476 C325.949378,176.291549 326.55467,176.105754 327.042598,176.364493 L413.936974,223.145651 C414.424901,223.404389 414.610696,224.009681 414.351957,224.497608 C414.093219,224.985535 413.487927,225.17133 413,224.912591 L326.105623,178.131433 Z M326.28466,192.720605 C325.796373,192.462547 325.609735,191.857515 325.867793,191.369227 C326.125851,190.88094 326.730883,190.694302 327.219171,190.95236 L340.773707,198.115877 C341.261994,198.373935 341.448632,198.978968 341.190574,199.467255 C340.932516,199.955543 340.327484,200.14218 339.839196,199.884123 L326.28466,192.720605 Z M383.31686,222.209126 C382.828573,221.951068 382.641935,221.346036 382.899993,220.857749 C383.158051,220.369461 383.763083,220.182823 384.251371,220.440881 L393.344009,225.246304 C393.832296,225.504362 394.018934,226.109394 393.760876,226.597682 C393.502818,227.085969 392.897786,227.272607 392.409498,227.014549 L383.31686,222.209126 Z" id="Shape" fill="url(#linearGradient-1)" fill-rule="nonzero"></path>
                <ellipse id="Oval" fill="url(#linearGradient-2)" cx="106" cy="191" rx="18" ry="13"></ellipse>
                <ellipse id="Oval" fill="url(#linearGradient-2)" cx="130" cy="205" rx="12" ry="8"></ellipse>
            </g>
        </g>
    </g>
</svg>