<?xml version="1.0" encoding="UTF-8"?>
<svg width="411px" height="337px" viewBox="0 0 411 337" version="1.1" xmlns="http://www.w3.org/2000/svg" xmlns:xlink="http://www.w3.org/1999/xlink">
    <!-- Generator: Sketch 52.6 (67491) - http://www.bohemiancoding.com/sketch -->
    <title>map_data </title>
    <desc>Created with Sketch.</desc>
    <defs>
        <linearGradient x1="-9.33020209%" y1="54.8343622%" x2="100%" y2="54.8343622%" id="linearGradient-1">
            <stop stop-color="#23A74E" offset="0%"></stop>
            <stop stop-color="#F5FF00" offset="100%"></stop>
        </linearGradient>
        <linearGradient x1="-77.2034144%" y1="59.1416147%" x2="180.497681%" y2="59.1416147%" id="linearGradient-2">
            <stop stop-color="#23A74E" offset="0%"></stop>
            <stop stop-color="#F5FF00" offset="100%"></stop>
        </linearGradient>
    </defs>
    <g id="Page-1" stroke="none" stroke-width="1" fill="none" fill-rule="evenodd">
        <g id="map_data-" transform="translate(-4.000000, -1.000000)">
            <rect id="Rectangle-Copy-18" fill="#D8D8D8" fill-rule="nonzero" opacity="0" x="0" y="0" width="420" height="340"></rect>
            <g id="Group-3" transform="translate(4.000000, 1.000000)">
                <path d="M108.610122,278.667763 L100,278.667763 C99.447715,278.667763 99,278.220048 99,277.667763 C99,277.115478 99.447715,276.667763 100,276.667763 L109,276.667763 C109.310379,276.667763 109.587732,276.809167 109.771151,277.031067 C109.777659,277.03629 109.784121,277.041607 109.790535,277.047019 C111.601609,278.575158 113.44879,280.059951 115.330432,281.5 L137.509891,281.5 L137.509902,281.500012 C126.448402,269.445405 117.156081,254.549445 110.189863,237.667763 L107,237.667763 C106.447715,237.667763 106,237.220048 106,236.667763 C106,236.115478 106.447715,235.667763 107,235.667763 L128.368421,235.667763 C128.920706,235.667763 129.368421,236.115478 129.368421,236.667763 C129.368421,237.220048 128.920706,237.667763 128.368421,237.667763 L112.355626,237.667763 C119.46439,254.659856 128.959346,269.572019 140.243324,281.5 L153.848684,281.5 C154.400969,281.5 154.848684,281.947715 154.848684,282.5 C154.848684,283.052285 154.400969,283.5 153.848684,283.5 L115,283.5 C114.751939,283.5 114.524974,283.409678 114.350198,283.260128 C114.318334,283.241004 114.287208,283.219913 114.256977,283.196833 C112.33889,281.732488 110.456042,280.222319 108.610122,278.667763 Z M204.667763,207.999308 L204.667763,119.000692 C203.10776,119.003285 201.550653,119.013169 199.996797,119.030316 C199.444546,119.03641 198.991918,118.593662 198.985823,118.041411 C198.979729,117.48916 199.422477,117.036532 199.974728,117.030438 C201.535936,117.013209 203.100399,117.003284 204.667763,117.000689 L204.667763,32.0020216 C201.454178,32.017637 198.253214,32.1236958 195.068019,32.3194338 C194.516774,32.3533092 194.04244,31.9338983 194.008565,31.3826535 C193.97469,30.8314086 194.394101,30.3570749 194.945345,30.3231996 C198.171358,30.1249532 201.413232,30.01763 204.667763,30.0019982 L204.667763,15.0112739 C193.439991,15.315812 182.735659,21.773616 173.317571,33.0590543 C176.847708,32.3769583 180.413527,31.8067664 184.009549,31.3507211 C184.557446,31.2812373 185.057931,31.6690672 185.127415,32.2169636 C185.196899,32.76486 184.809069,33.2653456 184.261173,33.3348294 C179.914512,33.8860702 175.612724,34.6060625 171.365721,35.4907314 C156.893781,54.221328 145.71122,84.580361 140.753614,121.466242 C153.375733,119.623192 166.882391,118.315659 180.93062,117.610235 C181.48221,117.582537 181.951816,118.007235 181.979513,118.558825 C182.007211,119.110415 181.582513,119.58002 181.030923,119.607718 C166.749627,120.324846 153.034823,121.666742 140.252757,123.561447 C140.042064,123.761125 139.746605,123.867863 139.436273,123.827763 C139.322526,123.813065 139.215727,123.779795 139.118528,123.731397 C123.313703,126.125031 108.96417,129.367965 96.771414,133.322369 C96.246068,133.492751 95.682069,133.204996 95.511687,132.67965 C95.341304,132.154304 95.629059,131.590305 96.154405,131.419923 C108.421636,127.441365 122.834018,124.180567 138.694995,121.772773 C143.489363,85.56731 154.237003,55.440567 168.370253,36.1440533 C158.73838,38.3396991 149.403999,41.3879738 140.484908,45.2404494 C140.478879,45.2430536 140.472838,45.2455939 140.466787,45.2480704 C128.123802,58.207761 117.771381,74.887954 110.325755,94.411086 C110.128954,94.927117 109.55109,95.185904 109.035059,94.989103 C108.519028,94.792302 108.260241,94.214438 108.457042,93.698407 C123.160116,55.14556 149.120093,27.444979 179.507937,17.274571 C140.309995,24.2061839 105.566534,46.6246383 82.939931,79.622177 C82.627601,80.077664 82.005162,80.193716 81.549675,79.881385 C81.094188,79.569055 80.978136,78.946617 81.290466,78.49113 C109.181866,37.8156683 155.245605,13.0001016 205.499692,13 C205.499794,13 205.499897,13 205.5,13 C205.551706,13 205.603408,13.0000262 205.655106,13.0000785 C205.659319,13.0000262 205.663538,13 205.667763,13 C205.67274,13 205.677709,13.0000364 205.682668,13.0001088 C240.270084,13.0413212 273.061444,24.7866482 299.504102,45.962216 C299.935194,46.3074386 300.004804,46.9367655 299.659581,47.3678568 C299.314359,47.7989482 298.685032,47.8685586 298.25394,47.5233359 C274.744576,28.6967814 246.152411,17.4256666 215.757099,15.3493295 C222.189382,18.33642 228.294955,24.1162549 233.870426,32.3683577 C236.376791,32.7924598 238.868194,33.2728996 241.342908,33.8091756 C241.882665,33.9261421 242.225404,34.4585214 242.108438,34.9982781 C241.991471,35.5380348 241.459092,35.880774 240.919335,35.7638075 C239.07716,35.3646041 237.225585,34.9967113 235.365341,34.6603423 C238.588806,39.7767595 241.622384,45.7391468 244.424639,52.482215 C244.636582,52.992213 244.39496,53.577463 243.884962,53.789406 C243.374963,54.001349 242.789714,53.759727 242.577771,53.249728 C239.525398,45.9048018 236.207367,39.5282433 232.68756,34.1989117 C224.164401,32.8023895 215.468074,32.0640006 206.667763,32.003981 L206.667763,117.001356 C208.54642,117.005722 210.42085,117.020622 212.290441,117.046007 C212.842675,117.053505 213.284271,117.507257 213.276773,118.059491 C213.269274,118.611725 212.815522,119.053321 212.263288,119.045822 C210.402741,119.02056 208.537362,119.005724 206.667763,119.001362 L206.667763,207.998631 C225.023879,207.95556 242.589299,206.897974 258.788107,205.009001 C260.246215,191.668577 261,177.728225 261,163.5 C261,162.947715 261.447715,162.5 262,162.5 C262.552285,162.5 263,162.947715 263,163.5 C263,177.636422 262.259589,191.492299 260.82625,204.766073 C315.429228,198.116252 354,181.971973 354,163.5 C354,152.364799 352.774573,141.389608 350.368655,130.713163 C350.247243,130.174388 350.585582,129.639202 351.124356,129.51779 C351.66313,129.396378 352.198317,129.734717 352.319729,130.273492 C354.758109,141.093992 356,152.216634 356,163.5 C356,200.735368 342.424971,235.860285 318.270208,263.167763 L321.848684,263.167763 C322.400969,263.167763 322.848684,263.615478 322.848684,264.167763 C322.848684,264.720048 322.400969,265.167763 321.848684,265.167763 L288,265.167763 C287.447715,265.167763 287,264.720048 287,264.167763 C287,263.615478 287.447715,263.167763 288,263.167763 L315.795204,263.167763 C315.825711,262.987614 315.905922,262.813664 316.037008,262.667648 C334.877231,241.681518 347.327389,215.928013 351.967828,188.1107 C336.360568,234.857568 277.263843,269.617387 206.667763,269.996862 L206.667763,294.996019 C210.355901,294.970866 214.027154,294.826556 217.676732,294.564267 C218.227596,294.524677 218.706253,294.939147 218.745843,295.490011 C218.785433,296.040875 218.370963,296.519532 217.820099,296.559122 C214.122848,296.824837 210.403779,296.97088 206.667763,296.996065 L206.667763,311.995503 C229.721265,311.817828 251.996424,306.380513 272.160568,296.233836 C272.528478,296.048702 272.895604,295.862038 273.261938,295.673848 C273.38404,295.611122 273.513035,295.575951 273.641828,295.566055 C273.753027,295.523384 273.873783,295.5 274,295.5 L315.848684,295.5 C316.400969,295.5 316.848684,295.947715 316.848684,296.5 C316.848684,297.052285 316.400969,297.5 315.848684,297.5 L274.083943,297.5 C273.743159,297.674768 273.4017,297.848234 273.059572,298.020394 C252.277812,308.477859 229.282869,314 205.5,314 C175.268738,314 146.365591,305.067657 121.793199,288.592421 C121.751021,288.564142 121.711686,288.533212 121.675266,288.5 L83,288.5 C82.447715,288.5 82,288.052285 82,287.5 C82,286.947715 82.447715,286.5 83,286.5 L121.848684,286.5 C122.118394,286.5 122.363165,286.606775 122.543033,286.78036 C122.669498,286.805166 122.793233,286.854985 122.906978,286.931248 C139.986403,298.382618 159.185042,306.140368 179.469872,309.725803 C170.060421,306.575794 161.019643,301.719739 152.54414,295.274563 C152.104526,294.94026 152.019155,294.312877 152.353458,293.873264 C152.687761,293.43365 153.315144,293.348279 153.754758,293.682582 C165.210186,302.393834 177.698882,308.132032 190.723552,310.607231 C176.076069,303.772455 163.107316,286.969141 153.474127,263.470554 C146.708503,261.707918 140.125139,259.598972 133.767266,257.156634 C133.251712,256.958587 132.994322,256.380099 133.192369,255.864545 C133.390416,255.348992 133.968904,255.091601 134.484457,255.289648 C140.322554,257.532317 146.353989,259.491084 152.544447,261.155617 C146.242936,245.137516 141.46001,226.16745 138.692534,205.227035 C135.534767,204.74742 132.429032,204.233154 129.380448,203.684919 C128.836883,203.587169 128.475479,203.067279 128.57323,202.523714 C128.67098,201.980149 129.19087,201.618745 129.734435,201.716495 C132.582958,202.228752 135.481938,202.711221 138.427132,203.163333 C137.907448,199.008039 137.466797,194.77735 137.108989,190.478798 C136.373126,181.63843 136,172.62093 136,163.5 C136,162.64592 136.003272,161.79267 136.009809,160.940307 C136.014044,160.388038 136.46518,159.94377 137.017448,159.948005 C137.569717,159.95224 138.013985,160.403376 138.00975,160.955645 C138.003252,161.802895 138,162.651033 138,163.5 C138,172.565669 138.370836,181.527821 139.102097,190.312894 C139.473726,194.777498 139.93538,199.166984 140.482489,203.472813 C155.53187,205.694962 171.745408,207.132373 188.569079,207.710735 L188.569079,193.414174 C188.569079,192.861889 189.016794,192.414174 189.569079,192.414174 C190.121364,192.414174 190.569079,192.861889 190.569079,193.414174 L190.569079,207.775353 C195.227679,207.91625 199.931129,207.991423 204.667763,207.999308 Z M204.667763,269.998405 C187.833348,269.933882 171.406944,267.912068 155.899382,264.085637 C168.165328,293.275237 185.615193,311.473032 204.667763,311.98874 L204.667763,296.998002 C196.524859,296.958891 188.465362,296.345813 180.541412,295.172728 C179.995082,295.091847 179.61776,294.583393 179.69864,294.037062 C179.779521,293.490732 180.287976,293.11341 180.834306,293.194291 C188.661362,294.353032 196.622969,294.958888 204.667763,294.997978 L204.667763,269.998406 Z M206.667763,209.998652 L206.667763,267.996835 C211.831621,267.968834 216.932351,267.755275 221.957237,267.365204 L221.957237,250.736842 C221.957237,250.184557 222.404952,249.736842 222.957237,249.736842 C223.509522,249.736842 223.957237,250.184557 223.957237,250.736842 L223.957237,267.200297 C293.336751,261.144164 347.814526,221.394646 353.508156,172.058455 C344.018005,188.112675 308.253471,201.096576 260.597645,206.826746 C259.580326,215.757283 258.247574,224.414736 256.61404,232.705987 C256.507282,233.247855 255.981466,233.600581 255.439598,233.493823 C254.89773,233.387065 254.545004,232.861249 254.651762,232.319381 C256.246343,224.225838 257.552761,215.778939 258.557044,207.066832 C242.402036,208.926005 224.922725,209.95647 206.667763,209.998651 Z M204.667763,209.99931 C182.216065,209.962089 160.501827,208.419072 140.751733,205.533806 C143.594602,226.712981 148.513173,245.809044 154.953092,261.786372 C170.72013,265.805404 187.477003,267.931889 204.667763,267.998391 L204.667763,209.999311 Z M206.667763,30.003935 C214.930431,30.0596367 223.103347,30.7064425 231.130484,31.9280928 C223.626404,21.395357 215.275634,15.5210855 206.667763,15.0330916 L206.667763,30.0039349 Z M190.699107,16.4053219 C173.73467,19.6486074 157.830795,28.4006626 144.13144,41.5658054 C152.527817,38.2358198 161.259894,35.5963108 170.235939,33.6848182 C176.508261,25.7074236 183.399706,19.817334 190.699107,16.4053219 Z M297.284375,81.358935 C304.376414,96.305173 309.497926,112.920199 312.357646,130.500799 C312.424426,130.653166 312.453654,130.822717 312.437374,130.99485 C314.124926,141.536203 315,152.421628 315,163.5 C315,164.052285 314.552285,164.5 314,164.5 C313.447715,164.5 313,164.052285 313,163.5 C313,152.654128 312.153239,141.997132 310.520339,131.673992 C293.017931,126.579895 271.296294,122.825866 247.334094,120.809296 C246.783755,120.762982 246.375162,120.279298 246.421477,119.728959 C246.467791,119.17862 246.951475,118.770027 247.501814,118.816341 C271.173439,120.808457 292.685066,124.48993 310.162165,129.489064 C307.127398,111.606777 301.724592,94.766718 294.273284,79.733099 C278.061005,71.207812 259.472508,65.054911 239.563001,61.764193 C239.018109,61.674131 238.649396,61.159399 238.739458,60.614507 C238.82952,60.069615 239.344252,59.700902 239.889144,59.790964 C258.998232,62.949386 276.912828,68.720246 292.721478,76.684991 C288.299794,68.227318 283.214793,60.377911 277.526306,53.279857 C277.180925,52.848892 277.250303,52.21954 277.681268,51.874159 C278.112232,51.528777 278.741584,51.598156 279.086966,52.029121 C285.415799,59.926195 291.005333,68.735338 295.776376,78.26536 C301.103902,81.094649 306.176663,84.178881 310.957871,87.501162 C311.411412,87.816311 311.523601,88.439457 311.208453,88.892999 C310.893304,89.34654 310.270158,89.458729 309.816616,89.143581 C305.837882,86.378908 301.653187,83.780647 297.284375,81.358935 Z M64.5,50.749441 L62.6412719,52.302848 C62.2174963,52.657012 61.586851,52.600581 61.2326863,52.176806 C60.8785216,51.75303 60.9349524,51.122385 61.3587281,50.76822 L64.894262,47.813446 C65.26549,47.5031976 65.805578,47.5031976 66.176806,47.813446 L69.71234,50.76822 C70.136115,51.122385 70.192546,51.75303 69.838382,52.176806 C69.484217,52.600581 68.853572,52.657012 68.429796,52.302848 L66.5,50.690047 L66.5,76.852459 C66.5,77.404744 66.052285,77.852459 65.5,77.852459 C64.9477153,77.852459 64.5,77.404744 64.5,76.852459 L64.5,50.749441 Z M42.4814767,57.257336 C42.4936315,57.319648 42.5,57.384029 42.5,57.449898 L42.5,59.823505 C42.5,60.37579 42.0522847,60.823505 41.5,60.823505 C40.9477153,60.823505 40.5,60.37579 40.5,59.823505 L40.5,58 L27.5,58 C24.9828124,58 23,55.733929 23,53 C23,50.266071 24.9828124,48 27.5,48 C28.0522847,48 28.5,48.447715 28.5,49 C28.5,49.552285 28.0522847,50 27.5,50 C26.1511943,50 25,51.315651 25,53 C25,54.684349 26.1511943,56 27.5,56 L41.5148991,56 C42.0671839,56 42.5148991,56.447715 42.5148991,57 C42.5148991,57.088971 42.5032801,57.175227 42.4814767,57.257336 Z M70.474212,225.978183 C70.685481,226.07263 70.865149,226.240454 70.9711,226.466427 C75.931078,237.045119 82.128423,246.998751 89.419794,256.124497 C89.764537,256.555971 89.694228,257.18522 89.262753,257.529964 C88.831279,257.874707 88.20203,257.804398 87.857286,257.372923 C80.548961,248.225959 74.325005,238.257985 69.326001,227.667763 L34,227.667763 C33.4477153,227.667763 33,227.220048 33,226.667763 C33,226.115478 33.4477153,225.667763 34,225.667763 L69.75,225.667763 C70.034951,225.667763 70.292065,225.786946 70.474212,225.978183 Z M296.305808,283.384861 C296.126999,283.656345 295.81946,283.835526 295.470071,283.835526 L256,283.835526 C255.447715,283.835526 255,283.387811 255,282.835526 C255,282.283242 255.447715,281.835526 256,281.835526 L295.314081,281.835526 C295.372937,281.749078 295.446465,281.670462 295.534151,281.603514 C298.823819,279.091839 302.007802,276.444044 305.077423,273.667765 L244,273.667763 C243.447715,273.667763 243,273.220048 243,272.667763 C243,272.115478 243.447715,271.667763 244,271.667763 L307.453947,271.667763 C308.006232,271.667763 308.453947,272.115478 308.453947,272.667763 C308.453947,272.89115 308.3807,273.097429 308.256913,273.263893 C308.208781,273.434178 308.114838,273.59384 307.975796,273.723167 C304.388585,277.059737 300.641271,280.220505 296.747845,283.193151 C296.613558,283.29568 296.461622,283.358968 296.305808,283.384861 Z M341.118266,98.167947 C341.358312,98.665337 341.149694,99.263146 340.652304,99.503193 C340.154915,99.743239 339.557105,99.534621 339.317059,99.037231 C337.540849,95.356822 335.613143,91.75232 333.5395,88.232446 C333.259166,87.756598 333.417662,87.143592 333.89351,86.863258 C334.369358,86.582924 334.982365,86.74142 335.262699,87.217268 C337.364315,90.784625 339.31805,94.437797 341.118266,98.167947 Z M65.369688,108.492735 C65.571629,107.978694 66.152046,107.725686 66.666088,107.927627 C67.180129,108.129567 67.433137,108.709985 67.231196,109.224027 C63.7584404,118.063956 61.1402699,127.237503 59.4223276,136.642342 C59.3230862,137.185637 58.8022074,137.545614 58.2589123,137.446372 C57.7156172,137.347131 57.3556406,136.826252 57.454882,136.282957 C59.1961031,126.750679 61.8498147,117.452602 65.369688,108.492735 Z M62.2034982,209.63553 C62.0343597,209.109782 62.3234486,208.546466 62.8491962,208.377327 C63.3749439,208.208189 63.9382604,208.497278 64.1073989,209.023025 C64.7136324,210.907433 65.35748,212.778479 66.038478,214.635215 C66.228652,215.153724 65.962484,215.728226 65.443975,215.918401 C64.9254653,216.108575 64.3509634,215.842407 64.1607889,215.323898 C63.4705487,213.441962 62.8179614,211.545519 62.2034982,209.63553 Z M241.051358,289.009868 L263,289.009868 C263.552285,289.009868 264,289.457584 264,290.009868 C264,290.562153 263.552285,291.009868 263,291.009868 L241.051358,291.009868 L243.625866,294.090395 C243.980031,294.514171 243.9236,295.144816 243.499825,295.498981 C243.076049,295.853145 242.445404,295.796715 242.091239,295.372939 L238.14506,290.65114 C237.834812,290.279913 237.834812,289.739824 238.14506,289.368596 L242.091239,284.646798 C242.445404,284.223022 243.076049,284.166591 243.499825,284.520756 C243.9236,284.874921 243.980031,285.505566 243.625866,285.929342 L241.051358,289.009868 Z M79.202674,266.009868 L114.480263,266.009868 C115.032548,266.009868 115.480263,266.457584 115.480263,267.009868 C115.480263,267.562153 115.032548,268.009868 114.480263,268.009868 L79.202674,268.009868 L81.777182,271.090395 C82.131347,271.514171 82.074916,272.144816 81.65114,272.498981 C81.227365,272.853145 80.596719,272.796715 80.242555,272.372939 L76.296376,267.65114 C75.986128,267.279913 75.986128,266.739824 76.296376,266.368596 L80.242555,261.646798 C80.596719,261.223022 81.227365,261.166591 81.65114,261.520756 C82.074916,261.874921 82.131347,262.505566 81.777182,262.929342 L79.202674,266.009868 Z M103.534168,299.509868 L100.95966,296.429342 C100.605495,296.005566 100.661926,295.374921 101.085702,295.020756 C101.509477,294.666591 102.140123,294.723022 102.494287,295.146798 L106.440466,299.868596 C106.750714,300.239824 106.750714,300.779913 106.440466,301.15114 L102.494287,305.872939 C102.140123,306.296715 101.509477,306.353145 101.085702,305.998981 C100.661926,305.644816 100.605495,305.014171 100.95966,304.590395 L103.534168,301.509868 L85,301.509868 C84.447715,301.509868 84,301.062153 84,300.509868 C84,299.957584 84.447715,299.509868 85,299.509868 L103.534168,299.509868 Z M105.478006,210.045903 C106.03029,210.045903 106.478006,210.493618 106.478006,211.045903 C106.478006,211.598187 106.03029,212.045903 105.478006,212.045903 L101.521994,212.045903 C100.96971,212.045903 100.521994,211.598187 100.521994,211.045903 C100.521994,210.493618 100.96971,210.045903 101.521994,210.045903 L105.478006,210.045903 Z M96.478006,210.045903 C97.03029,210.045903 97.478006,210.493618 97.478006,211.045903 C97.478006,211.598187 97.03029,212.045903 96.478006,212.045903 L92.521994,212.045903 C91.96971,212.045903 91.521994,211.598187 91.521994,211.045903 C91.521994,210.493618 91.96971,210.045903 92.521994,210.045903 L96.478006,210.045903 Z M87.478006,210.045903 C88.03029,210.045903 88.478006,210.493618 88.478006,211.045903 C88.478006,211.598187 88.03029,212.045903 87.478006,212.045903 L83.521994,212.045903 C82.96971,212.045903 82.521994,211.598187 82.521994,211.045903 C82.521994,210.493618 82.96971,210.045903 83.521994,210.045903 L87.478006,210.045903 Z M78.478006,210.045903 C79.03029,210.045903 79.478006,210.493618 79.478006,211.045903 C79.478006,211.598187 79.03029,212.045903 78.478006,212.045903 L74.521994,212.045903 C73.96971,212.045903 73.521994,211.598187 73.521994,211.045903 C73.521994,210.493618 73.96971,210.045903 74.521994,210.045903 L78.478006,210.045903 Z M99.478006,216.045903 C100.03029,216.045903 100.478006,216.493618 100.478006,217.045903 C100.478006,217.598187 100.03029,218.045903 99.478006,218.045903 L95.521994,218.045903 C94.96971,218.045903 94.521994,217.598187 94.521994,217.045903 C94.521994,216.493618 94.96971,216.045903 95.521994,216.045903 L99.478006,216.045903 Z M90.478006,216.045903 C91.03029,216.045903 91.478006,216.493618 91.478006,217.045903 C91.478006,217.598187 91.03029,218.045903 90.478006,218.045903 L86.521994,218.045903 C85.96971,218.045903 85.521994,217.598187 85.521994,217.045903 C85.521994,216.493618 85.96971,216.045903 86.521994,216.045903 L90.478006,216.045903 Z M81.478006,216.045903 C82.03029,216.045903 82.478006,216.493618 82.478006,217.045903 C82.478006,217.598187 82.03029,218.045903 81.478006,218.045903 L77.521994,218.045903 C76.96971,218.045903 76.521994,217.598187 76.521994,217.045903 C76.521994,216.493618 76.96971,216.045903 77.521994,216.045903 L81.478006,216.045903 Z M40.5,319.090909 L32.0909091,319.090909 C29.3294853,319.090909 27.0909091,316.852333 27.0909091,314.090909 L27.0909091,303 L16.3409091,303 C14.1317701,303 12.3409091,301.209139 12.3409091,299 L12.3409091,276.980879 C12.1256632,276.661868 12,276.277427 12,275.863636 L12,245 C12,243.895431 12.8954305,243 14,243 L48.8863636,243 C49.9909331,243 50.8863636,243.895431 50.8863636,245 L50.8863636,256.75 L66.659091,256.75 C68.86823,256.75 70.659091,258.540861 70.659091,260.75 L70.659091,269.496348 C70.659091,270.875508 69.948612,272.157388 68.779087,272.888341 L61.2669685,277.583415 L68.979212,290.804404 C70.092333,292.712611 69.447788,295.161882 67.53958,296.275004 C67.503269,296.296015 67.503269,296.296015 67.466668,296.316517 L58.7541585,301.1568 L72,324.531815 L72,325.818182 C72,328.027321 70.209139,329.818182 68,329.818182 L44.5,329.818182 C42.290861,329.818182 40.5,328.027321 40.5,325.818182 L40.5,319.090909 Z M40.5,317.090909 L40.5,305 C40.5,303.895431 39.6045695,303 38.5,303 L29.0909091,303 L29.0909091,314.090909 C29.0909091,315.747763 30.4340548,317.090909 32.0909091,317.090909 L40.5,317.090909 Z M59.4860658,327.818182 L68,327.818182 C69.104569,327.818182 70,326.922751 70,325.818182 L70,325.059095 L60.831153,308.878776 C59.3805186,309.421892 57.8345831,309.704545 56.25,309.704545 C49.0326425,309.704545 43.1818182,303.853721 43.1818182,296.636364 C43.1818182,293.739918 44.1318775,291.004842 45.8002965,288.786082 L38.7787241,277.863636 L27.75,277.863636 L27.75,284.987211 C30.7894607,285.466949 33.1136364,288.098418 33.1136364,291.272727 C33.1136364,294.787267 30.2645393,297.636364 26.75,297.636364 C23.2354607,297.636364 20.3863636,294.787267 20.3863636,291.272727 C20.3863636,288.098418 22.7105393,285.466949 25.75,284.987211 L25.75,277.863636 L14.3409091,277.863636 L14.3409091,299 C14.3409091,300.104569 15.2363396,301 16.3409091,301 L38.5,301 C40.709139,301 42.5,302.790861 42.5,305 L42.5,317.090909 L50.0102822,317.090909 C51.7342323,317.090909 53.3365819,317.979008 54.2502737,319.440914 L59.4860658,327.818182 Z M57.1275705,327.818182 L52.5542771,320.500912 C52.006062,319.623768 51.0446523,319.090909 50.0102822,319.090909 L42.5,319.090909 L42.5,325.818182 C42.5,326.922751 43.3954305,327.818182 44.5,327.818182 L57.1275705,327.818182 Z M57.7680981,299.416694 L66.495382,294.568202 C66.513683,294.557952 66.513683,294.557952 66.531838,294.547446 C67.485942,293.990885 67.808215,292.76625 67.251654,291.812146 L59.5701815,278.643907 L51.1713111,283.893201 C50.263026,284.460879 49.9632022,285.643348 50.4912646,286.575223 L57.7680981,299.416694 Z M48.8863636,269.477273 L42.0542476,269.477273 C41.3646676,269.477273 40.7237277,269.122033 40.358251,268.537271 L34.2412069,258.75 L27.75,258.75 L27.75,268.818182 L33.7035521,268.818182 C34.7243434,268.818182 35.6750869,269.337241 36.2270875,270.195909 L39.8706265,275.863636 L48.8863636,275.863636 L48.8863636,269.477273 Z M48.8863636,267.477273 L48.8863636,258.75 L36.5997022,258.75 L42.0542476,267.477273 L48.8863636,267.477273 Z M47.1772925,287.229561 C47.5281937,286.891294 47.8991908,286.571422 48.2890545,286.271829 C48.0192857,284.712948 48.695902,283.081836 50.1113132,282.197204 L67.719089,271.192345 C68.303852,270.826868 68.659091,270.185928 68.659091,269.496348 L68.659091,260.75 C68.659091,259.645431 67.76366,258.75 66.659091,258.75 L50.8863636,258.75 L50.8863636,275.863636 C50.8863636,276.968206 49.9909331,277.863636 48.8863636,277.863636 L41.1563408,277.863636 L47.1772925,287.229561 Z M14,270.818182 L14,275.863636 L25.75,275.863636 L25.75,270.818182 L14,270.818182 Z M14,268.818182 L25.75,268.818182 L25.75,258.75 L14,258.75 L14,268.818182 Z M37.4930098,275.863636 L34.5447306,271.277424 C34.3607304,270.991202 34.0438159,270.818182 33.7035521,270.818182 L27.75,270.818182 L27.75,275.863636 L37.4930098,275.863636 Z M25.75,245 L14,245 L14,256.75 L25.75,256.75 L25.75,245 Z M27.75,245 L27.75,256.75 L48.8863636,256.75 L48.8863636,245 L27.75,245 Z M59.8305009,307.11292 L49.1037387,288.183339 C46.6495561,290.258013 45.1818182,293.32152 45.1818182,296.636364 C45.1818182,302.749152 50.137212,307.704545 56.25,307.704545 C57.4850318,307.704545 58.6903652,307.502499 59.8305009,307.11292 Z M26.75,295.636364 C29.1599698,295.636364 31.1136364,293.682697 31.1136364,291.272727 C31.1136364,288.862757 29.1599698,286.909091 26.75,286.909091 C24.3400302,286.909091 22.3863636,288.862757 22.3863636,291.272727 C22.3863636,293.682697 24.3400302,295.636364 26.75,295.636364 Z M70.2,196.4 L70.2,192.355556 L47.495542,192.355556 C45.8386877,192.355556 44.495542,191.01241 44.495542,189.355556 L44.495542,145 C44.495542,143.343146 45.8386877,142 47.495542,142 L109.984431,142 C111.641285,142 112.984431,143.343146 112.984431,145 L112.984431,189.355556 C112.984431,191.01241 111.641285,192.355556 109.984431,192.355556 L87.311111,192.355556 L87.311111,196.4 L96.888889,196.4 C97.441174,196.4 97.888889,196.847715 97.888889,197.4 L97.888889,203.444444 C97.888889,203.996729 97.441174,204.444444 96.888889,204.444444 L60.6222222,204.444444 C60.0699375,204.444444 59.6222222,203.996729 59.6222222,203.444444 L59.6222222,197.4 C59.6222222,196.847715 60.0699375,196.4 60.6222222,196.4 L70.2,196.4 Z M95.888889,198.4 L61.6222222,198.4 L61.6222222,202.444444 L95.888889,202.444444 L95.888889,198.4 Z M72.2,196.4 L85.311111,196.4 L85.311111,192.355556 L72.2,192.355556 L72.2,196.4 Z M109.984431,190.355556 C110.536716,190.355556 110.984431,189.90784 110.984431,189.355556 L110.984431,145 C110.984431,144.447715 110.536716,144 109.984431,144 L47.495542,144 C46.9432572,144 46.495542,144.447715 46.495542,145 L46.495542,189.355556 C46.495542,189.90784 46.9432572,190.355556 47.495542,190.355556 L109.984431,190.355556 Z M50.7578125,148 C50.2055278,148 49.7578125,147.552285 49.7578125,147 C49.7578125,146.447715 50.2055278,146 50.7578125,146 L90,146 C90.552285,146 91,146.447715 91,147 C91,147.552285 90.552285,148 90,148 L50.7578125,148 Z M94,148 C93.447715,148 93,147.552285 93,147 C93,146.447715 93.447715,146 94,146 L98,146 C98.552285,146 99,146.447715 99,147 C99,147.552285 98.552285,148 98,148 L94,148 Z M101.352232,148 C100.799947,148 100.352232,147.552285 100.352232,147 C100.352232,146.447715 100.799947,146 101.352232,146 L105.324171,146 C105.876455,146 106.324171,146.447715 106.324171,147 C106.324171,147.552285 105.876455,148 105.324171,148 L101.352232,148 Z M83.616297,161.377496 C83.119699,161.619175 82.521207,161.412522 82.279528,160.915924 C82.03785,160.419326 82.244503,159.820834 82.741101,159.579155 L91.631367,155.252541 C91.907611,155.118101 92.23032,155.118101 92.506564,155.252541 L105.437598,161.54567 C106.187467,161.910608 106.187467,162.979074 105.437598,163.344012 L92.506564,169.637141 C92.23032,169.77158 91.907611,169.77158 91.631367,169.637141 L82.286676,165.089372 C81.790077,164.847693 81.583424,164.249202 81.825103,163.752603 C82.066782,163.256005 82.665274,163.049352 83.161872,163.291031 L92.068966,167.625835 L102.714799,162.444841 L92.068966,157.263847 L83.616297,161.377496 Z M104.562402,167.062859 C105.059,166.82118 105.657492,167.027833 105.899171,167.524432 C106.140849,168.02103 105.934196,168.619522 105.437598,168.861201 L92.506564,175.15433 C92.23032,175.288769 91.907611,175.288769 91.631367,175.15433 L82.463825,170.692775 C81.967227,170.451096 81.760574,169.852604 82.002253,169.356006 C82.243932,168.859408 82.842424,168.652755 83.339022,168.894433 L92.068966,173.143024 L104.562402,167.062859 Z M104.562402,172.235273 C105.059,171.993594 105.657492,172.200247 105.899171,172.696846 C106.140849,173.193444 105.934196,173.791936 105.437598,174.033614 L92.506564,180.326744 C92.23032,180.461183 91.907611,180.461183 91.631367,180.326744 L80.18333,174.755342 C79.686731,174.513664 79.480078,173.915172 79.721757,173.418574 C79.963436,172.921975 80.561928,172.715322 81.058526,172.957001 L92.068966,178.315437 L104.562402,172.235273 Z M104.562402,177.407687 C105.059,177.166008 105.657492,177.372661 105.899171,177.869259 C106.140849,178.365858 105.934196,178.964349 105.437598,179.206028 L92.506564,185.499158 C92.23032,185.633597 91.907611,185.633597 91.631367,185.499158 L81.898511,180.762481 C81.401913,180.520802 81.19526,179.922311 81.436938,179.425712 C81.678617,178.929114 82.277109,178.722461 82.773707,178.96414 L92.068966,183.487851 L104.562402,177.407687 Z M58.1819007,174.62069 L56.0784524,174.62069 C53.8693134,174.62069 52.0784524,172.829829 52.0784524,170.62069 L52.0784524,155.413793 C52.0784524,155.396445 52.0788942,155.3792 52.079767,155.362069 C52.0788942,155.344938 52.0784524,155.327693 52.0784524,155.310345 C52.0784524,154.75806 52.5261677,154.310345 53.0784524,154.310345 L61.9388826,154.310345 C61.9498,154.310166 61.9607116,154.310167 61.971613,154.310345 L73.608233,154.310345 C75.692718,154.310345 77.382528,156.000154 77.382528,158.084639 L77.382528,159.196191 C77.382528,160.575351 76.672049,161.857231 75.502523,162.588184 L73.70277,163.713031 L75.702649,167.141394 C76.81577,169.049602 76.171225,171.498873 74.263017,172.611994 C74.226706,172.633006 74.226706,172.633006 74.190105,172.653508 L72.671615,173.497113 L73.683049,175.281998 C73.742895,175.351207 73.794169,175.429852 73.834475,175.517054 C73.850684,175.552123 73.86469,175.587647 73.87655,175.62347 L77.937387,182.789652 L77.937387,183.053292 C77.937387,184.524897 76.744415,185.717868 75.27281,185.717868 L71.960969,185.717868 C71.950051,185.718047 71.93914,185.718047 71.928239,185.717868 L67.73049,185.717868 C65.521351,185.717868 63.73049,183.927007 63.73049,181.717868 L63.73049,181.278997 L63.1819007,181.278997 C60.4204769,181.278997 58.1819007,179.040421 58.1819007,176.278997 L58.1819007,174.62069 Z M60.1819007,174.62069 L60.1819007,176.278997 C60.1819007,177.935851 61.5250464,179.278997 63.1819007,179.278997 L63.73049,179.278997 L63.73049,176.62069 C63.73049,175.51612 62.8350595,174.62069 61.73049,174.62069 L60.1819007,174.62069 Z M65.73049,179.278997 L66.952371,179.278997 C68.676321,179.278997 70.278671,180.167095 71.192362,181.629002 L72.497904,183.717868 L75.27281,183.717868 C75.567891,183.717868 75.818055,183.525553 75.904799,183.259424 L72.455687,177.172756 C71.932924,177.319394 71.38839,177.394984 70.833938,177.394984 C67.523692,177.394984 64.8402079,174.7115 64.8402079,171.401254 C64.8402079,170.218083 65.185896,169.092072 65.804401,168.139431 L61.7054714,161.763318 C61.5214712,161.477095 61.2045567,161.304075 60.8642929,161.304075 L59.6270417,161.304075 L59.6270417,166.120712 C60.9155231,166.54136 61.8464775,167.752871 61.8464775,169.181818 C61.8464775,170.959863 60.405087,172.401254 58.6270417,172.401254 C56.8489965,172.401254 55.407606,170.959863 55.407606,169.181818 C55.407606,167.752871 56.3385604,166.54136 57.6270417,166.120712 L57.6270417,161.304075 L54.0784524,161.304075 L54.0784524,170.62069 C54.0784524,171.725259 54.9738829,172.62069 56.0784524,172.62069 L61.73049,172.62069 C63.939629,172.62069 65.73049,174.411551 65.73049,176.62069 L65.73049,179.278997 Z M65.73049,181.278997 L65.73049,181.717868 C65.73049,182.822438 66.625921,183.717868 67.73049,183.717868 L70.139409,183.717868 L69.496366,182.689 C68.948151,181.811856 67.986741,181.278997 66.952371,181.278997 L65.73049,181.278997 Z M72.005983,164.773522 L70.47155,165.732543 C69.563265,166.300221 69.263441,167.48269 69.791504,168.414564 L71.685554,171.757007 L73.218819,170.905193 C73.23712,170.894942 73.23712,170.894942 73.255275,170.884436 C74.209379,170.327876 74.531651,169.10324 73.975091,168.149136 L72.005983,164.773522 Z M63.760443,156.310345 L65.284738,158.749216 L68.059644,158.749216 C68.611928,158.749216 69.059644,159.196932 69.059644,159.749216 C69.059644,160.301501 68.611928,160.749216 68.059644,160.749216 L65.284738,160.749216 C64.5951576,160.749216 63.9542178,160.393977 63.5887411,159.809214 L61.4019477,156.310345 L59.6270417,156.310345 L59.6270417,159.304075 L60.8642929,159.304075 C61.8850842,159.304075 62.8358277,159.823135 63.3878283,160.681802 L67.209747,166.627009 C67.245855,166.599572 67.282315,166.572508 67.319122,166.545826 C67.428,166.466895 67.547438,166.413096 67.670519,166.383323 C67.92529,165.441865 68.522767,164.592037 69.411552,164.036546 L74.442526,160.892188 C75.027288,160.526711 75.382528,159.885771 75.382528,159.196191 L75.382528,158.084639 C75.382528,157.104724 74.588149,156.310345 73.608233,156.310345 L63.760443,156.310345 Z M54.0784524,159.304075 L57.6270417,159.304075 L57.6270417,156.310345 L54.0784524,156.310345 L54.0784524,159.304075 Z M71.423843,175.351855 L68.051459,169.40059 C67.945114,169.212921 67.855557,169.020171 67.78234,168.824106 C67.183233,169.532391 66.840208,170.437648 66.840208,171.401254 C66.840208,173.60693 68.628262,175.394984 70.833938,175.394984 C71.033215,175.394984 71.230212,175.380453 71.423843,175.351855 Z M58.6270417,170.401254 C59.3005175,170.401254 59.8464775,169.855294 59.8464775,169.181818 C59.8464775,168.508342 59.3005175,167.962382 58.6270417,167.962382 C57.953566,167.962382 57.407606,168.508342 57.407606,169.181818 C57.407606,169.855294 57.953566,170.401254 58.6270417,170.401254 Z M52.5,65 L45.1514296,65 C44.5991448,65 44.1514296,64.552285 44.1514296,64 C44.1514296,63.447715 44.5991448,63 45.1514296,63 L52.5,63 L52.5,59 C52.5,58.447715 52.9477153,58 53.5,58 C54.0522847,58 54.5,58.447715 54.5,59 L54.5,63 L55.7470361,63 C56.2993208,63 56.7470361,63.447715 56.7470361,64 C56.7470361,64.552285 56.2993208,65 55.7470361,65 L54.5,65 L54.5,76.852459 C54.5,77.404744 54.0522847,77.852459 53.5,77.852459 C52.9477153,77.852459 52.5,77.404744 52.5,76.852459 L52.5,65 Z M72,113.5 C72,114.052285 71.552285,114.5 71,114.5 C70.447715,114.5 70,114.052285 70,113.5 L70,59.647541 C70,56.913274 72.606813,54 75.5,54 C76.052285,54 76.5,54.447715 76.5,55 C76.5,55.552285 76.052285,56 75.5,56 C73.763981,56 72,57.971358 72,59.647541 L72,113.5 Z M34.3812885,121 C34.3812885,120.447715 34.8290037,120 35.3812885,120 C35.9335732,120 36.3812885,120.447715 36.3812885,121 L36.3812885,147.539025 C36.3812885,149.215208 38.1452698,151.186566 39.8812885,151.186566 C40.4335732,151.186566 40.8812885,151.634281 40.8812885,152.186566 C40.8812885,152.738851 40.4335732,153.186566 39.8812885,153.186566 C36.988101,153.186566 34.3812885,150.273292 34.3812885,147.539025 L34.3812885,121 Z M86.395349,63 C86.947634,63 87.395349,63.447715 87.395349,64 C87.395349,64.552285 86.947634,65 86.395349,65 L74.928759,65 C74.376474,65 73.928759,64.552285 73.928759,64 C73.928759,63.447715 74.376474,63 74.928759,63 L86.395349,63 Z M62.8082982,63 C63.3605829,63 63.8082982,63.447715 63.8082982,64 C63.8082982,64.552285 63.3605829,65 62.8082982,65 L61.0130741,65 C60.4607893,65 60.0130741,64.552285 60.0130741,64 C60.0130741,63.447715 60.4607893,63 61.0130741,63 L62.8082982,63 Z M86.395349,29.9090909 C96.117331,29.9090909 104,37.7636574 104,47.4545455 C104,48.00683 103.552285,48.454545 103,48.454545 C102.447715,48.454545 102,48.00683 102,47.4545455 C102,38.869829 95.014358,31.9090909 86.395349,31.9090909 C84.162291,31.9090909 81.997175,32.3760395 80.006105,33.2673984 C79.441446,33.5201839 78.785039,33.2047687 78.629587,32.6059577 C75.655251,21.148619 65.235732,13 53.1860465,13 C44.1552657,13 35.9099508,17.5728008 31.098367,24.9903815 C30.83008,25.4039752 30.3003986,25.5603385 29.8505089,25.3587525 C27.3280616,24.2284975 24.5847652,23.6363636 21.755814,23.6363636 C10.8441813,23.6363636 2,32.4490149 2,43.3181818 C2,54.187349 10.8441813,63 21.755814,63 L37.0674341,63 C37.6197188,63 38.0674341,63.447715 38.0674341,64 C38.0674341,64.552285 37.6197188,65 37.0674341,65 L21.755814,65 C9.7412076,65 0,55.29352 0,43.3181818 C0,31.3428432 9.7412076,21.6363636 21.755814,21.6363636 C24.5793264,21.6363636 27.3284922,22.1732359 29.8890213,23.2025171 C35.1225011,15.634736 43.7581003,11 53.1860465,11 C65.763082,11 76.690507,19.2514307 80.256528,31.0055474 C82.201512,30.2841952 84.272591,29.9090909 86.395349,29.9090909 Z M104.093023,12.3636364 C110.667243,12.3636364 116,17.6529785 116,24.1818182 C116,30.7106579 110.667243,36 104.093023,36 C103.540739,36 103.093023,35.5522847 103.093023,35 C103.093023,34.4477153 103.540739,34 104.093023,34 C109.566317,34 114,29.6024121 114,24.1818182 C114,18.7612242 109.566317,14.3636364 104.093023,14.3636364 C102.674156,14.3636364 101.299172,14.658816 100.034809,15.2222447 C99.470766,15.4735946 98.815971,15.1587157 98.660138,14.5611906 C96.746053,7.2218716 90.038118,2 82.27907,2 C76.463387,2 71.154744,4.9306203 68.057225,9.6838533 C67.788858,10.09567 67.260993,10.2513857 66.812079,10.0511607 C65.198702,9.3315607 63.4439701,8.9545455 61.6337209,8.9545455 C61.0814362,8.9545455 60.6337209,8.5068302 60.6337209,7.9545455 C60.6337209,7.4022607 61.0814362,6.9545455 61.6337209,6.9545455 C63.4397949,6.9545455 65.201102,7.2798956 66.85107,7.9049847 C70.366514,2.996118 76.066089,1.70530257e-13 82.27907,1.70530257e-13 C90.568534,1.70530257e-13 97.787949,5.3352228 100.280693,12.9826299 C101.496765,12.5749175 102.780469,12.3636364 104.093023,12.3636364 Z M57.5,66.852459 L57.5,61 C57.5,60.447715 57.9477153,60 58.5,60 C59.0522847,60 59.5,60.447715 59.5,61 L59.5,66.852459 C59.5,67.404744 59.0522847,67.852459 58.5,67.852459 C57.9477153,67.852459 57.5,67.404744 57.5,66.852459 Z M40.5,66.449898 C40.5,65.897613 40.9477153,65.449898 41.5,65.449898 C42.0522847,65.449898 42.5,65.897613 42.5,66.449898 L42.5,68.823505 C42.5,69.37579 42.0522847,69.823505 41.5,69.823505 C40.9477153,69.823505 40.5,69.37579 40.5,68.823505 L40.5,66.449898 Z M40.5,75.449898 C40.5,74.897613 40.9477153,74.449898 41.5,74.449898 C42.0522847,74.449898 42.5,74.897613 42.5,75.449898 L42.5,77.823505 C42.5,78.37579 42.0522847,78.823505 41.5,78.823505 C40.9477153,78.823505 40.5,78.37579 40.5,77.823505 L40.5,75.449898 Z M40.5,84.449898 C40.5,83.897613 40.9477153,83.449898 41.5,83.449898 C42.0522847,83.449898 42.5,83.897613 42.5,84.449898 L42.5,86.823505 C42.5,87.37579 42.0522847,87.823505 41.5,87.823505 C40.9477153,87.823505 40.5,87.37579 40.5,86.823505 L40.5,84.449898 Z M146.609472,65.456086 C147.138322,65.296913 147.696074,65.596597 147.855247,66.125447 C148.014419,66.654297 147.714736,67.21205 147.185886,67.371222 C143.642326,68.437756 140.160778,69.601183 136.748492,70.858472 C136.230266,71.049417 135.655369,70.784104 135.464423,70.265878 C135.273478,69.747651 135.538792,69.172754 136.057018,68.981809 C139.507377,67.710492 143.027296,66.534242 146.609472,65.456086 Z M250.104419,258.727861 C249.940412,259.255232 249.379939,259.549797 248.852568,259.38579 C248.325197,259.221783 248.030632,258.66131 248.194639,258.133939 C249.154561,255.047273 250.067505,251.85943 250.93099,248.578406 C251.071552,248.044307 251.618471,247.725283 252.15257,247.865844 C252.686668,248.006406 253.005692,248.553326 252.865131,249.087424 C251.994235,252.396606 251.073187,255.612747 250.104419,258.727861 Z M300.933009,237.369206 C300.723298,237.880126 300.13911,238.124305 299.62819,237.914594 C299.117269,237.704883 298.873091,237.120696 299.082802,236.609775 C303.625304,225.54284 307.122806,213.703909 309.474594,201.349903 C309.577876,200.807362 310.101419,200.451271 310.64396,200.554553 C311.186502,200.657835 311.542593,201.181378 311.439311,201.72392 C309.062587,214.208913 305.526931,226.176997 300.933009,237.369206 Z M92.956085,115.85943 L92.956085,125 C92.956085,125.552285 92.50837,126 91.956085,126 C91.4038,126 90.956085,125.552285 90.956085,125 L90.956085,115.85943 C90.956085,107.599413 84.260018,100.903345 76,100.903345 C75.447715,100.903345 75,100.45563 75,99.903345 L75,81 C75,80.447715 75.447715,80 76,80 C76.552285,80 77,80.447715 77,81 L77,98.932344 C85.899111,99.449903 92.956085,106.830544 92.956085,115.85943 Z M90.956085,133 C90.956085,132.447715 91.4038,132 91.956085,132 C92.50837,132 92.956085,132.447715 92.956085,133 L92.956085,139.094217 C92.956085,139.646502 92.50837,140.094217 91.956085,140.094217 C91.4038,140.094217 90.956085,139.646502 90.956085,139.094217 L90.956085,133 Z M127.392564,80.576648 C127.601736,80.065507 128.185665,79.820712 128.696807,80.029884 C129.207948,80.239057 129.452742,80.822986 129.24357,81.334127 C127.521472,85.542315 125.932139,89.890791 124.482558,94.36308 C124.312271,94.888456 123.748323,95.176313 123.222947,95.006025 C122.69757,94.835737 122.409714,94.27179 122.580001,93.746413 C124.044892,89.22689 125.651393,84.831443 127.392564,80.576648 Z M114.220222,196.32451 C114.144952,195.777378 114.527471,195.272822 115.074602,195.197551 C115.621733,195.122281 116.12629,195.504799 116.201561,196.051931 C116.78727,200.309367 117.48773,204.514549 118.300329,208.657766 C118.406622,209.199725 118.053445,209.725238 117.511485,209.831531 C116.969526,209.937825 116.444013,209.584647 116.33772,209.042688 C115.517795,204.862118 114.811094,200.619474 114.220222,196.32451 Z M223.957237,132.890887 L223.957237,166.598684 C223.957237,167.150969 223.509522,167.598684 222.957237,167.598684 C222.404952,167.598684 221.957237,167.150969 221.957237,166.598684 L221.957237,132.587208 L214.917588,138.470498 C214.493812,138.824663 213.863167,138.768232 213.509002,138.344457 C213.154837,137.920681 213.211268,137.290036 213.635044,136.935871 L222.134281,129.832749 C222.505509,129.522501 223.045598,129.522501 223.416825,129.832749 L231.916063,136.935871 C232.339838,137.290036 232.396269,137.920681 232.042104,138.344457 C231.68794,138.768232 231.057294,138.824663 230.633519,138.470498 L223.957237,132.890887 Z M189.162428,76.204565 C189.286668,76.149197 189.424279,76.118421 189.569079,76.118421 C190.020138,76.118421 190.401447,76.417057 190.526071,76.827395 L198.527905,83.514818 C198.95168,83.868983 199.008111,84.499628 198.653946,84.923404 C198.299782,85.34718 197.669136,85.403611 197.245361,85.049446 L190.569079,79.469834 L190.569079,150.13765 C190.569079,150.689935 190.121364,151.13765 189.569079,151.13765 C189.016794,151.13765 188.569079,150.689935 188.569079,150.13765 L188.569079,79.166155 L181.52943,85.049446 C181.105654,85.403611 180.475009,85.34718 180.120844,84.923404 C179.766679,84.499628 179.82311,83.868983 180.246886,83.514818 L188.746123,76.411697 C188.870226,76.30798 189.0132,76.238936 189.162428,76.204565 Z M188.569079,162.036193 C188.569079,161.483909 189.016794,161.036193 189.569079,161.036193 C190.121364,161.036193 190.569079,161.483909 190.569079,162.036193 L190.569079,182.780118 C190.569079,183.332403 190.121364,183.780118 189.569079,183.780118 C189.016794,183.780118 188.569079,183.332403 188.569079,182.780118 L188.569079,162.036193 Z M221.957237,179.953947 C221.957237,179.401663 222.404952,178.953947 222.957237,178.953947 C223.509522,178.953947 223.957237,179.401663 223.957237,179.953947 L223.957237,199.302632 C223.957237,199.854916 223.509522,200.302632 222.957237,200.302632 C222.404952,200.302632 221.957237,199.854916 221.957237,199.302632 L221.957237,179.953947 Z M221.957237,217.348684 C221.957237,216.796399 222.404952,216.348684 222.957237,216.348684 C223.509522,216.348684 223.957237,216.796399 223.957237,217.348684 L223.957237,237.381579 C223.957237,237.933864 223.509522,238.381579 222.957237,238.381579 C222.404952,238.381579 221.957237,237.933864 221.957237,237.381579 L221.957237,217.348684 Z M287.858386,87.456598 C288.371806,87.660113 288.623034,88.241304 288.419519,88.754724 C288.216003,89.268144 287.634813,89.519371 287.121393,89.315856 C284.271155,88.186046 281.357014,87.115493 278.384045,86.106342 C277.861068,85.928821 277.58102,85.360956 277.758541,84.837979 C277.936062,84.315002 278.503927,84.034954 279.026904,84.212475 C282.031377,85.23232 284.976905,86.314404 287.858386,87.456598 Z M270.351752,81.48863 C270.882275,81.642135 271.187908,82.19665 271.034402,82.727173 C270.880897,83.257695 270.326382,83.563328 269.795859,83.409823 C260.16307,80.622597 250.043203,78.467678 239.586168,76.990165 C239.039315,76.912898 238.658641,76.406949 238.735907,75.860096 C238.813174,75.313243 239.319123,74.932568 239.865977,75.009835 C250.415535,76.500421 260.627657,78.674985 270.351752,81.48863 Z M231.5,170.74983 C231.5,170.197545 231.947715,169.74983 232.5,169.74983 C233.052285,169.74983 233.5,170.197545 233.5,170.74983 L233.5,174.705841 C233.5,175.258126 233.052285,175.705841 232.5,175.705841 C231.947715,175.705841 231.5,175.258126 231.5,174.705841 L231.5,170.74983 Z M231.5,179.74983 C231.5,179.197545 231.947715,178.74983 232.5,178.74983 C233.052285,178.74983 233.5,179.197545 233.5,179.74983 L233.5,183.705841 C233.5,184.258126 233.052285,184.705841 232.5,184.705841 C231.947715,184.705841 231.5,184.258126 231.5,183.705841 L231.5,179.74983 Z M231.5,188.74983 C231.5,188.197545 231.947715,187.74983 232.5,187.74983 C233.052285,187.74983 233.5,188.197545 233.5,188.74983 L233.5,192.705841 C233.5,193.258126 233.052285,193.705841 232.5,193.705841 C231.947715,193.705841 231.5,193.258126 231.5,192.705841 L231.5,188.74983 Z M242.5,188.74983 C242.5,188.197545 242.947715,187.74983 243.5,187.74983 C244.052285,187.74983 244.5,188.197545 244.5,188.74983 L244.5,192.705841 C244.5,193.258126 244.052285,193.705841 243.5,193.705841 C242.947715,193.705841 242.5,193.258126 242.5,192.705841 L242.5,188.74983 Z M231.5,197.74983 C231.5,197.197545 231.947715,196.74983 232.5,196.74983 C233.052285,196.74983 233.5,197.197545 233.5,197.74983 L233.5,201.705841 C233.5,202.258126 233.052285,202.705841 232.5,202.705841 C231.947715,202.705841 231.5,202.258126 231.5,201.705841 L231.5,197.74983 Z M252.5,179.74983 C252.5,179.197545 252.947715,178.74983 253.5,178.74983 C254.052285,178.74983 254.5,179.197545 254.5,179.74983 L254.5,183.705841 C254.5,184.258126 254.052285,184.705841 253.5,184.705841 C252.947715,184.705841 252.5,184.258126 252.5,183.705841 L252.5,179.74983 Z M252.5,197.74983 C252.5,197.197545 252.947715,196.74983 253.5,196.74983 C254.052285,196.74983 254.5,197.197545 254.5,197.74983 L254.5,201.705841 C254.5,202.258126 254.052285,202.705841 253.5,202.705841 C252.947715,202.705841 252.5,202.258126 252.5,201.705841 L252.5,197.74983 Z M243,157.558753 L251.84486,152.925731 L243,148.292709 L234.15514,152.925731 L243,157.558753 Z M231.535993,152.039899 L242.535993,146.277994 C242.826604,146.12577 243.173396,146.12577 243.464007,146.277994 L254.464007,152.039899 C255.178664,152.414243 255.178664,153.437218 254.464007,153.811562 L243.464007,159.573467 C243.173396,159.725692 242.826604,159.725692 242.535993,159.573467 L231.535993,153.811562 C230.821336,153.437218 230.821336,152.414243 231.535993,152.039899 Z M253.535993,157.627201 C254.025224,157.370937 254.629568,157.559794 254.885832,158.049025 C255.142096,158.538257 254.953238,159.1426 254.464007,159.398864 L243.464007,165.160769 C243.173396,165.312993 242.826604,165.312993 242.535993,165.160769 L231.535993,159.398864 C231.046762,159.1426 230.857904,158.538257 231.114168,158.049025 C231.370432,157.559794 231.974776,157.370937 232.464007,157.627201 L243,163.146054 L253.535993,157.627201 Z M253.535993,163.627201 C254.025224,163.370937 254.629568,163.559794 254.885832,164.049025 C255.142096,164.538257 254.953238,165.1426 254.464007,165.398864 L243.464007,171.160769 C243.173396,171.312993 242.826604,171.312993 242.535993,171.160769 L231.535993,165.398864 C231.046762,165.1426 230.857904,164.538257 231.114168,164.049025 C231.370432,163.559794 231.974776,163.370937 232.464007,163.627201 L243,169.146054 L253.535993,163.627201 Z M394,324 L394,330 C394,330.552285 393.552285,331 393,331 C392.447715,331 392,330.552285 392,330 L392,319.647541 C392,316.913274 394.606813,314 397.5,314 C398.052285,314 398.5,314.447715 398.5,315 C398.5,315.552285 398.052285,316 397.5,316 C395.763981,316 394,317.971358 394,319.647541 L394,322 L406,322 C407.656854,322 409,320.656854 409,319 L409,303 C409,302.447715 409.447715,302 410,302 C410.552285,302 411,302.447715 411,303 L411,319 C411,321.761424 408.761424,324 406,324 L394,324 Z M374.5,324 L331,324 C328.238576,324 326,321.761424 326,319 C326,318.447715 326.447715,318 327,318 C327.552285,318 328,318.447715 328,319 C328,320.656854 329.343146,322 331,322 L374.5,322 L374.5,316 C374.5,315.447715 374.947715,315 375.5,315 C376.052285,315 376.5,315.447715 376.5,316 L376.5,333.381021 L378.429796,331.76822 C378.853572,331.414056 379.484217,331.470486 379.838382,331.894262 C380.192546,332.318038 380.136115,332.948683 379.71234,333.302848 L376.176806,336.257622 C375.805578,336.56787 375.26549,336.56787 374.894262,336.257622 L371.358728,333.302848 C370.934952,332.948683 370.878522,332.318038 371.232686,331.894262 C371.586851,331.470486 372.217496,331.414056 372.641272,331.76822 L374.5,333.321627 L374.5,324 Z M410.933099,260.639634 C410.976307,260.751437 411,260.872952 411,261 L411,295.73695 C411,296.289235 410.552285,296.73695 410,296.73695 C409.447715,296.73695 409,296.289235 409,295.73695 L409,265.742838 C408.049059,266.528182 406.829629,267 405.5,267 L335.5,267 C333.360787,267 331.506824,265.778704 330.597322,263.995325 C330.565299,263.998418 330.532834,264 330.5,264 C329.151194,264 328,265.315651 328,267 C328,268.684349 329.151194,270 330.5,270 L403,270 C403.552285,270 404,270.447715 404,271 C404,271.552285 403.552285,272 403,272 L330.5,272 C327.982812,272 326,269.733929 326,267 C326,264.440559 327.737791,262.291161 330.024943,262.027224 C330.00844,261.853707 330,261.677839 330,261.5 C330,258.462434 332.462434,256 335.5,256 L405.5,256 C408.244875,256 410.520113,258.01075 410.933099,260.639634 Z M335.5,258 C333.567003,258 332,259.567003 332,261.5 C332,263.432997 333.567003,265 335.5,265 L405.5,265 C407.432997,265 409,263.432997 409,261.5 C409,259.567003 407.432997,258 405.5,258 L335.5,258 Z M386.5,261 C386.223858,261 386,261.223858 386,261.5 C386,261.776142 386.223858,262 386.5,262 L394.5,262 C394.776142,262 395,261.776142 395,261.5 C395,261.223858 394.776142,261 394.5,261 L386.5,261 Z M386.5,259 L394.5,259 C395.880712,259 397,260.119288 397,261.5 C397,262.880712 395.880712,264 394.5,264 L386.5,264 C385.119288,264 384,262.880712 384,261.5 C384,260.119288 385.119288,259 386.5,259 Z M363.5,261 C363.223858,261 363,261.223858 363,261.5 C363,261.776142 363.223858,262 363.5,262 L371.5,262 C371.776142,262 372,261.776142 372,261.5 C372,261.223858 371.776142,261 371.5,261 L363.5,261 Z M363.5,259 L371.5,259 C372.880712,259 374,260.119288 374,261.5 C374,262.880712 372.880712,264 371.5,264 L363.5,264 C362.119288,264 361,262.880712 361,261.5 C361,260.119288 362.119288,259 363.5,259 Z M403.5,261 C403.223858,261 403,261.223858 403,261.5 C403,261.776142 403.223858,262 403.5,262 C403.776142,262 404,261.776142 404,261.5 C404,261.223858 403.776142,261 403.5,261 Z M403.5,259 C404.880712,259 406,260.119288 406,261.5 C406,262.880712 404.880712,264 403.5,264 C402.119288,264 401,262.880712 401,261.5 C401,260.119288 402.119288,259 403.5,259 Z M328,305.488873 C328,306.041158 327.552285,306.488873 327,306.488873 C326.447715,306.488873 326,306.041158 326,305.488873 L326,295.103857 C326,294.551573 326.447715,294.103857 327,294.103857 C327.552285,294.103857 328,294.551573 328,295.103857 L328,305.488873 Z M328,287 C328,287.552285 327.552285,288 327,288 C326.447715,288 326,287.552285 326,287 L326,279 C326,278.447715 326.447715,278 327,278 C327.552285,278 328,278.447715 328,279 L328,287 Z M336,284 C336,283.447715 336.447715,283 337,283 C337.552285,283 338,283.447715 338,284 L338,312 C338,313.932997 336.432997,315.5 334.5,315.5 C332.567003,315.5 331,313.932997 331,312 L331,298 C331,297.447715 331.447715,297 332,297 C332.552285,297 333,297.447715 333,298 L333,312 C333,312.828427 333.671573,313.5 334.5,313.5 C335.328427,313.5 336,312.828427 336,312 L336,284 Z M371,298 L366.554248,298 C365.864668,298 365.223728,297.644761 364.858251,297.059998 L360.445752,290 L356,290 L356,297 L359.908098,297 C360.928889,297 361.879632,297.51906 362.431633,298.377727 L364.760237,302 L371,302 L371,298 Z M371,296 L371,290 L362.804248,290 L366.554248,296 L371,296 Z M346,299 L346,302 L354,302 L354,299 L346,299 Z M346,297 L354,297 L354,290 L346,290 L346,297 Z M362.38262,302 L360.749276,299.459242 C360.565276,299.17302 360.248361,299 359.908098,299 L356,299 L356,302 L362.38262,302 Z M363.668335,304 L356,304 L356,308 L366.239763,308 L363.668335,304 Z M366.045951,304 L368.61738,308 L370.139611,308 C370.514451,308 370.881746,307.894661 371.199609,307.695997 L385.059998,299.033254 C385.644761,298.667777 386,298.026837 386,297.337257 L386,292 C386,290.895431 385.104569,290 384,290 L373,290 L373,302 C373,303.104569 372.104569,304 371,304 L366.045951,304 Z M354,280 L346,280 L346,288 L354,288 L354,280 Z M356,280 L356,288 L371,288 L371,280 L356,280 Z M354,304 L346,304 C344.895431,304 344,303.104569 344,302 L344,280 C344,278.895431 344.895431,278 346,278 L371,278 C372.104569,278 373,278.895431 373,280 L373,288 L384,288 C386.209139,288 388,289.790861 388,292 L388,297.337257 C388,298.716417 387.289521,299.998297 386.119996,300.72925 L372.259607,309.391993 C371.623881,309.789322 370.88929,310 370.139611,310 L355,310 C354.447715,310 354,309.552285 354,309 L354,304 Z M381.5,322.001314 C381.51713,322.000442 381.534373,322 381.55172,322 L386.04947,322 C386.211543,322 386.36461,322.038556 386.5,322.106997 L386.5,311.749441 L386.5,322.106997 C386.82597,322.271777 387.04947,322.609788 387.04947,323 C387.04947,323.390212 386.82597,323.728223 386.5,323.893003 L386.5,327.852457 L388.5,327.852457 L388.5,311.690047 L388.5,327.852457 C388.5,329.185791 386.5,329.185791 386.5,327.852457 L386.5,323.893003 C386.36461,323.961444 386.211543,324 386.04947,324 L381.55172,324 C381.534373,324 381.51713,323.999558 381.5,323.998686 L381.5,327.852459 C381.5,328.404744 381.052285,328.852459 380.5,328.852459 C379.947715,328.852459 379.5,328.404744 379.5,327.852459 L379.5,322 C379.5,321.447715 379.947715,321 380.5,321 C381.052285,321 381.5,321.447715 381.5,322 L381.5,322.001314 Z M335,65.873983 C333.274773,65.42994 332,63.863839 332,62 C332,59.790861 333.790861,58 336,58 C338.209139,58 340,59.790861 340,62 C340,63.863839 338.725227,65.42994 337,65.873983 L337,70.5 L338,70.5 C338.552285,70.5 339,70.947715 339,71.5 C339,72.052285 338.552285,72.5 338,72.5 L337,72.5 L337,74.5 L339,74.5 C339.552285,74.5 340,74.947715 340,75.5 C340,76.052285 339.552285,76.5 339,76.5 L337,76.5 L337,76.533628 C337,77.085913 336.552285,77.533628 336,77.533628 C335.447715,77.533628 335,77.085913 335,76.533628 L335,65.873983 Z M355.108855,28.2658734 C349.067239,32.9488959 342.668562,36.9117339 335.913684,40.1535705 C329.558748,43.2034655 321.511658,46.2758914 311.768755,49.374179 C310.720262,49.707605 310.137973,50.825296 310.465568,51.875627 C313.229495,60.737444 315.633114,69.78791 317.67644,79.02695 C319.198066,85.907085 320.481031,92.716083 321.5253,99.453935 C322.327189,104.627901 325.94907,108.922016 330.913726,110.584886 C333.397762,111.416893 335.992128,112.450668 338.697231,113.685988 C344.561313,116.363895 350.025786,119.981752 355.088712,124.53664 C359.682828,120.206152 364.674731,116.808904 370.062196,114.348651 C372.978426,113.016917 376.00286,111.842995 379.13531,110.826861 C384.168935,109.194006 387.851726,104.862502 388.653739,99.631788 C389.673373,92.981753 390.895486,86.435993 392.320092,79.994541 C394.2394,71.316257 396.714641,61.975504 399.745699,51.971784 C399.75025,51.95662 399.75025,51.95662 399.754641,51.941408 C400.05816,50.879366 399.443255,49.772355 398.381217,49.468828 C390.677525,47.2672026 383.266386,44.4582818 376.148393,41.0421767 C368.37202,37.3100985 361.358479,33.0514941 355.108855,28.2658734 Z M311.162655,47.4682299 C320.823225,44.3961244 328.786337,41.3557615 335.048332,38.3504719 C341.900263,35.0620567 348.37954,31.0168463 354.487115,26.213938 C354.848255,25.9299434 355.35644,25.9285595 355.71912,26.2105829 C362.007934,31.1008161 369.105744,35.4438279 377.013746,39.239078 C384.029667,42.6061961 391.33515,45.375072 398.930798,47.5458194 C401.054883,48.152876 402.284691,50.366894 401.677651,52.490982 C401.66887,52.521405 401.66887,52.521405 401.659768,52.551733 C398.642959,62.508422 396.180709,71.800153 394.272903,80.426429 C392.857777,86.825018 391.643683,93.327831 390.630636,99.934901 C389.71405,105.91286 385.505146,110.86315 379.752432,112.72927 C376.692247,113.721962 373.739163,114.86819 370.892993,116.16793 C365.450576,118.653278 360.421077,122.136577 355.801922,126.622165 C355.420891,126.992178 354.817077,126.99977 354.426863,126.639455 C349.323373,121.927 343.803968,118.216717 337.866434,115.505267 C335.223212,114.298206 332.693774,113.290303 330.278526,112.481336 C324.604634,110.580913 320.46534,105.673352 319.548896,99.760249 C318.511207,93.064849 317.23613,86.297715 315.723629,79.458838 C313.692436,70.27466 311.303313,61.278778 308.556279,52.471123 C307.901091,50.370465 309.065669,48.135081 311.162655,47.4682299 Z M343.932197,55.147368 C343.434285,55.386329 342.836932,55.176407 342.597972,54.678495 C342.359011,54.180583 342.568933,53.58323 343.066845,53.34427 C347.092004,51.412494 350.898443,49.036018 354.487115,46.213938 C354.848255,45.9299434 355.35644,45.9285595 355.71912,46.2105829 C359.414761,49.084344 363.587551,51.637592 368.238685,53.869789 C372.01556,55.682407 375.935129,57.200422 379.997851,58.423932 C380.526675,58.58319 380.826268,59.140991 380.66701,59.669816 C380.507752,60.19864 379.949951,60.498233 379.421126,60.338975 C375.259756,59.085757 371.243674,57.530363 367.373332,55.672888 C362.852954,53.503444 358.764484,51.03379 355.108936,48.263468 C351.586447,50.967141 347.8606,53.262029 343.932197,55.147368 Z M316.170024,55.12513 C316.333147,55.652775 316.037644,56.212754 315.509999,56.375877 C314.982354,56.539 314.422375,56.243497 314.259252,55.715852 C313.553135,53.431816 314.817342,51.005033 317.093755,50.274708 C325.282829,47.6474636 332.056951,45.047094 337.4127,42.4767344 C337.910612,42.2377739 338.507965,42.4476954 338.746925,42.9456074 C338.985886,43.4435193 338.775964,44.0408725 338.278052,44.2798331 C332.831285,46.8938746 325.97465,49.525919 317.704728,52.1791 C316.472194,52.574526 315.787707,53.888473 316.170024,55.12513 Z M354.491406,33.3918267 C354.055423,33.0528027 353.976822,32.4245354 354.315846,31.9885524 C354.65487,31.5525694 355.283137,31.4739686 355.71912,31.8129926 C361.243301,36.1086413 367.478629,39.923917 374.426299,43.2582796 C380.380762,46.1159772 386.572634,48.483249 393.00245,50.360202 C395.314702,51.035186 396.641974,53.456816 395.966995,55.769069 C395.961805,55.786756 395.961805,55.786756 395.956516,55.804413 C393.399366,64.296838 391.304413,72.234833 389.67155,79.617937 C389.552287,80.157191 389.018454,80.497661 388.4792,80.378398 C387.939946,80.259136 387.599475,79.725303 387.718738,79.186049 C389.362832,71.752166 391.470438,63.766226 394.041449,55.227768 C394.044313,55.218208 394.044313,55.218208 394.047123,55.208632 C394.412581,53.956694 393.693947,52.645535 392.442011,52.280074 C385.907908,50.372679 379.614041,47.9664114 373.560946,45.0613782 C366.48777,41.6667818 360.130858,37.7771114 354.491406,33.3918267 Z M384.816169,94.40712 C384.903995,93.861864 385.41721,93.491043 385.962467,93.578869 C386.507724,93.666696 386.878545,94.179911 386.790718,94.725168 C385.752426,101.171245 381.269661,106.532184 375.109172,108.69513 C374.588073,108.878087 374.017321,108.603969 373.834363,108.08287 C373.651405,107.56177 373.925523,106.991019 374.446623,106.808061 C379.915203,104.888044 383.894491,100.129213 384.816169,94.40712 Z M355.783663,118.856242 C356.189423,119.230912 356.214626,119.863575 355.839956,120.269335 C355.465286,120.675095 354.832623,120.700298 354.426863,120.325628 C349.947489,116.189469 345.103724,112.933368 339.893353,110.553986 C339.390973,110.324568 339.169694,109.731328 339.399112,109.228948 C339.62853,108.726568 340.22177,108.505289 340.72415,108.734707 C346.130357,111.20352 351.150933,114.578478 355.783663,118.856242 Z M335.52098,106.583736 C336.039404,106.774142 336.305316,107.348763 336.114909,107.867187 C335.924503,108.385612 335.349883,108.651523 334.831458,108.461117 C328.797595,106.245009 324.426404,100.949037 323.394443,94.604457 C322.543838,89.374869 321.529287,84.095693 320.350765,78.766923 C320.231502,78.227669 320.571973,77.693836 321.111227,77.574574 C321.650481,77.455311 322.184314,77.795781 322.303576,78.335035 C323.490162,83.700266 324.511812,89.01638 325.368501,94.283372 C326.284558,99.915368 330.164803,104.616528 335.52098,106.583736 Z M383.117385,79.498038 C383.236647,78.958784 383.77048,78.618314 384.309734,78.737577 C384.848988,78.856839 385.189459,79.390673 385.070196,79.929927 C384.212667,83.807301 383.452486,87.735206 382.789659,91.713658 C382.698897,92.258433 382.183692,92.626484 381.638916,92.535722 C381.09414,92.44496 380.726089,91.929755 380.816851,91.384979 C381.485416,87.372087 382.252258,83.409768 383.117385,79.498038 Z M366.35802,105.406894 C366.8604,105.177476 367.45364,105.398755 367.683058,105.901135 C367.912476,106.403515 367.691197,106.996755 367.188817,107.226173 C363.083373,109.100976 359.2886,111.729136 355.801922,115.114993 C355.405711,115.499747 354.772614,115.49046 354.38786,115.094249 C354.003106,114.698038 354.012394,114.064941 354.408605,113.680187 C358.056535,110.137741 362.040531,107.37853 366.35802,105.406894 Z M342.751069,104.903909 C343.25345,105.133327 343.474729,105.726567 343.245311,106.228947 C343.015892,106.731327 342.422653,106.952606 341.920273,106.723188 C340.7557,106.191371 339.620525,105.71075 338.514824,105.28129 C338.000008,105.081333 337.744764,104.501894 337.944722,103.987078 C338.144679,103.472262 338.724117,103.217019 339.238933,103.416976 C340.38132,103.860685 341.552006,104.356341 342.751069,104.903909 Z M329.373316,91.301479 C329.464831,91.846129 329.097494,92.361843 328.552844,92.453359 C328.008194,92.544874 327.49248,92.177537 327.400965,91.632887 C326.710315,87.522531 325.902634,83.376734 324.977901,79.19549 C323.515155,72.581585 321.80765,66.096547 319.855401,59.740312 C319.155362,57.461079 320.415371,55.042117 322.684306,54.30939 C329.555609,52.090382 335.254278,49.89408 339.777068,47.7234788 C344.961974,45.235111 349.865006,42.1739987 354.487115,38.5392392 C354.921246,38.1978457 355.549932,38.2730235 355.891325,38.7071535 C356.232719,39.1412836 356.157541,39.7699696 355.723411,40.1113632 C350.987085,43.835941 345.959771,46.9746467 340.642421,49.526577 C336.030047,51.740172 330.249966,53.967851 323.298929,56.212609 C322.070445,56.609333 321.38823,57.919048 321.767256,59.153107 C323.735305,65.560783 325.456453,72.097636 326.930712,78.763602 C327.862766,82.977946 328.676973,87.15724 329.373316,91.301479 Z M336,64 C337.104569,64 338,63.104569 338,62 C338,60.895431 337.104569,60 336,60 C334.895431,60 334,60.895431 334,62 C334,63.104569 334.895431,64 336,64 Z M366.5,80.542488 L383.84486,71.457085 L366.5,62.371682 L349.15514,71.457085 L366.5,80.542488 Z M346.535993,70.571254 L366.035993,60.356968 C366.326604,60.204743 366.673396,60.204743 366.964007,60.356968 L386.464007,70.571254 C387.178664,70.945598 387.178664,71.968573 386.464007,72.342917 L366.964007,82.557203 C366.673396,82.709427 366.326604,82.709427 366.035993,82.557203 L346.535993,72.342917 C345.821336,71.968573 345.821336,70.945598 346.535993,70.571254 Z M379.061023,78.915286 C379.550255,78.659022 380.154598,78.847879 380.410862,79.33711 C380.667126,79.826341 380.478269,80.430685 379.989037,80.686949 L366.964007,87.509584 C366.673396,87.661808 366.326604,87.661808 366.035993,87.509584 L346.535993,77.295298 C346.046762,77.039034 345.857904,76.434691 346.114168,75.945459 C346.370432,75.456228 346.974776,75.267371 347.464007,75.523635 L366.5,85.494869 L379.061023,78.915286 Z M377.885287,84.483528 C378.374518,84.227264 378.978862,84.416122 379.235126,84.905353 C379.49139,85.394584 379.302532,85.998927 378.813301,86.255191 L366.964007,92.461964 C366.673396,92.614189 366.326604,92.614189 366.035993,92.461964 L346.535993,82.247679 C346.046762,81.991415 345.857904,81.387072 346.114168,80.89784 C346.370432,80.408609 346.974776,80.219752 347.464007,80.476016 L366.5,90.44725 L377.885287,84.483528 Z M377.07353,89.861115 C377.562761,89.604852 378.167104,89.793709 378.423368,90.28294 C378.679632,90.772171 378.490775,91.376515 378.001544,91.632779 L366.964007,97.414345 C366.673396,97.56657 366.326604,97.56657 366.035993,97.414345 L346.535993,87.20006 C346.046762,86.943796 345.857904,86.339452 346.114168,85.850221 C346.370432,85.36099 346.974776,85.172133 347.464007,85.428397 L366.5,95.399631 L377.07353,89.861115 Z M153.381155,234.332186 C155.088115,241.423081 157.376021,248.578224 160.245238,255.797723 C166.562656,257.366464 172.927687,258.473275 179.340678,259.118271 C185.561834,259.743971 191.448349,260.117259 197,260.238306 L197,217.705838 C189.2721,217.645926 181.564969,217.324821 173.878646,216.742524 C166.245026,216.16422 158.316761,215.304415 150.09377,214.16318 C150.644354,220.791874 151.74003,227.514775 153.381155,234.332186 Z M149.140295,212.00989 C157.762683,213.231655 166.059191,214.14441 174.029728,214.748238 C181.998867,215.351961 189.990559,215.67326 198.00485,215.712133 L199,215.71696 L199,262.274069 L197.983643,262.257442 C192.077707,262.160828 185.796761,261.777689 179.140536,261.108231 C172.462472,260.436576 165.836018,259.271529 159.261551,257.613212 L158.767471,257.488587 L158.577904,257.015607 C155.584532,249.54697 153.204,242.141816 151.436701,234.800266 C149.668319,227.454218 148.523494,220.211597 148.002651,213.072766 L147.912411,211.835903 L149.140295,212.00989 Z M270.431484,164.496263 L269.055581,193.412236 C276.069961,192.491281 283.056436,191.271691 290.015076,189.753441 C296.92625,188.245549 302.074653,186.941622 305.447705,185.846816 C306.461155,174.885898 306.653663,164.461506 306.025861,154.573609 C305.705646,149.530241 305.372674,145.830228 305.029213,143.485357 C304.871111,142.405962 304.712149,141.627689 304.563509,141.174995 C299.509334,139.668697 294.455667,138.399944 289.402449,137.368675 C284.548585,136.37809 278.229452,135.307459 270.447768,134.157567 L270.431484,164.496263 Z M306.430066,140.451851 C306.636997,141.042938 306.82539,141.948119 307.008098,143.195503 C307.361279,145.606731 307.698437,149.353259 308.021841,154.44688 C308.6689,164.638054 308.454,175.384173 307.377811,186.685203 L307.316454,187.329516 L306.703524,187.537411 C303.268773,188.702418 297.853091,190.090379 290.44141,191.707473 C283.03441,193.323546 275.595733,194.603945 268.125462,195.548642 L266.944556,195.697981 L267.00113,194.509015 L268.432614,164.448232 L268.448969,131.843378 L269.592946,132.010504 C277.935511,133.229282 284.670932,134.361834 289.802369,135.409067 C294.807285,136.430478 299.811781,137.681996 304.815797,139.163563 C305.561469,138.907219 306.116818,139.55707 306.430066,140.451851 Z" id="Combined-Shape" fill="url(#linearGradient-1)" fill-rule="nonzero"></path>
                <polygon id="Rectangle" fill="url(#linearGradient-2)" points="356 71.480895 366 66.2428 376 71.480895 366 76.71899"></polygon>
                <polygon id="Rectangle" fill="url(#linearGradient-2)" points="238 152.782874 243 150.163826 248 152.782874 243 155.401921"></polygon>
                <path d="M70.930233,59.273403 C70.44075,59.273403 69.334322,59.273403 67.781183,59.273403 C66.701699,59.273403 64.7397539,59.273403 63.2858394,59.273403 M55.2055321,59.273403 C54.8091588,59.273403 54.4100275,59.273403 54.008716,59.273403 M50.4980241,59.273403 C49.35153,59.273403 48.2009891,59.273403 47.059118,59.273403 C45.8356744,59.273403 44.6221835,59.273403 43.4342864,59.273403 M14,45.485524 C14,37.8706888 20.1951296,31.6976452 27.8372093,31.6976452 C29.8572265,31.6976452 31.7761461,32.128952 33.5062767,32.9041868 C36.7449768,27.9113776 42.3805363,24.6067361 48.7906977,24.6067361 C57.2570312,24.6067361 64.3721281,30.3714423 66.398336,38.1765265 C67.781565,37.5572846 69.315525,37.2127967 70.930233,37.2127967 C77.043896,37.2127967 82,42.1512316 82,48.2431 L73.934127,48.2431 C73.280475,48.2431 72.644709,48.029614 72.123527,47.6351135 L67.835402,44.3892803 C66.752789,43.5698121 65.254751,43.5796381 64.1829805,44.4132374 L58.1581782,49.099195 C57.4274185,49.667563 57,50.54148 57,51.467251 L57,53 C57,54.656854 55.6568542,56 54,56 L52.3863636,56 C51.5579365,56 50.8863636,56.671573 50.8863636,57.5 C50.8863636,58.328427 50.2147908,59 49.3863636,59 L46,59 C44.8954305,59 44,58.104569 44,57 L44,55 C44,53.895431 43.1045695,53 42,53 L40.0108114,53 C38.9062419,53 38.0108114,52.104569 38.0108114,51 C38.0108114,50.996406 38.0108211,50.992812 38.0108405,50.989218 L38.0282202,47.7609226 C38.034175,46.6563827 37.1435958,45.7561489 36.0390559,45.7501941 C35.829308,45.7490633 35.6206878,45.7809349 35.4208451,45.84464" id="Shape" fill="url(#linearGradient-2)" fill-rule="nonzero" opacity="0.484626116"></path>
                <polyline id="Path" fill="url(#linearGradient-2)" points="87.230025 161.190084 91.73018 159 98.275726 162.185513 91.73018 165.371025 87 163.068995"></polyline>
                <path d="M310.496222,184.101972 C313.219228,186.54166 317.019398,189.013907 321.896731,191.518713 C326.774064,194.023519 332.260128,196.320316 338.354923,198.409105 C339.013083,203.067916 340.097979,208.077547 341.609611,213.437998 C343.121243,218.798449 344.955836,224.397265 347.113389,230.234448 C336.848877,223.461603 328.551074,215.716787 322.219978,207 C315.888883,198.283213 311.980964,190.650537 310.496222,184.101972 Z" id="Rectangle" fill="url(#linearGradient-2)" transform="translate(328.804805, 207.168210) scale(-1, 1) translate(-328.804805, -207.168210) "></path>
                <path d="M209,18 L209,27.3874813 C212.391313,27.3412686 215.282885,27.4390548 217.674713,27.6808401 C221.262457,28.0435179 222.494516,27.9931461 224.616182,28.5609164 C219.86427,21.7452067 214.658876,18.2249012 209,18 Z" id="Path-193" fill="url(#linearGradient-2)"></path>
                <path d="M247,67 C265.590229,70.513792 280.553974,75.59999 291.891234,82.258593 C293.092795,84.752864 293.795717,86.617 294,87.851 C278.223061,80.617 262.556394,75.905165 247,73.715494 C247.12522,69.46365 247.12522,67.225151 247,67 Z" id="Path-216" fill="url(#linearGradient-2)"></path>
                <path d="M379,282 L379,275 L405,275 L405,307 L399.242641,307 C398.446991,307 397.683929,306.683929 397.12132,306.12132 L394.37868,303.37868 C393.816071,302.816071 393.5,302.053009 393.5,301.257359 L393.5,288 C393.5,286.343146 392.156854,285 390.5,285 L382,285 C380.343146,285 379,283.656854 379,282 Z" id="Path-217" fill="url(#linearGradient-2)"></path>
                <path d="M343,317 L369,317 L369,316 C369,314.895431 368.104569,314 367,314 L350.5,314 C350.223858,314 350,313.776142 350,313.5 L350,310 C350,308.895431 349.104569,308 348,308 L344,308 C342.895431,308 342,308.895431 342,310 L342,317" id="Path-232" fill="url(#linearGradient-2)"></path>
            </g>
        </g>
    </g>
</svg>