<?xml version="1.0" encoding="UTF-8"?>
<svg width="418px" height="340px" viewBox="0 0 418 340" version="1.1" xmlns="http://www.w3.org/2000/svg" xmlns:xlink="http://www.w3.org/1999/xlink">
    <!-- Generator: Sketch 52.6 (67491) - http://www.bohemiancoding.com/sketch -->
    <title>business_insight</title>
    <desc>Created with Sketch.</desc>
    <defs>
        <linearGradient x1="-9.33020209%" y1="54.8343622%" x2="100%" y2="54.8343622%" id="linearGradient-1">
            <stop stop-color="#23A74E" offset="0%"></stop>
            <stop stop-color="#F5FF00" offset="100%"></stop>
        </linearGradient>
        <linearGradient x1="-77.2034144%" y1="59.1416147%" x2="180.497681%" y2="59.1416147%" id="linearGradient-2">
            <stop stop-color="#23A74E" offset="0%"></stop>
            <stop stop-color="#F5FF00" offset="100%"></stop>
        </linearGradient>
    </defs>
    <g id="Page-1" stroke="none" stroke-width="1" fill="none" fill-rule="evenodd">
        <g id="business_insight" transform="translate(-1.000000, 0.000000)">
            <rect id="Rectangle" fill="#D8D8D8" fill-rule="nonzero" opacity="0" x="0" y="0" width="420" height="340"></rect>
            <g transform="translate(1.000000, 0.000000)">
                <path d="M279.710558,67.007315 C273.139577,71.165825 264.338967,70.380597 258.610001,64.651632 C251.971088,58.012719 251.971088,47.2489142 258.610001,40.6100013 C265.248914,33.9710883 276.012719,33.9710883 282.651632,40.6100013 C288.805506,46.7638754 289.255108,56.46193 284.000437,63.13368 C284.924894,63.200831 285.830471,63.58783 286.53732,64.294679 L297.851028,75.608387 C299.413125,77.170485 299.413125,79.703144 297.851028,81.265242 C296.288931,82.827339 293.756271,82.827339 292.194174,81.265242 L280.880465,69.951533 C280.069965,69.141033 279.679996,68.069247 279.710558,67.007315 Z M279.025123,206.276268 C279.008683,206.204336 279,206.12945 279,206.052535 L279,203 C279,202.447715 279.447715,202 280,202 C280.552285,202 281,202.447715 281,203 L281,205.5 L283,205.5 L283,197 C283,196.447715 283.447715,196 284,196 C284.552285,196 285,196.447715 285,197 L285,205.5 L287.5,205.5 L287.5,200 C287.5,199.447715 287.947715,199 288.5,199 C289.052285,199 289.5,199.447715 289.5,200 L289.5,205.5 L292,205.5 L292,194 C292,193.447715 292.447715,193 293,193 C293.552285,193 294,193.447715 294,194 L294,205.5 L296.5,205.5 L296.5,198 C296.5,197.447715 296.947715,197 297.5,197 C298.052285,197 298.5,197.447715 298.5,198 L298.5,205.5 L299,205.5 C299.552285,205.5 300,205.947715 300,206.5 C300,207.052285 299.552285,207.5 299,207.5 L280,207.5 C279.447715,207.5 279,207.052285 279,206.5 C279,206.423086 279.008683,206.348199 279.025123,206.276268 Z M304.4344,203.901287 C303.437732,211.461884 296.9679,217.297297 289.135135,217.297297 C280.612038,217.297297 273.702703,210.387962 273.702703,201.864865 C273.702703,193.89407 279.745593,187.334667 287.5,186.518031 L287.5,180.021825 C275.537617,180.545012 266,190.408691 266,202.5 C266,214.926407 276.073593,225 288.5,225 C300.435611,225 310.233185,215.694191 310.957115,203.901287 L304.4344,203.901287 Z M304.567526,201.901287 L311.302366,201.901287 C311.517618,201.901287 311.716985,201.969296 311.880152,202.084999 C311.925025,202.079959 311.970769,202.077901 312.017176,202.079023 C312.569299,202.092367 313.006066,202.55077 312.992721,203.102893 C312.671847,216.378781 301.806241,227 288.5,227 C274.969024,227 264,216.030976 264,202.5 C264,188.969024 274.969024,178 288.5,178 C288.776142,178 289.026142,178.111929 289.207107,178.292893 C289.388071,178.473858 289.5,178.723858 289.5,179 L289.5,186.436661 C297.854549,186.630495 304.567568,193.463725 304.567568,201.864865 C304.567568,201.877009 304.567554,201.889149 304.567526,201.901287 Z M76.508018,238.748454 L84.327437,250.008417 C84.538823,250.312812 84.653989,250.655365 84.679441,251 L89.176155,251 L80.266707,238.170396 C80.150406,238.002921 80.088077,237.803897 80.088077,237.6 L80.088077,225 C80.088077,224.447715 80.535793,224 81.088077,224 L81.088077,223 L76.088077,223 L76.088077,224 C76.640362,224 77.088077,224.447715 77.088077,225 L77.088077,237.6 C77.088077,237.803897 77.025749,238.002921 76.909447,238.170396 L76.508018,238.748454 Z M75.29054,240.501622 L68,251 L82.58108,251 L75.29054,240.501622 Z M293.157115,261.064639 L299.027533,261.064639 C299.579817,261.064639 300.027533,261.512354 300.027533,262.064639 C300.027533,262.616924 299.579817,263.064639 299.027533,263.064639 L293.157115,263.064639 L293.157115,273.863118 L299.027533,273.863118 C299.579817,273.863118 300.027533,274.310833 300.027533,274.863118 C300.027533,275.415403 299.579817,275.863118 299.027533,275.863118 L293.157115,275.863118 L293.157115,286.661597 L299.027533,286.661597 C299.579817,286.661597 300.027533,287.109312 300.027533,287.661597 C300.027533,288.213882 299.579817,288.661597 299.027533,288.661597 L293.157115,288.661597 L293.157115,302.872032 C293.227692,302.85624 293.301086,302.847909 293.376426,302.847909 L299.400156,302.847909 C299.952441,302.847909 300.400156,303.295624 300.400156,303.847909 L300.400156,316.646388 C300.400156,317.198673 299.952441,317.646388 299.400156,317.646388 C298.847871,317.646388 298.400156,317.198673 298.400156,316.646388 L298.400156,304.847909 L293.376426,304.847909 C293.301086,304.847909 293.227692,304.839577 293.157115,304.823785 L293.157115,316.646388 C293.157115,317.198673 292.709399,317.646388 292.157115,317.646388 L280.063375,317.646388 C279.51109,317.646388 279.063375,317.198673 279.063375,316.646388 L279.063375,243.775665 C279.063375,243.223381 279.51109,242.775665 280.063375,242.775665 L284.11725,242.775665 L284.11725,241.011407 L274.469484,241.011407 C273.917199,241.011407 273.469484,240.563692 273.469484,240.011407 L273.469484,238 L235.578502,238 L235.578502,240.011407 C235.578502,240.563692 235.130786,241.011407 234.578502,241.011407 L225.707419,241.011407 L225.707419,242.775665 L229.489222,242.775665 C230.041507,242.775665 230.489222,243.223381 230.489222,243.775665 L230.489222,249.019011 L260.901141,249.019011 C261.453425,249.019011 261.901141,249.466727 261.901141,250.019011 C261.901141,250.571296 261.453425,251.019011 260.901141,251.019011 L230.489222,251.019011 L230.489222,261.064639 L260.901141,261.064639 C261.453425,261.064639 261.901141,261.512354 261.901141,262.064639 C261.901141,262.616924 261.453425,263.064639 260.901141,263.064639 L230.489222,263.064639 L230.489222,273.863118 L260.901141,273.863118 C261.453425,273.863118 261.901141,274.310833 261.901141,274.863118 C261.901141,275.415403 261.453425,275.863118 260.901141,275.863118 L230.489222,275.863118 L230.489222,286.661597 L260.901141,286.661597 C261.453425,286.661597 261.901141,287.109312 261.901141,287.661597 C261.901141,288.213882 261.453425,288.661597 260.901141,288.661597 L230.489222,288.661597 L230.489222,316.646388 C230.489222,317.198673 230.041507,317.646388 229.489222,317.646388 L218.173606,317.646388 C217.621321,317.646388 217.173606,317.198673 217.173606,316.646388 L217.173606,275.642586 L166.845804,275.642586 L166.845804,287 L186.485013,287 C187.037298,287 187.485013,287.447715 187.485013,288 C187.485013,288.552285 187.037298,289 186.485013,289 L166.845804,289 L166.845804,300 L186.485013,300 C187.037298,300 187.485013,300.447715 187.485013,301 C187.485013,301.552285 187.037298,302 186.485013,302 L166.845804,302 L166.845804,316.646388 C166.845804,317.198673 166.398089,317.646388 165.845804,317.646388 L151.694955,317.646388 C151.14267,317.646388 150.694955,317.198673 150.694955,316.646388 L150.694955,288.661597 L131.197719,288.661597 C130.645434,288.661597 130.197719,288.213882 130.197719,287.661597 C130.197719,287.109312 130.645434,286.661597 131.197719,286.661597 L150.694955,286.661597 L150.694955,275.863118 L131.197719,275.863118 C130.645434,275.863118 130.197719,275.415403 130.197719,274.863118 C130.197719,274.310833 130.645434,273.863118 131.197719,273.863118 L150.694955,273.863118 L150.694955,263.064639 L131.197719,263.064639 C130.645434,263.064639 130.197719,262.616924 130.197719,262.064639 C130.197719,261.512354 130.645434,261.064639 131.197719,261.064639 L150.694955,261.064639 L150.694955,250.798479 L105.188531,250.798479 L105.188531,273.863118 L119.250951,273.863118 C119.803235,273.863118 120.250951,274.310833 120.250951,274.863118 C120.250951,275.415403 119.803235,275.863118 119.250951,275.863118 L105.188531,275.863118 L105.188531,286.661597 L119.250951,286.661597 C119.803235,286.661597 120.250951,287.109312 120.250951,287.661597 C120.250951,288.213882 119.803235,288.661597 119.250951,288.661597 L105.188531,288.661597 L105.188531,299.460076 L119.250951,299.460076 C119.803235,299.460076 120.250951,299.907791 120.250951,300.460076 C120.250951,301.012361 119.803235,301.460076 119.250951,301.460076 L105.188531,301.460076 L105.188531,316.646388 C105.188531,317.198673 104.740816,317.646388 104.188531,317.646388 L80.940707,317.646388 C80.388423,317.646388 79.940707,317.198673 79.940707,316.646388 L79.940707,292.581749 L66.7898578,292.581749 C66.2375731,292.581749 65.7898578,292.134034 65.7898578,291.581749 L65.7898578,286.18251 L59.6058322,286.18251 L59.6058322,307.524793 C59.7620877,307.423705 59.9483349,307.365019 60.148289,307.365019 L66.1720193,307.365019 C66.724304,307.365019 67.1720193,307.812734 67.1720193,308.365019 L67.1720193,316.646388 C67.1720193,317.198673 66.724304,317.646388 66.1720193,317.646388 C65.6197345,317.646388 65.1720193,317.198673 65.1720193,316.646388 L65.1720193,309.365019 L60.148289,309.365019 C59.9483349,309.365019 59.7620877,309.306333 59.6058322,309.205245 L59.6058322,316.646388 C59.6058322,317.198673 59.1581169,317.646388 58.6058322,317.646388 L49.707108,317.646388 C49.1548232,317.646388 48.707108,317.198673 48.707108,316.646388 L48.707108,301.265331 C48.5411843,301.387731 48.3360749,301.460076 48.1140684,301.460076 L33.8098859,301.460076 C33.2576012,301.460076 32.8098859,301.012361 32.8098859,300.460076 C32.8098859,299.907791 33.2576012,299.460076 33.8098859,299.460076 L48.1140684,299.460076 C48.3360749,299.460076 48.5411843,299.532421 48.707108,299.654821 L48.707108,288.466852 C48.5411843,288.589252 48.3360749,288.661597 48.1140684,288.661597 L33.8098859,288.661597 C33.2576012,288.661597 32.8098859,288.213882 32.8098859,287.661597 C32.8098859,287.109312 33.2576012,286.661597 33.8098859,286.661597 L48.1140684,286.661597 C48.3360749,286.661597 48.5411843,286.733942 48.707108,286.856342 L48.707108,264.193916 L12.1972349,264.193916 L12.1972349,315.893536 C12.1972349,316.445821 11.7495196,316.893536 11.1972349,316.893536 L1.0894852,316.893536 C0.5372005,316.893536 0.0894852,316.445821 0.0894852,315.893536 C0.0894852,315.341251 0.5372005,314.893536 1.0894852,314.893536 L10.1972349,314.893536 L10.1972349,263.193916 C10.1972349,262.641632 10.6449501,262.193916 11.1972349,262.193916 L49.707108,262.193916 C50.2593927,262.193916 50.707108,262.641632 50.707108,263.193916 L50.707108,315.646388 L57.6058322,315.646388 L57.6058322,285.18251 C57.6058322,284.630225 58.0535474,284.18251 58.6058322,284.18251 L66.7898578,284.18251 C67.3421426,284.18251 67.7898578,284.630225 67.7898578,285.18251 L67.7898578,290.581749 L80.940707,290.581749 C81.492992,290.581749 81.940707,291.029464 81.940707,291.581749 L81.940707,315.646388 L103.188531,315.646388 L103.188531,249.798479 C103.188531,249.246194 103.636247,248.798479 104.188531,248.798479 L151.694955,248.798479 C152.247239,248.798479 152.694955,249.246194 152.694955,249.798479 L152.694955,315.646388 L164.845804,315.646388 L164.845804,274.642586 C164.845804,274.090301 165.293519,273.642586 165.845804,273.642586 L218.173606,273.642586 C218.725891,273.642586 219.173606,274.090301 219.173606,274.642586 L219.173606,315.646388 L228.489222,315.646388 L228.489222,288.272008 C228.358895,288.103129 228.281369,287.891417 228.281369,287.661597 C228.281369,287.431777 228.358895,287.220065 228.489222,287.051186 L228.489222,275.473529 C228.358895,275.30465 228.281369,275.092938 228.281369,274.863118 C228.281369,274.633298 228.358895,274.421586 228.489222,274.252707 L228.489222,262.67505 C228.358895,262.506171 228.281369,262.294458 228.281369,262.064639 C228.281369,261.834819 228.358895,261.623107 228.489222,261.454228 L228.489222,250.629423 C228.358895,250.460543 228.281369,250.248831 228.281369,250.019011 C228.281369,249.789192 228.358895,249.577479 228.489222,249.4086 L228.489222,244.775665 L224.707419,244.775665 C224.155134,244.775665 223.707419,244.32795 223.707419,243.775665 L223.707419,240.011407 C223.707419,239.459122 224.155134,239.011407 224.707419,239.011407 L233.578502,239.011407 L233.578502,237 C233.578502,236.447715 234.026217,236 234.578502,236 L274.469484,236 C275.021769,236 275.469484,236.447715 275.469484,237 L275.469484,239.011407 L285.11725,239.011407 C285.669535,239.011407 286.11725,239.459122 286.11725,240.011407 L286.11725,243.775665 C286.11725,244.32795 285.669535,244.775665 285.11725,244.775665 L281.063375,244.775665 L281.063375,315.646388 L291.157115,315.646388 L291.157115,249.798479 C291.157115,249.246194 291.60483,248.798479 292.157115,248.798479 L348.824352,248.798479 C349.376636,248.798479 349.824352,249.246194 349.824352,249.798479 L349.824352,315.646388 L356.893047,315.646388 L356.893047,250.551331 C356.893047,249.999046 357.340762,249.551331 357.893047,249.551331 L398.324046,249.551331 C398.87633,249.551331 399.324046,249.999046 399.324046,250.551331 L399.324046,315.646388 L416.492692,315.646388 C417.044977,315.646388 417.492692,316.094103 417.492692,316.646388 C417.492692,317.198673 417.044977,317.646388 416.492692,317.646388 L398.324046,317.646388 C397.771761,317.646388 397.324046,317.198673 397.324046,316.646388 L397.324046,301.460076 L382.174905,301.460076 C381.62262,301.460076 381.174905,301.012361 381.174905,300.460076 C381.174905,299.907791 381.62262,299.460076 382.174905,299.460076 L397.324046,299.460076 L397.324046,288.661597 L382.174905,288.661597 C381.62262,288.661597 381.174905,288.213882 381.174905,287.661597 C381.174905,287.109312 381.62262,286.661597 382.174905,286.661597 L397.324046,286.661597 L397.324046,275.863118 L382.174905,275.863118 C381.62262,275.863118 381.174905,275.415403 381.174905,274.863118 C381.174905,274.310833 381.62262,273.863118 382.174905,273.863118 L397.324046,273.863118 L397.324046,263.064639 L382.174905,263.064639 C381.62262,263.064639 381.174905,262.616924 381.174905,262.064639 C381.174905,261.512354 381.62262,261.064639 382.174905,261.064639 L397.324046,261.064639 L397.324046,251.551331 L358.893047,251.551331 L358.893047,316.646388 C358.893047,317.198673 358.445332,317.646388 357.893047,317.646388 L348.824352,317.646388 C348.272067,317.646388 347.824352,317.198673 347.824352,316.646388 L347.824352,300.67684 C347.725328,301.12491 347.32576,301.460076 346.847909,301.460076 L322.003802,301.460076 C321.451518,301.460076 321.003802,301.012361 321.003802,300.460076 C321.003802,299.907791 321.451518,299.460076 322.003802,299.460076 L346.847909,299.460076 C347.32576,299.460076 347.725328,299.795242 347.824352,300.243312 L347.824352,287.878361 C347.725328,288.326431 347.32576,288.661597 346.847909,288.661597 L322.003802,288.661597 C321.451518,288.661597 321.003802,288.213882 321.003802,287.661597 C321.003802,287.109312 321.451518,286.661597 322.003802,286.661597 L346.847909,286.661597 C347.32576,286.661597 347.725328,286.996763 347.824352,287.444833 L347.824352,275.079882 C347.725328,275.527952 347.32576,275.863118 346.847909,275.863118 L322.003802,275.863118 C321.451518,275.863118 321.003802,275.415403 321.003802,274.863118 C321.003802,274.310833 321.451518,273.863118 322.003802,273.863118 L346.847909,273.863118 C347.32576,273.863118 347.725328,274.198284 347.824352,274.646354 L347.824352,262.281402 C347.725328,262.729472 347.32576,263.064639 346.847909,263.064639 L322.003802,263.064639 C321.451518,263.064639 321.003802,262.616924 321.003802,262.064639 C321.003802,261.512354 321.451518,261.064639 322.003802,261.064639 L346.847909,261.064639 C347.32576,261.064639 347.725328,261.399805 347.824352,261.847875 L347.824352,250.798479 L293.157115,250.798479 L293.157115,261.064639 Z M153.104933,327.057034 C152.552648,327.057034 152.104933,326.609319 152.104933,326.057034 C152.104933,325.504749 152.552648,325.057034 153.104933,325.057034 L246.679518,325.057034 C247.231803,325.057034 247.679518,325.504749 247.679518,326.057034 C247.679518,326.609319 247.231803,327.057034 246.679518,327.057034 L153.104933,327.057034 Z M267.54867,327.057034 C266.996386,327.057034 266.54867,326.609319 266.54867,326.057034 C266.54867,325.504749 266.996386,325.057034 267.54867,325.057034 L361.123256,325.057034 C361.675541,325.057034 362.123256,325.504749 362.123256,326.057034 C362.123256,326.609319 361.675541,327.057034 361.123256,327.057034 L267.54867,327.057034 Z M186.908745,339.855513 C186.35646,339.855513 185.908745,339.407798 185.908745,338.855513 C185.908745,338.303229 186.35646,337.855513 186.908745,337.855513 L280.483331,337.855513 C281.035616,337.855513 281.483331,338.303229 281.483331,338.855513 C281.483331,339.407798 281.035616,339.855513 280.483331,339.855513 L186.908745,339.855513 Z M314.893536,339.855513 C314.341251,339.855513 313.893536,339.407798 313.893536,338.855513 C313.893536,338.303229 314.341251,337.855513 314.893536,337.855513 L408.468122,337.855513 C409.020407,337.855513 409.468122,338.303229 409.468122,338.855513 C409.468122,339.407798 409.020407,339.855513 408.468122,339.855513 L314.893536,339.855513 Z M59.5303469,327.057034 C58.9780621,327.057034 58.5303469,326.609319 58.5303469,326.057034 C58.5303469,325.504749 58.9780621,325.057034 59.5303469,325.057034 L134.928574,325.057034 C135.480859,325.057034 135.928574,325.504749 135.928574,326.057034 C135.928574,326.609319 135.480859,327.057034 134.928574,327.057034 L59.5303469,327.057034 Z M13.7528517,327.057034 C13.200567,327.057034 12.7528517,326.609319 12.7528517,326.057034 C12.7528517,325.504749 13.200567,325.057034 13.7528517,325.057034 L48.7591715,325.057034 C49.3114563,325.057034 49.7591715,325.504749 49.7591715,326.057034 C49.7591715,326.609319 49.3114563,327.057034 48.7591715,327.057034 L13.7528517,327.057034 Z M152.277567,339.855513 C151.725282,339.855513 151.277567,339.407798 151.277567,338.855513 C151.277567,338.303229 151.725282,337.855513 152.277567,337.855513 L173.819917,337.855513 C174.372202,337.855513 174.819917,338.303229 174.819917,338.855513 C174.819917,339.407798 174.372202,339.855513 173.819917,339.855513 L152.277567,339.855513 Z M22.7870722,339.855513 C22.2347875,339.855513 21.7870722,339.407798 21.7870722,338.855513 C21.7870722,338.303229 22.2347875,337.855513 22.7870722,337.855513 L59.8129875,337.855513 C60.3652722,337.855513 60.8129875,338.303229 60.8129875,338.855513 C60.8129875,339.407798 60.3652722,339.855513 59.8129875,339.855513 L22.7870722,339.855513 Z M75.486692,339.855513 C74.934407,339.855513 74.486692,339.407798 74.486692,338.855513 C74.486692,338.303229 74.934407,337.855513 75.486692,337.855513 L112.512607,337.855513 C113.064892,337.855513 113.512607,338.303229 113.512607,338.855513 C113.512607,339.407798 113.064892,339.855513 112.512607,339.855513 L75.486692,339.855513 Z M139.577947,301.460076 C139.025662,301.460076 138.577947,301.012361 138.577947,300.460076 C138.577947,299.907791 139.025662,299.460076 139.577947,299.460076 L143.342205,299.460076 C143.89449,299.460076 144.342205,299.907791 144.342205,300.460076 C144.342205,301.012361 143.89449,301.460076 143.342205,301.460076 L139.577947,301.460076 Z M139.577947,311.460076 C139.025662,311.460076 138.577947,311.012361 138.577947,310.460076 C138.577947,309.907791 139.025662,309.460076 139.577947,309.460076 L143.342205,309.460076 C143.89449,309.460076 144.342205,309.907791 144.342205,310.460076 C144.342205,311.012361 143.89449,311.460076 143.342205,311.460076 L139.577947,311.460076 Z M207.577947,301.460076 C207.025662,301.460076 206.577947,301.012361 206.577947,300.460076 C206.577947,299.907791 207.025662,299.460076 207.577947,299.460076 L211.342205,299.460076 C211.89449,299.460076 212.342205,299.907791 212.342205,300.460076 C212.342205,301.012361 211.89449,301.460076 211.342205,301.460076 L207.577947,301.460076 Z M207.577947,311.460076 C207.025662,311.460076 206.577947,311.012361 206.577947,310.460076 C206.577947,309.907791 207.025662,309.460076 207.577947,309.460076 L211.342205,309.460076 C211.89449,309.460076 212.342205,309.907791 212.342205,310.460076 C212.342205,311.012361 211.89449,311.460076 211.342205,311.460076 L207.577947,311.460076 Z M90.818895,249.859208 C91.448937,250.766469 91.224207,252.012698 90.316946,252.64274 C89.981997,252.875344 89.583948,253 89.176155,253 L68,253 C66.8954305,253 66,252.104569 66,251 C66,250.592207 66.1246564,250.194158 66.3572601,249.859208 L75.088077,237.286831 L75.088077,226 C74.535793,226 74.088077,225.552285 74.088077,225 L74.088077,222 C74.088077,221.447715 74.535793,221 75.088077,221 L82.088077,221 C82.640362,221 83.088077,221.447715 83.088077,222 L83.088077,225 C83.088077,225.552285 82.640362,226 82.088077,226 L82.088077,237.286831 L90.818895,249.859208 Z M183.916729,253.163805 C179.700666,246.880782 177,240.975194 177,237 C177,228.163444 184.163444,221 193,221 C201.836556,221 209,228.163444 209,237 C209,240.975194 206.299334,246.880782 202.083271,253.163805 C198.390096,258.667589 194.558663,263 193,263 C191.441337,263 187.609904,258.667589 183.916729,253.163805 Z M200.422518,252.049399 C204.428728,246.079111 207,240.456472 207,237 C207,229.268014 200.731986,223 193,223 C185.268014,223 179,229.268014 179,237 C179,240.456472 181.571272,246.079111 185.577482,252.049399 C188.711591,256.720031 192.496646,261 193,261 C193.503354,261 197.288409,256.720031 200.422518,252.049399 Z M193,243 C189.686292,243 187,240.313708 187,237 C187,233.686292 189.686292,231 193,231 C196.313708,231 199,233.686292 199,237 C199,240.313708 196.313708,243 193,243 Z M193,241 C195.209139,241 197,239.209139 197,237 C197,234.790861 195.209139,233 193,233 C190.790861,233 189,234.790861 189,237 C189,239.209139 190.790861,241 193,241 Z M289.135135,215.297297 C296.553663,215.297297 302.567568,209.283392 302.567568,201.864865 C302.567568,194.446337 296.553663,188.432432 289.135135,188.432432 C281.716608,188.432432 275.702703,194.446337 275.702703,201.864865 C275.702703,209.283392 281.716608,215.297297 289.135135,215.297297 Z M358,210 L358,221 L361,221 L361,210 L358,210 Z M357,208 L362,208 C362.552285,208 363,208.447715 363,209 L363,222 C363,222.552285 362.552285,223 362,223 L357,223 C356.447715,223 356,222.552285 356,222 L356,209 C356,208.447715 356.447715,208 357,208 Z M370,204 L370,221 L373,221 L373,204 L370,204 Z M369,202 L374,202 C374.552285,202 375,202.447715 375,203 L375,222 C375,222.552285 374.552285,223 374,223 L369,223 C368.447715,223 368,222.552285 368,222 L368,203 C368,202.447715 368.447715,202 369,202 Z M382,190 L382,221 L385,221 L385,190 L382,190 Z M381,188 L386,188 C386.552285,188 387,188.447715 387,189 L387,222 C387,222.552285 386.552285,223 386,223 L381,223 C380.447715,223 380,222.552285 380,222 L380,189 C380,188.447715 380.447715,188 381,188 Z M394,195 L394,221 L397,221 L397,195 L394,195 Z M393,193 L398,193 C398.552285,193 399,193.447715 399,194 L399,222 C399,222.552285 398.552285,223 398,223 L393,223 C392.447715,223 392,222.552285 392,222 L392,194 C392,193.447715 392.447715,193 393,193 Z M353.320008,226.5 C352.767723,226.5 352.320008,226.052285 352.320008,225.5 C352.320008,224.947715 352.767723,224.5 353.320008,224.5 L400.693521,224.5 C401.245806,224.5 401.693521,224.947715 401.693521,225.5 C401.693521,226.052285 401.245806,226.5 400.693521,226.5 L353.320008,226.5 Z M328,212 C328,212.552285 328.447715,213 329,213 L334,213 C334.552285,213 335,212.552285 335,212 L335,182 C335,181.447715 335.447715,181 336,181 L351,181 C351.552285,181 352,180.552285 352,180 L352,170 C352,169.447715 352.447715,169 353,169 L357,169 C357.552285,169 358,168.552285 358,168 L358,138 C358,137.447715 357.552285,137 357,137 L352,137 C351.913859,137 351.830006,137.010663 351.749258,137.031446 C351.585751,137.07353 351.414249,137.07353 351.250742,137.031446 C351.169994,137.010663 351.086141,137 351,137 L300,137 C299.447715,137 299,137.447715 299,138 L299,143 C299,143.552285 299.447715,144 300,144 L327,144 C327.552285,144 328,144.447715 328,145 L328,212 Z M337,183 L337,212 C337,213.656854 335.656854,215 334,215 L329,215 C327.343146,215 326,213.656854 326,212 L326,146 L300,146 C298.343146,146 297,144.656854 297,143 L297,138 C297,136.343146 298.343146,135 300,135 L351,135 C351.168584,135 351.335709,135.014006 351.5,135.041638 C351.664291,135.014006 351.831416,135 352,135 L357,135 C358.656854,135 360,136.343146 360,138 L360,168 C360,169.656854 358.656854,171 357,171 L354,171 L354,180 C354,181.656854 352.656854,183 351,183 L337,183 Z M338,130 C331.924868,130 327,125.075132 327,119 C327,112.924868 331.924868,108 338,108 C344.075132,108 349,112.924868 349,119 C349,125.075132 344.075132,130 338,130 Z M338,128 C342.970563,128 347,123.970563 347,119 C347,114.029437 342.970563,110 338,110 C333.029437,110 329,114.029437 329,119 C329,123.970563 333.029437,128 338,128 Z M312,97 L374,97 L374,65 L312,65 L312,97 Z M311,63 L375,63 C375.552285,63 376,63.447715 376,64 L376,98 C376,98.552285 375.552285,99 375,99 L311,99 C310.447715,99 310,98.552285 310,98 L310,64 C310,63.447715 310.447715,63 311,63 Z M342.381947,89.5 C342.656607,89.193125 343.05575,89 343.5,89 C343.94425,89 344.343393,89.193125 344.618053,89.5 L365,89.5 C365.552285,89.5 366,89.947715 366,90.5 C366,91.052285 365.552285,91.5 365,91.5 L344.618053,91.5 C344.343393,91.806875 343.94425,92 343.5,92 C343.05575,92 342.656607,91.806875 342.381947,91.5 L319,91.5 C318.447715,91.5 318,91.052285 318,90.5 C318,89.947715 318.447715,89.5 319,89.5 L342.381947,89.5 Z M333.381947,79.5 C333.656607,79.193125 334.05575,79 334.5,79 C334.94425,79 335.343393,79.193125 335.618053,79.5 L365,79.5 C365.552285,79.5 366,79.947715 366,80.5 C366,81.052285 365.552285,81.5 365,81.5 L335.618053,81.5 C335.343393,81.806875 334.94425,82 334.5,82 C334.05575,82 333.656607,81.806875 333.381947,81.5 L319,81.5 C318.447715,81.5 318,81.052285 318,80.5 C318,79.947715 318.447715,79.5 319,79.5 L333.381947,79.5 Z M354.381947,70.5 C354.656607,70.193125 355.05575,70 355.5,70 C355.94425,70 356.343393,70.193125 356.618053,70.5 L365,70.5 C365.552285,70.5 366,70.947715 366,71.5 C366,72.052285 365.552285,72.5 365,72.5 L356.618053,72.5 C356.343393,72.806875 355.94425,73 355.5,73 C355.05575,73 354.656607,72.806875 354.381947,72.5 L319,72.5 C318.447715,72.5 318,72.052285 318,71.5 C318,70.947715 318.447715,70.5 319,70.5 L354.381947,70.5 Z M281.237418,63.237418 C287.095283,57.379554 287.095283,47.8820792 281.237418,42.0242148 C275.379554,36.1663505 265.882079,36.1663505 260.024215,42.0242148 C254.16635,47.8820792 254.16635,57.379554 260.024215,63.237418 C265.882079,69.095283 275.379554,69.095283 281.237418,63.237418 Z M279.823205,61.823205 C274.746389,66.90002 266.515244,66.90002 261.438428,61.823205 C256.361613,56.746389 256.361613,48.5152442 261.438428,43.4384284 C266.515244,38.3616126 274.746389,38.3616126 279.823205,43.4384284 C284.90002,48.5152442 284.90002,56.746389 279.823205,61.823205 Z M278.408991,60.408991 C282.704758,56.113224 282.704758,49.1484092 278.408991,44.852642 C274.113224,40.5568747 267.148409,40.5568747 262.852642,44.852642 C258.556875,49.1484092 258.556875,56.113224 262.852642,60.408991 C267.148409,64.704758 274.113224,64.704758 278.408991,60.408991 Z M264.266856,46.2668555 C264.65738,45.8763312 265.290545,45.8763312 265.681069,46.2668555 C266.071593,46.6573798 266.071593,47.2905448 265.681069,47.6810691 C262.947399,50.414739 262.947399,54.846894 265.681069,57.580564 C266.071593,57.971088 266.071593,58.604253 265.681069,58.994778 C265.290545,59.385302 264.65738,59.385302 264.266856,58.994778 C260.752137,55.480059 260.752137,49.7815741 264.266856,46.2668555 Z M282.294679,65.708892 C281.51363,66.489941 281.51363,67.756271 282.294679,68.53732 L293.608387,79.851028 C294.389436,80.632077 295.655766,80.632077 296.436815,79.851028 C297.217863,79.069979 297.217863,77.80365 296.436815,77.022601 L285.123106,65.708892 C284.342057,64.927844 283.075727,64.927844 282.294679,65.708892 Z M258.051429,99.102619 L258.051429,83.64 C258.051429,83.087715 258.499144,82.64 259.051429,82.64 C259.130544,82.64 259.207514,82.649188 259.281329,82.666554 C268.274619,83.165679 275.36,90.619345 275.36,99.677551 C275.36,99.953693 275.248071,100.203693 275.067107,100.384658 C274.886142,100.565622 274.636142,100.677551 274.36,100.677551 L259.051429,100.677551 C258.516631,100.677551 258.079886,100.257739 258.052764,99.729687 C257.984759,99.525155 257.985441,99.304747 258.051429,99.102619 Z M270.691752,91.124711 L261.477622,98.677551 L273.327209,98.677551 C273.143607,95.886494 272.197074,93.298588 270.691752,91.124711 Z M269.446671,89.559258 C267.064295,86.940071 263.767942,85.163007 260.051429,84.738182 L260.051429,97.260556 L269.446671,89.559258 Z M255.042041,86.353403 C255.154978,86.309177 255.277919,86.284898 255.406531,86.284898 C255.958815,86.284898 256.406531,86.732613 256.406531,87.284898 L256.406531,102.322449 L270.715102,102.322449 C271.267387,102.322449 271.715102,102.770164 271.715102,103.322449 C271.715102,112.732029 264.087131,120.36 254.677551,120.36 C245.267971,120.36 237.64,112.732029 237.64,103.322449 C237.64,93.912869 245.267971,86.284898 254.677551,86.284898 C254.806163,86.284898 254.929104,86.309177 255.042041,86.353403 Z M254.406531,88.287291 C246.226564,88.431862 239.64,95.107968 239.64,103.322449 C239.64,111.627459 246.372541,118.36 254.677551,118.36 C262.64654,118.36 269.16773,112.161236 269.68238,104.322449 L255.406531,104.322449 C254.854246,104.322449 254.406531,103.874734 254.406531,103.322449 L254.406531,88.287291 Z M234,159.72 L279,159.72 L279,79 L234,79 L234,159.72 Z M233,77 L280,77 C280.552285,77 281,77.447715 281,78 L281,160.72 C281,161.272285 280.552285,161.72 280,161.72 L233,161.72 C232.447715,161.72 232,161.272285 232,160.72 L232,78 C232,77.447715 232.447715,77 233,77 Z M240.52,131.17 C239.967715,131.17 239.52,130.722285 239.52,130.17 C239.52,129.617715 239.967715,129.17 240.52,129.17 L272.48,129.17 C273.032285,129.17 273.48,129.617715 273.48,130.17 C273.48,130.722285 273.032285,131.17 272.48,131.17 L240.52,131.17 Z M240.52,140.57 C239.967715,140.57 239.52,140.122285 239.52,139.57 C239.52,139.017715 239.967715,138.57 240.52,138.57 L272.48,138.57 C273.032285,138.57 273.48,139.017715 273.48,139.57 C273.48,140.122285 273.032285,140.57 272.48,140.57 L240.52,140.57 Z M240.52,149.97 C239.967715,149.97 239.52,149.522285 239.52,148.97 C239.52,148.417715 239.967715,147.97 240.52,147.97 L258.38,147.97 C258.932285,147.97 259.38,148.417715 259.38,148.97 C259.38,149.522285 258.932285,149.97 258.38,149.97 L240.52,149.97 Z M98,173 C98,172.447715 98.447715,172 99,172 L116,172 C116.552285,172 117,171.552285 117,171 L117,166 C117,165.447715 116.552285,165 116,165 L92,165 C91.447715,165 91,165.447715 91,166 L91,195 C91,195.552285 91.447715,196 92,196 L97,196 C97.552285,196 98,195.552285 98,195 L98,173 Z M100,174 L100,195 C100,196.656854 98.656854,198 97,198 L92,198 C90.343146,198 89,196.656854 89,195 L89,166 C89,164.343146 90.343146,163 92,163 L116,163 C117.656854,163 119,164.343146 119,166 L119,171 C119,172.656854 117.656854,174 116,174 L100,174 Z M117,141 C117,140.447715 117.447715,140 118,140 L121,140 C121.552285,140 122,139.552285 122,139 L122,120 C122,119.447715 121.552285,119 121,119 L92,119 C91.913859,119 91.830006,119.010663 91.749258,119.031446 C91.585751,119.07353 91.414249,119.07353 91.250742,119.031446 C91.169994,119.010663 91.086141,119 91,119 L86,119 C85.447715,119 85,119.447715 85,120 L85,150 C85,150.552285 85.447715,151 86,151 L90,151 C90.552285,151 91,151.447715 91,152 L91,156 C91,156.552285 91.447715,157 92,157 L116,157 C116.552285,157 117,156.552285 117,156 L117,141 Z M119,156 C119,157.656854 117.656854,159 116,159 L92,159 C90.343146,159 89,157.656854 89,156 L89,153 L86,153 C84.343146,153 83,151.656854 83,150 L83,120 C83,118.343146 84.343146,117 86,117 L91,117 C91.168584,117 91.335709,117.014006 91.5,117.041638 C91.664291,117.014006 91.831416,117 92,117 L121,117 C122.656854,117 124,118.343146 124,120 L124,139 C124,140.656854 122.656854,142 121,142 L119,142 L119,156 Z M104,112 C97.924868,112 93,107.075132 93,101 C93,94.924868 97.924868,90 104,90 C110.075132,90 115,94.924868 115,101 C115,107.075132 110.075132,112 104,112 Z M104,110 C108.970563,110 113,105.970563 113,101 C113,96.029437 108.970563,92 104,92 C99.029437,92 95,96.029437 95,101 C95,105.970563 99.029437,110 104,110 Z M37,63 C30.9248678,63 26,58.075132 26,52 C26,45.9248678 30.9248678,41 37,41 C43.0751322,41 48,45.9248678 48,52 C48,58.075132 43.0751322,63 37,63 Z M37,61 C41.9705627,61 46,56.970563 46,52 C46,47.0294373 41.9705627,43 37,43 C32.0294373,43 28,47.0294373 28,52 C28,56.970563 32.0294373,61 37,61 Z M136,109 L136,153 L170,153 L170,109 L136,109 Z M135,107 L171,107 C171.552285,107 172,107.447715 172,108 L172,154 C172,154.552285 171.552285,155 171,155 L135,155 C134.447715,155 134,154.552285 134,154 L134,108 C134,107.447715 134.447715,107 135,107 Z M142,126.5 C141.447715,126.5 141,126.052285 141,125.5 C141,124.947715 141.447715,124.5 142,124.5 L164,124.5 C164.552285,124.5 165,124.947715 165,125.5 C165,126.052285 164.552285,126.5 164,126.5 L142,126.5 Z M142,134.5 C141.447715,134.5 141,134.052285 141,133.5 C141,132.947715 141.447715,132.5 142,132.5 L150.956769,132.5 C151.509053,132.5 151.956769,132.947715 151.956769,133.5 C151.956769,134.052285 151.509053,134.5 150.956769,134.5 L142,134.5 Z M142,118.5 C141.447715,118.5 141,118.052285 141,117.5 C141,116.947715 141.447715,116.5 142,116.5 L164,116.5 C164.552285,116.5 165,116.947715 165,117.5 C165,118.052285 164.552285,118.5 164,118.5 L142,118.5 Z M31,115 C31,114.447715 31.4477153,114 32,114 L47,114 C47.5522847,114 48,113.552285 48,113 L48,78 C48,77.447715 48.4477153,77 49,77 L70,77 C70.552285,77 71,76.552285 71,76 L71,71 C71,70.447715 70.552285,70 70,70 L25,70 C24.9138587,70 24.8300056,70.010663 24.7492585,70.031446 C24.5857506,70.07353 24.4142494,70.07353 24.2507415,70.031446 C24.1699944,70.010663 24.0861413,70 24,70 L19,70 C18.4477153,70 18,70.447715 18,71 L18,101 C18,101.552285 18.4477153,102 19,102 L23,102 C23.5522847,102 24,102.447715 24,103 L24,145 C24,145.552285 24.4477153,146 25,146 L30,146 C30.5522847,146 31,145.552285 31,145 L31,115 Z M33,116 L33,145 C33,146.656854 31.6568542,148 30,148 L25,148 C23.3431458,148 22,146.656854 22,145 L22,104 L19,104 C17.3431458,104 16,102.656854 16,101 L16,71 C16,69.343146 17.3431458,68 19,68 L24,68 C24.1685835,68 24.3357086,68.014006 24.5,68.041638 C24.6642914,68.014006 24.8314165,68 25,68 L70,68 C71.656854,68 73,69.343146 73,71 L73,76 C73,77.656854 71.656854,79 70,79 L50,79 L50,113 C50,114.656854 48.6568542,116 47,116 L33,116 Z M85,14 L85,74 L93,74 L93,14 L85,14 Z M84,12 L94,12 C94.552285,12 95,12.4477153 95,13 L95,75 C95,75.552285 94.552285,76 94,76 L84,76 C83.447715,76 83,75.552285 83,75 L83,13 C83,12.4477153 83.447715,12 84,12 Z M99,33 L99,74 L107,74 L107,33 L99,33 Z M98,31 L108,31 C108.552285,31 109,31.4477153 109,32 L109,75 C109,75.552285 108.552285,76 108,76 L98,76 C97.447715,76 97,75.552285 97,75 L97,32 C97,31.4477153 97.447715,31 98,31 Z M113,23 L113,74 L121,74 L121,23 L113,23 Z M112,21 L122,21 C122.552285,21 123,21.4477153 123,22 L123,75 C123,75.552285 122.552285,76 122,76 L112,76 C111.447715,76 111,75.552285 111,75 L111,22 C111,21.4477153 111.447715,21 112,21 Z M127,51 L127,74 L135,74 L135,51 L127,51 Z M126,49 L136,49 C136.552285,49 137,49.4477153 137,50 L137,75 C137,75.552285 136.552285,76 136,76 L126,76 C125.447715,76 125,75.552285 125,75 L125,50 C125,49.4477153 125.447715,49 126,49 Z M141,62 L141,74 L149,74 L149,62 L141,62 Z M140,60 L150,60 C150.552285,60 151,60.447715 151,61 L151,75 C151,75.552285 150.552285,76 150,76 L140,76 C139.447715,76 139,75.552285 139,75 L139,61 C139,60.447715 139.447715,60 140,60 Z M188,146 L188,181 L192,181 L192,146 L188,146 Z M187,144 L193,144 C193.552285,144 194,144.447715 194,145 L194,182 C194,182.552285 193.552285,183 193,183 L187,183 C186.447715,183 186,182.552285 186,182 L186,145 C186,144.447715 186.447715,144 187,144 Z M203,146 L203,181 L207,181 L207,146 L203,146 Z M202,144 L208,144 C208.552285,144 209,144.447715 209,145 L209,182 C209,182.552285 208.552285,183 208,183 L202,183 C201.447715,183 201,182.552285 201,182 L201,145 C201,144.447715 201.447715,144 202,144 Z M218,146 L218,181 L222,181 L222,146 L218,146 Z M217,144 L223,144 C223.552285,144 224,144.447715 224,145 L224,182 C224,182.552285 223.552285,183 223,183 L217,183 C216.447715,183 216,182.552285 216,182 L216,145 C216,144.447715 216.447715,144 217,144 Z M227,196 L130,196 L130,204 L227,204 L227,196 Z M229,195 L229,205 C229,205.552285 228.552285,206 228,206 L129,206 C128.447715,206 128,205.552285 128,205 L128,195 C128,194.447715 128.447715,194 129,194 L228,194 C228.552285,194 229,194.447715 229,195 Z M73.962263,169.002005 C73.452602,162.288605 67.843911,157 61,157 C53.8202983,157 48,162.820298 48,170 C48,177.179702 53.8202983,183 61,183 C67.8425485,183 73.450369,177.7135 73.961958,171.002005 L60.9807117,171.002005 C60.428427,171.002005 59.9807117,170.55429 59.9807117,170.002005 C59.9807117,169.44972 60.428427,169.002005 60.9807117,169.002005 L73.962263,169.002005 Z M61,185 C52.7157288,185 46,178.284271 46,170 C46,161.715729 52.7157288,155 61,155 C69.284271,155 76,161.715729 76,170 C76,178.284271 69.284271,185 61,185 Z M194,216.780351 C194,217.332636 193.552285,217.780351 193,217.780351 C192.447715,217.780351 192,217.332636 192,216.780351 C192,214.202078 193.72993,211.966235 196.181405,211.294259 C196.714042,211.148257 197.264187,211.461687 197.410189,211.994324 C197.55619,212.526961 197.24276,213.077106 196.710123,213.223108 C195.122157,213.658386 194,215.108714 194,216.780351 Z M206.511904,213.09232 C205.959619,213.09232 205.511904,212.644605 205.511904,212.09232 C205.511904,211.540035 205.959619,211.09232 206.511904,211.09232 L212.511904,211.09232 C213.064188,211.09232 213.511904,211.540035 213.511904,212.09232 C213.511904,212.644605 213.064188,213.09232 212.511904,213.09232 L206.511904,213.09232 Z M222.511904,213.09232 C221.959619,213.09232 221.511904,212.644605 221.511904,212.09232 C221.511904,211.540035 221.959619,211.09232 222.511904,211.09232 L228.511904,211.09232 C229.064188,211.09232 229.511904,211.540035 229.511904,212.09232 C229.511904,212.644605 229.064188,213.09232 228.511904,213.09232 L222.511904,213.09232 Z M238.538822,213.085195 C237.98673,213.099811 237.527324,212.664101 237.512708,212.11201 C237.498092,211.559918 237.933802,211.100511 238.485893,211.085896 C240.412675,211.034887 242.292012,210.680558 244.072803,210.042466 C244.592718,209.85617 245.165216,210.126622 245.351512,210.646538 C245.537808,211.166453 245.267355,211.738951 244.74744,211.925247 C242.76759,212.634665 240.678446,213.028552 238.538822,213.085195 Z M253.362529,205.899021 C253.008675,206.323056 252.378071,206.379949 251.954036,206.026095 C251.530001,205.672241 251.473108,205.041638 251.826961,204.617602 C253.048155,203.154204 254.031257,201.506396 254.735268,199.734104 C254.939156,199.220832 255.520529,198.970027 256.033801,199.173915 C256.547073,199.377803 256.797878,199.959176 256.59399,200.472448 C255.811433,202.442476 254.719045,204.273461 253.362529,205.899021 Z M258,190.237805 C258,190.79009 257.552285,191.237805 257,191.237805 C256.447715,191.237805 256,190.79009 256,190.237805 L256,184.237805 C256,183.68552 256.447715,183.237805 257,183.237805 C257.552285,183.237805 258,183.68552 258,184.237805 L258,190.237805 Z M258,174.237805 C258,174.79009 257.552285,175.237805 257,175.237805 C256.447715,175.237805 256,174.79009 256,174.237805 L256,168.237805 C256,167.68552 256.447715,167.237805 257,167.237805 C257.552285,167.237805 258,167.68552 258,168.237805 L258,174.237805 Z M27.9430828,158 C27.9430828,157.447715 28.390798,157 28.9430828,157 C29.4953675,157 29.9430828,157.447715 29.9430828,158 L29.9430828,164 C29.9430828,164.552285 29.4953675,165 28.9430828,165 C28.390798,165 27.9430828,164.552285 27.9430828,164 L27.9430828,158 Z M27.9430828,174 C27.9430828,173.447715 28.390798,173 28.9430828,173 C29.4953675,173 29.9430828,173.447715 29.9430828,174 L29.9430828,180 C29.9430828,180.552285 29.4953675,181 28.9430828,181 C28.390798,181 27.9430828,180.552285 27.9430828,180 L27.9430828,174 Z M27.9430828,190 C27.9430828,189.447715 28.390798,189 28.9430828,189 C29.4953675,189 29.9430828,189.447715 29.9430828,190 L29.9430828,196 C29.9430828,196.552285 29.4953675,197 28.9430828,197 C28.390798,197 27.9430828,196.552285 27.9430828,196 L27.9430828,190 Z M29.8160334,206.235395 C29.5763661,205.737823 29.7854393,205.140172 30.2830115,204.900505 C30.7805837,204.660838 31.3782343,204.869911 31.6179015,205.367483 C32.4430209,207.08051 33.5519323,208.64404 34.8936331,209.992113 C35.2832311,210.383561 35.2817311,211.016725 34.8902827,211.406323 C34.4988343,211.795921 33.8656711,211.794421 33.4760731,211.402972 C31.977307,209.897088 30.7383275,208.150166 29.8160334,206.235395 Z M42.5857803,216.497783 C42.0481056,216.371592 41.7145327,215.833422 41.8407243,215.295747 C41.966916,214.758072 42.5050861,214.424499 43.0427608,214.550691 C44.2925217,214.844008 45.5793383,214.995647 46.8831926,214.999902 L48.8466587,215 C49.3989435,215.000027 49.8466365,215.447765 49.846609,216.00005 C49.8465815,216.552334 49.398844,217.000027 48.8465592,217 L46.879883,216.999897 C45.4208718,216.995141 43.9829391,216.825695 42.5857803,216.497783 Z" id="Combined-Shape" fill="url(#linearGradient-1)" fill-rule="nonzero"></path>
                <path d="M193,195 L193,205 L129,205 L129,195 L193,195 Z M382.360341,103.314792 L380.307074,108.050086 C378.960878,107.466363 377.504168,107.16129 376,107.16129 C370.013946,107.16129 365.16129,112.013946 365.16129,118 C365.16129,123.986054 370.013946,128.83871 376,128.83871 C378.092965,128.83871 380.091945,128.247022 381.815883,127.148213 L384.590011,131.500584 C382.043278,133.123828 379.083187,134 376,134 C367.163444,134 360,126.836556 360,118 C360,109.163444 367.163444,102 376,102 C378.213848,102 380.369074,102.45136 382.360341,103.314792 Z M389.162792,127.098344 L384.919234,124.160466 C386.163091,122.363801 386.83871,120.235821 386.83871,118 C386.83871,117.199321 386.752332,116.411636 386.58284,115.645567 L391.622261,114.5306 C391.872626,115.662199 392,116.823728 392,118 C392,121.294159 390.999536,124.445297 389.162792,127.098344 Z M218.911249,6.8728446 L209.336192,22.1148351 C205.075683,19.438373 200.155194,18 195,18 C180.088312,18 168,30.0883118 168,45 C168,59.911688 180.088312,72 195,72 C198.515348,72 201.922961,71.332536 205.099213,70.050375 L211.837036,86.741742 C206.528517,88.884638 200.834243,90 195,90 C170.147186,90 150,69.852814 150,45 C150,20.1471863 170.147186,0 195,0 C203.567796,0 211.802751,2.407268 218.911249,6.8728446 Z M227.533284,76.090041 L214.521392,63.65257 C219.296522,58.656903 222,52.052563 222,45 L240,45 C240,56.732592 235.478722,67.777646 227.533284,76.090041 Z" id="Combined-Shape" fill="url(#linearGradient-2)" fill-rule="nonzero" opacity="0.749441964"></path>
                <rect id="Rectangle-Copy" fill="url(#linearGradient-2)" opacity="0.749441964" x="187" y="145" width="6" height="23"></rect>
                <rect id="Rectangle-Copy-2" fill="url(#linearGradient-2)" opacity="0.749441964" x="202" y="145" width="6" height="17"></rect>
                <rect id="Rectangle-Copy-3" fill="url(#linearGradient-2)" opacity="0.749441964" x="217" y="145" width="6" height="12"></rect>
                <path d="M391.645611,114.637888 L386.598619,115.71807 C385.873075,112.328071 383.542652,109.48217 380.382344,108.083066 C380.342046,108.065226 380.301638,108.047632 380.26112,108.030287 L382.292343,103.285495 C382.352297,103.311161 382.412087,103.337192 382.471711,103.363589 C387.137447,105.429164 390.572528,109.624067 391.645611,114.637888 Z M384.609345,131.488241 L381.828985,127.139848 C383.042893,126.363676 384.09363,125.351183 384.914821,124.166835 L389.156284,127.107737 C387.946124,128.853069 386.398834,130.344042 384.609345,131.488241 Z M211.837036,86.741742 L205.099213,70.050375 C208.654314,68.615283 211.867539,66.428991 214.521392,63.65257 L227.533284,76.090041 C223.120624,80.706498 217.771122,84.346323 211.837036,86.741742 Z M240,45 L222,45 C222,35.5938108 217.160575,27.0301325 209.336192,22.1148351 L218.911249,6.8728446 C231.92517,15.0482229 240,29.3371604 240,45 Z" id="Combined-Shape" fill="url(#linearGradient-1)" fill-rule="nonzero"></path>
            </g>
        </g>
    </g>
</svg>