<?xml version="1.0" encoding="UTF-8"?>
<svg width="48px" height="48px" viewBox="0 0 48 48" version="1.1" xmlns="http://www.w3.org/2000/svg" xmlns:xlink="http://www.w3.org/1999/xlink">
    <!-- Generator: Sketch 52.6 (67491) - http://www.bohemiancoding.com/sketch -->
    <title>01_deploy</title>
    <desc>Created with Sketch.</desc>
    <g id="01_deploy" stroke="none" stroke-width="1" fill="none" fill-rule="evenodd">
        <path d="M33.4924268,26.9188134 L34.1773801,27.5649958 C34.5791086,27.9439849 34.5975424,28.5768815 34.2185534,28.9786099 C33.8395643,29.3803383 33.2066677,29.3987722 32.8049393,29.0197831 L32.5242102,28.7549443 L27.9421201,31.1638474 C27.782914,31.2475455 27.6114278,31.2840499 27.4436688,31.2783366 C27.0952144,31.4136443 26.6847461,31.3471622 26.394744,31.0735753 L22.3983401,27.3033829 C22.0887991,27.0113631 22.0068223,26.5685971 22.1588727,26.1969893 C22.2122846,25.9051873 22.394424,25.6399888 22.6773607,25.4912429 L24.8334848,24.3577222 C25.3223313,24.1007251 25.926957,24.2886762 26.1839542,24.7775227 C26.4409513,25.2663692 26.2530002,25.870995 25.7641537,26.1279921 L24.674286,26.7009589 L27.3434504,29.2190385 L32.2366995,26.6465524 C32.6728032,26.4172833 33.2010504,26.542129 33.4924268,26.9188134 Z M19.8399453,22.4386546 L28.9447029,17.7528601 C29.4357695,17.500131 30.0387351,17.6933417 30.2914642,18.1844084 C30.5441933,18.675475 30.3509826,19.2784406 29.859916,19.5311697 L20.273678,24.4647597 C20.1974208,24.5040057 20.1184653,24.5324981 20.0385419,24.5507913 C19.6839517,24.7017611 19.2582726,24.6394496 18.9600156,24.358075 L13.0322595,18.7658523 C12.6305311,18.3868632 12.6120972,17.7539667 12.9910863,17.3522382 C13.3700754,16.9505098 14.002972,16.9320759 14.4047004,17.311065 L19.8399453,22.4386546 Z M29.0184084,33.0750696 C28.9529986,32.6633254 29.1514756,32.237868 29.5409742,32.0331002 L32.2514559,30.6081418 C32.7403024,30.3511447 33.3449281,30.5390958 33.6019252,31.0279423 C33.8589224,31.5167889 33.6709713,32.1214146 33.1821247,32.3784117 L31.5625255,33.2298698 L32.1271263,33.7625121 C32.5288547,34.1415012 32.5472886,34.7743978 32.1682996,35.1761262 C31.7893105,35.5778546 31.1564139,35.5962885 30.7546855,35.2172994 L29.3297273,33.8729992 C29.1027844,33.6589022 28.9981624,33.3637755 29.0184084,33.0750696 Z M18.5494519,33.8687625 L13.473889,29.0804955 C13.0721606,28.7015064 13.0537267,28.0686099 13.4327158,27.6668814 C13.8117048,27.265153 14.4446014,27.2467191 14.8463298,27.6257082 L20.891412,33.328616 C21.0179091,33.4479528 21.1064022,33.5924647 21.1564504,33.7470073 C21.3438072,34.2165159 21.1498282,34.7612314 20.6924778,35.0016703 L14.6695391,38.1680584 C14.1806925,38.4250555 13.5760668,38.2371045 13.3190697,37.7482579 C13.0620726,37.2594114 13.2500237,36.6547857 13.7388702,36.3977885 L18.5494519,33.8687625 Z M37.0968944,39 C36.4092662,38.1678701 36,37.1315562 36,36 L36,16 L28.0370367,16 C27.484752,16 27.0370367,15.5522847 27.0370367,15 C27.0370367,14.4477153 27.484752,14 28.0370367,14 L36.109232,14 C36.6197659,11.7002433 38.8575672,10 41.5,10 C44.5130471,10 47,12.2106248 47,15 L47,36 C47,38.7893752 44.5130471,41 41.5,41 C41.3515374,41 41.2043521,40.9946329 41.0586786,40.984094 C41.0007219,40.9945441 40.9410293,41 40.8800624,41 L6.52450564,41 C6.52041559,41 6.51633127,40.9999754 6.51225282,40.9999265 C6.50817438,40.9999754 6.50409006,41 6.5,41 C3.48695286,41 1,38.7893752 1,36 L1,15 C1,12.2106248 3.48695286,10 6.5,10 C9.14463823,10 11.3839693,11.7030826 11.8920427,14.0057596 C11.9275065,14.0019528 11.9635252,14 12,14 L20.0934989,14 C20.6457836,14 21.0934989,14.4477153 21.0934989,15 C21.0934989,15.5522847 20.6457836,16 20.0934989,16 L12,16 L12,36 C12,36.5522847 11.5522847,37 11,37 C10.4477153,37 10,36.5522847 10,36 C10,34.3710972 8.45751561,33 6.5,33 C4.54248439,33 3,34.3710972 3,36 C3,37.6289028 4.54248439,39 6.5,39 C6.50409006,39 6.50817438,39.0000246 6.51225282,39.0000735 C6.51633127,39.0000246 6.52041559,39 6.52450564,39 L37.0968944,39 Z M45,32.1414471 L45,15 C45,13.3710972 43.4575156,12 41.5,12 C39.5424844,12 38,13.3710972 38,15 L38,32.1414471 C38.954327,31.4265946 40.1764021,31 41.5,31 C42.8235979,31 44.045673,31.4265946 45,32.1414471 Z M10,32.1414471 L10,15 C10,13.3710972 8.45751561,12 6.5,12 C4.54248439,12 3,13.3710972 3,15 L3,32.1414471 C3.95432704,31.4265946 5.17640209,31 6.5,31 C7.82359791,31 9.04567296,31.4265946 10,32.1414471 Z M41.5,39 C43.4575156,39 45,37.6289028 45,36 C45,34.3710972 43.4575156,33 41.5,33 C39.5424844,33 38,34.3710972 38,36 C38,37.6289028 39.5424844,39 41.5,39 Z M21.8673741,38.5485343 C21.3785275,38.8055314 20.7739018,38.6175803 20.5169047,38.1287338 C20.2599076,37.6398872 20.4478587,37.0352615 20.9367052,36.7782644 L22.8260947,35.7849718 C23.3149412,35.5279747 23.9195669,35.7159258 24.176564,36.2047723 C24.4335612,36.6936188 24.2456101,37.2982446 23.7567635,37.5552417 L21.8673741,38.5485343 Z M21.1782826,20.2509322 L19.6286881,18.7890505 C19.2269597,18.4100614 19.2085258,17.7771649 19.5875149,17.3754364 C19.966504,16.973708 20.5994005,16.9552741 21.001129,17.3342632 L22.5507235,18.7961449 C22.9524519,19.1751339 22.9708858,19.8080305 22.5918967,20.2097589 C22.2129076,20.6114874 21.5800111,20.6299212 21.1782826,20.2509322 Z M32.1782826,23.2509322 L30.6286881,21.7890505 C30.2269597,21.4100614 30.2085258,20.7771649 30.5875149,20.3754364 C30.966504,19.973708 31.5994005,19.9552741 32.001129,20.3342632 L33.5507235,21.7961449 C33.9524519,22.1751339 33.9708858,22.8080305 33.5918967,23.2097589 C33.2129076,23.6114874 32.5800111,23.6299212 32.1782826,23.2509322 Z M28.5006746,38.1650257 L16.9276061,27.2470365 C16.5258777,26.8680474 16.5074438,26.2351509 16.8864329,25.8334224 C17.265422,25.431694 17.8983185,25.4132601 18.300047,25.7922492 L29.8731155,36.7102384 C30.2748439,37.0892275 30.2932778,37.722124 29.9142887,38.1238525 C29.5352996,38.5255809 28.9024031,38.5440148 28.5006746,38.1650257 Z M23,11 C23,10.4477153 23.4477153,10 24,10 C24.5522847,10 25,10.4477153 25,11 L25,14 C25,14.5522847 24.5522847,15 24,15 C23.4477153,15 23,14.5522847 23,14 L23,11 Z M24,7.66666667 L21.8,10.6 C21.4686292,11.0418278 20.8418278,11.1313708 20.4,10.8 C19.9581722,10.4686292 19.8686292,9.8418278 20.2,9.4 L23.2,5.4 C23.6,4.86666667 24.4,4.86666667 24.8,5.4 L27.8,9.4 C28.1313708,9.8418278 28.0418278,10.4686292 27.6,10.8 C27.1581722,11.1313708 26.5313708,11.0418278 26.2,10.6 L24,7.66666667 Z M33,7 C33,6.44771525 33.4477153,6 34,6 C34.5522847,6 35,6.44771525 35,7 L35,10 C35,10.5522847 34.5522847,11 34,11 C33.4477153,11 33,10.5522847 33,10 L33,7 Z M34,3.66666667 L31.8,6.6 C31.4686292,7.0418278 30.8418278,7.13137085 30.4,6.8 C29.9581722,6.46862915 29.8686292,5.8418278 30.2,5.4 L33.2,1.4 C33.6,0.866666667 34.4,0.866666667 34.8,1.4 L37.8,5.4 C38.1313708,5.8418278 38.0418278,6.46862915 37.6,6.8 C37.1581722,7.13137085 36.5313708,7.0418278 36.2,6.6 L34,3.66666667 Z M13,7 C13,6.44771525 13.4477153,6 14,6 C14.5522847,6 15,6.44771525 15,7 L15,10 C15,10.5522847 14.5522847,11 14,11 C13.4477153,11 13,10.5522847 13,10 L13,7 Z M14,3.66666667 L11.8,6.6 C11.4686292,7.0418278 10.8418278,7.13137085 10.4,6.8 C9.9581722,6.46862915 9.86862915,5.8418278 10.2,5.4 L13.2,1.4 C13.6,0.866666667 14.4,0.866666667 14.8,1.4 L17.8,5.4 C18.1313708,5.8418278 18.0418278,6.46862915 17.6,6.8 C17.1581722,7.13137085 16.5313708,7.0418278 16.2,6.6 L14,3.66666667 Z M41.5000001,43 C42.7783029,43 43.9242402,42.4071314 44.5411135,41.482957 C44.8477264,41.0236021 45.468666,40.8997802 45.928021,41.2063931 C46.3873759,41.513006 46.5111978,42.1339457 46.2045849,42.5933006 C45.3209999,43.9170516 43.8203638,44.7894898 42.1371723,44.9666376 C42.0551315,44.9884023 41.9689514,45 41.8800624,45 L6.52450564,45 C5.97222089,45 5.52450564,44.5522847 5.52450564,44 C5.52450564,43.4477153 5.97222089,43 6.52450564,43 L41.5000002,43 L41.5000001,43 Z" id="Shape" fill="#005676" fill-rule="nonzero"></path>
        <rect id="Rectangle" fill-opacity="0.7" fill="#D8D8D8" fill-rule="nonzero" opacity="0" x="0" y="0" width="48" height="48"></rect>
        <path d="" id="Shape" stroke="#979797" stroke-width="2" stroke-linecap="round" fill-rule="nonzero" transform="translate(27.345824, 44.567192) scale(-1, 1) translate(-27.345824, -44.567192) "></path>
    </g>
</svg>