<?xml version="1.0" encoding="UTF-8"?>
<svg width="48px" height="48px" viewBox="0 0 48 48" version="1.1" xmlns="http://www.w3.org/2000/svg" xmlns:xlink="http://www.w3.org/1999/xlink">
    <!-- Generator: Sketch 52.6 (67491) - http://www.bohemiancoding.com/sketch -->
    <title>02_configure</title>
    <desc>Created with Sketch.</desc>
    <g id="02_configure" stroke="none" stroke-width="1" fill="none" fill-rule="evenodd">
        <path d="M6.58551363,21.9980851 L12.1664991,27.2631658 C12.2966788,27.3859768 12.3866096,27.53545 12.4358107,27.6950796 C12.6327057,28.1677097 12.4394431,28.720901 11.977543,28.9637318 L3.21690479,33.5693873 C3.15495762,33.6019542 3.09115123,33.6273761 3.02642863,33.645946 C3.13691474,33.6912239 3.24109957,33.7571969 3.33314787,33.8440349 L4.49154365,34.9368611 C4.89327207,35.3158502 4.91170595,35.9487468 4.53271687,36.3504752 C4.15372779,36.7522036 3.52083121,36.7706375 3.11910279,36.3916484 L3,36.2792873 L3,38 C3,38.5522847 3.44771525,39 4,39 L11.7874951,39 L8.95453236,36.3273937 C8.84998986,36.2287687 8.77140429,36.1129489 8.71902463,35.9884829 C8.63572545,35.9124124 8.56397861,35.8208456 8.50845682,35.715235 C8.2514597,35.2263884 8.43941079,34.6217627 8.92825732,34.3647656 L15.504017,30.9077476 C15.9928635,30.6507505 16.5974893,30.8387016 16.8544864,31.3275481 C17.1114835,31.8163946 16.9235324,32.4210204 16.4346859,32.6780175 L11.0187944,35.5252678 L14.1486865,38.4779962 C14.3030979,38.6236674 14.400882,38.8068505 14.4412364,39 L19.5,39 L21.5,39 L27.5,39 L29.5,39 L31.2342332,39 L37.6972923,35.6022311 L34.4852081,32.571963 C34.3674374,32.4608586 34.2826081,32.3279327 34.2310762,32.1854067 C34.2156364,32.159997 34.2011911,32.1336842 34.1878162,32.106494 C33.9440431,31.6109205 34.1481676,31.0115616 34.6437411,30.7677885 L44.5804346,25.8799185 C44.7156726,25.8133948 44.8586396,25.780226 45,25.7772328 L45,8 C45,7.44771525 44.5522847,7 44,7 L4,7 C3.44771525,7 3,7.44771525 3,8 L3,18.745276 C3.13530268,18.7896865 3.26321286,18.8638391 3.37365229,18.9680272 L5.15204496,20.6457562 C5.24276376,20.5004128 5.37207082,20.3764756 5.53466556,20.290996 L9.39001398,18.2641566 L7.76104526,16.7273937 C7.35931683,16.3484046 7.34088295,15.715508 7.71987203,15.3137796 C8.09886111,14.9120512 8.73175769,14.8936173 9.13348611,15.2726063 L11.2615746,17.280237 L13.4782845,16.1148651 C13.967131,15.8578679 14.5717567,16.045819 14.8287538,16.5346656 C15.085751,17.0235121 14.8977999,17.6281378 14.4089533,17.8851349 L6.58551363,21.9980851 Z M35.5322173,39 L44,39 C44.5522847,39 45,38.5522847 45,38 L45,27.902405 L36.7510955,31.9600498 L39.813061,34.8486965 C40.0439437,34.9291958 40.2460151,35.0940461 40.3687721,35.3275481 C40.6257692,35.8163946 40.4378181,36.4210204 39.9489716,36.6780175 L35.5322173,39 Z M3,21.3650679 L3,31.4238763 L9.84683636,27.8243475 L3,21.3650679 Z M27.1428509,35.0309839 L25.7610453,33.7273937 C25.3593168,33.3484046 25.340883,32.715508 25.719872,32.3137796 C26.0988611,31.9120512 26.7317577,31.8936173 27.1334861,32.2726063 L29.0144115,34.0470643 L30.1354273,33.4577222 C30.6242739,33.2007251 31.2288996,33.3886762 31.4858967,33.8775227 C31.7428938,34.3663692 31.5549427,34.970995 31.0660962,35.2279921 L25.8052286,37.9937431 C25.316382,38.2507402 24.7117563,38.0627891 24.4547592,37.5739426 C24.1977621,37.0850961 24.3857132,36.4804703 24.8745597,36.2234732 L27.1428509,35.0309839 Z M19.5,44.5 L19.5,41 L4,41 C2.34314575,41 1,39.6568542 1,38 L1,8 C1,6.34314575 2.34314575,5 4,5 L44,5 C45.6568542,5 47,6.34314575 47,8 L47,38 C47,39.6568542 45.6568542,41 44,41 L29.5,41 L29.5,44.5 L31.4494134,44.5 C32.0016981,44.5 32.4494134,44.9477153 32.4494134,45.5 C32.4494134,46.0522847 32.0016981,46.5 31.4494134,46.5 L16.8294689,46.5 C16.2771841,46.5 15.8294689,46.0522847 15.8294689,45.5 C15.8294689,44.9477153 16.2771841,44.5 16.8294689,44.5 L19.5,44.5 Z M21.5,44.5 L27.5,44.5 L27.5,41 L21.5,41 L21.5,44.5 Z M27,8.5 C27.5522847,8.5 28,8.94771525 28,9.5 C28,10.0522847 27.5522847,10.5 27,10.5 L16,10.5 C15.4477153,10.5 15,10.0522847 15,9.5 C15,8.94771525 15.4477153,8.5 16,8.5 L27,8.5 Z M9,8.5 C9.55228475,8.5 10,8.94771525 10,9.5 C10,10.0522847 9.55228475,10.5 9,10.5 L6,10.5 C5.44771525,10.5 5,10.0522847 5,9.5 C5,8.94771525 5.44771525,8.5 6,8.5 L9,8.5 Z M21.463635,38.4147697 L20.4531594,37.4614908 C20.051431,37.0825017 20.0329971,36.4496052 20.4119862,36.0478767 C20.7909753,35.6461483 21.4238718,35.6277144 21.8256003,36.0067035 L22.8360759,36.9599824 C23.2378043,37.3389715 23.2562382,37.9718681 22.8772491,38.3735965 C22.49826,38.7753249 21.8653635,38.7937588 21.463635,38.4147697 Z M35.6878047,14.8811286 C35.6878047,15.3285963 35.3905412,15.721598 34.9599645,15.8433807 C34.2934713,16.0318891 33.6856775,16.3848595 33.1893329,16.867172 C32.8685546,17.1788816 32.3797943,17.239667 31.9924363,17.0160258 L31.2281656,16.5747739 L30.8164009,17.2879712 L31.5795651,17.7285843 C31.9666773,17.9520836 32.1584475,18.4053466 32.0492894,18.838812 C31.9657892,19.1703906 31.9230988,19.5133351 31.9230988,19.8627451 C31.9230988,20.2121551 31.9657892,20.5550996 32.0492894,20.8866782 C32.1584475,21.3201436 31.9666773,21.7734066 31.5795651,21.9969059 L30.8164009,22.437519 L31.2281656,23.1507163 L31.9924363,22.7094644 C32.3797943,22.4858232 32.8685546,22.5466086 33.1893329,22.8583182 C33.6856775,23.3406307 34.2934713,23.6936011 34.9599645,23.8821095 C35.3905412,24.0038922 35.6878047,24.3968939 35.6878047,24.8443616 L35.6878047,25.7254902 L36.5113341,25.7254902 L36.5113341,24.8443616 C36.5113341,24.3968939 36.8085976,24.0038922 37.2391743,23.8821095 C37.9056675,23.6936011 38.5134613,23.3406307 39.0098059,22.8583182 C39.3305842,22.5466086 39.8193446,22.4858232 40.2067025,22.7094644 L40.9709733,23.1507163 L41.382738,22.437519 L40.6195737,21.9969059 C40.2324616,21.7734066 40.0406913,21.3201436 40.1498494,20.8866782 C40.2333497,20.5550996 40.27604,20.2121551 40.27604,19.8627451 C40.27604,19.5133351 40.2333497,19.1703906 40.1498494,18.838812 C40.0406913,18.4053466 40.2324616,17.9520836 40.6195737,17.7285843 L41.382738,17.2879712 L40.9709733,16.5747739 L40.2067025,17.0160258 C39.8193446,17.239667 39.3305842,17.1788816 39.0098059,16.867172 C38.5134613,16.3848595 37.9056675,16.0318891 37.2391743,15.8433807 C36.8085976,15.721598 36.5113341,15.3285963 36.5113341,14.8811286 L36.5113341,14 L35.6878047,14 L35.6878047,14.8811286 Z M33.6878047,14 C33.6878047,12.8954305 34.5832352,12 35.6878047,12 L36.5113341,12 C37.6159036,12 38.5113341,12.8954305 38.5113341,14 L38.5113341,14.1751618 C38.9767499,14.3727229 39.415567,14.6267651 39.8183195,14.9308577 L39.9709733,14.842723 C40.9275585,14.2904383 42.1507393,14.6181886 42.7030241,15.5747739 L43.1147888,16.2879712 C43.6670735,17.2445565 43.3393232,18.4677373 42.382738,19.0200221 L42.2302924,19.1080365 C42.2606874,19.3571084 42.27604,19.6090214 42.27604,19.8627451 C42.27604,20.1164688 42.2606874,20.3683818 42.2302924,20.6174537 L42.382738,20.7054681 C43.3393232,21.2577529 43.6670735,22.4809337 43.1147888,23.437519 L42.7030241,24.1507163 C42.1507393,25.1073016 40.9275585,25.4350519 39.9709733,24.8827672 L39.8183195,24.7946325 C39.415567,25.0987251 38.9767499,25.3527673 38.5113341,25.5503284 L38.5113341,25.7254902 C38.5113341,26.8300597 37.6159036,27.7254902 36.5113341,27.7254902 L35.6878047,27.7254902 C34.5832352,27.7254902 33.6878047,26.8300597 33.6878047,25.7254902 L33.6878047,25.5503284 C33.222389,25.3527673 32.7835719,25.0987251 32.3808193,24.7946325 L32.2281656,24.8827672 C31.2715803,25.4350519 30.0483995,25.1073016 29.4961148,24.1507163 L29.0843501,23.437519 C28.5320653,22.4809337 28.8598156,21.2577529 29.8164009,20.7054681 L29.9688464,20.6174537 C29.9384514,20.3683818 29.9230988,20.1164688 29.9230988,19.8627451 C29.9230988,19.6090214 29.9384514,19.3571084 29.9688464,19.1080365 L29.8164009,19.0200221 C28.8598156,18.4677373 28.5320653,17.2445565 29.0843501,16.2879712 L29.4961148,15.5747739 C30.0483995,14.6181886 31.2715803,14.2904383 32.2281656,14.842723 L32.3808193,14.9308577 C32.7835719,14.6267651 33.222389,14.3727229 33.6878047,14.1751618 L33.6878047,14 Z M36.0995694,23.2156863 C34.2477911,23.2156863 32.7466282,21.7145234 32.7466282,19.8627451 C32.7466282,18.0109668 34.2477911,16.5098039 36.0995694,16.5098039 C37.9513477,16.5098039 39.4525106,18.0109668 39.4525106,19.8627451 C39.4525106,21.7145234 37.9513477,23.2156863 36.0995694,23.2156863 Z M36.0995694,21.2156863 C36.8467782,21.2156863 37.4525106,20.6099539 37.4525106,19.8627451 C37.4525106,19.1155363 36.8467782,18.5098039 36.0995694,18.5098039 C35.3523606,18.5098039 34.7466282,19.1155363 34.7466282,19.8627451 C34.7466282,20.6099539 35.3523606,21.2156863 36.0995694,21.2156863 Z M21.7294118,18.0263491 C21.7294118,18.4738168 21.4321483,18.8668184 21.0015716,18.9886012 C20.4177934,19.1537148 19.8853505,19.4629258 19.4504768,19.8855053 C19.1296985,20.1972149 18.6409381,20.2580003 18.2535802,20.0343591 L17.6523391,19.6872323 L17.3817509,20.1559049 L17.9819961,20.5024567 C18.3691083,20.725956 18.5608785,21.1792189 18.4517205,21.6126843 C18.3785768,21.9031368 18.3411765,22.2035854 18.3411765,22.5098039 C18.3411765,22.8160225 18.3785768,23.116471 18.4517205,23.4069235 C18.5608785,23.8403889 18.3691083,24.2936518 17.9819961,24.5171512 L17.3817509,24.8637029 L17.6523391,25.3323755 L18.2535802,24.9852488 C18.6409381,24.7616076 19.1296985,24.822393 19.4504768,25.1341025 C19.8853505,25.556682 20.4177934,25.8658931 21.0015716,26.0310067 C21.4321483,26.1527894 21.7294118,26.545791 21.7294118,26.9932588 L21.7294118,27.6862745 L22.2705882,27.6862745 L22.2705882,26.9932588 C22.2705882,26.545791 22.5678517,26.1527894 22.9984284,26.0310067 C23.5822066,25.8658931 24.1146495,25.556682 24.5495232,25.1341025 C24.8703015,24.822393 25.3590619,24.7616076 25.7464198,24.9852488 L26.3476609,25.3323755 L26.6182491,24.8637029 L26.0180039,24.5171512 C25.6308917,24.2936518 25.4391215,23.8403889 25.5482795,23.4069235 C25.6214232,23.116471 25.6588235,22.8160225 25.6588235,22.5098039 C25.6588235,22.2035854 25.6214232,21.9031368 25.5482795,21.6126843 C25.4391215,21.1792189 25.6308917,20.725956 26.0180039,20.5024567 L26.6182491,20.1559049 L26.3476609,19.6872323 L25.7464198,20.0343591 C25.3590619,20.2580003 24.8703015,20.1972149 24.5495232,19.8855053 C24.1146495,19.4629258 23.5822066,19.1537148 22.9984284,18.9886012 C22.5678517,18.8668184 22.2705882,18.4738168 22.2705882,18.0263491 L22.2705882,17.3333333 L21.7294118,17.3333333 L21.7294118,18.0263491 Z M21.7294118,15.3333333 L22.2705882,15.3333333 C23.3724481,15.3333333 24.2661938,16.224376 24.2705721,17.3252081 C24.6541011,17.4933671 25.0173484,17.7036158 25.3539004,17.9515938 C26.3095587,17.4043241 27.528627,17.7327257 28.0797117,18.6872323 L28.3503,19.1559049 C28.9013686,20.1103838 28.5762735,21.3302856 27.624559,21.8842977 C27.6473322,22.0909913 27.6588235,22.2997271 27.6588235,22.5098039 C27.6588235,22.7198808 27.6473322,22.9286165 27.624559,23.1353101 C28.5762735,23.6893223 28.9013686,24.909224 28.3503,25.8637029 L28.0797117,26.3323755 C27.528627,27.2868822 26.3095587,27.6152837 25.3539004,27.0680141 C25.0173484,27.3159921 24.6541011,27.5262407 24.2705721,27.6943997 C24.2661938,28.7952318 23.3724481,29.6862745 22.2705882,29.6862745 L21.7294118,29.6862745 C20.6275519,29.6862745 19.7338062,28.7952318 19.7294279,27.6943997 C19.3458989,27.5262407 18.9826516,27.3159921 18.6460996,27.0680141 C17.6904413,27.6152837 16.471373,27.2868822 15.9202883,26.3323755 L15.6497,25.8637029 C15.0986314,24.909224 15.4237265,23.6893223 16.375441,23.1353101 C16.3526678,22.9286165 16.3411765,22.7198808 16.3411765,22.5098039 C16.3411765,22.2997271 16.3526678,22.0909913 16.375441,21.8842977 C15.4237265,21.3302856 15.0986314,20.1103838 15.6497,19.1559049 L15.9202883,18.6872323 C16.471373,17.7327257 17.6904413,17.4043241 18.6460996,17.9515938 C18.9826516,17.7036158 19.3458989,17.4933671 19.7294279,17.3252081 C19.7338062,16.224376 20.6275519,15.3333333 21.7294118,15.3333333 Z M22,25.627451 C20.2781711,25.627451 18.8823529,24.2316328 18.8823529,22.5098039 C18.8823529,20.787975 20.2781711,19.3921569 22,19.3921569 C23.7218289,19.3921569 25.1176471,20.787975 25.1176471,22.5098039 C25.1176471,24.2316328 23.7218289,25.627451 22,25.627451 Z M22,23.627451 C22.6172594,23.627451 23.1176471,23.1270633 23.1176471,22.5098039 C23.1176471,21.8925445 22.6172594,21.3921569 22,21.3921569 C21.3827406,21.3921569 20.8823529,21.8925445 20.8823529,22.5098039 C20.8823529,23.1270633 21.3827406,23.627451 22,23.627451 Z M34.2005204,8.5 C34.7528051,8.5 35.2005204,8.94771525 35.2005204,9.5 C35.2005204,10.0522847 34.7528051,10.5 34.2005204,10.5 L34.1135702,10.5 C33.5612855,10.5 33.1135702,10.0522847 33.1135702,9.5 C33.1135702,8.94771525 33.5612855,8.5 34.1135702,8.5 L34.2005204,8.5 Z M38.2005204,8.5 C38.7528051,8.5 39.2005204,8.94771525 39.2005204,9.5 C39.2005204,10.0522847 38.7528051,10.5 38.2005204,10.5 L38.1135702,10.5 C37.5612855,10.5 37.1135702,10.0522847 37.1135702,9.5 C37.1135702,8.94771525 37.5612855,8.5 38.1135702,8.5 L38.2005204,8.5 Z M42.2005204,8.5 C42.7528051,8.5 43.2005204,8.94771525 43.2005204,9.5 C43.2005204,10.0522847 42.7528051,10.5 42.2005204,10.5 L42.1135702,10.5 C41.5612855,10.5 41.1135702,10.0522847 41.1135702,9.5 C41.1135702,8.94771525 41.5612855,8.5 42.1135702,8.5 L42.2005204,8.5 Z" id="Combined-Shape" fill="#005676" fill-rule="nonzero"></path>
        <rect id="Rectangle" fill-opacity="0.7" fill="#D8D8D8" fill-rule="nonzero" opacity="0" x="0" y="0" width="48" height="48"></rect>
    </g>
</svg>