<?xml version="1.0" encoding="UTF-8"?>
<svg width="164px" height="164px" viewBox="0 0 164 164" version="1.1" xmlns="http://www.w3.org/2000/svg" xmlns:xlink="http://www.w3.org/1999/xlink">
    <!-- Generator: Sketch 52.6 (67491) - http://www.bohemiancoding.com/sketch -->
    <title>enterprises_h</title>
    <desc>Created with Sketch.</desc>
    <g id="enterprises_h" stroke="none" stroke-width="1" fill="none" fill-rule="evenodd">
        <g id="Group" fill-rule="nonzero">
            <path d="M135.007079,74.1228392 L132.973851,75.1932277 C132.809388,75.2798085 132.631848,75.3156847 132.458964,75.3064139 C132.193841,75.4189943 131.882479,75.415909 131.60764,75.2712202 L108.550822,63.133008 C108.063414,62.8764132 107.875441,62.2716371 108.130974,61.7822027 C108.386506,61.2927684 108.988778,61.1040146 109.476186,61.3606094 L132.216671,73.3322886 L134.714683,72.0172157 C134.808964,71.9675816 134.907543,71.9346109 135.007079,71.9172567 L135.007079,60.6631304 C135.007079,55.300911 132.158213,50.3460159 127.533623,47.6649062 L94.3839385,28.4463518 L94.3839385,39.3351146 L104.359994,45.2494433 C104.987612,45.6215282 105.007783,46.5043931 104.445629,46.9164481 L104.445629,78.5801283 C104.445629,79.1327465 103.999498,79.5807321 103.449168,79.5807321 C102.898838,79.5807321 102.452707,79.1327465 102.452707,78.5801283 L102.452707,47.9760285 L74.536145,62.6394042 L74.536145,94.8146365 C74.536145,95.3672547 74.0900144,95.8152402 73.5396843,95.8152402 C72.9893542,95.8152402 72.5432236,95.3672547 72.5432236,94.8146365 L72.5432236,62.3456202 C72.5432236,62.290688 72.5476318,62.2367897 72.5561124,62.1842625 L59.9855853,55.1571411 L59.9855853,81.8832419 C59.9855853,82.4358601 59.5394546,82.8838457 58.9891246,82.8838457 C58.4387945,82.8838457 57.9926638,82.4358601 57.9926638,81.8832419 L57.9926638,53.8231533 C57.7875275,53.3705347 57.9345559,52.7878917 58.4298906,52.5221804 L67.519816,47.6460921 L67.519816,30.2414024 L37.466377,47.6649062 C32.8417866,50.3460159 29.9929215,55.300911 29.9929215,60.6631304 L29.9929215,104.214201 C29.9929215,109.57642 32.8417866,114.531315 37.466377,117.212425 L42.891218,120.357481 L98.4536957,91.106734 C98.5014009,91.0816198 98.5502063,91.0607717 98.5996793,91.0440543 L98.5996793,84.4038955 C98.5996793,84.1202724 98.7171947,83.8642107 98.9059994,83.6821286 C98.9764288,83.4388515 99.1393656,83.2188 99.3939403,83.0826744 L109.506171,77.6754876 C109.80792,77.5141375 110.170974,77.5193802 110.467977,77.6893764 L116.922598,81.38382 L123.374818,77.9870629 L109.001359,70.4201863 C108.513951,70.1635915 108.325979,69.5588154 108.581511,69.0693811 C108.837044,68.5799467 109.439316,68.391193 109.926724,68.6477878 L125.310544,76.746567 C125.486735,76.8393223 125.623798,76.9775752 125.714928,77.1394306 C125.932959,77.2235802 126.12261,77.3846254 126.239591,77.6086865 C126.495124,78.0981208 126.307152,78.7028969 125.819744,78.9594917 L118.978946,82.5608153 L122.990821,84.8571001 C123.233119,84.9957845 123.387518,85.2104374 123.454806,85.4461749 C123.518106,85.5024131 123.574231,85.5666108 123.621625,85.6372069 L131.885507,81.2867042 C131.901116,81.2784869 131.916843,81.2707264 131.932672,81.2634178 C132.206672,80.8254536 132.774665,80.6662125 133.238593,80.9104466 L135.007079,81.8414619 L135.007079,74.1228392 Z M44.9338483,121.541697 L49.9242491,124.434886 L97.0029106,99.6350209 C97.0529833,99.6086439 97.1042698,99.586968 97.1562693,99.5698365 L98.5996793,98.8099564 L98.5996793,93.289436 L44.9338483,121.541697 Z M98.5996793,101.069511 L51.9670114,125.619179 L75.0265445,138.98796 C79.6511349,141.66907 85.3488651,141.66907 89.9734555,138.98796 L127.533623,117.212425 C132.158213,114.531315 135.007079,109.57642 135.007079,104.214201 L135.007079,84.0968051 C134.980648,84.085679 134.954471,84.0733216 134.928618,84.0597111 L132.911988,82.9980607 C132.879889,83.0201164 132.846165,83.0405225 132.810871,83.0591028 L123.791249,87.8074637 L123.791249,110.088239 C123.791249,110.640857 123.345118,111.088843 122.794788,111.088843 C122.244458,111.088843 121.798327,110.640857 121.798327,110.088239 L121.798327,87.2338184 L113.08418,91.893425 L113.08418,114.866721 C113.08418,115.41934 112.63805,115.867325 112.08772,115.867325 C111.53739,115.867325 111.091259,115.41934 111.091259,114.866721 L111.091259,91.5447468 L100.592601,85.5356099 L100.592601,108.296308 C100.592601,108.848926 100.14647,109.296912 99.5961401,109.296912 C99.04581,109.296912 98.5996793,108.848926 98.5996793,108.296308 L98.5996793,101.069511 Z M67.519816,27.930607 L67.519816,23.1754483 C67.519816,23.1179019 67.5246538,23.0614901 67.5339433,23.0066007 C67.3663288,22.5634528 67.5213124,22.0186217 67.9955088,21.7642496 L73.8856859,18.6045951 L73.8856859,10.1065983 C73.7841752,9.68870222 73.9510765,9.21467493 74.3838172,8.98254083 L80.1649453,5.88138323 L80.1649453,1.00060377 C80.1649453,0.447985567 80.611076,0 81.1614061,0 C81.7117361,0 82.1578668,0.447985567 82.1578668,1.00060377 L82.1578668,4.81232484 L84.045555,3.7997165 C84.3522762,3.63518275 84.7222301,3.64311384 85.0216787,3.82064268 L89.8094344,6.65907524 C90.3069736,6.95404256 90.4227689,7.57000434 90.1693357,8.01794175 L90.1693357,14.9552917 L94.6596209,17.6173682 C95.3323968,18.0162251 95.3071682,19.0020085 94.6148783,19.3656387 L94.3839385,19.4869415 L94.3839385,26.2284203 C94.5139222,26.2440076 94.6429664,26.285728 94.7635131,26.3556151 L128.530084,45.9318096 C133.771286,48.9704006 137,54.5859484 137,60.6631304 L137,104.214201 C137,110.291383 133.771286,115.906931 128.530084,118.945522 L90.9699163,140.721057 C85.7287138,143.759648 79.2712862,143.759648 74.0300837,140.721057 L36.4699163,118.945522 C31.2287138,115.906931 28,110.291383 28,104.214201 L28,60.6631304 C28,54.5859484 31.2287138,48.9704006 36.4699163,45.9318096 L67.519816,27.930607 Z M92.3910171,20.5337379 L78.2883937,27.9412425 C78.288973,27.955251 78.2892656,27.9693338 78.2892656,27.9834853 L78.2892656,56.31566 C78.2892656,56.8682782 77.8431349,57.3162638 77.2928049,57.3162638 C76.7424748,57.3162638 76.2963441,56.8682782 76.2963441,56.31566 L76.2963441,28.1698495 L69.5127375,24.3777072 L69.5127375,51.2133861 C69.5127375,51.7660043 69.0666068,52.2139898 68.5162768,52.2139898 C67.9659467,52.2139898 67.519816,51.7660043 67.519816,51.2133861 L67.519816,49.9149503 L60.9804272,53.4228599 L73.9645471,60.6811862 L101.804211,46.0582019 L94.3839385,41.6590753 L94.3839385,47.0387983 C94.3839385,47.5914165 93.9378079,48.039402 93.3874778,48.039402 C92.8371477,48.039402 92.3910171,47.5914165 92.3910171,47.0387983 L92.3910171,20.5337379 Z M82.1578668,7.08118302 L82.1578668,9.08979572 C82.1578668,9.64241392 81.7117361,10.0903995 81.1614061,10.0903995 C80.611076,10.0903995 80.1649453,9.64241392 80.1649453,9.08979572 L80.1649453,8.15024141 L76.9343538,9.88322037 L79.7057032,11.4324481 L87.2536514,7.46783383 L84.490678,5.82979836 L82.1578668,7.08118302 Z M88.1764142,9.24159993 L80.8154044,13.1080234 L80.8154044,22.2794809 C80.8154044,22.8320991 80.3692738,23.2800846 79.8189437,23.2800846 C79.2686136,23.2800846 78.822483,22.8320991 78.822483,22.2794809 L78.822483,13.2291275 L75.8786074,11.5834549 L75.8786074,18.7707476 C75.9877277,19.027882 75.9813182,19.3098785 75.8786074,19.5531395 L75.8786074,20.3054192 C75.8786074,20.8580374 75.4324767,21.3060229 74.8821467,21.3060229 C74.5121292,21.3060229 74.1892163,21.1035057 74.0173368,20.8028321 L70.5460454,22.6649292 L77.0799945,26.317509 L92.1038379,18.4261268 L90.1693357,17.2792525 L90.1693357,17.9572135 C90.1693357,18.5098317 89.723205,18.9578173 89.172875,18.9578173 C88.6225449,18.9578173 88.1764142,18.5098317 88.1764142,17.9572135 L88.1764142,9.24159993 Z M112.401498,89.991213 L120.433068,85.6965921 L109.958166,79.7010525 L101.926596,83.9956733 L112.401498,89.991213 Z M38.2418252,86.1896647 L37.720695,86.4919845 L49.8552636,92.9724368 L56.5818599,89.2121642 L54.4002799,88.0681849 C54.3147267,88.5335014 53.9085611,88.8859705 53.4204128,88.8859705 C52.8700827,88.8859705 52.423952,88.437985 52.423952,87.8853668 L52.423952,82.2282069 L48.735572,84.2900691 L48.735572,90.262418 C48.735572,90.8150362 48.2894413,91.2630218 47.7391112,91.2630218 C47.1887811,91.2630218 46.7426505,90.8150362 46.7426505,90.262418 L46.7426505,84.0615628 L40.2136196,80.5747414 L40.2136196,85.9837258 C40.2136196,86.536344 39.767489,86.9843295 39.2171589,86.9843295 C38.7371288,86.9843295 38.3363773,86.6434865 38.2418252,86.1896647 Z M38.2206982,83.8907542 L38.2206982,79.2596772 C38.2206982,78.915479 38.393771,78.6118722 38.6572959,78.431821 C38.7343037,78.3297892 38.8336343,78.2399263 38.9554108,78.1692809 L44.0603501,75.2077865 C44.3556763,75.0364609 44.7177488,75.0287119 45.0200762,75.1872466 L53.7016017,79.7396743 C53.9099933,79.8489509 54.0577774,80.0141946 54.144519,80.2027075 C54.3133479,80.3819719 54.4168735,80.6238978 54.4168735,80.8901039 L54.4168735,85.8192411 L59.1420966,88.2970587 C59.609481,88.5421462 59.7719957,89.0687613 59.6247332,89.5080102 L59.6247332,108.463898 C59.6247332,109.016516 59.1786026,109.464502 58.6282725,109.464502 C58.0779424,109.464502 57.6318118,109.016516 57.6318118,108.463898 L57.6318118,90.9156379 L50.6293391,94.8301298 L50.6293391,113.218001 C50.6293391,113.770619 50.1832085,114.218605 49.6328784,114.218605 C49.0825483,114.218605 48.6364177,113.770619 48.6364177,113.218001 L48.6364177,94.5881416 L36.8995271,88.3200689 L36.8995271,105.611437 C36.8995271,106.164055 36.4533964,106.612041 35.9030663,106.612041 C35.3527363,106.612041 34.9066056,106.164055 34.9066056,105.611437 L34.9066056,87.1780773 C34.5215531,86.7265174 34.6045807,85.9885484 35.1678764,85.6617673 L38.2206982,83.8907542 Z M44.5830494,77.2157232 L41.5082293,78.9994981 L47.9491625,82.439271 L51.141365,80.6547798 L44.5830494,77.2157232 Z" id="enterprises_h" fill="#005676"></path>
            <rect id="Rectangle" fill="#D8D8D8" opacity="0" x="0" y="0" width="164" height="164"></rect>
        </g>
    </g>
</svg>