<?xml version="1.0" encoding="UTF-8"?>
<svg width="164px" height="164px" viewBox="0 0 164 164" version="1.1" xmlns="http://www.w3.org/2000/svg" xmlns:xlink="http://www.w3.org/1999/xlink">
    <!-- Generator: Sketch 52.6 (67491) - http://www.bohemiancoding.com/sketch -->
    <title>government_h</title>
    <desc>Created with Sketch.</desc>
    <g id="government_h" stroke="none" stroke-width="1" fill="none" fill-rule="evenodd">
        <g id="Group" fill-rule="nonzero">
            <path d="M146,84.9741948 L20,84.9741948 L20,117.960678 L68,117.960678 L68,96.2690661 C68,95.7170076 68.4477153,95.2694757 69,95.2694757 C69.5522847,95.2694757 70,95.7170076 70,96.2690661 L70,117.960678 L75,117.960678 L75,99.9680506 C75,98.8639336 75.8954305,97.9688699 77,97.9688699 L90,97.9688699 C91.1045695,97.9688699 92,98.8639336 92,99.9680506 L92,117.960678 L97.5,117.960678 L97.5,96.2690661 C97.5,95.7170076 97.9477153,95.2694757 98.5,95.2694757 C99.0522847,95.2694757 99.5,95.7170076 99.5,96.2690661 L99.5,117.960678 L126.789517,117.960678 C126.874608,117.949729 126.960175,117.949917 127.04411,117.960678 L146,117.960678 L146,84.9741948 Z M30,77.977062 L35,77.977062 C36.1045695,77.977062 37,78.8721257 37,79.9762428 L37,82.975014 L47,82.975014 L47,75.9778812 C47,74.8737642 47.8954305,73.9787004 49,73.9787004 L62.0233902,73.9787004 C62.5453432,62.8496273 71.7372462,53.9868926 83,53.9868926 C94.2627538,53.9868926 103.454657,62.8496273 103.97661,73.9787004 L117,73.9787004 C118.104569,73.9787004 119,74.8737642 119,75.9778812 L119,82.975014 L129,82.975014 L129,79.9762428 C129,78.8721257 129.895431,77.977062 131,77.977062 L135.507058,77.977062 C135.430574,77.8357695 135.38715,77.6739778 135.38715,77.502048 L135.38715,60.7465183 C135.38715,55.3897296 132.528166,50.4398526 127.88715,47.7614582 L90.193575,26.0079766 C85.5525589,23.3295822 79.8345912,23.3295822 75.193575,26.0079766 L37.5,47.7614582 C32.8589838,50.4398526 30,55.3897296 30,60.7465183 L30,77.977062 Z M28,77.977062 L28,60.7465183 C28,54.6754911 31.2401817,49.0656305 36.5,46.0301169 L74.193575,24.2766352 C79.4533933,21.2411216 85.9337567,21.2411216 91.193575,24.2766352 L128.88715,46.0301169 C134.146968,49.0656305 137.38715,54.6754911 137.38715,60.7465183 L137.38715,77.502048 C137.38715,77.6739778 137.343726,77.8357695 137.267242,77.977062 L140,77.977062 C141.104569,77.977062 142,78.8721257 142,79.9762428 L142,82.975014 L146,82.975014 C147.104569,82.975014 148,83.8700777 148,84.9741948 L148,117.960678 C148,119.064795 147.104569,119.959859 146,119.959859 L127.17176,119.959859 L91.193575,140.723365 C85.9337567,143.758878 79.4533933,143.758878 74.193575,140.723365 L38.2153903,119.959859 L20,119.959859 C18.8954305,119.959859 18,119.064795 18,117.960678 L18,84.9741948 C18,83.8700777 18.8954305,82.975014 20,82.975014 L24,82.975014 L24,79.9762428 C24,78.8721257 24.8954305,77.977062 26,77.977062 L28,77.977062 Z M26,82.975014 L35,82.975014 L35,79.9762428 L26,79.9762428 L26,82.975014 Z M49,82.975014 L117,82.975014 L117,75.9778812 L49,75.9778812 L49,82.975014 Z M123.17176,119.959859 L42.2153903,119.959859 L75.193575,138.992023 C79.8345912,141.670418 85.5525589,141.670418 90.193575,138.992023 L123.17176,119.959859 Z M131,82.975014 L140,82.975014 L140,79.9762428 L131,79.9762428 L131,82.975014 Z M77,99.9680506 L77,117.960678 L90,117.960678 L90,99.9680506 L77,99.9680506 Z M106,91.9713275 L106,96.9692795 L114,96.9692795 L114,91.9713275 L106,91.9713275 Z M106,89.9721467 L114,89.9721467 C115.104569,89.9721467 116,90.8672104 116,91.9713275 L116,96.9692795 C116,98.0733965 115.104569,98.9684603 114,98.9684603 L106,98.9684603 C104.895431,98.9684603 104,98.0733965 104,96.9692795 L104,91.9713275 C104,90.8672104 104.895431,89.9721467 106,89.9721467 Z M106,104.966003 L106,109.963955 L114,109.963955 L114,104.966003 L106,104.966003 Z M106,102.966822 L114,102.966822 C115.104569,102.966822 116,103.861886 116,104.966003 L116,109.963955 C116,111.068072 115.104569,111.963135 114,111.963135 L106,111.963135 C104.895431,111.963135 104,111.068072 104,109.963955 L104,104.966003 C104,103.861886 104.895431,102.966822 106,102.966822 Z M127,91.9713275 L127,96.9692795 L135,96.9692795 L135,91.9713275 L127,91.9713275 Z M127,89.9721467 L135,89.9721467 C136.104569,89.9721467 137,90.8672104 137,91.9713275 L137,96.9692795 C137,98.0733965 136.104569,98.9684603 135,98.9684603 L127,98.9684603 C125.895431,98.9684603 125,98.0733965 125,96.9692795 L125,91.9713275 C125,90.8672104 125.895431,89.9721467 127,89.9721467 Z M127,104.966003 L127,109.963955 L135,109.963955 L135,104.966003 L127,104.966003 Z M127,102.966822 L135,102.966822 C136.104569,102.966822 137,103.861886 137,104.966003 L137,109.963955 C137,111.068072 136.104569,111.963135 135,111.963135 L127,111.963135 C125.895431,111.963135 125,111.068072 125,109.963955 L125,104.966003 C125,103.861886 125.895431,102.966822 127,102.966822 Z M31,91.9713275 L31,96.9692795 L39,96.9692795 L39,91.9713275 L31,91.9713275 Z M31,89.9721467 L39,89.9721467 C40.1045695,89.9721467 41,90.8672104 41,91.9713275 L41,96.9692795 C41,98.0733965 40.1045695,98.9684603 39,98.9684603 L31,98.9684603 C29.8954305,98.9684603 29,98.0733965 29,96.9692795 L29,91.9713275 C29,90.8672104 29.8954305,89.9721467 31,89.9721467 Z M31,104.966003 L31,109.963955 L39,109.963955 L39,104.966003 L31,104.966003 Z M31,102.966822 L39,102.966822 C40.1045695,102.966822 41,103.861886 41,104.966003 L41,109.963955 C41,111.068072 40.1045695,111.963135 39,111.963135 L31,111.963135 C29.8954305,111.963135 29,111.068072 29,109.963955 L29,104.966003 C29,103.861886 29.8954305,102.966822 31,102.966822 Z M52,91.9713275 L52,96.9692795 L60,96.9692795 L60,91.9713275 L52,91.9713275 Z M52,89.9721467 L60,89.9721467 C61.1045695,89.9721467 62,90.8672104 62,91.9713275 L62,96.9692795 C62,98.0733965 61.1045695,98.9684603 60,98.9684603 L52,98.9684603 C50.8954305,98.9684603 50,98.0733965 50,96.9692795 L50,91.9713275 C50,90.8672104 50.8954305,89.9721467 52,89.9721467 Z M52,104.966003 L52,109.963955 L60,109.963955 L60,104.966003 L52,104.966003 Z M52,102.966822 L60,102.966822 C61.1045695,102.966822 62,103.861886 62,104.966003 L62,109.963955 C62,111.068072 61.1045695,111.963135 60,111.963135 L52,111.963135 C50.8954305,111.963135 50,111.068072 50,109.963955 L50,104.966003 C50,103.861886 50.8954305,102.966822 52,102.966822 Z M97.5,88.0250315 C97.5,87.472973 97.9477153,87.0254411 98.5,87.0254411 C99.0522847,87.0254411 99.5,87.472973 99.5,88.0250315 L99.5,91.9385175 C99.5,92.490576 99.0522847,92.9381079 98.5,92.9381079 C97.9477153,92.9381079 97.5,92.490576 97.5,91.9385175 L97.5,88.0250315 Z M68,88.0250315 C68,87.472973 68.4477153,87.0254411 69,87.0254411 C69.5522847,87.0254411 70,87.472973 70,88.0250315 L70,91.9385175 C70,92.490576 69.5522847,92.9381079 69,92.9381079 C68.4477153,92.9381079 68,92.490576 68,91.9385175 L68,88.0250315 Z M101.974136,73.9787004 C101.454123,63.9542435 93.1579757,55.9860734 83,55.9860734 C72.8420243,55.9860734 64.545877,63.9542435 64.0258641,73.9787004 L101.974136,73.9787004 Z M84.2148438,53.9868926 L82.2148438,53.9868926 L82.2148438,38.6666294 C82.2148438,38.1145709 82.662559,37.667039 83.2148438,37.667039 L90,37.667039 C90.5522847,37.667039 91,38.1145709 91,38.6666294 L91,40.1486971 L98.4740118,40.1486971 C99.0262966,40.1486971 99.4740118,40.596229 99.4740118,41.1482875 L99.4740118,48.7300089 C99.4740118,49.2820674 99.0262966,49.7295993 98.4740118,49.7295993 L90,49.7295993 C89.4477153,49.7295993 89,49.2820674 89,48.7300089 L89,47.1377355 L84.2148437,47.1377355 L84.2148438,53.9868926 Z M90,45.1385547 C90.5522847,45.1385547 91,45.5860865 91,46.1381451 L91,47.7304185 L97.4740118,47.7304185 L97.4740118,42.1478779 L90,42.1478779 C89.4477153,42.1478779 89,41.700346 89,41.1482875 L89,39.6662198 L84.2148437,39.6662198 L84.2148438,45.1385547 L90,45.1385547 Z M57.5,77.977062 C57.5,77.4250035 57.9477153,76.9774716 58.5,76.9774716 C59.0522847,76.9774716 59.5,77.4250035 59.5,77.977062 L59.5,80.7707706 C59.5,81.3228292 59.0522847,81.770361 58.5,81.770361 C57.9477153,81.770361 57.5,81.3228292 57.5,80.7707706 L57.5,77.977062 Z M67.5,77.977062 C67.5,77.4250035 67.9477153,76.9774716 68.5,76.9774716 C69.0522847,76.9774716 69.5,77.4250035 69.5,77.977062 L69.5,80.7707706 C69.5,81.3228292 69.0522847,81.770361 68.5,81.770361 C67.9477153,81.770361 67.5,81.3228292 67.5,80.7707706 L67.5,77.977062 Z M77.5,77.977062 C77.5,77.4250035 77.9477153,76.9774716 78.5,76.9774716 C79.0522847,76.9774716 79.5,77.4250035 79.5,77.977062 L79.5,80.7707706 C79.5,81.3228292 79.0522847,81.770361 78.5,81.770361 C77.9477153,81.770361 77.5,81.3228292 77.5,80.7707706 L77.5,77.977062 Z M87.5,77.977062 C87.5,77.4250035 87.9477153,76.9774716 88.5,76.9774716 C89.0522847,76.9774716 89.5,77.4250035 89.5,77.977062 L89.5,80.7707706 C89.5,81.3228292 89.0522847,81.770361 88.5,81.770361 C87.9477153,81.770361 87.5,81.3228292 87.5,80.7707706 L87.5,77.977062 Z M97.5,77.977062 C97.5,77.4250035 97.9477153,76.9774716 98.5,76.9774716 C99.0522847,76.9774716 99.5,77.4250035 99.5,77.977062 L99.5,80.7707706 C99.5,81.3228292 99.0522847,81.770361 98.5,81.770361 C97.9477153,81.770361 97.5,81.3228292 97.5,80.7707706 L97.5,77.977062 Z M107.5,77.977062 C107.5,77.4250035 107.947715,76.9774716 108.5,76.9774716 C109.052285,76.9774716 109.5,77.4250035 109.5,77.977062 L109.5,80.7707706 C109.5,81.3228292 109.052285,81.770361 108.5,81.770361 C107.947715,81.770361 107.5,81.3228292 107.5,80.7707706 L107.5,77.977062 Z" id="government_h" fill="#005676"></path>
            <rect id="Rectangle" fill="#D8D8D8" opacity="0" x="0" y="0" width="164" height="164"></rect>
        </g>
    </g>
</svg>