<?xml version="1.0" encoding="UTF-8"?>
<svg width="164px" height="164px" viewBox="0 0 164 164" version="1.1" xmlns="http://www.w3.org/2000/svg" xmlns:xlink="http://www.w3.org/1999/xlink">
    <!-- Generator: Sketch 52.6 (67491) - http://www.bohemiancoding.com/sketch -->
    <title>individual_h</title>
    <desc>Created with Sketch.</desc>
    <g id="individual_h" stroke="none" stroke-width="1" fill="none" fill-rule="evenodd">
        <g id="Group" fill-rule="nonzero">
            <path d="M41.9856483,121.123032 L32.1432029,131.162918 L53.9111081,122.166046 C54.069866,122.100429 54.2415157,122.077322 54.4095383,122.097008 L60.0074033,114.325888 L43.8008509,119.623389 C43.6708665,119.665878 43.5384447,119.680286 43.4101579,119.669946 L42.027131,121.080717 C42.0136749,121.095289 41.9998391,121.109396 41.9856483,121.123032 Z M41.1212749,119.148558 L53.9295017,106.083396 C54.0397959,105.970889 54.1751269,105.886036 54.3244594,105.835754 L70.0378164,100.544915 C70.2721347,100.466017 70.5273841,100.476711 70.7542779,100.57493 L82.2301909,105.542711 C82.3305274,105.508904 82.4379878,105.490579 82.5497293,105.490579 C82.6596419,105.490579 82.7654124,105.508309 82.8643352,105.541063 L93.2935976,100.589287 C93.5376572,100.473408 93.8182375,100.461204 94.0714422,100.555453 L108.285507,105.846292 C108.399036,105.888551 108.503939,105.951082 108.595102,106.03084 L124.105882,119.600995 C124.133723,119.580847 124.162868,119.561935 124.193284,119.544379 L128.188263,117.238542 C132.828717,114.560147 135.687354,109.61027 135.687354,104.253482 L135.687354,60.7465183 C135.687354,55.3897296 132.828717,50.4398526 128.188263,47.7614582 L90.4992601,26.0079766 C85.8588068,23.3295822 80.1415326,23.3295822 75.5010794,26.0079766 L37.8120761,47.7614582 C33.1716229,50.4398526 30.3129858,55.3897296 30.3129858,60.7465183 L30.3129858,104.253482 C30.3129858,109.61027 33.1716229,114.560147 37.8120761,117.238542 L41.1212749,119.148558 Z M39.6760009,120.622824 L36.8121974,118.969883 C31.5530171,115.934369 28.3132284,110.324509 28.3132284,104.253482 L28.3132284,60.7465183 C28.3132284,54.6754911 31.5530171,49.0656305 36.8121974,46.0301169 L74.5012007,24.2766352 C79.760381,21.2411216 86.2399584,21.2411216 91.4991388,24.2766352 L129.188142,46.0301169 C134.447322,49.0656305 137.687111,54.6754911 137.687111,60.7465183 L137.687111,104.253482 C137.687111,110.324509 134.447322,115.934369 129.188142,118.969883 L125.691403,120.988144 L139.651861,133.201946 C140.486788,133.932411 139.68793,135.276032 138.647092,134.891892 L116.051029,126.552412 L91.4991388,140.723365 C86.2399584,143.758878 79.760381,143.758878 74.5012007,140.723365 L49.4400182,126.258457 C49.4133172,126.243045 49.3875961,126.226588 49.362877,126.209168 L28.3888581,134.87792 C27.3832821,135.293534 26.531102,134.031411 27.2927328,133.254502 L39.6760009,120.622824 Z M51.6886801,125.247893 L75.5010794,138.992023 C80.1415326,141.670418 85.8588068,141.670418 90.4992601,138.992023 L113.61145,125.652042 L109.793436,124.242935 L82.9083478,134.569891 C82.6805508,134.657391 82.428609,134.658587 82.199991,134.573253 L54.3117613,124.163749 L51.6886801,125.247893 Z M56.3691283,122.797697 L81.6509381,132.234334 C81.5861918,132.101945 81.5498506,131.953138 81.5498506,131.795845 L81.5498506,121.672619 L62.6993113,114.009951 L56.3691283,122.797697 Z M70.7320029,102.743844 C70.70176,102.860024 70.6499224,102.972679 70.5755358,103.075945 L63.9017954,112.340627 L81.5498506,119.514491 L81.5498506,107.426756 L70.7320029,102.743844 Z M67.8951379,103.375903 L55.1899319,107.653869 L46.3273864,116.694198 L61.6569077,111.683375 C61.7511697,111.652563 61.8487336,111.636177 61.9464088,111.634103 L67.8951379,103.375903 Z M108.216743,122.706895 L101.448811,113.580109 L83.549608,121.564175 L83.549608,131.795845 C83.549608,131.946574 83.5162367,132.089511 83.4564774,132.217674 L108.216743,122.706895 Z M110.442468,122.351408 L134.260749,131.141969 L121.091487,119.620374 L104.288616,114.05273 L110.442468,122.351408 Z M93.4142307,102.745205 L83.549608,107.428893 L83.549608,119.37502 L100.228948,111.935083 L93.4142307,102.745205 Z M96.5442149,103.609142 L102.222572,111.266599 C102.252789,111.273566 102.282779,111.281962 102.312442,111.291792 L117.216607,116.230298 L107.416018,107.655906 L96.5442149,103.609142 Z M74.5012007,80.6971673 L74.5012007,74.5451615 C69.1358602,71.6830853 65.4844373,66.0314728 65.4844373,59.5272708 C65.4844373,59.430201 65.4852516,59.3332209 65.4868786,59.2363372 L67.4863543,59.2698965 C67.4849151,59.3555951 67.4841947,59.4413883 67.4841947,59.5272708 C67.4841947,67.8180069 74.2071029,74.5389765 82.5002304,74.5389765 C90.7933579,74.5389765 97.516266,67.8180069 97.516266,59.5272708 C97.516266,57.4263211 97.0848935,55.3877682 96.2601357,53.5067333 L98.0916674,52.7041437 C99.0268515,54.8370293 99.5160235,57.1487272 99.5160235,59.5272708 C99.5160235,66.0314728 95.8646006,71.6830853 90.4992601,74.5451615 L90.4992601,80.6971673 L97.9849978,80.6971673 L103.997623,80.6971673 C111.728671,80.6971673 117.995925,86.9626134 117.995925,94.6914328 L117.995925,108.792797 C117.995925,109.344856 117.548264,109.792388 116.996046,109.792388 C116.443828,109.792388 115.996167,109.344856 115.996167,108.792797 L115.996167,94.6914328 C115.996167,88.0667305 110.624236,82.6963481 103.997623,82.6963481 L97.5570429,82.6963481 L94.4671456,97.1307288 C94.3515857,97.6705642 93.8201566,98.0145344 93.2801655,97.8990078 C92.7401744,97.7834812 92.396105,97.2522054 92.5116649,96.71237 L95.5120062,82.6963481 L89.010936,82.6963481 L87.196081,84.1478134 C87.1964213,84.1785756 87.195351,84.2096252 87.1928125,84.2408944 L87.1464116,84.8124552 L87.7263822,85.3924258 L87.043924,86.0748839 L85.8796229,100.416601 C85.8349521,100.96685 85.3525454,101.376713 84.8021374,101.332055 C84.2517294,101.287397 83.8417483,100.805129 83.8864191,100.25488 L84.8603202,88.2584878 L82.500984,90.617824 L80.1400074,88.2568474 L81.1152516,100.269784 C81.1599224,100.820034 80.7499414,101.302301 80.1995334,101.346959 C79.6491253,101.391617 79.1667187,100.981754 79.1220479,100.431505 L77.9564036,86.0732436 L77.2740786,85.3909186 L77.853936,84.8110612 L77.8076483,84.2408944 C77.8051098,84.2096252 77.8040395,84.1785756 77.8043797,84.1478134 L75.9895248,82.6963481 L69.4884545,82.6963481 L72.4714313,96.6312521 C72.5869912,97.1710875 72.2429218,97.7023633 71.7029307,97.8178899 C71.1629397,97.9334165 70.6315106,97.5894463 70.5159506,97.0496109 L67.4434178,82.6963481 L61.0028381,82.6963481 C54.3762249,82.6963481 49.0042935,88.0667305 49.0042935,94.6914328 L49.0042935,107.48976 C49.0042935,108.041818 48.5566326,108.48935 48.0044148,108.48935 C47.452197,108.48935 47.0045361,108.041818 47.0045361,107.48976 L47.0045361,94.6914328 C47.0045361,86.9626134 53.2717894,80.6971673 61.0028381,80.6971673 L74.5012007,80.6971673 Z M76.5009581,80.6971673 L76.6910018,80.6971673 L79.6229487,83.0420485 L82.4994768,80.1655204 L85.3766746,83.0427182 L88.3094589,80.6971673 L88.4995026,80.6971673 L88.4995026,75.4507281 C86.6337534,76.1536047 84.6119134,76.5381573 82.5002304,76.5381573 C80.3885474,76.5381573 78.3667074,76.1536047 76.5009581,75.4507281 L76.5009581,80.6971673 Z M80.1017549,85.3913264 L82.5005762,87.7901477 L84.8987058,85.3920181 L82.4998845,82.9931968 L80.1017549,85.3913264 Z M82.5002304,44.5155651 C81.4044881,44.5155651 80.324618,44.632729 79.2731554,44.8628552 L78.8454853,42.9099273 C80.0372022,42.6491046 81.2604515,42.5163843 82.5002304,42.5163843 C89.3212685,42.5163843 95.4003828,46.5660989 98.0916674,52.7041437 L98.3864368,53.3764278 L97.833029,53.8588398 C95.6477723,55.763753 92.8514364,56.8319467 89.8921909,56.8319467 C85.2630784,56.8319467 81.1033328,54.2067073 79.0718855,50.1400607 L80.8609559,49.2468661 C82.5569967,52.6420802 86.0281831,54.8327659 89.8921909,54.8327659 C92.1088408,54.8327659 94.2123369,54.1165171 95.938856,52.821317 C93.4243498,47.7899323 88.2624695,44.5155651 82.5002304,44.5155651 Z M79.8306869,44.0095675 C79.8130116,44.2542258 79.8041288,44.5003389 79.8041288,44.7476128 C79.8041288,46.3319104 80.1691417,47.8619599 80.8609559,49.2468661 L80.9930513,49.5113008 L80.9600521,49.8050294 C80.2769739,55.8851638 75.1166213,60.5268612 68.9483028,60.5268612 C68.0376772,60.5268612 67.1394522,60.4260151 66.2655655,60.2279735 L66.7076675,58.2782601 C67.4367314,58.4434817 68.1866797,58.5276804 68.9483028,58.5276804 C74.0006209,58.5276804 78.2434834,54.7952761 78.9373748,49.8619315 C78.1950192,48.2753664 77.8043714,46.5384622 77.8043714,44.7476128 C77.8043714,44.4522765 77.8149879,44.1581277 77.8361248,43.865554 L77.8891178,43.1320328 L78.6053758,42.9643119 C78.6852537,42.9456075 78.7652918,42.9274786 78.8454853,42.9099273 L79.0743354,43.9549566 L79.8306869,44.0095675 Z M78.6053758,42.9643119 L79.0614358,44.9108095 C72.4175322,46.4665638 67.6022935,52.3661978 67.4863543,59.2698965 L65.4868786,59.2363372 C65.6182766,51.4121327 71.0738964,44.7279033 78.6053758,42.9643119 Z" id="individual_h" fill="#005676"></path>
            <rect id="Rectangle" fill="#D8D8D8" opacity="0" x="0" y="0" width="164" height="164"></rect>
        </g>
    </g>
</svg>