<?xml version="1.0" encoding="UTF-8"?>
<svg width="164px" height="164px" viewBox="0 0 164 164" version="1.1" xmlns="http://www.w3.org/2000/svg" xmlns:xlink="http://www.w3.org/1999/xlink">
    <!-- Generator: Sketch 52.6 (67491) - http://www.bohemiancoding.com/sketch -->
    <title>ngo_h</title>
    <desc>Created with Sketch.</desc>
    <g id="ngo_h" stroke="none" stroke-width="1" fill="none" fill-rule="evenodd">
        <g id="Group" fill-rule="nonzero">
            <path d="M38.5651403,100.824651 C40.632956,101.099971 42.2962946,102.655977 42.7326035,104.669614 C42.8647652,104.838795 42.9435284,105.051764 42.9435284,105.283139 C42.9435284,111.507319 47.9861568,116.553014 54.2065543,116.553014 L71.2822678,116.553014 L83.5417544,116.553014 C85.1677296,116.553014 86.4858429,115.234099 86.4858429,113.607136 C86.4858429,111.980172 85.1677296,110.661257 83.5417544,110.661257 L70.844429,110.661257 C70.8348557,110.661257 70.825314,110.661122 70.8158057,110.660853 C70.61539,111.164976 70.3278958,111.644466 69.9517788,112.077139 C68.1618573,114.136208 65.0426483,114.355277 62.9848304,112.566443 L49.2822932,100.65501 C48.8669539,100.293961 48.8231208,99.6643687 49.1843894,99.2487767 C49.5456579,98.8331848 50.1752231,98.788969 50.5905624,99.150018 L64.2930996,111.061452 C65.5202387,112.128188 67.3803175,111.99755 68.4477019,110.769665 C69.5150862,109.541779 69.3855795,107.681622 68.1669656,106.622213 L49.1840165,90.4931427 C49.1279142,90.4454747 49.0784053,90.3929265 49.0355834,90.3366523 C48.9549102,90.3290258 48.8738662,90.311357 48.7940466,90.2828889 C47.5911803,89.8538796 46.3173015,89.6319423 45.0116678,89.6319423 L38.5651403,89.6319423 L38.5651403,100.824651 Z M38.5651403,102.849092 L38.5651403,106.15935 C38.5651403,106.710014 38.1190096,107.156416 37.5686796,107.156416 L30.2578266,107.156416 C31.0458999,111.287493 33.5509368,114.942428 37.2157282,117.155522 C37.3493044,117.088974 37.4999176,117.051548 37.6592669,117.051548 L48.0856666,117.051548 C44.1053843,114.974596 41.3105341,110.935207 40.982877,106.215921 C40.8994656,106.07014 40.8517868,105.901264 40.8517868,105.721245 C40.8517868,104.320417 39.8746258,103.147957 38.5651403,102.849092 Z M29.9929215,85.8856604 L37.5686796,85.8856604 C38.1190096,85.8856604 38.5651403,86.3320624 38.5651403,86.8827271 L38.5651403,87.637809 L45.0116678,87.637809 C46.5461233,87.637809 48.0462697,87.8991669 49.4631668,88.4045116 C49.6527678,88.4721339 49.8092006,88.5913245 49.9223233,88.740694 C50.1193933,88.7588104 50.3130002,88.8356527 50.4752354,88.9734977 L55.9473136,93.6229326 L55.9473136,91.413202 C55.9473136,90.8625372 56.3934443,90.4161353 56.9437743,90.4161353 L63.0131261,90.4161353 L63.0131261,88.761911 C63.0131261,88.2112463 63.4592568,87.7648443 64.0095868,87.7648443 L68.3124855,87.7648443 L68.3124855,79.2908172 C66.0104582,78.2279592 63.978555,76.0199019 62.3734059,73.0140178 C62.0762157,73.0597213 61.7764692,73.0827419 61.4751106,73.0827419 C56.3343638,73.0827419 52.4144074,66.5188257 52.4144074,58.5822059 C52.4144074,58.0315411 52.860538,57.5851392 53.4108681,57.5851392 L58.6012111,57.5851392 C58.5729669,56.9180861 58.5585921,56.2437121 58.5585921,55.5631375 C58.5585921,55.0124728 59.0047228,54.5660708 59.5550529,54.5660708 L72.0110997,54.5660708 C73.0201317,52.337044 75.2475939,50.8650672 77.7477762,50.8650672 C80.2493425,50.8650672 82.4795059,52.3387064 83.487894,54.573731 C83.9796464,54.6348706 84.3602296,55.054532 84.3602296,55.5631375 C84.3602296,56.2437121 84.3458549,56.9180861 84.3176107,57.5851392 L88.7399305,57.5851392 C89.2902606,57.5851392 89.7363913,58.0315411 89.7363913,58.5822059 C89.7363913,66.5188257 85.8164348,73.0827419 80.675688,73.0827419 C80.6211458,73.0827419 80.5676272,73.0783572 80.5154648,73.0699207 C78.9419395,75.9972042 76.96193,78.1607609 74.7215397,79.2365642 L74.7215397,87.7648443 L79.0244384,87.7648443 C79.5747684,87.7648443 80.0208991,88.2112463 80.0208991,88.761911 L80.0208991,90.4161353 L86.0902509,90.4161353 C86.6405809,90.4161353 87.0867116,90.8625372 87.0867116,91.413202 L87.0867116,103.67259 L90.5063837,103.67259 C91.0567137,103.67259 91.5028444,104.118992 91.5028444,104.669657 L91.5028444,108.204711 C91.5028444,108.755376 91.0567137,109.201778 90.5063837,109.201778 L85.7780224,109.201778 C87.3808245,110.018011 88.4787644,111.684277 88.4787644,113.607136 C88.4787644,114.946678 87.9459248,116.161693 87.0807567,117.051548 L96.583759,117.051548 C96.4989751,116.904892 96.4504503,116.734624 96.4504503,116.553014 L96.4504503,77.6674139 C96.4504503,77.1167492 96.896581,76.6703472 97.446911,76.6703472 L107.411518,76.6703472 L107.411518,70.6879471 C107.411518,70.1372824 107.857649,69.6908804 108.407979,69.6908804 L116.685005,69.6908804 L116.685005,66.8181341 C116.685005,66.2674694 117.131136,65.8210674 117.681466,65.8210674 L129.638995,65.8210674 C130.189325,65.8210674 130.635456,66.2674694 130.635456,66.8181341 L130.635456,76.6703472 L131.326576,76.6703472 C131.876906,76.6703472 132.323037,77.1167492 132.323037,77.6674139 L132.323037,112.902498 C134.041852,110.434145 135.007079,107.461485 135.007079,104.351307 L135.007079,60.9541877 C135.007079,55.6109235 132.158213,50.6735437 127.533623,48.0019116 L89.9734555,26.303352 C89.8918558,26.2562117 89.8194402,26.1992671 89.7568368,26.1348638 C88.5010542,28.8901865 85.7240382,30.80528 82.5,30.80528 C79.2759618,30.80528 76.4989458,28.8901865 75.2431632,26.1348638 C75.1805598,26.1992671 75.1081442,26.2562117 75.0265445,26.303352 L66.5565387,31.1964858 L76.3437029,33.8189485 C76.8752809,33.9613844 77.1906727,34.5080427 77.0481502,35.039944 L72.9191926,50.4494233 C72.7766701,50.9813245 72.2302037,51.2970486 71.6986256,51.1546127 L66.9363915,49.8785759 C66.919932,49.8750395 66.9034743,49.8710719 66.8870308,49.8666659 C66.8705874,49.8622599 66.8543508,49.8574671 66.8383282,49.8522999 L46.6734395,44.4491343 C46.1418615,44.3066984 45.8264697,43.7600401 45.9689922,43.2281388 L46.0128046,43.0646288 L37.466377,48.0019116 C32.8417866,50.6735437 29.9929215,55.6109235 29.9929215,60.9541877 L29.9929215,85.8856604 Z M36.5722188,88.6113673 L36.5722188,87.8797938 L30.6840418,87.8797938 L30.6840418,105.162283 L36.5722188,105.162283 L36.5722188,88.658384 C36.5720381,88.6505698 36.5719473,88.6427333 36.5719473,88.6348757 C36.5719473,88.627018 36.5720381,88.6191815 36.5722188,88.6113673 Z M70.8890461,107.207645 L89.5099229,107.207645 L89.5099229,105.666723 L86.0902509,105.666723 C85.5399208,105.666723 85.0937901,105.220321 85.0937901,104.669657 L85.0937901,92.4102686 L57.9402351,92.4102686 L57.9402351,94.7360011 C57.9402351,94.9088615 57.8962729,95.0714478 57.8189257,95.2131765 L60.3634464,97.3751675 L60.3634464,95.8320202 C60.3634464,95.2813555 60.8095771,94.8349535 61.3599072,94.8349535 L81.6741181,94.8349535 C82.2244481,94.8349535 82.6705788,95.2813555 82.6705788,95.8320202 L82.6705788,102.018366 C82.6705788,102.56903 82.2244481,103.015432 81.6741181,103.015432 L67.0016661,103.015432 L69.4667096,105.109894 C70.1395276,105.694766 70.615579,106.42187 70.8890461,107.207645 Z M62.3091682,99.0283798 L64.6765755,101.039884 C64.7388507,101.027689 64.8032032,101.021299 64.8690472,101.021299 L80.6776573,101.021299 L80.6776573,96.8290869 L62.3563679,96.8290869 L62.3563679,98.7242678 C62.3563679,98.8303203 62.3398205,98.9325057 62.3091682,99.0283798 Z M46.7427893,40.3402888 L50.0979497,27.8186595 C50.2404722,27.2867583 50.7869387,26.9710342 51.3185167,27.1134701 L63.8355391,30.4673961 C63.8503286,30.457782 63.8654516,30.4485036 63.880904,30.4395767 L74.0300837,24.5763818 C74.2391326,24.455614 74.4737363,24.4192539 74.6944779,24.4567334 C74.585554,23.9311545 74.5283141,23.3866391 74.5283141,22.8287465 C74.5283141,18.4234288 78.0973595,14.8522131 82.5,14.8522131 C86.9026405,14.8522131 90.4716859,18.4234288 90.4716859,22.8287465 C90.4716859,23.3866391 90.414446,23.9311545 90.3055221,24.4567334 C90.5262637,24.4192539 90.7608674,24.455614 90.9699163,24.5763818 L128.530084,46.2749414 C133.771286,49.3027912 137,54.8984882 137,60.9541877 L137,104.351307 C137,110.407006 133.771286,116.002703 128.530084,119.030553 L90.9699163,140.729113 C85.7287138,143.756962 79.2712862,143.756962 74.0300837,140.729113 L36.4699163,119.030553 C31.2287138,116.002703 28,110.407006 28,104.351307 L28,60.9541877 C28,54.8984882 31.2287138,49.3027912 36.4699163,46.2749414 L46.7427893,40.3402888 Z M48.4538966,41.6544066 L48.1520663,42.7808524 L50.8763676,43.5108267 C50.7999353,42.5217875 50.2318357,41.6218648 49.3574713,41.1324103 L48.4538966,41.6544066 Z M52.8691641,44.0447949 L66.5374898,47.7072118 C67.5724673,45.6297989 69.9567204,44.4963952 72.2841485,45.1193831 L73.8195867,39.3890495 C71.473416,38.760395 69.9696345,36.5576744 70.1385686,34.2207666 L56.4891076,30.5634045 C55.4663752,32.6695535 53.0644614,33.8239482 50.7201991,33.1964505 L49.1847608,38.9267842 C49.207071,38.9327621 49.2288224,38.9387462 49.2505003,38.9448653 C49.6470368,38.857141 50.0701083,39.020002 50.3004719,39.3746665 C51.9776727,40.2972893 52.9885495,42.1220418 52.8691641,44.0447949 Z M51.2363188,31.2702655 C52.5104685,31.6110882 53.8129181,31.0746486 54.5028435,30.0311866 L51.7649042,29.297558 L51.2363188,31.2702655 Z M72.1244194,34.7528737 C72.1989347,36.0032019 73.0595916,37.1209307 74.3352278,37.4627364 L74.865076,35.4872304 L72.1244194,34.7528737 Z M71.7680287,47.0455681 C70.5116472,46.7095016 69.2277506,47.2264 68.5307263,48.2412979 L71.2522382,48.9705248 L71.7680287,47.0455681 Z M61.4502919,71.0885286 C60.0540042,67.8411208 59.097648,63.8958868 58.7284176,59.5792725 L54.4299496,59.5792725 C54.725455,66.0653362 57.8750347,71.0654828 61.4502919,71.0885286 Z M81.5070032,70.9986113 C84.7378919,70.2970924 87.4477958,65.5725314 87.720849,59.5792725 L84.1904041,59.5792725 C83.8245749,63.8561246 82.8823866,67.7684067 81.5070032,70.9986113 Z M81.1797619,54.5660708 C80.3826603,53.5129515 79.1255196,52.8592006 77.7477762,52.8592006 C76.3694317,52.8592006 75.1124461,53.5135735 74.3157528,54.5660708 L81.1797619,54.5660708 Z M98.3100631,117.051548 L117.351735,117.051548 L117.351735,107.697868 C117.351735,107.147203 117.797866,106.700801 118.348196,106.700801 L125.323421,106.700801 C125.873751,106.700801 126.319882,107.147203 126.319882,107.697868 L126.319882,117.051548 L127.340733,117.051548 C127.500082,117.051548 127.650696,117.088974 127.784272,117.155522 C128.71512,116.593401 129.571146,115.938261 130.343221,115.205926 C130.334599,115.153164 130.330115,115.09901 130.330115,115.043809 L130.330115,78.6644806 L98.4433718,78.6644806 L98.4433718,116.553014 C98.4433718,116.734624 98.394847,116.904892 98.3100631,117.051548 Z M40.4819456,119.045681 L75.0265445,139.002143 C79.6511349,141.673775 85.3488651,141.673775 89.9734555,139.002143 L124.518054,119.045681 L40.4819456,119.045681 Z M124.32696,117.051548 L124.32696,108.694935 L119.344656,108.694935 L119.344656,117.051548 L124.32696,117.051548 Z M116.379665,76.6703472 L116.379665,71.6850138 L109.40444,71.6850138 L109.40444,76.6703472 L116.379665,76.6703472 Z M118.677927,76.6703472 L128.642534,76.6703472 L128.642534,67.8152008 L118.677927,67.8152008 L118.677927,76.6703472 Z M65.0060476,90.4161353 L78.0279776,90.4161353 L78.0279776,89.7589777 L73.725079,89.7589777 C73.1747489,89.7589777 72.7286183,89.3125757 72.7286183,88.761911 L72.7286183,80.0375776 L70.3054069,80.0375776 L70.3054069,88.761911 C70.3054069,89.3125757 69.8592763,89.7589777 69.3089462,89.7589777 L65.0060476,89.7589777 L65.0060476,90.4161353 Z M82.5,28.8111466 C85.8019804,28.8111466 88.4787644,26.1327349 88.4787644,22.8287465 C88.4787644,19.5247582 85.8019804,16.8463465 82.5,16.8463465 C79.1980196,16.8463465 76.5212356,19.5247582 76.5212356,22.8287465 C76.5212356,26.1327349 79.1980196,28.8111466 82.5,28.8111466 Z M66.8619687,18.9589335 C63.0096582,18.9589335 59.8867435,15.8341198 59.8867435,11.9794668 C59.8867435,8.1248137 63.0096582,5 66.8619687,5 C70.7142792,5 73.8371938,8.1248137 73.8371938,11.9794668 C73.8371938,15.8341198 70.7142792,18.9589335 66.8619687,18.9589335 Z M66.8619687,16.9648001 C69.613619,16.9648001 71.8442724,14.7327904 71.8442724,11.9794668 C71.8442724,9.22614315 69.613619,6.99413336 66.8619687,6.99413336 C64.1103183,6.99413336 61.879665,9.22614315 61.879665,11.9794668 C61.879665,14.7327904 64.1103183,16.9648001 66.8619687,16.9648001 Z M104.727477,85.2638676 C104.177147,85.2638676 103.731016,84.8174657 103.731016,84.266801 C103.731016,83.7161362 104.177147,83.2697343 104.727477,83.2697343 L111.407668,83.2697343 C111.957998,83.2697343 112.404129,83.7161362 112.404129,84.266801 C112.404129,84.8174657 111.957998,85.2638676 111.407668,85.2638676 L104.727477,85.2638676 Z M118.677927,85.2638676 C118.127597,85.2638676 117.681466,84.8174657 117.681466,84.266801 C117.681466,83.7161362 118.127597,83.2697343 118.677927,83.2697343 L125.358119,83.2697343 C125.908449,83.2697343 126.354579,83.7161362 126.354579,84.266801 C126.354579,84.8174657 125.908449,85.2638676 125.358119,85.2638676 L118.677927,85.2638676 Z M104.727477,91.2462677 C104.177147,91.2462677 103.731016,90.7998658 103.731016,90.249201 C103.731016,89.6985363 104.177147,89.2521344 104.727477,89.2521344 L111.407668,89.2521344 C111.957998,89.2521344 112.404129,89.6985363 112.404129,90.249201 C112.404129,90.7998658 111.957998,91.2462677 111.407668,91.2462677 L104.727477,91.2462677 Z M118.677927,91.2462677 C118.127597,91.2462677 117.681466,90.7998658 117.681466,90.249201 C117.681466,89.6985363 118.127597,89.2521344 118.677927,89.2521344 L125.358119,89.2521344 C125.908449,89.2521344 126.354579,89.6985363 126.354579,90.249201 C126.354579,90.7998658 125.908449,91.2462677 125.358119,91.2462677 L118.677927,91.2462677 Z M104.727477,97.2286678 C104.177147,97.2286678 103.731016,96.7822658 103.731016,96.2316011 C103.731016,95.6809364 104.177147,95.2345344 104.727477,95.2345344 L111.407668,95.2345344 C111.957998,95.2345344 112.404129,95.6809364 112.404129,96.2316011 C112.404129,96.7822658 111.957998,97.2286678 111.407668,97.2286678 L104.727477,97.2286678 Z M118.677927,97.2286678 C118.127597,97.2286678 117.681466,96.7822658 117.681466,96.2316011 C117.681466,95.6809364 118.127597,95.2345344 118.677927,95.2345344 L125.358119,95.2345344 C125.908449,95.2345344 126.354579,95.6809364 126.354579,96.2316011 C126.354579,96.7822658 125.908449,97.2286678 125.358119,97.2286678 L118.677927,97.2286678 Z M104.727477,103.211068 C104.177147,103.211068 103.731016,102.764666 103.731016,102.214001 C103.731016,101.663336 104.177147,101.216934 104.727477,101.216934 L111.407668,101.216934 C111.957998,101.216934 112.404129,101.663336 112.404129,102.214001 C112.404129,102.764666 111.957998,103.211068 111.407668,103.211068 L104.727477,103.211068 Z M118.677927,103.211068 C118.127597,103.211068 117.681466,102.764666 117.681466,102.214001 C117.681466,101.663336 118.127597,101.216934 118.677927,101.216934 L125.358119,101.216934 C125.908449,101.216934 126.354579,101.663336 126.354579,102.214001 C126.354579,102.764666 125.908449,103.211068 125.358119,103.211068 L118.677927,103.211068 Z M104.727477,109.193468 C104.177147,109.193468 103.731016,108.747066 103.731016,108.196401 C103.731016,107.645737 104.177147,107.199335 104.727477,107.199335 L111.407668,107.199335 C111.957998,107.199335 112.404129,107.645737 112.404129,108.196401 C112.404129,108.747066 111.957998,109.193468 111.407668,109.193468 L104.727477,109.193468 Z M71.4594109,78.0050197 C77.1439482,78.0050197 82.0950825,68.5565999 82.3564661,56.5602042 L60.5623556,56.5602042 C60.8237393,68.5565999 65.7748735,78.0050197 71.4594109,78.0050197 Z M59.9602121,44.9125961 C56.7707439,44.0579807 54.8783931,40.778031 55.7335282,37.5866233 C56.5886633,34.3952156 59.8674621,32.5008713 63.0569302,33.3554867 C66.2463984,34.2101021 68.1387492,37.4900518 67.2836141,40.6814595 C66.428479,43.8728672 63.1496802,45.7672115 59.9602121,44.9125961 Z M60.4763318,42.9864112 C62.6026439,43.5561548 64.7885097,42.2932586 65.3585998,40.1656535 C65.9286899,38.0380484 64.6671227,35.8514152 62.5408106,35.2816716 C60.4144985,34.711928 58.2286326,35.9748242 57.6585425,38.1024293 C57.0884525,40.2300344 58.3500197,42.4166676 60.4763318,42.9864112 Z M62.8545995,37.0815701 C63.0444518,37.1816025 63.2099111,37.2963094 63.3509825,37.4256941 C63.4920538,37.5550789 63.606752,37.6885572 63.6950806,37.8261331 C63.7834092,37.9637091 63.8456375,38.0998684 63.8817673,38.2346153 C63.9178972,38.3693622 63.9237008,38.49151 63.8991784,38.6010624 C63.889135,38.6385675 63.8658888,38.6669492 63.8294391,38.6862084 C63.7929893,38.7054676 63.7567981,38.71028 63.7208643,38.7006457 L62.8382453,38.4640048 C62.7753612,38.4471448 62.7270619,38.4252624 62.6933459,38.3983571 C62.65963,38.3714517 62.6270235,38.3359113 62.5955254,38.2917349 C62.5853981,38.2756203 62.5696423,38.2490642 62.5482576,38.2120657 C62.5268729,38.1750672 62.4934154,38.1337157 62.4478842,38.08801 C62.402353,38.0423043 62.3422316,37.9971537 62.2675182,37.9525568 C62.1928048,37.9079598 62.0970572,37.8700062 61.9802724,37.8386948 C61.8949296,37.8158134 61.811562,37.7990445 61.7301671,37.7883876 C61.6487721,37.7777307 61.5746878,37.7757332 61.5079119,37.7823952 C61.4411361,37.7890571 61.3830796,37.8081058 61.3337406,37.8395417 C61.2844017,37.8709776 61.2513633,37.9179491 61.2346243,37.9804577 C61.2178854,38.0429662 61.2252719,38.1007761 61.2567839,38.1538892 C61.288296,38.2070023 61.3498403,38.2648169 61.4414187,38.3273348 C61.532997,38.3898527 61.6574175,38.4600589 61.8146838,38.5379553 C61.9719501,38.6158518 62.1679651,38.7108362 62.4027346,38.8229115 C62.6375041,38.9349868 62.8374808,39.051132 63.0026706,39.1713507 C63.1678605,39.2915694 63.2979865,39.421368 63.3930527,39.5607503 C63.4881189,39.7001327 63.5467205,39.8498354 63.5688592,40.0098628 C63.5909979,40.1698903 63.5758431,40.3478314 63.5233945,40.5436915 C63.4765255,40.7187154 63.3976296,40.8695174 63.2867046,40.9961021 C63.1757795,41.1226868 63.040124,41.2247731 62.8797339,41.3023642 C62.7193439,41.3799553 62.537028,41.4315674 62.3327806,41.4572019 C62.1285333,41.4828364 61.9119019,41.4828177 61.6828801,41.4571456 L61.5640343,41.9009539 C61.551759,41.9467935 61.5231913,41.9815646 61.4783301,42.0052682 C61.4334688,42.0289718 61.3863345,42.0342 61.3369255,42.0209528 L60.4543065,41.7843119 C60.4048975,41.7710648 60.3666904,41.7429556 60.3396841,41.6999834 C60.3126777,41.6570112 60.3053123,41.612606 60.3175875,41.5667664 L60.441455,41.1042056 C60.2381275,41.0005603 60.061439,40.8828428 59.9113843,40.7510495 C59.7613295,40.6192562 59.6390498,40.4826286 59.5445416,40.3411626 C59.4500334,40.1996966 59.3861102,40.0563833 59.3527702,39.9112183 C59.3194302,39.7660534 59.3178113,39.6282787 59.3479133,39.4978901 C59.3579567,39.460385 59.3812029,39.4320032 59.4176526,39.4127441 C59.4541024,39.3934849 59.4902936,39.3886725 59.5262274,39.3983068 L60.4088464,39.6349477 C60.4717305,39.6518077 60.5191859,39.6723472 60.5512139,39.6965668 C60.583242,39.7207864 60.6133167,39.7522982 60.6414389,39.7911031 C60.6549421,39.8125892 60.6746386,39.8469014 60.700529,39.8940408 C60.7264195,39.9411802 60.7643826,39.9926724 60.8144195,40.048519 C60.8644564,40.1043656 60.9316083,40.1592173 61.0158771,40.2130758 C61.1001459,40.2669343 61.2096545,40.3119272 61.3444062,40.3480557 C61.5824675,40.4118829 61.7876397,40.4412104 61.959929,40.4360394 C62.1322184,40.4308683 62.2351004,40.3657752 62.2685783,40.2407581 C62.2853172,40.1782496 62.2700704,40.1183322 62.2228373,40.0610041 C62.1756042,40.0036761 62.0983391,39.9416465 61.9910397,39.8749136 C61.8837403,39.8081807 61.743599,39.7337596 61.5706117,39.6516481 C61.3976244,39.5695367 61.1943069,39.4703612 60.9606534,39.3541187 C60.5225564,39.1383981 60.2255691,38.8946334 60.0696826,38.6228172 C59.9137961,38.351001 59.8838383,38.0359065 59.9798081,37.6775243 C60.0188656,37.531671 60.0857234,37.3988567 60.1803835,37.2790772 C60.2750436,37.1592978 60.3924605,37.0579044 60.5326378,36.974894 C60.6728151,36.8918837 60.8337887,36.8300831 61.0155634,36.7894905 C61.1973381,36.7488979 61.3954239,36.7327785 61.6098266,36.7411318 L61.7336941,36.2785709 C61.7459693,36.2327313 61.7745371,36.1979603 61.8193983,36.1742567 C61.8642595,36.1505531 61.9113939,36.1453249 61.9608028,36.158572 L62.8434219,36.3952129 C62.8928308,36.4084601 62.9310379,36.4365693 62.9580443,36.4795415 C62.9850506,36.5225136 62.9924161,36.5669188 62.9801409,36.6127584 L62.8545995,37.0815701 Z M48.3264458,97.1818514 C48.7417852,97.5429004 48.7856182,98.1724923 48.4243496,98.5880843 C48.0630811,99.0036762 47.433516,99.047892 47.0181766,98.686843 L45.1410087,97.0550459 C44.7256693,96.6939968 44.6818363,96.064405 45.0431049,95.648813 C45.4043734,95.2332211 46.0339385,95.1890053 46.4492779,95.5500543 L48.3264458,97.1818514 Z" id="ngo_h" fill="#005676"></path>
            <rect id="Rectangle" fill="#D8D8D8" opacity="0" x="0" y="0" width="164" height="164"></rect>
        </g>
    </g>
</svg>