<?xml version="1.0" encoding="UTF-8"?>
<svg width="102px" height="59px" viewBox="0 0 102 59" version="1.1" xmlns="http://www.w3.org/2000/svg" xmlns:xlink="http://www.w3.org/1999/xlink">
    <!-- Generator: Sketch 52.6 (67491) - http://www.bohemiancoding.com/sketch -->
    <title>Group 29</title>
    <desc>Created with Sketch.</desc>
    <g id="Page-1" stroke="none" stroke-width="1" fill="none" fill-rule="evenodd">
        <g id="geowebmap_home" transform="translate(-1210.000000, -2577.000000)" fill="#23A74E">
            <g id="Group-29" transform="translate(1210.000000, 2577.000000)">
                <path d="M12.9894137,5.04 C13.0094138,5.1200004 13.0344135,5.24499915 13.0644137,5.415 C13.0944138,5.58500085 13.1244135,5.7499992 13.1544137,5.91 C13.1844138,6.0700008 13.2094136,6.21499935 13.2294137,6.345 C13.2494138,6.47500065 13.2494138,6.54 13.2294137,6.54 L13.2294137,6.51 C13.2294137,6.5300001 13.2194138,6.5599998 13.1994137,6.6 C13.1794136,6.6400002 13.1694137,6.6799998 13.1694137,6.72 C13.1694137,6.7600002 13.1494139,6.8099997 13.1094137,6.87 C13.0694135,6.9900006 13.0044141,7.0699998 12.9144137,7.11 C12.8244132,7.1500002 12.7344141,7.17 12.6444137,7.17 C12.5544132,7.17 12.479414,7.1600001 12.4194137,7.14 C12.3594134,7.1199999 12.3294137,7.1299998 12.3294137,7.17 C12.3294137,7.1900001 12.3394136,7.2099999 12.3594137,7.23 C12.2594132,7.2500001 12.1494143,7.26 12.0294137,7.26 L11.6994137,7.26 C11.7394139,7.26 11.7194141,7.25500005 11.6394137,7.245 C11.5594133,7.23499995 11.4644142,7.2200001 11.3544137,7.2 C11.2444131,7.1799999 11.1394142,7.15500015 11.0394137,7.125 C10.9394132,7.09499985 10.8894137,7.0700001 10.8894137,7.05 C10.8894137,6.9499995 10.7744148,6.88500015 10.5444137,6.855 C10.3144125,6.82499985 10.1594141,6.7900002 10.0794137,6.75 C10.0194134,6.7900002 9.89941456,6.81 9.71941366,6.81 L9.52441366,6.81 C9.45441331,6.81 9.36941416,6.7900002 9.26941366,6.75 C9.22941346,6.7700001 9.18941386,6.78 9.14941366,6.78 C9.10941346,6.78 9.06941386,6.7899999 9.02941366,6.81 C8.92941316,6.8500002 8.80441441,6.8899998 8.65441366,6.93 C8.50441291,6.9700002 8.33941456,7.0199997 8.15941366,7.08 L7.94941366,7.23 C7.86941326,7.2700002 7.79941396,7.3199997 7.73941366,7.38 L7.40941366,7.56 C7.38941356,7.5800001 7.37441371,7.60499985 7.36441366,7.635 C7.35441361,7.66500015 7.32941386,7.6899999 7.28941366,7.71 C6.96941206,7.9500012 6.74441431,8.16499905 6.61441366,8.355 C6.48441301,8.54500095 6.32941456,8.7799986 6.14941366,9.06 L6.02941366,9.27 C5.86941286,9.5700015 5.70941446,9.89499825 5.54941366,10.245 C5.38941286,10.5950018 5.34941326,11.0899968 5.42941366,11.73 C5.44941376,11.9100009 5.54441281,12.1199988 5.71441366,12.36 C5.88441451,12.6000012 6.01941316,12.819999 6.11941366,13.02 C6.45941536,13.3200015 6.76441231,13.5549992 7.03441366,13.725 C7.30441501,13.8950009 7.59941206,14.0699991 7.91941366,14.25 C8.23941526,14.4300009 8.62441141,14.6499987 9.07441366,14.91 C9.52441591,15.1700013 10.0994102,15.5399976 10.7994137,16.02 C11.0194148,16.2400011 11.3294117,16.5749978 11.7294137,17.025 C12.1294157,17.4750023 12.3794132,18.0799962 12.4794137,18.84 C12.5194139,19.1800017 12.5394137,19.5149984 12.5394137,19.845 C12.5394137,20.1750017 12.4694144,20.5099983 12.3294137,20.85 L11.5494137,22.02 C11.3494127,22.1600007 11.0094161,22.3099992 10.5294137,22.47 C10.0494113,22.6300008 9.55941616,22.7299998 9.05941366,22.77 C8.75941216,22.8100002 8.47441501,22.835 8.20441366,22.845 C7.93441231,22.8550001 7.65941506,22.8500001 7.37941366,22.83 L6.89941366,22.83 C6.67941256,22.83 6.45941476,22.8100002 6.23941366,22.77 C6.21941356,22.77 6.15441421,22.7600001 6.04441366,22.74 C5.93441311,22.7199999 5.80941436,22.7000001 5.66941366,22.68 C5.52941296,22.6599999 5.38941436,22.6300002 5.24941366,22.59 C5.10941296,22.5499998 4.99941406,22.5100002 4.91941366,22.47 C4.79941306,22.47 4.70941396,22.4600001 4.64941366,22.44 L4.61941366,22.47 L4.49941366,22.41 C4.41941326,22.3899999 4.33941406,22.3750001 4.25941366,22.365 C4.17941326,22.355 4.09941406,22.3300002 4.01941366,22.29 C3.99941356,22.29 3.91441441,22.2750002 3.76441366,22.245 C3.61441291,22.2149999 3.44941456,22.1750003 3.26941366,22.125 C3.08941276,22.0749998 2.92441441,22.0200003 2.77441366,21.96 C2.62441291,21.8999997 2.53941376,21.8300004 2.51941366,21.75 L2.30941366,21.84 C2.26941346,21.8199999 2.23441381,21.8000001 2.20441366,21.78 C2.17441351,21.7599999 2.13941386,21.7400001 2.09941366,21.72 L1.76941366,21.42 L1.64941366,21.42 C1.58941336,21.42 1.53941386,21.4100001 1.49941366,21.39 L1.31941366,21.39 C1.31941366,21.3499998 1.30941376,21.33 1.28941366,21.33 L1.13941366,21.33 C1.09941346,21.3099999 1.06441381,21.2850002 1.03441366,21.255 C1.00441351,21.2249999 0.969413863,21.2000001 0.929413663,21.18 L0.749413663,21.12 L0.749413663,21 C0.789413863,20.9399997 0.834413413,20.8600005 0.884413663,20.76 L1.07941366,20.37 L1.04941366,20.34 C1.04941366,20.3199999 1.03941376,20.31 1.01941366,20.31 C1.01941366,20.2699998 1.05441331,20.2050005 1.12441366,20.115 C1.19441401,20.0249996 1.29941296,19.9300005 1.43941366,19.83 C1.57941436,19.7299995 1.74941266,19.6400004 1.94941366,19.56 C2.14941466,19.4799996 2.37941236,19.44 2.63941366,19.44 C2.91941506,19.44 3.16941256,19.4899995 3.38941366,19.59 C3.60941476,19.6900005 3.76941316,19.74 3.86941366,19.74 L4.04941366,19.74 C4.16941426,19.7800002 4.37441221,19.8549995 4.66441366,19.965 C4.95441511,20.0750006 5.42941036,20.1899994 6.08941366,20.31 C6.40941526,20.510001 6.91941016,20.61 7.61941366,20.61 C7.79941456,20.61 8.00941246,20.5000011 8.24941366,20.28 C8.48941486,20.0599989 8.60941366,19.850001 8.60941366,19.65 L8.72941366,19.65 L9.02941366,19.47 L9.08941366,19.23 L9.08941366,19.02 L8.93941366,18.78 L8.75941366,18.6 L8.39941366,18.27 L8.18941366,18.18 L7.88941366,17.97 L7.28941366,17.64 L7.04941366,17.46 C7.04941366,17.3999997 6.99441421,17.3400003 6.88441366,17.28 C6.77441311,17.2199997 6.71941366,17.1600003 6.71941366,17.1 C6.71941366,16.9999995 6.65441431,16.8950006 6.52441366,16.785 C6.39441301,16.6749995 6.21941476,16.5500007 5.99941366,16.41 C5.77941256,16.2699993 5.52441511,16.105001 5.23441366,15.915 C4.94441221,15.7249991 4.62941536,15.5000013 4.28941366,15.24 L3.86941366,14.73 C3.62941246,14.5499991 3.43441441,14.3800008 3.28441366,14.22 C3.13441291,14.0599992 3.00441421,13.8750011 2.89441366,13.665 C2.78441311,13.454999 2.68441411,13.2000015 2.59441366,12.9 C2.50441321,12.5999985 2.40941416,12.2300022 2.30941366,11.79 C2.36941396,11.5099986 2.40941356,11.3400003 2.42941366,11.28 C2.40941356,11.2399998 2.39941366,11.2000002 2.39941366,11.16 C2.39941366,11.1199998 2.38941376,11.0800002 2.36941366,11.04 C2.40941386,10.7999988 2.46941326,10.5400014 2.54941366,10.26 C2.68941436,9.7399974 2.88941236,9.0900039 3.14941366,8.31 C3.14941366,8.2099995 3.18441331,8.1100005 3.25441366,8.01 C3.32441401,7.9099995 3.40441321,7.81500045 3.49441366,7.725 C3.58441411,7.63499955 3.66441331,7.54500045 3.73441366,7.455 C3.80441401,7.36499955 3.83941366,7.2900003 3.83941366,7.23 C3.91941406,7.1299995 3.96941356,7.04500035 3.98941366,6.975 C4.00941376,6.90499965 4.04941336,6.82500045 4.10941366,6.735 C4.16941396,6.64499955 4.28941276,6.5300007 4.46941366,6.39 C4.64941456,6.2499993 4.94941156,6.0500013 5.36941366,5.79 C5.86941616,5.4499983 6.24941236,5.2000008 6.50941366,5.04 C6.76941496,4.8799992 6.98441281,4.76500035 7.15441366,4.695 C7.32441451,4.62499965 7.48941286,4.57500015 7.64941366,4.545 C7.80941446,4.51499985 8.02941226,4.4500005 8.30941366,4.35 C8.62941526,4.2299994 8.96941186,4.1500002 9.32941366,4.11 C9.68941546,4.0699998 10.0994114,4.0000005 10.5594137,3.9 C10.619414,3.9 10.6694135,3.9099999 10.7094137,3.93 C10.7494139,3.9099999 10.8294131,3.9 10.9494137,3.9 C11.0494142,3.9 11.1294134,3.9099999 11.1894137,3.93 C11.2294139,3.9099999 11.2794134,3.9 11.3394137,3.9 C11.399414,3.9 11.4394136,3.9099999 11.4594137,3.93 L11.8194137,4.08 C12.0594149,4.1400003 12.2594129,4.24499925 12.4194137,4.395 C12.5794145,4.54500075 12.7694126,4.7599986 12.9894137,5.04 Z M26.7744138,12.03 C26.7744138,12.0700002 26.7344142,12.1699992 26.6544138,12.33 C26.5744134,12.4900008 26.5344138,12.6099996 26.5344138,12.69 C26.5144137,12.7900005 26.4994138,12.9199992 26.4894138,13.08 C26.4794137,13.2400008 26.454414,13.4299989 26.4144138,13.65 C26.2944132,13.7700006 26.1744144,13.9799985 26.0544138,14.28 C25.9344132,14.5800015 25.8144144,14.9249981 25.6944138,15.315 C25.5744132,15.705002 25.4494144,16.1199978 25.3194138,16.56 C25.1894131,17.0000022 25.0444146,17.4099981 24.8844138,17.79 C24.6844128,18.2300022 24.4944147,19.0399941 24.3144138,20.22 L23.9244138,22.71 C23.9044137,22.8100005 23.8944138,22.9699989 23.8944138,23.19 L23.8944138,23.52 C23.8944138,23.6400006 23.9144136,23.7699993 23.9544138,23.91 C23.8744134,23.7699993 23.6644155,23.5300017 23.3244138,23.19 C23.0044122,22.8699984 22.8044142,22.5800013 22.7244138,22.32 C22.6444134,22.0599987 22.6044138,21.6800025 22.6044138,21.18 C22.6044138,20.7399978 22.6244136,20.3750015 22.6644138,20.085 C22.704414,19.7949986 22.7544135,19.5700008 22.8144138,19.41 C22.7344134,19.2899994 22.6444143,19.23 22.5444138,19.23 C22.4644134,19.23 22.3744143,19.2699996 22.2744138,19.35 C22.1744133,19.4300004 22.0294147,19.5599991 21.8394138,19.74 C21.6494128,19.9200009 21.3994153,20.1499986 21.0894138,20.43 C20.7794122,20.7100014 20.3844162,21.0599979 19.9044138,21.48 C19.8444135,21.6400008 19.7644143,21.7849994 19.6644138,21.915 C19.5644133,22.0450007 19.4094148,22.1849993 19.1994138,22.335 C18.9894127,22.4850008 18.7194154,22.6499991 18.3894138,22.83 C18.0594121,23.0100009 17.6344164,23.2299987 17.1144138,23.49 C16.7144118,23.9500023 16.3044159,24.18 15.8844138,24.18 C15.8644137,24.18 15.8044143,24.1550003 15.7044138,24.105 C15.6044133,24.0549998 15.4894144,23.9800005 15.3594138,23.88 C15.2294131,23.7799995 15.1044144,23.6600007 14.9844138,23.52 C14.8644132,23.3799993 14.7744141,23.210001 14.7144138,23.01 C14.6344134,22.7299986 14.5294144,22.490001 14.3994138,22.29 C14.2694131,22.089999 14.1444144,21.9000009 14.0244138,21.72 C13.9044132,21.5399991 13.8044142,21.350001 13.7244138,21.15 C13.6444134,20.949999 13.6044138,20.7100014 13.6044138,20.43 C13.6044138,20.0899983 13.7044128,19.5600036 13.9044138,18.84 C14.1244149,18.7599996 14.4044121,18.5500017 14.7444138,18.21 C14.784414,18.0299991 14.8244136,17.8750007 14.8644138,17.745 C14.904414,17.6149994 14.9844132,17.450001 15.1044138,17.25 C15.2244144,17.049999 15.3994126,16.7700018 15.6294138,16.41 C15.8594149,16.0499982 16.1844117,15.5400033 16.6044138,14.88 C16.7844147,14.7599994 16.9144134,14.6350007 16.9944138,14.505 C17.0744142,14.3749994 17.1644133,14.2300008 17.2644138,14.07 C17.3644143,13.9099992 17.4844131,13.735001 17.6244138,13.545 C17.7644145,13.3549991 17.9844123,13.1300013 18.2844138,12.87 C19.124418,11.7499944 19.8694105,10.8550034 20.5194138,10.185 C21.169417,9.51499665 21.7544112,9.18 22.2744138,9.18 C22.5944154,9.18 23.0044113,9.4299975 23.5044138,9.93 C23.6844147,9.93 23.8144134,9.9499998 23.8944138,9.99 C23.9744142,10.0300002 24.0694132,10.0899996 24.1794138,10.17 C24.2894143,10.2500004 24.4344129,10.3399995 24.6144138,10.44 C24.7944147,10.5400005 25.0744119,10.6399995 25.4544138,10.74 L25.6494138,10.83 C25.7794144,10.8900003 25.9294129,10.9749995 26.0994138,11.085 C26.2694146,11.1950006 26.4244131,11.3299992 26.5644138,11.49 C26.7044145,11.6500008 26.7744138,11.829999 26.7744138,12.03 Z M23.3844138,12.51 C23.3644137,12.51 23.3194141,12.5249999 23.2494138,12.555 C23.1794134,12.5850002 23.1344139,12.6 23.1144138,12.6 C23.1744141,12.6600003 23.2344135,12.6999999 23.2944138,12.72 C23.3144139,12.6999999 23.3444136,12.6300006 23.3844138,12.51 Z M22.9044138,13.08 C22.9044138,12.8399988 22.8044148,12.72 22.6044138,12.72 C22.444413,12.72 22.1344161,12.919998 21.6744138,13.32 C21.4944129,13.4200005 21.3044148,13.5649991 21.1044138,13.755 C20.9044128,13.945001 20.6544153,14.1999984 20.3544138,14.52 C20.0544123,14.8400016 19.6994158,15.2349977 19.2894138,15.705 C18.8794117,16.1750024 18.3744168,16.7599965 17.7744138,17.46 C17.7144135,17.5400004 17.5794148,17.7399984 17.3694138,18.06 C17.1594127,18.3800016 16.9394149,18.7199982 16.7094138,19.08 C16.4794126,19.4400018 16.2744147,19.7849984 16.0944138,20.115 C15.9144129,20.4450017 15.8244138,20.6699994 15.8244138,20.79 C15.8244138,20.9500008 15.8944131,21.03 16.0344138,21.03 C16.1544144,21.03 16.294413,20.9650007 16.4544138,20.835 C16.6144146,20.7049994 16.8044127,20.5350011 17.0244138,20.325 C17.2444149,20.114999 17.4894124,19.8850013 17.7594138,19.635 C18.0294151,19.3849988 18.3244122,19.1300013 18.6444138,18.87 C18.7044141,18.7699995 18.7744134,18.6800004 18.8544138,18.6 L19.1994138,18.255 C19.3494145,18.1049993 19.5494125,17.9100012 19.7994138,17.67 C20.049415,17.4299988 20.3744118,17.110002 20.7744138,16.71 C20.7744138,16.6299996 20.8294132,16.4850011 20.9394138,16.275 C21.0494143,16.064999 21.184413,15.8400012 21.3444138,15.6 C21.5044146,15.3599988 21.6744129,15.1300011 21.8544138,14.91 C22.0344147,14.6899989 22.1844132,14.5300005 22.3044138,14.43 C22.6644156,13.5299955 22.8644136,13.08 22.9044138,13.08 Z M31.8594139,8.97 L32.0394139,9.12 L32.0694139,9.27 L32.2494139,9.54 L32.3694139,11.43 L31.8294139,16.38 L31.8294139,17.13 L31.7394139,17.37 L31.9194139,18.69 L32.0394139,18.99 L32.2194139,18.78 L34.1394139,15.3 L35.2494139,13.53 L36.9594139,11.04 L38.1894139,9.45 L38.7594139,8.88 L38.9094139,8.88 L38.6694139,9.27 L38.7894139,9.36 L38.8194139,9.54 L38.2494139,10.41 L38.1894139,10.71 L38.3394139,10.71 L37.9194139,11.4 L37.6794139,11.91 L37.6194139,12.27 L37.5294139,12.42 L36.8994139,14.04 L36.6294139,14.58 L36.7194139,14.73 L36.3894139,15.45 L36.4194139,15.54 L34.3494139,19.5 L33.8094139,20.34 L33.3594139,20.76 L32.3994139,21.45 L32.0094139,21.45 L31.4694139,21.6 L30.9594139,21.6 L30.6594139,21.45 L30.1494139,20.61 L29.7294139,19.62 L29.3994139,18.51 L29.2194139,17.13 L29.2194139,13.95 L29.3694139,13.05 L30.1494139,10.05 L30.7794139,9.06 L31.0794139,8.88 L31.2594139,8.94 L31.4094139,8.88 L31.8594139,8.97 Z M50.294414,12.09 C50.294414,12.690003 50.1744152,13.2099978 49.934414,13.65 C49.6944128,14.0900022 49.3944158,14.4599985 49.034414,14.76 C48.6744122,15.0600015 48.2744162,15.2999991 47.834414,15.48 C47.3944118,15.6600009 46.9844159,15.7999995 46.604414,15.9 C46.2244121,16.0000005 45.8894154,16.0649999 45.599414,16.095 C45.3094125,16.1250002 45.1244144,16.14 45.044414,16.14 C43.5444065,16.14 42.5644163,15.9600018 42.104414,15.6 C41.3444102,16.8400062 40.964414,17.7899967 40.964414,18.45 C40.964414,18.6100008 41.1044126,18.889998 41.384414,19.29 C41.5244147,19.4700009 41.6394135,19.6149995 41.729414,19.725 C41.8194144,19.8350006 41.9144135,19.9149998 42.014414,19.965 C42.1144145,20.0150003 42.2444132,20.0499999 42.404414,20.07 C42.5644148,20.0900001 42.7744127,20.1199998 43.034414,20.16 C43.1144144,20.2000002 43.249413,20.2849994 43.439414,20.415 C43.6294149,20.5450007 43.9444118,20.61 44.384414,20.61 C45.0644174,20.61 46.004408,20.3300028 47.204414,19.77 C47.5444157,19.6099992 47.8644125,19.4400009 48.164414,19.26 C48.4644155,19.0799991 48.7294128,18.9100008 48.959414,18.75 C49.1894151,18.5899992 49.3844132,18.4550006 49.544414,18.345 C49.7044148,18.2349995 49.8044138,18.18 49.844414,18.18 C49.9044143,18.18 49.9744136,18.1999998 50.054414,18.24 C50.0144138,18.5400015 49.9244147,18.8799981 49.784414,19.26 C49.7444138,19.3000002 49.5694155,19.4999982 49.259414,19.86 C48.9494124,20.2200018 48.5294166,20.604998 47.999414,21.015 C47.4694113,21.4250021 46.8344177,21.7999983 46.094414,22.14 C45.3544103,22.4800017 44.5444184,22.65 43.664414,22.65 C43.3444124,22.65 42.9994158,22.550001 42.629414,22.35 C42.2594121,22.149999 41.8944158,21.9000015 41.534414,21.6 C41.1744122,21.2999985 40.8394155,20.9800017 40.529414,20.64 C40.2194124,20.2999983 39.9544151,20.0000013 39.734414,19.74 C39.4944128,19.4199984 39.2894148,19.065002 39.119414,18.675 C38.9494131,18.2849981 38.8194144,17.895002 38.729414,17.505 C38.6394135,17.1149981 38.5744142,16.7550017 38.534414,16.425 C38.4944138,16.0949984 38.474414,15.830001 38.474414,15.63 C38.5744145,15.429999 38.7044132,14.9900034 38.864414,14.31 C38.864414,14.2299996 38.8844138,14.1750002 38.924414,14.145 C38.9644142,14.1149999 39.0144137,14.0700003 39.074414,14.01 C39.1344143,13.9499997 39.2044136,13.8550007 39.284414,13.725 C39.3644144,13.5949994 39.4344137,13.3900014 39.494414,13.11 C39.6344147,13.0299996 39.7244138,12.9450005 39.764414,12.855 C39.8044142,12.7649996 39.8494137,12.6650006 39.899414,12.555 C39.9494142,12.4449995 40.0194135,12.3200007 40.109414,12.18 C40.1994144,12.0399993 40.3644128,11.870001 40.604414,11.67 L41.144414,11.22 C41.3044148,11.019999 41.5044128,10.7850014 41.744414,10.515 C41.9844152,10.2449987 42.2744123,9.9400017 42.614414,9.6 L43.544414,9.09 C43.8644156,8.9499993 44.0544137,8.7200016 44.114414,8.4 L44.354414,8.4 C44.4144143,8.4 44.5194132,8.4699993 44.669414,8.61 C44.8194147,8.7500007 44.9344136,8.8299999 45.014414,8.85 C45.6944174,8.9500005 46.2094122,9.0299997 46.559414,9.09 C46.9094157,9.1500003 47.0944139,9.18 47.114414,9.18 C47.4544157,9.2600004 47.8094121,9.40499895 48.179414,9.615 C48.5494158,9.82500105 48.8894124,10.0649987 49.199414,10.335 C49.5094155,10.6050014 49.7694129,10.8949985 49.979414,11.205 C50.189415,11.5150016 50.294414,11.8099986 50.294414,12.09 Z M46.454414,11.64 C46.2144128,11.3999988 46.0344146,11.28 45.914414,11.28 L45.044414,11.82 C44.6644121,12.0400011 44.3444153,12.2699988 44.084414,12.51 C43.8244127,12.7500012 43.589415,12.9949988 43.379414,13.245 C43.1694129,13.4950013 42.9694149,13.7649986 42.779414,14.055 C42.589413,14.3450015 42.3744152,14.6399985 42.134414,14.94 C42.534416,15.0600006 42.7444139,15.12 42.764414,15.12 C42.964415,15.12 43.46441,14.8700025 44.264414,14.37 C44.7644165,14.0499984 45.1494126,13.7600013 45.419414,13.5 C45.6894153,13.2399987 45.8894133,13.0000011 46.019414,12.78 C46.1494146,12.5599989 46.2394137,12.3600009 46.289414,12.18 C46.3394142,11.9999991 46.3944137,11.8200009 46.454414,11.64 Z M62.6921485,15.6679688 C62.6921485,16.6738332 62.6750589,17.6015583 62.640879,18.4511719 C62.6066991,19.3007855 62.5554301,20.0917932 62.4870704,20.8242188 C61.8327703,21.2734397 61.2907835,21.4980469 60.8610939,21.4980469 C60.2067937,21.4980469 59.8796485,20.916998 59.8796485,19.7548828 C59.8796485,19.6376947 59.8820899,19.4936532 59.8869728,19.3227539 C59.8918556,19.1518546 59.8991797,18.9541027 59.9089454,18.7294922 C59.9187111,18.5048817 59.9260352,18.3071298 59.9309181,18.1362305 C59.9358009,17.9653312 59.9382423,17.8212896 59.9382423,17.7041016 L59.9382423,4.19824219 C59.2253481,4.48144673 58.7175407,4.62304688 58.4148048,4.62304688 C58.0437092,4.62304688 57.7263295,4.48144673 57.4626564,4.19824219 C57.1989832,3.92480332 57.0671485,3.60254092 57.0671485,3.23144531 C57.0671485,2.86034971 57.2526936,2.50390796 57.6237892,2.16210938 C57.9948848,1.82031079 58.4880439,1.47363457 59.1032814,1.12207031 C59.8161755,0.711912012 60.3581623,0.506835938 60.7292579,0.506835938 C61.6179342,0.506835938 62.159921,1.02929165 62.3552345,2.07421875 C62.3942972,2.20117251 62.4138282,3.11913208 62.4138282,4.828125 C62.4431252,5.70703564 62.4577735,7.5136582 62.4577735,10.2480469 C62.5358989,11.380865 62.5944921,12.3964799 62.6335548,13.2949219 C62.6726175,14.1933639 62.6921485,14.9843716 62.6921485,15.6679688 Z M79.3122658,10.9072266 C79.3122658,8.97362314 78.9411758,7.3134835 78.1989846,5.92675781 C77.2419485,4.1787022 75.889423,3.3046875 74.1413674,3.3046875 C73.1452687,3.3046875 72.3444954,4.44237144 71.7390236,6.71777344 C71.2898026,8.41700068 71.0651955,9.99413335 71.0651955,11.4492188 C71.0651955,12.669928 71.3923407,14.0859294 72.0466408,15.6972656 C72.8181291,17.630869 73.706792,18.5976563 74.7126565,18.5976563 C76.2263359,18.5976563 77.4128475,17.6406346 78.2722268,15.7265625 C78.9655896,14.2031174 79.3122658,12.5966881 79.3122658,10.9072266 Z M82.2712502,10.9951172 C82.2712502,13.6025521 81.6853186,15.9023338 80.5134377,17.8945313 C79.1364777,20.296887 77.2370826,21.4980469 74.8151955,21.4980469 C72.5007308,21.4980469 70.7673497,20.379894 69.6150002,18.1435547 C68.7165582,16.4052647 68.267344,14.2568487 68.267344,11.6982422 C68.267344,9.10057295 68.6677306,6.77637744 69.4685158,4.72558594 C70.5525056,1.91307188 72.1687004,0.506835938 74.3171486,0.506835938 C76.9050522,0.506835938 78.9313991,1.6542854 80.3962502,3.94921875 C81.6462565,5.92188486 82.2712502,8.27049419 82.2712502,10.9951172 Z M98.2907816,16.9570313 C98.2907816,16.3417938 98.1076779,15.8535174 97.7414651,15.4921875 C97.3752524,15.1308576 96.8943002,14.9501953 96.2985941,14.9501953 C95.790779,14.9501953 95.3708613,15.1894507 95.0388284,15.6679688 C94.7458582,16.0976584 94.5993753,16.5664037 94.5993753,17.0742188 C94.5993753,18.1386772 95.1999552,18.6708984 96.4011331,18.6708984 C96.9577765,18.6708984 97.4118735,18.5170914 97.7634378,18.2094727 C98.1150021,17.9018539 98.2907816,17.4843776 98.2907816,16.9570313 Z M92.446055,5.15039063 C92.446055,4.64257559 92.2263306,4.20312686 91.7868753,3.83203125 C91.3571857,3.46093564 90.8835576,3.27539063 90.3659769,3.27539063 C90.0241783,3.27539063 89.6823848,3.51952881 89.3405862,4.0078125 C89.0085533,4.48633052 88.8425394,4.91601372 88.8425394,5.296875 C88.8425394,6.28320806 89.4919469,6.77636719 90.7907816,6.77636719 C91.2888309,6.77636719 91.6892175,6.62500151 91.9919534,6.32226563 C92.2946893,6.01952974 92.446055,5.62890864 92.446055,5.15039063 Z M101.176524,16.9570313 C101.176524,18.2558659 100.698013,19.3398394 99.7409769,20.2089844 C98.7937065,21.0683637 97.6609053,21.4980469 96.3425394,21.4980469 C94.9948764,21.4980469 93.9060201,21.0976603 93.0759378,20.296875 C92.2556212,19.4960897 91.8454691,18.4316473 91.8454691,17.1035156 C91.8454691,15.746087 92.2751523,14.5937547 93.1345316,13.6464844 C93.9939108,12.6796827 95.0876499,12.1962891 96.4157816,12.1962891 C97.7146162,12.1962891 98.8327691,12.6650344 99.7702737,13.6025391 C100.707778,14.5302781 101.176524,15.648431 101.176524,16.9570313 Z M99.2136331,7.20117188 C99.2136331,7.50390776 99.0817985,7.80175635 98.8181253,8.09472656 C98.7204686,8.20214897 98.5446891,8.36328018 98.2907816,8.578125 C98.036874,8.79296982 97.6950806,9.06640459 97.2653909,9.3984375 C96.7868729,9.76953311 96.2448861,10.216306 95.6394144,10.7387695 C95.0339426,11.2612331 94.3601212,11.8740199 93.61793,12.5771484 C92.7292537,13.3876994 91.9846322,14.0590794 91.3840433,14.5913086 C90.7834543,15.1235378 90.3269159,15.5263658 90.0144144,15.7998047 C89.6237874,15.7119136 89.2429318,15.5605479 88.8718362,15.3457031 C88.3835525,15.0624986 88.1394144,14.7744155 88.1394144,14.4814453 C88.1394144,14.0615213 89.6286573,12.5088025 92.6071878,9.82324219 C95.5759526,7.12791621 97.3142165,5.78027344 97.8220316,5.78027344 C98.0075794,5.78027344 98.1858002,5.81933555 98.3566995,5.89746094 C98.5275988,5.97558633 98.6765231,6.07812437 98.8034769,6.20507813 C98.9304306,6.33203188 99.0305273,6.48339756 99.1037698,6.65917969 C99.1770124,6.83496182 99.2136331,7.01562407 99.2136331,7.20117188 Z M95.3464456,5.10644531 C95.3464456,6.39551426 94.8972314,7.47460503 93.9987894,8.34375 C93.1003474,9.19336362 92.0066083,9.61816406 90.7175394,9.61816406 C89.4284704,9.61816406 88.3396141,9.2373085 87.4509378,8.47558594 C86.4939018,7.65526934 86.0153909,6.62012344 86.0153909,5.37011719 C86.0153909,4.10057959 86.4646052,2.97266118 87.3630472,1.98632813 C88.2712548,0.999995068 89.3552284,0.506835938 90.6150003,0.506835938 C91.9431319,0.506835938 93.0661676,0.941401904 93.9841409,1.81054688 C94.8923486,2.67969185 95.3464456,3.77831367 95.3464456,5.10644531 Z" id="Save-10%"></path>
                <path d="M50.1889545,34.3928102 C47.6713541,36.0124121 44.8863761,36.6208951 41.8575272,36.1911175 C41.310878,36.1135509 40.9315111,35.6137753 41.0101876,35.0748376 C41.0888641,34.5358998 41.5957908,34.1618846 42.14244,34.2394512 C46.1267888,34.8048091 49.5894956,33.2496132 52.6198411,29.4707767 C52.752504,29.128762 52.8791884,28.7842634 52.9999287,28.4373025 C53.3312623,27.4851774 55.7842585,28.2430525 55.9841489,29.2301756 C57.2900533,35.6791529 58.5946924,39.8631676 59.8319449,41.6928659 C60.1382958,42.1459098 60.0141225,42.7580176 59.5545961,43.0600469 C59.0950698,43.3620762 58.4742035,43.2396546 58.1678526,42.7866107 C56.9775007,41.026271 55.8355393,37.7080005 54.7037823,32.7801957 C48.4449742,45.9454292 32.55879,54.6544978 7.17065285,58.985404 C6.6264571,59.0782371 6.10896633,58.7185588 6.01480486,58.1820399 C5.92064339,57.645521 6.28546826,57.1353304 6.82966402,57.0424972 C29.5425534,53.1679556 43.5269148,45.3231823 50.1889545,34.3928102 Z" id="Path" fill-rule="nonzero"></path>
            </g>
        </g>
    </g>
</svg>