<?xml version="1.0" encoding="UTF-8"?>
<svg width="126px" height="126px" viewBox="0 0 126 126" version="1.1" xmlns="http://www.w3.org/2000/svg" xmlns:xlink="http://www.w3.org/1999/xlink">
    <!-- Generator: Sketch 52.6 (67491) - http://www.bohemiancoding.com/sketch -->
    <title>pricing_free</title>
    <desc>Created with Sketch.</desc>
    <defs>
        <linearGradient x1="100%" y1="21.5072813%" x2="-71.5609716%" y2="26.0903505%" id="linearGradient-1">
            <stop stop-color="#001F4A" offset="0%"></stop>
            <stop stop-color="#00889C" offset="100%"></stop>
        </linearGradient>
    </defs>
    <g id="pricing_free" stroke="none" stroke-width="1" fill="none" fill-rule="evenodd">
        <path d="M108.587543,90.1073569 C103.175861,94.7031231 98.5770355,96.9751107 94.7282864,96.8584819 C92.2183447,96.7824231 90.8674777,96.0882779 89.3618304,94.5515063 C89.2897234,94.4779088 89.0499244,94.2304418 89.0460433,94.2264526 C88.0100009,93.161565 87.4175426,92.8390503 86.0488129,92.8390503 C84.5441099,92.8390503 83.7677548,93.3199355 82.4374084,94.7989103 C82.3891032,94.8526123 82.0808336,95.197472 81.9882767,95.2999677 C80.5351855,96.9090934 79.4022176,97.7356279 77.5706709,98.1717104 C75.0968319,98.7607197 73.5927995,97.904235 70.89076,95.2882785 C70.8113134,95.2113515 70.8113134,95.2113515 70.7323298,95.1349212 C69.0639768,93.5212494 68.2255982,92.9376653 67.1898206,92.8340875 C66.6402767,92.7791331 66.2393327,92.2890905 66.2942871,91.7395466 C66.3492415,91.1900027 66.8392841,90.7890587 67.388828,90.8440131 C69.0366499,91.0087953 70.1299638,91.7698365 72.1227884,93.6973452 C72.2025519,93.7745302 72.2025519,93.7745302 72.2818994,93.8513611 C74.5128921,96.0112779 75.543866,96.5983751 77.1074298,96.226098 C78.4651915,95.9028214 79.2972418,95.2958154 80.5039281,93.959554 C80.59232,93.8616704 80.8988087,93.518803 80.9504548,93.4613869 C82.623,91.6019823 83.8546997,90.8390503 86.0488129,90.8390503 C88.042753,90.8390503 89.1015318,91.4154145 90.4795385,92.8317872 C90.4868079,92.839259 90.7229104,93.0829114 90.7904368,93.1518336 C91.9599397,94.3455121 92.8453988,94.8005067 94.7888646,94.8593996 C97.9203607,94.9542934 101.928693,93.0311678 106.757594,89.0319106 L91.9839543,80.3495605 C86.8786312,77.349203 80.5291225,77.349203 75.4237994,80.3495605 L59.9170429,89.4627572 C59.4408968,89.7425845 58.8280592,89.5834366 58.548232,89.1072905 C58.2684047,88.6311443 58.4275526,88.0183068 58.9036987,87.7384795 L74.4104552,78.6252828 C80.1413266,75.2572956 87.266427,75.2572956 92.9972985,78.6252828 L125.414426,97.6765691 C125.890572,97.9563964 126.04972,98.5692339 125.769892,99.0453801 C125.490065,99.5215262 124.877228,99.6806741 124.401082,99.4008468 L108.587543,90.1073569 Z M51.5,106 L111.309427,106 C111.861712,106 112.309427,106.447715 112.309427,107 C112.309427,107.552285 111.861712,108 111.309427,108 L39.3094269,108 C38.7571421,108 38.3094269,107.552285 38.3094269,107 C38.3094269,106.447715 38.7571421,106 39.3094269,106 L49.5,106 L49.5,102.917042 C46.6622867,102.440963 44.5,99.9729963 44.5,97 C44.5,93.6862915 47.1862915,91 50.5,91 C53.8137085,91 56.5,93.6862915 56.5,97 C56.5,99.9729963 54.3377133,102.440963 51.5,102.917042 L51.5,106 Z M26.5,106 L30,106 C30.5522847,106 31,106.447715 31,107 C31,107.552285 30.5522847,108 30,108 L8,108 C7.44771525,108 7,107.552285 7,107 C7,106.629859 7.20109931,106.306687 7.5,106.133782 L7.5,103.425446 C4.38964968,102.957157 2,100.338929 2,97.1666667 C2,92.7093395 5.121844,85.5 8.5,85.5 C11.878156,85.5 15,92.7093395 15,97.1666667 C15,100.338929 12.6103503,102.957157 9.5,103.425446 L9.5,106 L24.5,106 L24.5,103.411959 C21.9452801,102.956531 20,100.787937 20,98.1666667 C20,94.4532691 22.5959582,88.5 25.5,88.5 C28.4040418,88.5 31,94.4532691 31,98.1666667 C31,100.787937 29.0547199,102.956531 26.5,103.411959 L26.5,106 Z M49.5,100.873983 L49.5,98.4077478 C49.5,97.8554631 49.9477153,97.4077478 50.5,97.4077478 C51.0522847,97.4077478 51.5,97.8554631 51.5,98.4077478 L51.5,100.873983 C53.2252272,100.42994 54.5,98.8638394 54.5,97 C54.5,94.790861 52.709139,93 50.5,93 C48.290861,93 46.5,94.790861 46.5,97 C46.5,98.8638394 47.7747728,100.42994 49.5,100.873983 Z M24.5,101.362128 L24.5,98.4077478 C24.5,97.8554631 24.9477153,97.4077478 25.5,97.4077478 C26.0522847,97.4077478 26.5,97.8554631 26.5,98.4077478 L26.5,101.362128 C27.9498586,100.951402 29,99.6706432 29,98.1666667 C29,95.4404855 26.8456721,90.5 25.5,90.5 C24.1543279,90.5 22,95.4404855 22,98.1666667 C22,99.6706432 23.0501414,100.951402 24.5,101.362128 Z M7.5,101.392731 L7.5,95.0057271 C7.5,94.4534423 7.94771525,94.0057271 8.5,94.0057271 C9.05228475,94.0057271 9.5,94.4534423 9.5,95.0057271 L9.5,101.392731 C11.507982,100.954264 13,99.2236133 13,97.1666667 C13,93.6983584 10.3159388,87.5 8.5,87.5 C6.68406117,87.5 4,93.6983584 4,97.1666667 C4,99.2236133 5.49201796,100.954264 7.5,101.392731 Z M7,124 L20,124 C20.5522847,124 21,124.447715 21,125 C21,125.552285 20.5522847,126 20,126 L7,126 C6.44771525,126 6,125.552285 6,125 C6,124.447715 6.44771525,124 7,124 Z M1,115 L7,115 C7.55228475,115 8,115.447715 8,116 C8,116.552285 7.55228475,117 7,117 L1,117 C0.44771525,117 1.56387037e-13,116.552285 1.56319402e-13,116 C1.56251766e-13,115.447715 0.44771525,115 1,115 Z M19,115 L45,115 C45.5522847,115 46,115.447715 46,116 C46,116.552285 45.5522847,117 45,117 L19,117 C18.4477153,117 18,116.552285 18,116 C18,115.447715 18.4477153,115 19,115 Z M52,115 L78,115 C78.5522847,115 79,115.447715 79,116 C79,116.552285 78.5522847,117 78,117 L52,117 C51.4477153,117 51,116.552285 51,116 C51,115.447715 51.4477153,115 52,115 Z M84,115 L86,115 C86.5522847,115 87,115.447715 87,116 C87,116.552285 86.5522847,117 86,117 L84,117 C83.4477153,117 83,116.552285 83,116 C83,115.447715 83.4477153,115 84,115 Z M97,115 L115,115 C115.552285,115 116,115.447715 116,116 C116,116.552285 115.552285,117 115,117 L97,117 C96.4477153,117 96,116.552285 96,116 C96,115.447715 96.4477153,115 97,115 Z M25,124 L88,124 C88.5522847,124 89,124.447715 89,125 C89,125.552285 88.5522847,126 88,126 L25,126 C24.4477153,126 24,125.552285 24,125 C24,124.447715 24.4477153,124 25,124 Z M93,124 L123,124 C123.552285,124 124,124.447715 124,125 C124,125.552285 123.552285,126 123,126 L93,126 C92.4477153,126 92,125.552285 92,125 C92,124.447715 92.4477153,124 93,124 Z M120,106 L124,106 C124.552285,106 125,106.447715 125,107 C125,107.552285 124.552285,108 124,108 L120,108 C119.447715,108 119,107.552285 119,107 C119,106.447715 119.447715,106 120,106 Z M88.6306383,59.6775542 L88.6306383,57.6196125 C88.6306383,57.0673277 89.0783536,56.6196125 89.6306383,56.6196125 C90.1829231,56.6196125 90.6306383,57.0673277 90.6306383,57.6196125 L90.6306383,59.8149479 L91.7546537,58.0841161 C92.0554495,57.6209311 92.6747783,57.4892887 93.1379633,57.7900846 C93.6011482,58.0908804 93.7327906,58.7102092 93.4319948,59.1733942 L92.2270356,61.0288686 L94.108091,60.1517181 C94.6086309,59.9183124 95.2036114,60.1348676 95.437017,60.6354076 C95.6704226,61.1359476 95.4538675,61.730928 94.9533275,61.9643336 L92.9549058,62.896213 L94.9889137,63.1820741 C95.5358236,63.2589373 95.9168718,63.7646053 95.8400086,64.3115153 C95.7631454,64.8584252 95.2574774,65.2394734 94.7105675,65.1626103 L92.532732,64.8565354 L94.087357,66.2079503 C94.5041716,66.5702817 94.548339,67.2019043 94.1860076,67.6187189 C93.8236762,68.0355335 93.1920536,68.0797009 92.775239,67.7173695 L91.1198828,66.2783904 L91.6892685,68.2640741 C91.8414988,68.7949643 91.5345343,69.3487428 91.0036441,69.5009731 C90.472754,69.6532034 89.9189754,69.346239 89.7667451,68.8153488 L89.1574587,66.6905148 L88.5848327,68.687499 C88.4326024,69.2183891 87.8788238,69.5253536 87.3479337,69.3731233 C86.8170435,69.220893 86.510079,68.6671144 86.6623093,68.1362242 L87.2695658,66.0184692 L85.7179021,67.3673099 C85.3010875,67.7296413 84.6694649,67.6854739 84.3071335,67.2686593 C83.9448021,66.8518448 83.9889694,66.2202221 84.405784,65.8578907 L86.0641014,64.4163374 L84.0223226,64.7032907 C83.4754126,64.7801539 82.9697446,64.3991057 82.8928814,63.8521958 C82.8160182,63.3052858 83.1970664,62.7996178 83.7439764,62.7227546 L85.9140408,62.4177719 L84.0401402,61.5439577 C83.5396002,61.3105521 83.3230451,60.7155716 83.5564507,60.2150317 C83.7898563,59.7144917 84.3848368,59.4979365 84.8853767,59.7313421 L86.8869729,60.6647018 L85.7544519,58.9207723 C85.4536561,58.4575874 85.5852985,57.8382586 86.0484834,57.5374627 C86.5116684,57.2366669 87.1309972,57.3683093 87.431793,57.8314943 L88.6306383,59.6775542 Z M88.8359574,60.5563532 C88.7794678,60.799484 88.6324379,61.0219124 88.4065678,61.1685942 C88.1291603,61.3487447 87.7957445,61.3737811 87.5082943,61.2653784 C87.6014672,61.5093863 87.599529,61.7893945 87.4804261,62.0448115 C87.345316,62.3345561 87.0890479,62.5291421 86.8000744,62.5963754 C87.0001783,62.7503848 87.1424551,62.9798235 87.1803736,63.249628 C87.2252225,63.5687445 87.1141707,63.8738197 86.9052352,64.0878623 C87.1550901,64.1092032 87.3972344,64.2239653 87.5747451,64.4281679 C87.7878415,64.6733073 87.8603333,64.9927471 87.7991068,65.2880079 C88.0193514,65.1717832 88.2830549,65.1371556 88.5413408,65.2112179 C88.8601111,65.3026238 89.0981486,65.5388015 89.2045219,65.8278686 C89.3276725,65.5981856 89.5399291,65.4165773 89.810237,65.3390677 C90.1183683,65.2507125 90.43421,65.3170462 90.6747759,65.4920688 C90.6602002,65.2405647 90.7400615,64.9833778 90.9183959,64.7782275 C91.1303722,64.5343767 91.4345174,64.4180701 91.7338971,64.4360858 C91.5867752,64.23373 91.5149474,63.9762652 91.5525164,63.7089475 C91.5978406,63.3864494 91.7922664,63.1216238 92.0563288,62.9743519 C91.8248118,62.8841907 91.6263333,62.7081423 91.5130416,62.4651874 C91.3725366,62.1638734 91.3950871,61.8283364 91.5444867,61.5580529 C91.2908113,61.615234 91.0151945,61.5740318 90.7798789,61.421216 C90.5103299,61.2461688 90.3530617,60.9632465 90.3279594,60.6660001 C90.1478207,60.8412834 89.9018369,60.9492403 89.6306383,60.9492403 C89.3066795,60.9492403 89.0187004,60.7951925 88.8359574,60.5563532 Z M50.196577,68.3507412 L52.5075413,68.3507412 C53.059826,68.3507412 53.5075413,68.7984564 53.5075413,69.3507412 C53.5075413,69.9030259 53.059826,70.3507412 52.5075413,70.3507412 L50.1725618,70.3507412 L50.1566464,71.6761848 C50.1500153,72.2284298 49.6969567,72.6707372 49.1447118,72.664106 C48.5924668,72.6574749 48.1501594,72.2044163 48.1567906,71.6521714 L48.1724381,70.349035 C47.6475721,70.3185463 47.2313437,69.8832514 47.2313437,69.3507412 C47.2313437,68.8101437 47.6603106,68.3697368 48.1964256,68.3513394 L48.2127961,66.9879933 C48.2194272,66.4357483 48.6724858,65.993441 49.2247307,66.0000721 C49.7769757,66.0067032 50.2192831,66.4597618 50.2126519,67.0120067 L50.196577,68.3507412 Z M114.196577,59.3507412 L116.507541,59.3507412 C117.059826,59.3507412 117.507541,59.7984564 117.507541,60.3507412 C117.507541,60.9030259 117.059826,61.3507412 116.507541,61.3507412 L114.172562,61.3507412 L114.156646,62.6761848 C114.150015,63.2284298 113.696957,63.6707372 113.144712,63.664106 C112.592467,63.6574749 112.150159,63.2044163 112.156791,62.6521714 L112.172438,61.349035 C111.647572,61.3185463 111.231344,60.8832514 111.231344,60.3507412 C111.231344,59.8101437 111.660311,59.3697368 112.196426,59.3513394 L112.212796,57.9879933 C112.219427,57.4357483 112.672486,56.993441 113.224731,57.0000721 C113.776976,57.0067032 114.219283,57.4597618 114.212652,58.0120067 L114.196577,59.3507412 Z M25.4969834,40.2926109 L25.2779668,39.856658 L24.8500371,38.7965622 L24.5072102,37.6955787 L24.2530844,36.5602894 L24.0907061,35.3975968 L24.0225436,34.2146774 L24.0504671,33.0189335 L24.1757315,31.8179444 L24.3989647,30.6194171 L24.7201598,29.4311359 L25.1386714,28.2609131 L25.6532149,27.1165398 L26.2618705,26.0057365 L26.9620899,24.936105 L27.7507062,23.9150803 L28.6239476,22.9498841 L29.5774541,22.0474777 L30.6062969,21.2145173 L31.7050017,20.4573096 L32.8675751,19.7817686 L34.0875336,19.1933741 L35.3579363,18.6971314 L36.6714204,18.2975335 L38.0202406,17.9985245 L39.3963101,17.803466 L40.7912462,17.7151056 L42.1964174,17.7355483 L43.6029946,17.8662316 L45.0020039,18.1079032 L46.3843828,18.460603 L47.7410378,18.9236494 L49.0629048,19.4956299 L50.3410106,20.1743968 L51.5665363,20.9570682 L52.7308802,21.8400349 L53.8257222,22.8189725 L54.8430864,23.8888608 L55.7754029,25.0440084 L56.192744,25.6541052 L56.618179,25.2170125 L57.5559832,24.3984638 L58.5531084,23.6609732 L59.6023701,23.0080838 L60.6963617,22.4427261 L61.8275101,21.967212 L62.9881311,21.583235 L64.1704818,21.2918744 L65.3668116,21.0936032 L66.5694113,20.9882997 L67.7706592,20.9752621 L68.9630656,21.0532257 L70.1393144,21.2203827 L71.2923033,21.4744036 L72.4151809,21.8124611 L73.5013819,22.2312552 L74.54466,22.7270407 L75.5391187,23.2956551 L76.4792395,23.9325484 L77.3599082,24.6328135 L78.1764387,25.3912184 L78.9245952,26.2022383 L79.600612,27.0600891 L80.2012117,27.9587614 L80.7236207,28.8920559 L81.1655842,29.8536193 L81.5253781,30.8369816 L81.8018195,31.8355946 L81.9942746,32.8428724 L82.1026639,33.8522331 L82.1274639,34.8571423 L82.0697054,35.8511586 L81.930967,36.8279799 L81.7133633,37.7814902 L81.4195276,38.7058066 L81.0525892,39.5953248 L80.6161443,40.4447625 L80.1142215,41.2491994 L79.5512429,42.0041123 L78.9319809,42.7054062 L78.261512,43.3494381 L77.5451689,43.9330363 L76.7884921,44.4535124 L75.9971809,44.9086689 L75.1770469,45.2968003 L74.3339673,45.6166908 L73.4738423,45.867607 L72.6025533,46.0492875 L71.7259245,46.1619301 L70.8496864,46.2061758 L69.9794428,46.1830915 L69.1206389,46.0941508 L68.278533,45.9412136 L67.4581696,45.7265047 L66.664355,45.4525913 L65.9016351,45.1223596 L65.1742751,44.7389914 L64.4862409,44.3059401 L63.8411829,43.8269057 L63.2424205,43.3058107 L62.6929294,42.7467752 L62.1953292,42.1540918 L61.7518731,41.5322008 L61.3644375,40.8856649 L61.0345142,40.2191431 L60.7632021,39.5373647 L60.5512009,38.8451017 L60.3988052,38.1471398 L60.3059014,37.4482485 L60.2719653,36.7531483 L60.2960638,36.0664777 L60.3768589,35.3927571 L60.5126171,34.7363521 L60.7012223,34.1014373 L60.9401952,33.491959 L61.2267166,32.9116009 L61.5576573,32.3637524 L61.9296113,31.8514799 L62.3389334,31.3775043 L62.7817793,30.9441829 L63.2541466,30.5534972 L63.7519176,30.2070474 L64.2708993,29.9060506 L64.8068637,29.6513457 L65.3555845,29.4434012 L65.9128718,29.2823276 L66.4746034,29.1678917 L67.0367535,29.0995336 L67.5954176,29.0763851 L68.1468355,29.0972893 L68.6874105,29.1608206 L69.2137273,29.2653054 L69.722566,29.4088426 L70.2109152,29.5893238 L70.6759824,29.8044541 L71.115203,30.0517709 C71.5947245,30.3257738 71.7613302,30.9366261 71.4873273,31.4161475 C71.2133244,31.895669 70.6024722,32.0622747 70.1229507,31.7882718 L69.7544488,31.5777065 L69.4332131,31.4302149 L69.0930974,31.3055515 L68.7361271,31.205834 L68.3645518,31.1330063 L67.9808244,31.0888162 L67.5875778,31.0747963 L67.1875997,31.0922478 L66.7838067,31.1422274 L66.379217,31.2255369 L65.9769236,31.3427173 L65.5800666,31.4940442 L65.1918075,31.6795277 L64.8153036,31.8989145 L64.4536848,32.1516914 L64.1100318,32.4370923 L63.7873568,32.7541042 L63.4885861,33.1014758 L63.2165444,33.4777243 L62.9739407,33.8811423 L62.7633552,34.3098037 L62.5872252,34.7615686 L62.447832,35.2340867 L62.3472847,35.7248014 L62.2875031,36.2309533 L62.270199,36.7495854 L62.2968543,37.2775506 L62.3686997,37.8115221 L62.4866906,38.3480069 L62.6514852,38.8833644 L62.8634227,39.4138286 L63.1225038,39.935534 L63.4283747,40.4445459 L63.7803143,40.9368929 L64.177226,41.4086022 L64.6176337,41.8557363 L65.0996824,42.2744304 L65.6211438,42.6609301 L66.179426,43.0116284 L66.7715876,43.3231013 L67.3943559,43.5921428 L68.0441486,43.8157961 L68.717099,43.9913845 L69.4090843,44.1165375 L70.1157561,44.1892154 L70.8325741,44.2077299 L71.5548403,44.1707613 L72.2777356,44.0773722 L72.9963571,43.9270172 L73.7057555,43.719549 L74.4009726,43.4552203 L75.0770779,43.1346831 L75.7292043,42.7589828 L76.3525817,42.3295513 L76.942569,41.8481955 L77.4946836,41.3170854 L78.0046278,40.7387398 L78.4683144,40.1160114 L78.8818884,39.4520716 L79.241749,38.7503956 L79.5445686,38.0147474 L79.7873133,37.2491654 L79.9672625,36.4579474 L80.0820289,35.6456357 L80.12958,34.8170001 L80.10826,33.9770196 L80.0168116,33.1308609 L79.8543983,32.2838538 L79.6206255,31.4414626 L79.3155588,30.6092541 L78.9397411,29.7928615 L78.4942052,28.9979454 L77.9804821,28.2301519 L77.4006051,27.4950686 L76.7571086,26.7981792 L76.053022,26.1448174 L75.2918579,25.540122 L74.4775957,24.9889909 L73.6146602,24.496039 L72.7078957,24.0655558 L71.7625353,23.7014672 L70.7841674,23.4072995 L69.7786979,23.1861471 L68.7523089,23.0406431 L67.7114161,22.9729348 L66.662623,22.9846629 L65.612673,23.0769449 L64.5684019,23.2503636 L63.5366881,23.5049596 L62.5244036,23.840229 L61.5383656,24.2551254 L60.5852886,24.7480663 L59.6717392,25.3169438 L58.8040921,25.9591388 L57.9884894,26.6715382 L57.2308024,27.4505554 L56.5365966,28.2921518 L55.9110993,29.1918605 L55.3591703,30.1448102 L54.8852736,31.14575 C54.6474004,31.6441823 54.0505068,31.8554072 53.5520745,31.617534 C53.0536421,31.3796607 52.8424173,30.7827672 53.0802905,30.2843349 L53.5928929,29.2102435 L54.2280052,28.1146482 L54.8457771,27.2267715 L54.1732698,26.2383944 L53.3431877,25.2093591 L52.4377098,24.2566322 L51.4635342,23.3851295 L50.4277061,22.5991995 L49.3375732,21.902602 L48.200738,21.2984894 L47.0250096,20.7893916 L45.8183526,20.3772033 L44.5888355,20.0631767 L43.3445775,19.8479168 L42.0936943,19.7313823 L40.8442446,19.7128896 L39.6041753,19.7911232 L38.3812687,19.9641491 L37.1830902,20.2294342 L36.0169379,20.5838694 L34.8897944,21.0237974 L33.8082816,21.5450451 L32.7786178,22.1429587 L31.8065796,22.8124439 L30.8974665,23.5480079 L30.0560705,24.343805 L29.2866501,25.1936844 L28.5929092,26.0912391 L27.9779802,27.029857 L27.4444133,28.0027723 L26.9941701,29.0031164 L26.6286223,30.0239695 L26.3485556,31.0584103 L26.1541779,32.0995642 L26.045132,33.1406498 L26.0205119,34.175022 L26.078883,35.1962137 L26.2183042,36.1979725 L26.4363536,37.174296 L26.730155,38.1194631 L27.0964062,39.0280621 L27.5314081,39.8950164 L28.0310952,40.7156081 L28.591066,41.4854982 L29.2066145,42.2007459 L29.4096146,42.4009826 L29.5944303,42.5383505 L30.3404261,43.1852885 C30.4178856,43.2524624 30.482513,43.3289325 30.534088,43.4116017 L30.5842921,43.4536413 L31.3357811,43.9855419 L32.1216362,44.4513308 L32.9361311,44.8492764 L33.7734428,45.1781192 L34.6276912,45.4370759 L35.4929779,45.625841 L36.3634268,45.7445855 L37.2332247,45.7939515 L38.0966614,45.7750436 L38.9481702,45.6894168 L39.7823663,45.5390605 L40.5940849,45.3263787 L41.3784171,45.0541675 L42.1307433,44.7255883 L42.846764,44.3441384 L43.5225284,43.9136192 L44.1544587,43.4381009 L44.739371,42.9218861 L45.2744932,42.3694712 L45.7574774,41.7855063 L46.1864092,41.1747553 L46.5598127,40.5420544 L46.8766502,39.8922719 L47.1363185,39.2302682 L47.338641,38.5608575 L47.4838558,37.8887711 L47.5726003,37.2186232 L47.6058924,36.5548795 L47.5851104,35.9018285 L47.5119691,35.2635563 L47.388496,34.6439249 L47.217006,34.0465528 L47.000076,33.4747999 L46.7405188,32.931754 L46.4413587,32.4202197 L46.1058061,31.9427097 L45.7372333,31.5014375 L45.3391506,31.0983104 L44.915182,30.734925 L44.4690412,30.4125625 L44.004507,30.1321853 L43.5253983,29.8944345 L43.0355482,29.6996295 L42.5387773,29.5477681 L42.0388667,29.4385296 L41.5395303,29.371279 L41.0443867,29.3450743 L40.5569315,29.3586767 L40.0805097,29.4105627 L39.6182894,29.4989396 L39.173236,29.621764 L38.7480888,29.7767618 L38.3453388,29.9614525 L37.9672097,30.1731746 L37.6156409,30.4091134 L37.2310655,30.720094 C36.801618,31.0673595 36.1719677,31.0007378 35.8247022,30.5712904 C35.4774367,30.1418429 35.5440584,29.5121927 35.9735058,29.1649272 L36.4231773,28.8055394 L36.9084093,28.4783574 L37.4267265,28.1867278 L37.9753507,27.9338313 L38.5512109,27.7226559 L39.1509556,27.5559716 L39.7709671,27.4363038 L40.4073788,27.3659076 L41.0560945,27.3467427 L41.712811,27.3804487 L42.3730436,27.4683224 L43.0321537,27.6112956 L43.6853802,27.8099158 L44.3278731,28.064329 L44.9547295,28.3742653 L45.5610325,28.7390284 L46.1418915,29.1574883 L46.6924837,29.6280792 L47.2080969,30.148801 L47.6841721,30.7172265 L48.1163454,31.3305126 L48.500488,31.9854169 L48.8327453,32.6783185 L49.1095716,33.4052422 L49.3277633,34.1618872 L49.4844868,34.9436577 L49.5773039,35.7456965 L49.6041931,36.562919 L49.5635663,37.3900497 L49.4542836,38.2216582 L49.275663,39.052196 L49.0274885,39.8760331 L48.7100145,40.6874945 L48.3239681,41.4808962 L47.8705486,42.2505819 L47.3514252,42.990958 L46.7687314,43.6965297 L46.1250586,44.3619361 L45.4234461,44.981985 L44.6673698,45.5516885 L43.8607273,46.0662963 L43.0078219,46.5213304 L42.113343,46.9126183 L41.1823446,47.2363252 L40.2202205,47.4889861 L39.2326773,47.667536 L38.2257046,47.7693389 L37.2055418,47.7922156 L36.1786435,47.7344686 L35.1516405,47.5949063 L34.1312993,47.3728628 L33.1244789,47.0682162 L32.1380843,46.6814027 L31.1790193,46.2134274 L30.2541361,45.6658705 L29.3701842,45.0408889 L28.5337583,44.3412135 L28.108353,43.922027 L27.6210691,43.5594617 L26.8633548,43.0827828 L26.0772166,42.6702007 L25.2680796,42.3233676 L24.4414351,42.0434809 L23.6028027,41.8312831 L22.7576917,41.6870643 L21.9115642,41.6106686 L21.0697994,41.6015034 L20.2376587,41.6585515 L19.4202536,41.7803861 L18.6225148,41.9651884 L17.8491638,42.2107667 L17.1046866,42.5145782 L16.3933098,42.8737515 L15.7189785,43.2851116 L15.0853375,43.7452047 L14.4957137,44.2503247 L13.9531009,44.7965407 L13.4601472,45.3797241 L13.019144,45.9955775 L12.6320172,46.639663 L12.3003199,47.3074313 L12.0252279,47.9942519 L11.807537,48.695442 L11.6476619,49.4062972 L11.5456378,50.1221213 L11.5011243,50.8382564 L11.5134112,51.5501134 L11.5814272,52.2532006 L11.7037503,52.9431537 L11.8786217,53.6157635 L12.103961,54.2670028 L12.3773844,54.8930527 L12.6962251,55.4903267 L13.0575552,56.0554926 L13.4582108,56.5854933 L13.894817,57.0775646 L14.3638164,57.529251 L14.861497,57.9384179 L15.3840226,58.3032626 L15.9274625,58.6223207 L16.4878224,58.8944709 L17.0610749,59.1189361 L17.6431897,59.2952821 L18.2301633,59.4234129 L18.8180476,59.5035637 L19.4029771,59.5362913 L19.981195,59.5224623 L20.549077,59.4632385 L21.1031538,59.3600614 L21.6401311,59.2146346 L22.1569078,59.0289049 L22.6505923,58.8050426 L23.1185156,58.545421 L23.5582441,58.2525955 L23.967589,57.929282 L24.3446147,57.5783354 L24.6876451,57.2027284 L24.9952688,56.8055295 L25.2663421,56.3898817 L25.4999916,55.9589811 L25.6956143,55.5160553 L25.8528773,55.0643423 L25.9717152,54.6070689 L26.0523274,54.1474299 L26.0951721,53.6885668 L26.1009602,53.2335469 L26.070647,52.7853433 L26.0054223,52.3468143 L25.9066985,51.9206847 L25.7760973,51.509527 L25.6154347,51.1157445 L25.4267042,50.7415547 L25.2120585,50.3889755 L24.9239399,49.9974469 C24.5966021,49.5526229 24.6918436,48.926662 25.1366676,48.5993243 C25.5814917,48.2719865 26.2074525,48.367228 26.5347903,48.812052 L26.8676099,49.269699 L27.1662428,49.7578701 L27.4278911,50.2739445 L27.6499497,50.815053 L27.8300283,51.3780917 L27.9659735,51.959737 L28.0558891,52.5564643 L28.0981567,53.164567 L28.0914533,53.7801792 L28.0347684,54.3992992 L27.927419,55.0178155 L27.7690618,55.6315346 L27.559704,56.2362098 L27.2997103,56.8275719 L26.9898082,57.4013609 L26.631089,57.9533574 L26.2250068,58.479416 L25.7733736,58.9754968 L25.2783517,59.4376975 L24.7424422,59.8622848 L24.1684719,60.2457238 L23.5595762,60.5847064 L22.9191801,60.8761777 L22.250977,61.1173609 L21.5589053,61.3057793 L20.8471234,61.4392762 L20.1199833,61.5160333 L19.3820028,61.5345854 L18.6378375,61.4938337 L17.8922508,61.3930567 L17.1500845,61.231918 L16.416228,61.010473 L15.695588,60.7291723 L14.9930572,60.3888635 L14.3134835,59.990791 L13.6616389,59.5365924 L13.0421883,59.0282946 L12.4596588,58.4683056 L11.9184092,57.8594058 L11.4225996,57.2047361 L10.9761622,56.5077836 L10.5827719,55.7723657 L10.2458188,55.0026112 L9.96838086,54.2029394 L9.75319829,53.3780365 L9.60264936,52.5328303 L9.51872788,51.6724619 L9.50302266,50.8022558 L9.55669926,49.9276872 L9.68048412,49.0543484 L9.87465162,48.1879121 L10.139014,47.3340947 L10.4729147,46.4986168 L10.875225,45.6871639 L11.3443441,44.9053461 L11.8782035,44.1586575 L12.4742746,43.4524363 L13.1295801,42.791825 L13.8407093,42.1817323 L14.6038369,41.6267956 L15.4147449,41.1313465 L16.2688476,40.6993776 L17.1612197,40.3345119 L18.0866266,40.0399754 L19.0395569,39.8185716 L20.0142571,39.6726601 L21.0047669,39.6041372 L22.0049572,39.6144203 L23.0085676,39.704435 L24.0092459,39.874605 L25.0005873,40.1248459 L25.4969834,40.2926109 Z M50.7033752,50.2993707 L51.0695502,50.3778485 L51.3632592,50.4126083 L51.6622902,50.423433 L51.9648984,50.4097546 L52.2692684,50.3711352 L52.5735199,50.3072772 L52.8757162,50.2180326 L53.1738742,50.1034131 L53.4659769,49.9635993 L53.749988,49.7989475 L54.0238674,49.6099964 L54.2855894,49.3974706 L54.5331605,49.1622818 L54.7646389,48.9055286 L54.9781534,48.6284925 L55.1719227,48.332632 L55.3442732,48.0195745 L55.4936569,47.6911058 C55.726367,47.1902421 56.3210461,46.9728607 56.8219098,47.2055708 C57.3227735,47.4382809 57.5401549,48.03296 57.3074448,48.5338237 L57.1231845,48.9304085 L56.8758796,49.3769732 L56.5969198,49.8005326 L56.2883327,50.1987402 L55.9523001,50.5694174 L55.5911473,50.910563 L55.2073312,51.2203629 L54.803429,51.4971999 L54.3821252,51.7396628 L53.9461983,51.9465555 L53.4985067,52.116906 L53.0419731,52.2499744 L52.5795672,52.345261 L52.1142878,52.4025124 L51.6491422,52.4217272 L51.1871254,52.4031585 L50.7311969,52.3473158 L50.2842572,52.2549627 C49.7442354,52.1392265 49.400284,51.6076295 49.5160202,51.0676077 C49.6317565,50.5275859 50.1633534,50.1836345 50.7033752,50.2993707 Z M108.329831,8.31943385 L108.912736,8.168483 L109.593085,8.04960853 L110.277782,7.9857547 L110.962414,7.97655005 L111.642648,8.02127262 L112.314253,8.11886483 L112.973133,8.26795008 L113.61534,8.46685067 L114.237105,8.71360676 L114.834845,9.00599593 L115.40519,9.34155319 L115.944987,9.71759128 L116.451322,10.131221 L116.921525,10.5793717 L117.353178,11.0588114 L117.744132,11.566167 L118.092504,12.0979449 L118.39669,12.65055 L118.655367,13.2203064 L118.867499,13.8034765 L119.032336,14.3962812 L119.149425,14.9949193 L119.218602,15.5955881 L119.240002,16.194503 L119.214052,16.7879189 L119.141473,17.3721516 L119.023281,17.9435995 L118.860774,18.4987668 L118.655538,19.0342872 L118.409427,19.5469471 L118.124561,20.0337105 L117.803307,20.4917421 L117.448262,20.9184307 L117.062235,21.3114105 L116.648222,21.6685803 L116.20938,21.9881201 L115.748997,22.2685041 L115.270466,22.50851 L114.777248,22.7072247 L114.272846,22.8640452 L113.760774,22.9786761 L113.244525,23.0511236 L112.727545,23.0816858 L112.21321,23.0709411 L111.7048,23.019734 L111.205481,22.9291592 L110.718286,22.800545 L110.246099,22.6354359 L109.791643,22.4355748 L109.357468,22.2028848 L108.945943,21.939452 L108.559246,21.647508 L108.199358,21.3294123 L107.868059,20.9876367 L107.566924,20.6247486 L107.297317,20.2433957 L107.060392,19.8462908 L106.857088,19.4361977 L106.68813,19.0159164 L106.554025,18.5882695 L106.455064,18.1560882 L106.391319,17.7221989 L106.362645,17.2894087 L106.368678,16.8604911 L106.408836,16.4381713 L106.48232,16.0251096 L106.588115,15.6238855 L106.724996,15.2369796 L106.891533,14.8667548 L107.086095,14.5154379 L107.306865,14.1850997 L107.551848,13.8776364 L107.818893,13.5947514 L108.105706,13.3379387 L108.409877,13.1084697 L108.728902,12.9073812 L109.060207,12.7354687 L109.401179,12.5932822 L109.749187,12.4811269 L110.101615,12.3990667 L110.45588,12.3469316 L110.80946,12.3243288 L111.159911,12.3306547 L111.504887,12.3651103 L111.842154,12.4267168 L112.169601,12.5143324 L112.485252,12.6266692 L112.787274,12.7623098 L113.07398,12.9197236 L113.343833,13.0972825 L113.595452,13.2932754 L113.827607,13.5059218 L114.039225,13.7333845 L114.229384,13.9737811 L114.397316,14.2251947 C114.699131,14.6877162 114.568853,15.3073334 114.106331,15.6091484 C113.64381,15.9109634 113.024193,15.780685 112.722378,15.3181634 L112.601148,15.1323831 L112.509326,15.0190621 L112.405584,14.9100027 L112.290193,14.8065209 L112.163563,14.7099138 L112.026239,14.6214437 L111.878898,14.5423225 L111.722335,14.4736991 L111.557455,14.4166469 L111.385264,14.3721541 L111.206855,14.3411153 L111.023394,14.3243252 L110.836112,14.3224744 L110.646294,14.3361462 L110.455263,14.3658159 L110.264373,14.4118506 L110.075004,14.4745096 L109.88855,14.5539462 L109.706415,14.6502081 L109.530009,14.7632378 L109.360745,14.8928722 L109.200033,15.0388406 L109.049278,15.2007618 L108.909875,15.3781395 L108.783202,15.5703573 L108.670613,15.7766734 L108.573429,15.9962153 L108.492921,16.2279754 L108.430304,16.4708084 L108.386713,16.7234309 L108.363195,16.9844228 L108.360684,17.2522325 L108.379989,17.5251845 L108.421777,17.8014895 L108.486557,18.079258 L108.57467,18.3565157 L108.686272,18.6312207 L108.821332,18.9012828 L108.979623,19.1645834 L109.160719,19.4189969 L109.363992,19.6624114 L109.588619,19.89275 L109.833582,20.1079917 L110.097676,20.3061911 L110.379518,20.4854976 L110.677561,20.644173 L110.990102,20.7806075 L111.315298,20.8933338 L111.651185,20.9810401 L111.995691,21.0425798 L112.346653,21.0769799 L112.701838,21.0834473 L113.058956,21.0613719 L113.415679,21.0103298 L113.769655,20.9300828 L114.118525,20.8205779 L114.459936,20.6819451 L114.791548,20.5144957 L115.111053,20.3187191 L115.41618,20.0952811 L115.704702,19.8450223 L115.974453,19.5689569 L116.223328,19.2682726 L116.449303,18.9443307 L116.650438,18.598666 L116.824897,18.2329869 L116.970955,17.8491739 L117.087021,17.4492767 L117.171651,17.0355096 L117.223566,16.610244 L117.241669,16.1759984 L117.225063,15.7354259 L117.173068,15.2912983 L117.085234,14.8464881 L116.961353,14.4039479 L116.801472,13.966688 L116.605899,13.5377521 L116.375206,13.1201922 L116.110236,12.7170431 L115.812096,12.3312951 L115.482155,11.9658691 L115.122039,11.6235899 L114.733619,11.3071621 L114.319,11.0191462 L113.880504,10.7619365 L113.420655,10.5377406 L112.94216,10.3485611 L112.447888,10.1961794 L111.940848,10.082142 L111.424167,10.007749 L110.901067,9.97404569 L110.374839,9.981816 L109.848823,10.0315792 L109.326385,10.123588 L108.810893,10.2578299 L108.305701,10.4340284 L107.814126,10.6516471 L107.339432,10.9098942 L106.884814,11.2077267 L106.453384,11.5438555 C106.015645,11.8806083 105.387794,11.7987424 105.051042,11.3610027 C104.714289,10.9232631 104.796155,10.2954129 105.233894,9.95866009 L105.732216,9.57530144 L106.324092,9.18872856 L106.427987,9.13239447 L106.382994,8.76667388 L106.249869,8.11946358 L106.066442,7.48924586 L105.834582,6.87971498 L105.55644,6.29438931 L105.234426,5.73659197 L104.871198,5.20943219 L104.469643,4.71578773 L104.032856,4.25828821 L103.564121,3.83929979 L103.066888,3.46091127 L102.544747,3.12492191 L102.001409,2.83283106 L101.440673,2.58582991 L100.866405,2.38479554 L100.282507,2.23028728 L99.6928898,2.12254567 L99.1014443,2.06149392 L98.5120156,2.04674207 L97.9283743,2.07759369 L97.3541903,2.15305518 L96.7930072,2.27184749 L96.2482186,2.43242024 L95.7230452,2.63296793 L95.2205152,2.87144817 L94.743445,3.14560154 L94.2944236,3.45297296 L93.8757991,3.79093416 L93.4896671,4.15670693 L93.1378624,4.54738691 L92.821953,4.95996751 L92.5432362,5.39136359 L92.3027376,5.83843485 L92.1012114,6.29800832 L91.9391439,6.76690009 L91.8167569,7.24193595 L91.7340143,7.71997089 L91.6906283,8.1979075 L91.686068,8.67271323 L91.7195674,9.14143668 L91.7901352,9.60122298 L91.8965646,10.0493283 L92.0374436,10.483134 L92.2111665,10.9001596 L92.4159453,11.298076 L92.649823,11.6747174 L92.9106862,12.0280933 L93.1962804,12.3563994 L93.504225,12.6580279 L93.8320303,12.9315768 L94.1771146,13.1758581 L94.5368231,13.3899043 L94.9084474,13.5729743 L95.2892455,13.7245563 L95.6764624,13.84437 L96.0673514,13.9323665 L96.459195,13.9887256 L96.8493258,14.0138517 L97.2351471,14.0083674 L97.6141526,13.9731051 L97.9839452,13.9090961 L98.3422547,13.8175587 L98.6869536,13.6998836 L99.016072,13.5576187 L99.3278096,13.3924515 L99.6205467,13.2061917 L99.8928519,13.0007517 L100.143489,12.7781276 L100.371419,12.5403799 L100.575805,12.2896135 L100.756006,12.0279595 L100.911582,11.7575568 L101.042281,11.4805348 L101.148041,11.1989981 L101.228976,10.9150114 L101.285372,10.6305867 L101.317678,10.3476715 L101.326496,10.068138 L101.312569,9.7937746 L101.276775,9.52627679 L101.220119,9.26724033 L101.143717,9.01815419 L101.048792,8.78039426 L100.936665,8.55521736 L100.80874,8.34375553 L100.6665,8.14701053 L100.511493,7.96584866 L100.345321,7.80099602 L100.16963,7.65303423 L99.986096,7.52239687 L99.7964123,7.40936685 L99.6022758,7.31407477 L99.4053723,7.23649858 L99.2073619,7.17646466 L99.009864,7.13365039 L98.8144422,7.1075884 L98.6225899,7.09767255 L98.4357153,7.10316555 L98.2551286,7.12320844 L98.0023541,7.17736266 C97.4623236,7.29305836 96.9307524,6.94906705 96.8150567,6.40903654 C96.699361,5.86900603 97.0433523,5.33743491 97.5833828,5.2217392 L97.9169654,5.15371023 L98.2597945,5.11259566 L98.6096639,5.09937814 L98.964268,5.11487093 L99.3212138,5.1597083 L99.6780337,5.23433637 L100.032199,5.33900441 L100.381135,5.47375696 L100.722238,5.6384268 L101.052891,5.83262904 L101.370485,6.05575656 L101.672436,6.30697708 L101.956208,6.58523196 L102.219332,6.88923706 L102.45943,7.21748583 L102.674233,7.56825476 L102.861609,7.93961125 L103.019579,8.32942409 L103.146338,8.73537632 L103.240275,9.1549805 L103.299993,9.58559614 L103.324317,10.024449 L103.312315,10.4686519 L103.263303,10.9152271 L103.176855,11.3611287 L103.05281,11.8032666 L102.891271,12.2385294 L102.692612,12.6638079 L102.457469,13.0760175 L102.186742,13.4721204 L101.88159,13.8491469 L101.54342,14.2042151 L101.173882,14.5345505 L100.77486,14.8375042 L100.34846,15.1105705 L99.8969998,15.3514031 L99.422997,15.5578313 L98.9291551,15.7278743 L98.4183498,15.859756 L97.8936142,15.951918 L97.3581233,16.0030325 L96.8151765,16.0120139 L96.2681806,15.9780303 L95.7206304,15.9005128 L95.1760893,15.7791651 L94.6381683,15.6139711 L94.110504,15.4052015 L93.5967359,15.1534187 L93.1004825,14.8594802 L92.6253168,14.5245404 L92.1747405,14.15005 L91.7521587,13.7377535 L91.3608531,13.2896841 L91.003956,12.8081566 L90.6844241,12.2957569 L90.4050129,11.7553295 L90.1682519,11.1899618 L89.9764216,10.6029664 L89.8315313,9.99786014 L89.7352997,9.37834113 L89.6891375,8.7482639 L89.6941325,8.11161247 L89.7510377,7.47247229 L89.8602625,6.83500107 L90.0218663,6.20339904 L90.2355558,5.58187913 L90.5006846,4.97463714 L90.8162557,4.38582256 L91.180927,3.81950995 L91.5930179,3.27967143 L92.0505197,2.77015007 L92.5511063,2.29463461 L93.0921481,1.85663534 L93.6707259,1.45946118 L94.2836478,1.10619816 L94.9274662,0.799689017 L95.598497,0.542514168 L96.2928391,0.336973846 L97.0063961,0.185071562 L97.7348979,0.0884988584 L98.4739244,0.0486213976 L99.2189303,0.0664664649 L99.96527,0.142711951 L100.708225,0.27767691 L101.443029,0.471313808 L102.164902,0.723202572 L102.869072,1.03254658 L103.550812,1.39817077 L104.205467,1.8185219 L104.828487,2.29167136 L105.415457,2.81532036 L105.962131,3.38680797 L106.464461,4.00312189 L106.918633,4.6609122 L107.32109,5.35650808 L107.668567,6.08593753 L107.958119,6.84495008 L108.187143,7.6290423 L108.329831,8.31943385 Z M99.8706433,18.6929152 L100.022643,18.8161332 L100.119257,18.8778421 L100.222395,18.9323864 L100.331683,18.9792277 L100.44669,19.0178311 L100.566918,19.0476714 L100.691802,19.0682429 L100.820702,19.0790698 L100.952904,19.0797181 L101.087624,19.0698076 L101.224009,19.0490241 L101.361144,19.0171301 L101.498066,18.9739748 L101.633768,18.919502 L101.767217,18.8537563 L101.897363,18.776887 L102.023155,18.6891504 L102.143553,18.5909093 C102.577828,18.2497001 103.206482,18.3251448 103.547691,18.7594197 C103.888901,19.1936946 103.813456,19.8223487 103.379181,20.1635579 L103.197524,20.3062858 L102.945832,20.4783416 L102.683304,20.6299813 L102.411563,20.7604716 L102.132277,20.8691911 L101.847147,20.9556335 L101.557906,21.019411 L101.266312,21.0602584 L100.974146,21.0780375 L100.6832,21.0727426 L100.39527,21.0445055 L100.112152,20.9936012 L99.8356235,20.9204526 L99.5674342,20.8256345 L99.3092908,20.709876 L99.0628395,20.5740609 L98.8296493,20.4192251 L98.611193,20.2465512 C98.1821683,19.8987636 98.1163126,19.2690328 98.4641001,18.8400081 C98.8118877,18.4109833 99.4416186,18.3451276 99.8706433,18.6929152 Z M92,38.2313437 C91.4477153,38.2313437 91,37.7836284 91,37.2313437 C91,36.6790589 91.4477153,36.2313437 92,36.2313437 L104.94607,36.2313437 C105.498355,36.2313437 105.94607,36.6790589 105.94607,37.2313437 C105.94607,37.7836284 105.498355,38.2313437 104.94607,38.2313437 L92,38.2313437 Z M103,51.2313437 C102.447715,51.2313437 102,50.7836284 102,50.2313437 C102,49.6790589 102.447715,49.2313437 103,49.2313437 L107.94607,49.2313437 C108.498355,49.2313437 108.94607,49.6790589 108.94607,50.2313437 C108.94607,50.7836284 108.498355,51.2313437 107.94607,51.2313437 L103,51.2313437 Z" id="Shape" fill="url(#linearGradient-1)"></path>
    </g>
</svg>