<?xml version="1.0" encoding="UTF-8"?>
<svg width="126px" height="126px" viewBox="0 0 126 126" version="1.1" xmlns="http://www.w3.org/2000/svg" xmlns:xlink="http://www.w3.org/1999/xlink">
    <!-- Generator: Sketch 52.6 (67491) - http://www.bohemiancoding.com/sketch -->
    <title>pricing_profotional</title>
    <desc>Created with Sketch.</desc>
    <defs>
        <linearGradient x1="100%" y1="21.5072813%" x2="-71.5609716%" y2="26.0903505%" id="linearGradient-1">
            <stop stop-color="#001F4A" offset="0%"></stop>
            <stop stop-color="#00889C" offset="100%"></stop>
        </linearGradient>
    </defs>
    <g id="pricing_profotional" stroke="none" stroke-width="1" fill="none" fill-rule="evenodd">
        <path d="M64,16 L64,12 C64,11.4477153 64.4477153,11 65,11 L83,11 C83.5522847,11 84,11.4477153 84,12 L84,17 L84,103 C84,103.552285 83.5522847,104 83,104 C82.4477153,104 82,103.552285 82,103 L82,18 L42,18 L42,103 C42,103.552285 41.5522847,104 41,104 C40.4477153,104 40,103.552285 40,103 L40,17 C40,16.4477153 40.4477153,16 41,16 L64,16 Z M66,16 L82,16 L82,13 L66,13 L66,16 Z M20.196577,31.7462714 L22.5075413,31.7462714 C23.059826,31.7462714 23.5075413,32.1939866 23.5075413,32.7462714 C23.5075413,33.2985561 23.059826,33.7462714 22.5075413,33.7462714 L20.1725618,33.7462714 L20.1566464,35.071715 C20.1500153,35.62396 19.6969567,36.0662674 19.1447118,36.0596362 C18.5924668,36.0530051 18.1501594,35.5999465 18.1567906,35.0477016 L18.1724381,33.7445652 C17.6475721,33.7140765 17.2313437,33.2787816 17.2313437,32.7462714 C17.2313437,32.2056739 17.6603106,31.765267 18.1964256,31.7468696 L18.2127961,30.3835235 C18.2194272,29.8312785 18.6724858,29.3889712 19.2247307,29.3956023 C19.7769757,29.4022334 20.2192831,29.855292 20.2126519,30.4075369 L20.196577,31.7462714 Z M50,28 L50,32 C50,32.5522847 49.5522847,33 49,33 C48.4477153,33 48,32.5522847 48,32 L48,27 C48,26.4477153 48.4477153,26 49,26 L52,26 C52.5522847,26 53,26.4477153 53,27 C53,27.5522847 52.5522847,28 52,28 L50,28 Z M50,40 L50,44 C50,44.5522847 49.5522847,45 49,45 C48.4477153,45 48,44.5522847 48,44 L48,39 C48,38.4477153 48.4477153,38 49,38 L52,38 C52.5522847,38 53,38.4477153 53,39 C53,39.5522847 52.5522847,40 52,40 L50,40 Z M50,52 L50,56 C50,56.5522847 49.5522847,57 49,57 C48.4477153,57 48,56.5522847 48,56 L48,51 C48,50.4477153 48.4477153,50 49,50 L52,50 C52.5522847,50 53,50.4477153 53,51 C53,51.5522847 52.5522847,52 52,52 L50,52 Z M50,64 L50,68 C50,68.5522847 49.5522847,69 49,69 C48.4477153,69 48,68.5522847 48,68 L48,63 C48,62.4477153 48.4477153,62 49,62 L52,62 C52.5522847,62 53,62.4477153 53,63 C53,63.5522847 52.5522847,64 52,64 L50,64 Z M50,76 L50,80 C50,80.5522847 49.5522847,81 49,81 C48.4477153,81 48,80.5522847 48,80 L48,75 C48,74.4477153 48.4477153,74 49,74 L52,74 C52.5522847,74 53,74.4477153 53,75 C53,75.5522847 52.5522847,76 52,76 L50,76 Z M50,88 L50,92 C50,92.5522847 49.5522847,93 49,93 C48.4477153,93 48,92.5522847 48,92 L48,87 C48,86.4477153 48.4477153,86 49,86 L52,86 C52.5522847,86 53,86.4477153 53,87 C53,87.5522847 52.5522847,88 52,88 L50,88 Z M61,28 L61,32 C61,32.5522847 60.5522847,33 60,33 C59.4477153,33 59,32.5522847 59,32 L59,27 C59,26.4477153 59.4477153,26 60,26 L63,26 C63.5522847,26 64,26.4477153 64,27 C64,27.5522847 63.5522847,28 63,28 L61,28 Z M61,40 L61,44 C61,44.5522847 60.5522847,45 60,45 C59.4477153,45 59,44.5522847 59,44 L59,39 C59,38.4477153 59.4477153,38 60,38 L63,38 C63.5522847,38 64,38.4477153 64,39 C64,39.5522847 63.5522847,40 63,40 L61,40 Z M61,52 L61,56 C61,56.5522847 60.5522847,57 60,57 C59.4477153,57 59,56.5522847 59,56 L59,51 C59,50.4477153 59.4477153,50 60,50 L63,50 C63.5522847,50 64,50.4477153 64,51 C64,51.5522847 63.5522847,52 63,52 L61,52 Z M61,64 L61,68 C61,68.5522847 60.5522847,69 60,69 C59.4477153,69 59,68.5522847 59,68 L59,63 C59,62.4477153 59.4477153,62 60,62 L63,62 C63.5522847,62 64,62.4477153 64,63 C64,63.5522847 63.5522847,64 63,64 L61,64 Z M61,76 L61,80 C61,80.5522847 60.5522847,81 60,81 C59.4477153,81 59,80.5522847 59,80 L59,75 C59,74.4477153 59.4477153,74 60,74 L63,74 C63.5522847,74 64,74.4477153 64,75 C64,75.5522847 63.5522847,76 63,76 L61,76 Z M61,88 L61,98 C61,98.5522847 60.5522847,99 60,99 C59.4477153,99 59,98.5522847 59,98 L59,87 C59,86.4477153 59.4477153,86 60,86 L65,86 C65.5522847,86 66,86.4477153 66,87 C66,87.5522847 65.5522847,88 65,88 L61,88 Z M72,28 L72,32 C72,32.5522847 71.5522847,33 71,33 C70.4477153,33 70,32.5522847 70,32 L70,27 C70,26.4477153 70.4477153,26 71,26 L74,26 C74.5522847,26 75,26.4477153 75,27 C75,27.5522847 74.5522847,28 74,28 L72,28 Z M72,40 L72,44 C72,44.5522847 71.5522847,45 71,45 C70.4477153,45 70,44.5522847 70,44 L70,39 C70,38.4477153 70.4477153,38 71,38 L74,38 C74.5522847,38 75,38.4477153 75,39 C75,39.5522847 74.5522847,40 74,40 L72,40 Z M72,52 L72,56 C72,56.5522847 71.5522847,57 71,57 C70.4477153,57 70,56.5522847 70,56 L70,51 C70,50.4477153 70.4477153,50 71,50 L74,50 C74.5522847,50 75,50.4477153 75,51 C75,51.5522847 74.5522847,52 74,52 L72,52 Z M72,64 L72,68 C72,68.5522847 71.5522847,69 71,69 C70.4477153,69 70,68.5522847 70,68 L70,63 C70,62.4477153 70.4477153,62 71,62 L74,62 C74.5522847,62 75,62.4477153 75,63 C75,63.5522847 74.5522847,64 74,64 L72,64 Z M98,64 L98,68 C98,68.5522847 97.5522847,69 97,69 C96.4477153,69 96,68.5522847 96,68 L96,63 C96,62.4477153 96.4477153,62 97,62 L100,62 C100.552285,62 101,62.4477153 101,63 C101,63.5522847 100.552285,64 100,64 L98,64 Z M90,64 L90,68 C90,68.5522847 89.5522847,69 89,69 C88.4477153,69 88,68.5522847 88,68 L88,63 C88,62.4477153 88.4477153,62 89,62 L92,62 C92.5522847,62 93,62.4477153 93,63 C93,63.5522847 92.5522847,64 92,64 L90,64 Z M72,76 L72,80 C72,80.5522847 71.5522847,81 71,81 C70.4477153,81 70,80.5522847 70,80 L70,75 C70,74.4477153 70.4477153,74 71,74 L74,74 C74.5522847,74 75,74.4477153 75,75 C75,75.5522847 74.5522847,76 74,76 L72,76 Z M72,88 L72,92 C72,92.5522847 71.5522847,93 71,93 C70.4477153,93 70,92.5522847 70,92 L70,87 C70,86.4477153 70.4477153,86 71,86 L74,86 C74.5522847,86 75,86.4477153 75,87 C75,87.5522847 74.5522847,88 74,88 L72,88 Z M20,57 L20,103 C20,103.552285 19.5522847,104 19,104 L13,104 C12.4477153,104 12,103.552285 12,103 C12,102.447715 12.4477153,102 13,102 L18,102 L18,56 C18,55.4477153 18.4477153,55 19,55 L37,55 C37.5522847,55 38,55.4477153 38,56 C38,56.5522847 37.5522847,57 37,57 L20,57 Z M104,57 L87,57 C86.4477153,57 86,56.5522847 86,56 C86,55.4477153 86.4477153,55 87,55 L105,55 C105.552285,55 106,55.4477153 106,56 L106,102 L111,102 C111.552285,102 112,102.447715 112,103 C112,103.552285 111.552285,104 111,104 L105,104 C104.447715,104 104,103.552285 104,103 L104,57 Z M97.5,75 C97.5,74.4477153 97.9477153,74 98.5,74 C99.0522847,74 99.5,74.4477153 99.5,75 L99.5,94.4942808 C99.5,95.0465655 99.0522847,95.4942808 98.5,95.4942808 C97.9477153,95.4942808 97.5,95.0465655 97.5,94.4942808 L97.5,75 Z M89.5,75 C89.5,74.4477153 89.9477153,74 90.5,74 C91.0522847,74 91.5,74.4477153 91.5,75 L91.5,94.4942808 C91.5,95.0465655 91.0522847,95.4942808 90.5,95.4942808 C89.9477153,95.4942808 89.5,95.0465655 89.5,94.4942808 L89.5,75 Z M33,64 L33,68 C33,68.5522847 32.5522847,69 32,69 C31.4477153,69 31,68.5522847 31,68 L31,63 C31,62.4477153 31.4477153,62 32,62 L35,62 C35.5522847,62 36,62.4477153 36,63 C36,63.5522847 35.5522847,64 35,64 L33,64 Z M25,64 L25,68 C25,68.5522847 24.5522847,69 24,69 C23.4477153,69 23,68.5522847 23,68 L23,63 C23,62.4477153 23.4477153,62 24,62 L27,62 C27.5522847,62 28,62.4477153 28,63 C28,63.5522847 27.5522847,64 27,64 L25,64 Z M32.5,75 C32.5,74.4477153 32.9477153,74 33.5,74 C34.0522847,74 34.5,74.4477153 34.5,75 L34.5,94.4942808 C34.5,95.0465655 34.0522847,95.4942808 33.5,95.4942808 C32.9477153,95.4942808 32.5,95.0465655 32.5,94.4942808 L32.5,75 Z M24.5,75 C24.5,74.4477153 24.9477153,74 25.5,74 C26.0522847,74 26.5,74.4477153 26.5,75 L26.5,94.4942808 C26.5,95.0465655 26.0522847,95.4942808 25.5,95.4942808 C24.9477153,95.4942808 24.5,95.0465655 24.5,94.4942808 L24.5,75 Z M5,47.2313437 C4.44771525,47.2313437 4,46.7836284 4,46.2313437 C4,45.6790589 4.44771525,45.2313437 5,45.2313437 L16,45.2313437 C16.5522847,45.2313437 17,45.6790589 17,46.2313437 C17,46.7836284 16.5522847,47.2313437 16,47.2313437 L5,47.2313437 Z M104.805996,49.4850915 C104.253712,49.4850915 103.805996,49.0373762 103.805996,48.4850915 C103.805996,47.9328067 104.253712,47.4850915 104.805996,47.4850915 L111.696918,47.4850915 C112.249203,47.4850915 112.696918,47.9328067 112.696918,48.4850915 C112.696918,49.0373762 112.249203,49.4850915 111.696918,49.4850915 L104.805996,49.4850915 Z M101.029872,40.2313437 C100.477587,40.2313437 100.029872,39.7836284 100.029872,39.2313437 C100.029872,38.6790589 100.477587,38.2313437 101.029872,38.2313437 L115.323792,38.2313437 C115.876077,38.2313437 116.323792,38.6790589 116.323792,39.2313437 C116.323792,39.7836284 115.876077,40.2313437 115.323792,40.2313437 L101.029872,40.2313437 Z M108.329831,8.31943385 L108.912736,8.168483 L109.593085,8.04960853 L110.277782,7.9857547 L110.962414,7.97655005 L111.642648,8.02127262 L112.314253,8.11886483 L112.973133,8.26795008 L113.61534,8.46685067 L114.237105,8.71360676 L114.834845,9.00599593 L115.40519,9.34155319 L115.944987,9.71759128 L116.451322,10.131221 L116.921525,10.5793717 L117.353178,11.0588114 L117.744132,11.566167 L118.092504,12.0979449 L118.39669,12.65055 L118.655367,13.2203064 L118.867499,13.8034765 L119.032336,14.3962812 L119.149425,14.9949193 L119.218602,15.5955881 L119.240002,16.194503 L119.214052,16.7879189 L119.141473,17.3721516 L119.023281,17.9435995 L118.860774,18.4987668 L118.655538,19.0342872 L118.409427,19.5469471 L118.124561,20.0337105 L117.803307,20.4917421 L117.448262,20.9184307 L117.062235,21.3114105 L116.648222,21.6685803 L116.20938,21.9881201 L115.748997,22.2685041 L115.270466,22.50851 L114.777248,22.7072247 L114.272846,22.8640452 L113.760774,22.9786761 L113.244525,23.0511236 L112.727545,23.0816858 L112.21321,23.0709411 L111.7048,23.019734 L111.205481,22.9291592 L110.718286,22.800545 L110.246099,22.6354359 L109.791643,22.4355748 L109.357468,22.2028848 L108.945943,21.939452 L108.559246,21.647508 L108.199358,21.3294123 L107.868059,20.9876367 L107.566924,20.6247486 L107.297317,20.2433957 L107.060392,19.8462908 L106.857088,19.4361977 L106.68813,19.0159164 L106.554025,18.5882695 L106.455064,18.1560882 L106.391319,17.7221989 L106.362645,17.2894087 L106.368678,16.8604911 L106.408836,16.4381713 L106.48232,16.0251096 L106.588115,15.6238855 L106.724996,15.2369796 L106.891533,14.8667548 L107.086095,14.5154379 L107.306865,14.1850997 L107.551848,13.8776364 L107.818893,13.5947514 L108.105706,13.3379387 L108.409877,13.1084697 L108.728902,12.9073812 L109.060207,12.7354687 L109.401179,12.5932822 L109.749187,12.4811269 L110.101615,12.3990667 L110.45588,12.3469316 L110.80946,12.3243288 L111.159911,12.3306547 L111.504887,12.3651103 L111.842154,12.4267168 L112.169601,12.5143324 L112.485252,12.6266692 L112.787274,12.7623098 L113.07398,12.9197236 L113.343833,13.0972825 L113.595452,13.2932754 L113.827607,13.5059218 L114.039225,13.7333845 L114.229384,13.9737811 L114.397316,14.2251947 C114.699131,14.6877162 114.568853,15.3073334 114.106331,15.6091484 C113.64381,15.9109634 113.024193,15.780685 112.722378,15.3181634 L112.601148,15.1323831 L112.509326,15.0190621 L112.405584,14.9100027 L112.290193,14.8065209 L112.163563,14.7099138 L112.026239,14.6214437 L111.878898,14.5423225 L111.722335,14.4736991 L111.557455,14.4166469 L111.385264,14.3721541 L111.206855,14.3411153 L111.023394,14.3243252 L110.836112,14.3224744 L110.646294,14.3361462 L110.455263,14.3658159 L110.264373,14.4118506 L110.075004,14.4745096 L109.88855,14.5539462 L109.706415,14.6502081 L109.530009,14.7632378 L109.360745,14.8928722 L109.200033,15.0388406 L109.049278,15.2007618 L108.909875,15.3781395 L108.783202,15.5703573 L108.670613,15.7766734 L108.573429,15.9962153 L108.492921,16.2279754 L108.430304,16.4708084 L108.386713,16.7234309 L108.363195,16.9844228 L108.360684,17.2522325 L108.379989,17.5251845 L108.421777,17.8014895 L108.486557,18.079258 L108.57467,18.3565157 L108.686272,18.6312207 L108.821332,18.9012828 L108.979623,19.1645834 L109.160719,19.4189969 L109.363992,19.6624114 L109.588619,19.89275 L109.833582,20.1079917 L110.097676,20.3061911 L110.379518,20.4854976 L110.677561,20.644173 L110.990102,20.7806075 L111.315298,20.8933338 L111.651185,20.9810401 L111.995691,21.0425798 L112.346653,21.0769799 L112.701838,21.0834473 L113.058956,21.0613719 L113.415679,21.0103298 L113.769655,20.9300828 L114.118525,20.8205779 L114.459936,20.6819451 L114.791548,20.5144957 L115.111053,20.3187191 L115.41618,20.0952811 L115.704702,19.8450223 L115.974453,19.5689569 L116.223328,19.2682726 L116.449303,18.9443307 L116.650438,18.598666 L116.824897,18.2329869 L116.970955,17.8491739 L117.087021,17.4492767 L117.171651,17.0355096 L117.223566,16.610244 L117.241669,16.1759984 L117.225063,15.7354259 L117.173068,15.2912983 L117.085234,14.8464881 L116.961353,14.4039479 L116.801472,13.966688 L116.605899,13.5377521 L116.375206,13.1201922 L116.110236,12.7170431 L115.812096,12.3312951 L115.482155,11.9658691 L115.122039,11.6235899 L114.733619,11.3071621 L114.319,11.0191462 L113.880504,10.7619365 L113.420655,10.5377406 L112.94216,10.3485611 L112.447888,10.1961794 L111.940848,10.082142 L111.424167,10.007749 L110.901067,9.97404569 L110.374839,9.981816 L109.848823,10.0315792 L109.326385,10.123588 L108.810893,10.2578299 L108.305701,10.4340284 L107.814126,10.6516471 L107.339432,10.9098942 L106.884814,11.2077267 L106.453384,11.5438555 C106.015645,11.8806083 105.387794,11.7987424 105.051042,11.3610027 C104.714289,10.9232631 104.796155,10.2954129 105.233894,9.95866009 L105.732216,9.57530144 L106.324092,9.18872856 L106.427987,9.13239447 L106.382994,8.76667388 L106.249869,8.11946358 L106.066442,7.48924586 L105.834582,6.87971498 L105.55644,6.29438931 L105.234426,5.73659197 L104.871198,5.20943219 L104.469643,4.71578773 L104.032856,4.25828821 L103.564121,3.83929979 L103.066888,3.46091127 L102.544747,3.12492191 L102.001409,2.83283106 L101.440673,2.58582991 L100.866405,2.38479554 L100.282507,2.23028728 L99.6928898,2.12254567 L99.1014443,2.06149392 L98.5120156,2.04674207 L97.9283743,2.07759369 L97.3541903,2.15305518 L96.7930072,2.27184749 L96.2482186,2.43242024 L95.7230452,2.63296793 L95.2205152,2.87144817 L94.743445,3.14560154 L94.2944236,3.45297296 L93.8757991,3.79093416 L93.4896671,4.15670693 L93.1378624,4.54738691 L92.821953,4.95996751 L92.5432362,5.39136359 L92.3027376,5.83843485 L92.1012114,6.29800832 L91.9391439,6.76690009 L91.8167569,7.24193595 L91.7340143,7.71997089 L91.6906283,8.1979075 L91.686068,8.67271323 L91.7195674,9.14143668 L91.7901352,9.60122298 L91.8965646,10.0493283 L92.0374436,10.483134 L92.2111665,10.9001596 L92.4159453,11.298076 L92.649823,11.6747174 L92.9106862,12.0280933 L93.1962804,12.3563994 L93.504225,12.6580279 L93.8320303,12.9315768 L94.1771146,13.1758581 L94.5368231,13.3899043 L94.9084474,13.5729743 L95.2892455,13.7245563 L95.6764624,13.84437 L96.0673514,13.9323665 L96.459195,13.9887256 L96.8493258,14.0138517 L97.2351471,14.0083674 L97.6141526,13.9731051 L97.9839452,13.9090961 L98.3422547,13.8175587 L98.6869536,13.6998836 L99.016072,13.5576187 L99.3278096,13.3924515 L99.6205467,13.2061917 L99.8928519,13.0007517 L100.143489,12.7781276 L100.371419,12.5403799 L100.575805,12.2896135 L100.756006,12.0279595 L100.911582,11.7575568 L101.042281,11.4805348 L101.148041,11.1989981 L101.228976,10.9150114 L101.285372,10.6305867 L101.317678,10.3476715 L101.326496,10.068138 L101.312569,9.7937746 L101.276775,9.52627679 L101.220119,9.26724033 L101.143717,9.01815419 L101.048792,8.78039426 L100.936665,8.55521736 L100.80874,8.34375553 L100.6665,8.14701053 L100.511493,7.96584866 L100.345321,7.80099602 L100.16963,7.65303423 L99.986096,7.52239687 L99.7964123,7.40936685 L99.6022758,7.31407477 L99.4053723,7.23649858 L99.2073619,7.17646466 L99.009864,7.13365039 L98.8144422,7.1075884 L98.6225899,7.09767255 L98.4357153,7.10316555 L98.2551286,7.12320844 L98.0023541,7.17736266 C97.4623236,7.29305836 96.9307524,6.94906705 96.8150567,6.40903654 C96.699361,5.86900603 97.0433523,5.33743491 97.5833828,5.2217392 L97.9169654,5.15371023 L98.2597945,5.11259566 L98.6096639,5.09937814 L98.964268,5.11487093 L99.3212138,5.1597083 L99.6780337,5.23433637 L100.032199,5.33900441 L100.381135,5.47375696 L100.722238,5.6384268 L101.052891,5.83262904 L101.370485,6.05575656 L101.672436,6.30697708 L101.956208,6.58523196 L102.219332,6.88923706 L102.45943,7.21748583 L102.674233,7.56825476 L102.861609,7.93961125 L103.019579,8.32942409 L103.146338,8.73537632 L103.240275,9.1549805 L103.299993,9.58559614 L103.324317,10.024449 L103.312315,10.4686519 L103.263303,10.9152271 L103.176855,11.3611287 L103.05281,11.8032666 L102.891271,12.2385294 L102.692612,12.6638079 L102.457469,13.0760175 L102.186742,13.4721204 L101.88159,13.8491469 L101.54342,14.2042151 L101.173882,14.5345505 L100.77486,14.8375042 L100.34846,15.1105705 L99.8969998,15.3514031 L99.422997,15.5578313 L98.9291551,15.7278743 L98.4183498,15.859756 L97.8936142,15.951918 L97.3581233,16.0030325 L96.8151765,16.0120139 L96.2681806,15.9780303 L95.7206304,15.9005128 L95.1760893,15.7791651 L94.6381683,15.6139711 L94.110504,15.4052015 L93.5967359,15.1534187 L93.1004825,14.8594802 L92.6253168,14.5245404 L92.1747405,14.15005 L91.7521587,13.7377535 L91.3608531,13.2896841 L91.003956,12.8081566 L90.6844241,12.2957569 L90.4050129,11.7553295 L90.1682519,11.1899618 L89.9764216,10.6029664 L89.8315313,9.99786014 L89.7352997,9.37834113 L89.6891375,8.7482639 L89.6941325,8.11161247 L89.7510377,7.47247229 L89.8602625,6.83500107 L90.0218663,6.20339904 L90.2355558,5.58187913 L90.5006846,4.97463714 L90.8162557,4.38582256 L91.180927,3.81950995 L91.5930179,3.27967143 L92.0505197,2.77015007 L92.5511063,2.29463461 L93.0921481,1.85663534 L93.6707259,1.45946118 L94.2836478,1.10619816 L94.9274662,0.799689017 L95.598497,0.542514168 L96.2928391,0.336973846 L97.0063961,0.185071562 L97.7348979,0.0884988584 L98.4739244,0.0486213976 L99.2189303,0.0664664649 L99.96527,0.142711951 L100.708225,0.27767691 L101.443029,0.471313808 L102.164902,0.723202572 L102.869072,1.03254658 L103.550812,1.39817077 L104.205467,1.8185219 L104.828487,2.29167136 L105.415457,2.81532036 L105.962131,3.38680797 L106.464461,4.00312189 L106.918633,4.6609122 L107.32109,5.35650808 L107.668567,6.08593753 L107.958119,6.84495008 L108.187143,7.6290423 L108.329831,8.31943385 Z M99.8706433,18.6929152 L100.022643,18.8161332 L100.119257,18.8778421 L100.222395,18.9323864 L100.331683,18.9792277 L100.44669,19.0178311 L100.566918,19.0476714 L100.691802,19.0682429 L100.820702,19.0790698 L100.952904,19.0797181 L101.087624,19.0698076 L101.224009,19.0490241 L101.361144,19.0171301 L101.498066,18.9739748 L101.633768,18.919502 L101.767217,18.8537563 L101.897363,18.776887 L102.023155,18.6891504 L102.143553,18.5909093 C102.577828,18.2497001 103.206482,18.3251448 103.547691,18.7594197 C103.888901,19.1936946 103.813456,19.8223487 103.379181,20.1635579 L103.197524,20.3062858 L102.945832,20.4783416 L102.683304,20.6299813 L102.411563,20.7604716 L102.132277,20.8691911 L101.847147,20.9556335 L101.557906,21.019411 L101.266312,21.0602584 L100.974146,21.0780375 L100.6832,21.0727426 L100.39527,21.0445055 L100.112152,20.9936012 L99.8356235,20.9204526 L99.5674342,20.8256345 L99.3092908,20.709876 L99.0628395,20.5740609 L98.8296493,20.4192251 L98.611193,20.2465512 C98.1821683,19.8987636 98.1163126,19.2690328 98.4641001,18.8400081 C98.8118877,18.4109833 99.4416186,18.3451276 99.8706433,18.6929152 Z M7,124 L20,124 C20.5522847,124 21,124.447715 21,125 C21,125.552285 20.5522847,126 20,126 L7,126 C6.44771525,126 6,125.552285 6,125 C6,124.447715 6.44771525,124 7,124 Z M1,115 L7,115 C7.55228475,115 8,115.447715 8,116 C8,116.552285 7.55228475,117 7,117 L1,117 C0.44771525,117 6.76353751e-17,116.552285 0,116 C-6.76353751e-17,115.447715 0.44771525,115 1,115 Z M19,115 L45,115 C45.5522847,115 46,115.447715 46,116 C46,116.552285 45.5522847,117 45,117 L19,117 C18.4477153,117 18,116.552285 18,116 C18,115.447715 18.4477153,115 19,115 Z M8,106 L30,106 C30.5522847,106 31,106.447715 31,107 C31,107.552285 30.5522847,108 30,108 L8,108 C7.44771525,108 7,107.552285 7,107 C7,106.447715 7.44771525,106 8,106 Z M121,106 L125,106 C125.552285,106 126,106.447715 126,107 C126,107.552285 125.552285,108 125,108 L121,108 C120.447715,108 120,107.552285 120,107 C120,106.447715 120.447715,106 121,106 Z M39.3094269,106 L111.309427,106 C111.861712,106 112.309427,106.447715 112.309427,107 C112.309427,107.552285 111.861712,108 111.309427,108 L39.3094269,108 C38.7571421,108 38.3094269,107.552285 38.3094269,107 C38.3094269,106.447715 38.7571421,106 39.3094269,106 Z M52,115 L78,115 C78.5522847,115 79,115.447715 79,116 C79,116.552285 78.5522847,117 78,117 L52,117 C51.4477153,117 51,116.552285 51,116 C51,115.447715 51.4477153,115 52,115 Z M84,115 L86,115 C86.5522847,115 87,115.447715 87,116 C87,116.552285 86.5522847,117 86,117 L84,117 C83.4477153,117 83,116.552285 83,116 C83,115.447715 83.4477153,115 84,115 Z M97,115 L115,115 C115.552285,115 116,115.447715 116,116 C116,116.552285 115.552285,117 115,117 L97,117 C96.4477153,117 96,116.552285 96,116 C96,115.447715 96.4477153,115 97,115 Z M25,124 L88,124 C88.5522847,124 89,124.447715 89,125 C89,125.552285 88.5522847,126 88,126 L25,126 C24.4477153,126 24,125.552285 24,125 C24,124.447715 24.4477153,124 25,124 Z M93,124 L123,124 C123.552285,124 124,124.447715 124,125 C124,125.552285 123.552285,126 123,126 L93,126 C92.4477153,126 92,125.552285 92,125 C92,124.447715 92.4477153,124 93,124 Z" id="Combined-Shape" fill="url(#linearGradient-1)"></path>
    </g>
</svg>