<?xml version="1.0" encoding="UTF-8"?>
<svg width="126px" height="126px" viewBox="0 0 126 126" version="1.1" xmlns="http://www.w3.org/2000/svg" xmlns:xlink="http://www.w3.org/1999/xlink">
    <!-- Generator: Sketch 52.6 (67491) - http://www.bohemiancoding.com/sketch -->
    <title>pricing_standard</title>
    <desc>Created with Sketch.</desc>
    <defs>
        <linearGradient x1="100%" y1="21.5072813%" x2="-71.5609716%" y2="26.0903505%" id="linearGradient-1">
            <stop stop-color="#001F4A" offset="0%"></stop>
            <stop stop-color="#00889C" offset="100%"></stop>
        </linearGradient>
    </defs>
    <g id="pricing_standard" stroke="none" stroke-width="1" fill="none" fill-rule="evenodd">
        <path d="M64,80.2848944 L64,73.3335158 L64,68.2848944 L37.0006812,68.2848944 C36.950108,68.2848944 36.9004116,68.2811402 36.8518556,68.2738953 C36.3698076,68.2023972 36,67.7868324 36,67.2848944 L36,62.2848944 L32,62.2848944 L32,67.2476369 C32.0004528,67.2600001 32.0006812,67.2724206 32.0006812,67.2848944 C32.0006812,67.2973683 32.0004528,67.3097888 32,67.322152 L32,72.2848944 L37,72.2848944 C37.5522847,72.2848944 38,72.7326097 38,73.2848944 C38,73.8371792 37.5522847,74.2848944 37,74.2848944 L31,74.2848944 C30.4477153,74.2848944 30,73.8371792 30,73.2848944 L30,68.2848944 L26.0469482,68.2848944 L22.3546405,80.2848944 L26,80.2848944 L64,80.2848944 Z M112.000381,73.3109396 C112.013763,73.8536437 111.577631,74.3335158 111,74.3335158 L108,74.3335158 L108,102.333516 L114,102.333516 C114.552285,102.333516 115,102.781231 115,103.333516 C115,103.885801 114.552285,104.333516 114,104.333516 L107,104.333516 C106.447715,104.333516 106,103.885801 106,103.333516 L106,74.3335158 L66.0006812,74.3335158 L66.0006812,81.2848944 C66.0006812,81.2973683 66.0004528,81.3097888 66,81.322152 L66,103.333516 C66,103.885801 65.5522847,104.333516 65,104.333516 C64.4477153,104.333516 64,103.885801 64,103.333516 L64,82.3335158 L27,82.3335158 L27,103.333516 C27,103.885801 26.5522847,104.333516 26,104.333516 L19,104.333516 C18.4477153,104.333516 18,103.885801 18,103.333516 C18,102.781231 18.4477153,102.333516 19,102.333516 L25,102.333516 L25,82.2848944 L21.0006812,82.2848944 C20.3278762,82.2848944 19.8470398,81.6338615 20.0449022,80.9908086 L24.3525945,66.9908086 C24.4816996,66.571217 24.8693687,66.2848944 25.3083735,66.2848944 L30,66.2848944 L30,61.2848944 C30,60.7326097 30.4477153,60.2848944 31,60.2848944 L37,60.2848944 C37.5522847,60.2848944 38,60.7326097 38,61.2848944 L38,66.2848944 L64,66.2848944 L64,59.2848944 C64,58.7326097 64.4477153,58.2848944 65,58.2848944 L72,58.2848944 L72,53.2848944 C72,52.7326097 72.4477153,52.2848944 73,52.2848944 L79,52.2848944 C79.5522847,52.2848944 80,52.7326097 80,53.2848944 L80,58.2848944 L106.692308,58.2848944 C107.131313,58.2848944 107.518982,58.571217 107.648087,58.9908086 L111.955779,72.9908086 C111.98886,73.0983225 112.002969,73.2060595 112.000381,73.3109396 Z M109.63108,72.2848944 L105.953733,60.3335158 L79,60.3335158 C78.4477153,60.3335158 78,59.8858006 78,59.3335158 L78,54.3335158 L74,54.3335158 L74,63.2848944 L79,63.2848944 C79.5522847,63.2848944 80,63.7326097 80,64.2848944 C80,64.293021 79.9999031,64.3011249 79.9997103,64.3092051 C79.9999031,64.3172853 80,64.3253893 80,64.3335158 C80,64.8858006 79.5522847,65.3335158 79,65.3335158 L73,65.3335158 C72.4477153,65.3335158 72,64.8858006 72,64.3335158 L72,60.3335158 L66,60.3335158 L66,67.2476369 C66.0004528,67.2600001 66.0006812,67.2724206 66.0006812,67.2848944 L66.0006812,72.2848944 L109.63108,72.2848944 Z M13.196577,67.6356356 L15.5075413,67.6356356 C16.059826,67.6356356 16.5075413,68.0833509 16.5075413,68.6356356 C16.5075413,69.1879204 16.059826,69.6356356 15.5075413,69.6356356 L13.1725618,69.6356356 L13.1566464,70.9610793 C13.1500153,71.5133242 12.6969567,71.9556316 12.1447118,71.9490005 C11.5924668,71.9423693 11.1501594,71.4893108 11.1567906,70.9370658 L11.1724176,69.6356356 L9,69.6356356 C8.44771525,69.6356356 8,69.1879204 8,68.6356356 C8,68.0833509 8.44771525,67.6356356 9,67.6356356 L11.1964328,67.6356356 L11.2127961,66.2728877 C11.2194272,65.7206428 11.6724858,65.2783354 12.2247307,65.2849665 C12.7769757,65.2915977 13.2192831,65.7446562 13.2126519,66.2969012 L13.196577,67.6356356 Z M7,124.284894 L20,124.284894 C20.5522847,124.284894 21,124.73261 21,125.284894 C21,125.837179 20.5522847,126.284894 20,126.284894 L7,126.284894 C6.44771525,126.284894 6,125.837179 6,125.284894 C6,124.73261 6.44771525,124.284894 7,124.284894 Z M1,115.284894 L7,115.284894 C7.55228475,115.284894 8,115.73261 8,116.284894 C8,116.837179 7.55228475,117.284894 7,117.284894 L1,117.284894 C0.44771525,117.284894 6.76353751e-17,116.837179 0,116.284894 C-6.76353751e-17,115.73261 0.44771525,115.284894 1,115.284894 Z M19,115.284894 L45,115.284894 C45.5522847,115.284894 46,115.73261 46,116.284894 C46,116.837179 45.5522847,117.284894 45,117.284894 L19,117.284894 C18.4477153,117.284894 18,116.837179 18,116.284894 C18,115.73261 18.4477153,115.284894 19,115.284894 Z M121,106.284894 L125,106.284894 C125.552285,106.284894 126,106.73261 126,107.284894 C126,107.837179 125.552285,108.284894 125,108.284894 L121,108.284894 C120.447715,108.284894 120,107.837179 120,107.284894 C120,106.73261 120.447715,106.284894 121,106.284894 Z M39.3094269,106.284894 L111.309427,106.284894 C111.861712,106.284894 112.309427,106.73261 112.309427,107.284894 C112.309427,107.837179 111.861712,108.284894 111.309427,108.284894 L39.3094269,108.284894 C38.7571421,108.284894 38.3094269,107.837179 38.3094269,107.284894 C38.3094269,106.73261 38.7571421,106.284894 39.3094269,106.284894 Z M52,115.284894 L78,115.284894 C78.5522847,115.284894 79,115.73261 79,116.284894 C79,116.837179 78.5522847,117.284894 78,117.284894 L52,117.284894 C51.4477153,117.284894 51,116.837179 51,116.284894 C51,115.73261 51.4477153,115.284894 52,115.284894 Z M84,115.284894 L86,115.284894 C86.5522847,115.284894 87,115.73261 87,116.284894 C87,116.837179 86.5522847,117.284894 86,117.284894 L84,117.284894 C83.4477153,117.284894 83,116.837179 83,116.284894 C83,115.73261 83.4477153,115.284894 84,115.284894 Z M97,115.284894 L115,115.284894 C115.552285,115.284894 116,115.73261 116,116.284894 C116,116.837179 115.552285,117.284894 115,117.284894 L97,117.284894 C96.4477153,117.284894 96,116.837179 96,116.284894 C96,115.73261 96.4477153,115.284894 97,115.284894 Z M25,124.284894 L88,124.284894 C88.5522847,124.284894 89,124.73261 89,125.284894 C89,125.837179 88.5522847,126.284894 88,126.284894 L25,126.284894 C24.4477153,126.284894 24,125.837179 24,125.284894 C24,124.73261 24.4477153,124.284894 25,124.284894 Z M93,124.284894 L123,124.284894 C123.552285,124.284894 124,124.73261 124,125.284894 C124,125.837179 123.552285,126.284894 123,126.284894 L93,126.284894 C92.4477153,126.284894 92,125.837179 92,125.284894 C92,124.73261 92.4477153,124.284894 93,124.284894 Z M8,106.284894 L30,106.284894 C30.5522847,106.284894 31,106.73261 31,107.284894 C31,107.837179 30.5522847,108.284894 30,108.284894 L8,108.284894 C7.44771525,108.284894 7,107.837179 7,107.284894 C7,106.73261 7.44771525,106.284894 8,106.284894 Z M109,52.5162381 C108.447715,52.5162381 108,52.0685229 108,51.5162381 C108,50.9639534 108.447715,50.5162381 109,50.5162381 L117.092023,50.5162381 C117.644308,50.5162381 118.092023,50.9639534 118.092023,51.5162381 C118.092023,52.0685229 117.644308,52.5162381 117.092023,52.5162381 L109,52.5162381 Z M100,44 C99.4477153,44 99,43.5522847 99,43 C99,42.4477153 99.4477153,42 100,42 L112.94607,42 C113.498355,42 113.94607,42.4477153 113.94607,43 C113.94607,43.5522847 113.498355,44 112.94607,44 L100,44 Z M63.7992783,44 C63.3578491,44 63,43.5522847 63,43 C63,42.4477153 63.3578491,42 63.7992783,42 L74.1467915,42 C74.5882207,42 74.9460698,42.4477153 74.9460698,43 C74.9460698,43.5522847 74.5882207,44 74.1467915,44 L63.7992783,44 Z M117,85.5162381 C116.447715,85.5162381 116,85.0685229 116,84.5162381 C116,83.9639534 116.447715,83.5162381 117,83.5162381 L119.393816,83.5162381 C119.946101,83.5162381 120.393816,83.9639534 120.393816,84.5162381 C120.393816,85.0685229 119.946101,85.5162381 119.393816,85.5162381 L117,85.5162381 Z M19.1839403,25.6689395 L18.9349348,25.1732936 L18.4484106,23.9680437 L18.058642,22.7163076 L17.76972,21.4255684 L17.5851079,20.1036736 L17.5076123,18.7587824 L17.5393592,17.3993108 L17.6817755,16.0338759 L17.9355749,14.6712397 L18.3007499,13.3202526 L18.7765663,11.9897966 L19.3615639,10.6887295 L20.0535599,9.425829 L20.8496571,8.20973772 L21.7462551,7.04890887 L22.7390655,5.9515527 L23.8231312,4.92558392 L24.9928486,3.97857012 L26.2419941,3.11768148 L27.5637534,2.34964177 L28.9507552,1.68068107 L30.3951082,1.11649017 L31.8884418,0.662177157 L33.4219497,0.322226243 L34.9864381,0.100459255 L36.5723763,0 L38.1699511,0.023241878 L39.7691245,0.171819058 L41.3596938,0.446581608 L42.9313555,0.847574964 L44.473771,1.37402417 L45.9766352,2.02432333 L47.4297462,2.79603067 L48.8230774,3.68586972 L50.1468496,4.68973694 L51.3916033,5.80271602 L52.5482706,7.01909925 L53.6082448,8.33241583 L54.0827306,9.02605045 L54.5664184,8.52910856 L55.6326318,7.59847982 L56.7662888,6.76000798 L57.9592211,6.0177215 L59.2030079,5.37495191 L60.4890393,4.83432784 L61.8085788,4.39777468 L63.1528233,4.06651942 L64.5129611,3.84109982 L65.8802273,3.72137755 L67.2459565,3.70655476 L68.6016336,3.79519363 L69.9389408,3.98523869 L71.2498032,4.2740415 L72.5264312,4.65838758 L73.7613607,5.13452528 L74.9474902,5.69819643 L76.0781155,6.34466859 L77.1469628,7.0687687 L78.1482173,7.86491794 L79.0765516,8.72716778 L79.9271497,9.64923691 L80.6957305,10.6245492 L81.3785674,11.6462726 L81.9725075,12.7073588 L82.474987,13.8005847 L82.8840459,14.9185943 L83.1983392,16.0539428 L83.4171463,17.1991426 L83.5403768,18.3467103 L83.5685725,19.4892171 L83.5029054,20.6193396 L83.3451702,21.7299125 L83.097771,22.8139826 L82.7637018,23.8648614 L82.3465202,24.8761772 L81.8503149,25.8419246 L81.2796661,26.7565092 L80.6396014,27.6147889 L79.9355467,28.4121078 L79.1732736,29.144324 L78.358845,29.8078316 L77.4985598,30.3995742 L76.5988981,30.9170531 L75.6664668,31.3583296 L74.7079482,31.7220212 L73.7300503,32.0072942 L72.7394597,32.2138514 L71.7427981,32.3419177 L70.7465808,32.3922217 L69.7571787,32.3659765 L68.7807827,32.2648576 L67.8233711,32.0909794 L66.8906791,31.8468715 L65.9881711,31.5354523 L65.1210155,31.1600035 L64.2940614,30.7241425 L63.5118179,30.2317954 L62.778435,29.687169 L62.0976868,29.0947229 L61.4729564,28.4591413 L60.9072222,27.7853044 L60.4030456,27.0782608 L59.9625603,26.3431976 L59.5874621,25.585412 L59.2790005,24.8102809 L59.0379709,24.0232295 L58.8647084,23.2296989 L58.7590837,22.4351116 L58.7205009,21.6448346 L58.747899,20.8641413 L58.8397571,20.0981712 L58.994104,19.3518877 L59.2085341,18.6300369 L59.4802284,17.9371055 L59.8059819,17.2772817 L60.1822368,16.6544188 L60.6051207,16.0720032 L61.0704895,15.5331283 L61.5739721,15.0404741 L62.1110186,14.5962937 L62.676947,14.2024061 L63.2669906,13.8601952 L63.8763421,13.5706147 L64.5001967,13.3341973 L65.1337908,13.1510687 L65.7724378,13.0209636 L66.4115605,12.9432455 L67.0467199,12.9169274 L67.6736408,12.9406939 L68.2882344,13.0129243 L68.8866173,13.1317157 L69.465129,13.2949067 L70.0203455,13.5001005 L70.5490923,13.7446876 L71.0484533,14.0258683 C71.5936335,14.3373892 71.7830518,15.0318826 71.4715309,15.5770627 C71.16001,16.1222429 70.4655166,16.3116612 69.9203365,16.0001403 L69.5013773,15.7607432 L69.1361562,15.5930563 L68.7494701,15.4513233 L68.3436215,15.3379519 L67.9211681,15.2551522 L67.4848987,15.2049114 L67.0378066,15.1889718 L66.5830613,15.2088129 L66.1239788,15.2656359 L65.6639905,15.3603527 L65.2066129,15.493578 L64.7554161,15.6656254 L64.3139945,15.8765064 L63.8859376,16.1259327 L63.474804,16.4133213 L63.0840962,16.7378008 L62.7172388,17.0982197 L62.3775588,17.4931553 L62.0682677,17.9209217 L61.7924454,18.3795779 L61.5530253,18.866934 L61.3527787,19.3805569 L61.194299,19.9177748 L61.0799842,20.4756808 L61.012017,21.0511377 L60.9923435,21.6407838 L61.0226487,22.2410409 L61.1043315,22.8481266 L61.2384783,23.4580697 L61.4258376,24.0667313 L61.6667947,24.6698296 L61.9613505,25.2629697 L62.3091029,25.8416783 L62.709232,26.4014401 L63.160491,26.9377384 L63.6612017,27.4460965 L64.2092551,27.9221205 L64.8021178,28.3615418 L65.436843,28.7602595 L66.1100866,29.1143811 L66.8181277,29.4202611 L67.5568935,29.6745383 L68.321988,29.8741692 L69.1087236,30.0164588 L69.9121568,30.0990881 L70.7271254,30.1201377 L71.5482881,30.0781072 L72.3701662,29.9719308 L73.1871852,29.8009884 L73.9937183,29.5651124 L74.7841283,29.2645905 L75.5528096,28.9001636 L76.2942286,28.4730204 L77.0029622,27.9847888 L77.6737339,27.4375232 L78.3014469,26.8336906 L78.8812155,26.1761548 L79.4083925,25.468159 L79.8785954,24.713309 L80.2877299,23.9155557 L80.6320132,23.0791787 L80.9079959,22.208769 L81.1125847,21.3092132 L81.2430655,20.3856753 L81.2971276,19.4435784 L81.2728883,18.4885832 L81.1689183,17.5265639 L80.9842666,16.5635801 L80.7184842,15.6058441 L80.3716462,14.6596851 L79.9443696,13.7315076 L79.4378285,12.8277473 L78.8537636,11.9548234 L78.1944867,11.1190885 L77.4628792,10.3267772 L76.6623852,9.58395362 L75.7969984,8.89645996 L74.8712431,8.26986511 L73.8901498,7.70941551 L72.8592261,7.21998819 L71.7844218,6.80604661 L70.6720906,6.47159997 L69.5289467,6.22016615 L68.362019,6.05473896 L67.1786016,5.9777597 L65.9862019,5.99109366 L64.7924872,6.09601143 L63.6052289,6.29317551 L62.4322472,6.58263214 L61.2813553,6.96380843 L60.1603035,7.43551469 L59.0767261,7.99595177 L58.0380886,8.6427231 L57.0516385,9.37285087 L56.1243591,10.1827959 L55.2629255,11.0684803 L54.4736652,12.0253126 L53.7625216,13.0482143 L53.1350194,14.1316471 L52.5962342,15.269641 C52.3257901,15.8363213 51.6471666,16.0764682 51.0804862,15.8060241 C50.5138059,15.53558 50.273659,14.8569565 50.5441031,14.2902762 L51.1268937,13.0691145 L51.848969,11.8235043 L52.5513296,10.8140547 L51.786739,9.69034361 L50.8429976,8.52040728 L49.8135368,7.43722789 L48.7059717,6.4463943 L47.5283125,5.55285049 L46.2889126,4.76087108 L44.9964159,4.07404018 L43.6597003,3.49523387 L42.2878213,3.02660654 L40.8899521,2.66958169 L39.4753235,2.42484732 L38.0531627,2.2923562 L36.6326316,2.27133143 L35.2227653,2.36027715 L33.8324117,2.55699472 L32.4701721,2.85860409 L31.1443439,3.26157046 L29.8628659,3.76173587 L28.6332664,4.35435557 L27.4626156,5.03413876 L26.3574806,5.79529345 L25.3238868,6.63157482 L24.3672823,7.53633682 L23.4925088,8.50258626 L22.7037771,9.52303903 L22.0046487,10.5901776 L21.3980229,11.6963097 L20.88613,12.8336263 L20.4705294,13.9942602 L20.1521144,15.1703422 L19.9311215,16.3540565 L19.8071444,17.5376931 L19.7791532,18.7136973 L19.8455167,19.874716 L20.0040283,21.013641 L20.2519342,22.1236481 L20.5859645,23.1982326 L21.0023647,24.2312418 L21.4969295,25.2169042 L22.0650365,26.1498557 L22.7016815,27.0251634 L23.4015142,27.8383466 L23.6323102,28.0660009 L23.8424319,28.2221779 L24.6905734,28.9576981 C24.7786391,29.0340699 24.8521156,29.1210107 24.9107525,29.2149994 L24.9678309,29.2627953 L25.8222178,29.8675266 L26.7156765,30.3970938 L27.6416964,30.8495283 L28.5936574,31.223398 L29.5648741,31.5178124 L30.5486405,31.7324243 L31.538276,31.867428 L32.5271713,31.9235534 L33.5088345,31.9020566 L34.4769364,31.8047053 L35.4253551,31.6337613 L36.3482187,31.391958 L37.2399459,31.0824742 L38.0952846,30.7089041 L38.9093468,30.2752241 L39.6776405,29.7857559 L40.3960981,29.245127 L41.0610998,28.6582293 L41.6694938,28.0301747 L42.2186107,27.3662502 L42.7062743,26.6718719 L43.1308062,25.9525382 L43.4910268,25.2137839 L43.7862502,24.4611351 L44.0162759,23.700065 L44.1813743,22.9359529 L44.2822701,22.1740448 L44.3201208,21.4194177 L44.2964932,20.6769474 L44.2133369,19.9512796 L44.0729573,19.2468048 L43.877986,18.5676373 L43.6313527,17.917597 L43.3362555,17.3001942 L42.9961328,16.7186179 L42.6146345,16.1757247 L42.1955948,15.674031 L41.7430044,15.2157056 L41.2609837,14.8025636 L40.7537549,14.4360615 L40.2256142,14.1172934 L39.6809033,13.8469885 L39.1239803,13.6255097 L38.5591888,13.4528547 L37.9908278,13.3286587 L37.4231195,13.2521997 L36.8601782,13.2224069 L36.305978,13.2378718 L35.764322,13.2968623 L35.238812,13.3973404 L34.7328195,13.5369825 L34.2494588,13.7132034 L33.7915621,13.923183 L33.3616575,14.1638952 L32.96195,14.4321401 L32.5247164,14.7857018 C32.0364667,15.1805167 31.3206013,15.1047729 30.9257863,14.6165232 C30.5309713,14.1282735 30.6067152,13.4124081 31.0949649,13.0175931 L31.6062078,12.608996 L32.1578804,12.2370145 L32.7471684,11.9054534 L33.3709132,11.6179289 L34.0256233,11.3778383 L34.7074882,11.1883307 L35.4123951,11.0522773 L36.1359477,10.9722421 L36.8734891,10.950453 L37.6201268,10.9887742 L38.370762,11.0886801 L39.120121,11.2512299 L39.8627908,11.4770463 L40.5932573,11.7662951 L41.3059463,12.1186696 L41.9952676,12.533378 L42.6556609,13.0091357 L43.2816432,13.5441624 L43.8678569,14.1361843 L44.409119,14.7824417 L44.9004677,15.4797022 L45.3372093,16.2242796 L45.714961,17.012057 L46.0296919,17.838515 L46.2777595,18.6987639 L46.4559424,19.5875787 L46.5614686,20.499437 L46.5920396,21.428558 L46.54585,22.3689439 L46.4216037,23.3144207 L46.2185254,24.2586803 L45.9363694,25.1953216 L45.5754252,26.1178926 L45.1365193,27.0199313 L44.6210152,27.8950065 L44.0308105,28.7367589 L43.3683311,29.5389413 L42.6365231,30.2954587 L41.8388422,31.0004081 L40.9792397,31.6481184 L40.0621474,32.2331891 L39.0924575,32.7505289 L38.0755018,33.1953941 L37.0170261,33.5634247 L35.9231627,33.8506814 L34.8003998,34.0536793 L33.6555469,34.1694216 L32.4956979,34.1954306 L31.3281911,34.1297766 L30.1605653,33.9711047 L29.0005135,33.7186578 L27.8558338,33.3722973 L26.7343767,32.9325193 L25.6439914,32.4004663 L24.5924681,31.7779348 L23.5874807,31.0673774 L22.6365269,30.2718987 L22.1528728,29.7953148 L21.5988674,29.3831051 L20.7374027,28.8411568 L19.8436223,28.3720818 L18.9236938,27.9777584 L17.9838607,27.6595481 L17.0303982,27.418295 L16.06957,27.254329 L15.1075862,27.1674728 L14.1505624,27.1570526 L13.2044805,27.2219121 L12.2751518,27.360429 L11.3681823,27.5705354 L10.4889399,27.8497396 L9.64252493,28.1951505 L8.8337425,28.6035039 L8.06707816,29.0711896 L7.34667563,29.5942811 L6.67631727,30.1685649 L6.05940696,30.7895717 L5.49895541,31.4526078 L4.99756773,32.1527872 L4.55743337,32.8850643 L4.18031825,33.6442671 L3.86755924,34.4251309 L3.62006094,35.2223317 L3.43829485,36.030521 L3.32230108,36.8443596 L3.27169255,37.6585519 L3.28566185,38.4678801 L3.36299088,39.2672378 L3.50206314,40.0516631 L3.70087887,40.8163702 L3.95707285,41.5567807 L4.2679349,42.2685528 L4.63043294,42.9476087 L5.0412384,43.5901602 L5.49675384,44.1927314 L5.99314256,44.7521799 L6.52635985,45.2657136 L7.09218565,45.7309059 L7.68625829,46.1457071 L8.30410892,46.5084523 L8.9411963,46.8178668 L9.59294158,47.073067 L10.2547627,47.2735592 L10.9221079,47.4192344 L11.5904885,47.5103598 L12.2555098,47.5475687 L12.9129004,47.5318462 L13.5585398,47.4645131 L14.1884838,47.3472085 L14.7989869,47.181869 L15.3865236,46.9707082 L15.9478059,46.7161935 L16.4797999,46.4210231 L16.9797384,46.0881024 L17.445133,45.720519 L17.8737831,45.3215189 L18.2637831,44.8944818 L18.6135282,44.4428962 L18.9217184,43.9703357 L19.1873604,43.4804338 L19.4097689,42.9768602 L19.5885651,42.4632962 L19.723675,41.9434105 L19.8153251,41.4208352 L19.8640362,40.8991421 L19.8706169,40.3818185 L19.8361531,39.8722444 L19.7619975,39.3736696 L19.6497559,38.889192 L19.501272,38.4217364 L19.3186106,37.974035 L19.1040381,37.5486092 L18.860002,37.1477529 L18.5324326,36.7026141 C18.160274,36.1968824 18.2685564,35.4852116 18.7742882,35.113053 C19.2800199,34.7408944 19.9916907,34.8491768 20.3638493,35.3549085 L20.7422404,35.8752191 L21.0817637,36.4302331 L21.3792384,37.0169712 L21.6317025,37.6321713 L21.8364384,38.2723043 L21.9909979,38.9335917 L22.0932253,39.612026 L22.1412804,40.3033935 L22.1336591,41.0032986 L22.0692126,41.7071918 L21.9471643,42.4103988 L21.767124,43.1081516 L21.5290998,43.7956221 L21.2335064,44.4679568 L20.8811707,45.120312 L20.4733338,45.747891 L20.0116486,46.3459803 L19.4981754,46.9099871 L18.9353724,47.4354749 L18.3260833,47.918199 L17.6735219,48.3541406 L16.9812529,48.7395385 L16.2531703,49.0709196 L15.4934732,49.345127 L14.7066393,49.5593445 L13.8973964,49.7111206 L13.0706923,49.7983877 L12.2316636,49.81948 L11.3856031,49.7731484 L10.5379267,49.6585725 L9.6941389,49.4753698 L8.8597988,49.2236033 L8.04048484,48.9037854 L7.24175973,48.5168797 L6.46913517,48.0643009 L5.72803648,47.5479111 L5.02376735,46.9700143 L4.36147478,46.3333486 L3.74611432,45.641075 L3.18241581,44.8967643 L2.67484973,44.1043813 L2.22759433,43.268266 L1.8445038,42.3931126 L1.52907755,41.4839454 L1.28443102,40.5460923 L1.11326812,39.5851559 L1.01785566,38.6069813 L1,37.6176218 L1.06102628,36.6233026 L1.20176043,35.6303814 L1.4225144,34.6453081 L1.72307473,33.6745814 L2.10269494,32.7247053 L2.56009167,31.8021439 L3.09344509,30.9132753 L3.70040343,30.0643461 L4.37809179,29.2614253 L5.12312525,28.5103596 L5.93162616,27.8167296 L6.79924535,27.185808 L7.72118722,26.6225194 L8.69223826,26.1314029 L9.70679876,25.7165779 L10.7589174,25.3817118 L11.8423281,25.1299922 L12.9504895,24.9641017 L14.0766253,24.8861963 L15.213767,24.8978874 L16.3547972,25.0002273 L17.4924937,25.1936979 L18.619575,25.4782032 L19.1839403,25.6689395 Z M41.7033752,38.5842652 L42.0695502,38.6627429 L42.3632592,38.6975028 L42.6622902,38.7083274 L42.9648984,38.694649 L43.2692684,38.6560297 L43.5735199,38.5921716 L43.8757162,38.502927 L44.1738742,38.3883076 L44.4659769,38.2484937 L44.749988,38.083842 L45.0238674,37.8948909 L45.2855894,37.682365 L45.5331605,37.4471763 L45.7646389,37.1904231 L45.9781534,36.9133869 L46.1719227,36.6175264 L46.3442732,36.304469 L46.4936569,35.9760002 C46.726367,35.4751365 47.3210461,35.2577551 47.8219098,35.4904652 C48.3227735,35.7231753 48.5401549,36.3178544 48.3074448,36.8187181 L48.1231845,37.2153029 L47.8758796,37.6618677 L47.5969198,38.085427 L47.2883327,38.4836346 L46.9523001,38.8543118 L46.5911473,39.1954574 L46.2073312,39.5052574 L45.803429,39.7820944 L45.3821252,40.0245573 L44.9461983,40.23145 L44.4985067,40.4018004 L44.0419731,40.5348688 L43.5795672,40.6301554 L43.1142878,40.6874069 L42.6491422,40.7066216 L42.1871254,40.688053 L41.7311969,40.6322103 L41.2842572,40.5398572 C40.7442354,40.4241209 40.400284,39.892524 40.5160202,39.3525021 C40.6317565,38.8124803 41.1633534,38.4685289 41.7033752,38.5842652 Z M99.8706433,18.9778096 L100.022643,19.1010276 L100.119257,19.1627365 L100.222395,19.2172808 L100.331683,19.2641222 L100.44669,19.3027255 L100.566918,19.3325658 L100.691802,19.3531373 L100.820702,19.3639643 L100.952904,19.3646126 L101.087624,19.3547021 L101.224009,19.3339186 L101.361144,19.3020246 L101.498066,19.2588693 L101.633768,19.2043965 L101.767217,19.1386507 L101.897363,19.0617814 L102.023155,18.9740448 L102.143553,18.8758038 C102.577828,18.5345945 103.206482,18.6100392 103.547691,19.0443141 C103.888901,19.4785891 103.813456,20.1072432 103.379181,20.4484524 L103.197524,20.5911803 L102.945832,20.763236 L102.683304,20.9148758 L102.411563,21.045366 L102.132277,21.1540855 L101.847147,21.2405279 L101.557906,21.3043054 L101.266312,21.3451528 L100.974146,21.3629319 L100.6832,21.357637 L100.39527,21.3293999 L100.112152,21.2784957 L99.8356235,21.2053471 L99.5674342,21.1105289 L99.3092908,20.9947705 L99.0628395,20.8589554 L98.8296493,20.7041196 L98.611193,20.5314457 C98.1821683,20.1836581 98.1163126,19.5539272 98.4641001,19.1249025 C98.8118877,18.6958777 99.4416186,18.630022 99.8706433,18.9778096 Z M74,102.40561 C74,102.957895 73.5522847,103.40561 73,103.40561 C72.4477153,103.40561 72,102.957895 72,102.40561 L72,95.3335158 C72,94.7812311 72.4477153,94.3335158 73,94.3335158 L78,94.3335158 C78.5522847,94.3335158 79,94.7812311 79,95.3335158 C79,95.8858006 78.5522847,96.3335158 78,96.3335158 L74,96.3335158 L74,102.40561 Z M87,96.3335158 L87,98.3335158 C87,98.8858006 86.5522847,99.3335158 86,99.3335158 C85.4477153,99.3335158 85,98.8858006 85,98.3335158 L85,95.3335158 C85,94.7812311 85.4477153,94.3335158 86,94.3335158 L89,94.3335158 C89.5522847,94.3335158 90,94.7812311 90,95.3335158 C90,95.8858006 89.5522847,96.3335158 89,96.3335158 L87,96.3335158 Z M99,96.3335158 L99,98.3335158 C99,98.8858006 98.5522847,99.3335158 98,99.3335158 C97.4477153,99.3335158 97,98.8858006 97,98.3335158 L97,95.3335158 C97,94.7812311 97.4477153,94.3335158 98,94.3335158 L101,94.3335158 C101.552285,94.3335158 102,94.7812311 102,95.3335158 C102,95.8858006 101.552285,96.3335158 101,96.3335158 L99,96.3335158 Z M87,88.3335158 L87,90.3335158 C87,90.8858006 86.5522847,91.3335158 86,91.3335158 C85.4477153,91.3335158 85,90.8858006 85,90.3335158 L85,87.3335158 C85,86.7812311 85.4477153,86.3335158 86,86.3335158 L89,86.3335158 C89.5522847,86.3335158 90,86.7812311 90,87.3335158 C90,87.8858006 89.5522847,88.3335158 89,88.3335158 L87,88.3335158 Z M74,88.3335158 L74,90.3335158 C74,90.8858006 73.5522847,91.3335158 73,91.3335158 C72.4477153,91.3335158 72,90.8858006 72,90.3335158 L72,87.3335158 C72,86.7812311 72.4477153,86.3335158 73,86.3335158 L76,86.3335158 C76.5522847,86.3335158 77,86.7812311 77,87.3335158 C77,87.8858006 76.5522847,88.3335158 76,88.3335158 L74,88.3335158 Z M99,88.3335158 L99,90.3335158 C99,90.8858006 98.5522847,91.3335158 98,91.3335158 C97.4477153,91.3335158 97,90.8858006 97,90.3335158 L97,87.3335158 C97,86.7812311 97.4477153,86.3335158 98,86.3335158 L101,86.3335158 C101.552285,86.3335158 102,86.7812311 102,87.3335158 C102,87.8858006 101.552285,88.3335158 101,88.3335158 L99,88.3335158 Z M87,80.3335158 L87,82.3335158 C87,82.8858006 86.5522847,83.3335158 86,83.3335158 C85.4477153,83.3335158 85,82.8858006 85,82.3335158 L85,79.3335158 C85,78.7812311 85.4477153,78.3335158 86,78.3335158 L89,78.3335158 C89.5522847,78.3335158 90,78.7812311 90,79.3335158 C90,79.8858006 89.5522847,80.3335158 89,80.3335158 L87,80.3335158 Z M74,80.3335158 L74,82.3335158 C74,82.8858006 73.5522847,83.3335158 73,83.3335158 C72.4477153,83.3335158 72,82.8858006 72,82.3335158 L72,79.3335158 C72,78.7812311 72.4477153,78.3335158 73,78.3335158 L76,78.3335158 C76.5522847,78.3335158 77,78.7812311 77,79.3335158 C77,79.8858006 76.5522847,80.3335158 76,80.3335158 L74,80.3335158 Z M99,80.3335158 L99,82.3335158 C99,82.8858006 98.5522847,83.3335158 98,83.3335158 C97.4477153,83.3335158 97,82.8858006 97,82.3335158 L97,79.3335158 C97,78.7812311 97.4477153,78.3335158 98,78.3335158 L101,78.3335158 C101.552285,78.3335158 102,78.7812311 102,79.3335158 C102,79.8858006 101.552285,80.3335158 101,80.3335158 L99,80.3335158 Z M34,96.3335158 L34,98.3335158 C34,98.8858006 33.5522847,99.3335158 33,99.3335158 C32.4477153,99.3335158 32,98.8858006 32,98.3335158 L32,95.3335158 C32,94.7812311 32.4477153,94.3335158 33,94.3335158 L36,94.3335158 C36.5522847,94.3335158 37,94.7812311 37,95.3335158 C37,95.8858006 36.5522847,96.3335158 36,96.3335158 L34,96.3335158 Z M45,103.191398 C45,103.743683 44.5522847,104.191398 44,104.191398 C43.4477153,104.191398 43,103.743683 43,103.191398 L43,95.3335158 C43,94.7812311 43.4477153,94.3335158 44,94.3335158 L49,94.3335158 C49.5522847,94.3335158 50,94.7812311 50,95.3335158 C50,95.8858006 49.5522847,96.3335158 49,96.3335158 L45,96.3335158 L45,103.191398 Z M57,96.3335158 L57,98.3335158 C57,98.8858006 56.5522847,99.3335158 56,99.3335158 C55.4477153,99.3335158 55,98.8858006 55,98.3335158 L55,95.3335158 C55,94.7812311 55.4477153,94.3335158 56,94.3335158 L59,94.3335158 C59.5522847,94.3335158 60,94.7812311 60,95.3335158 C60,95.8858006 59.5522847,96.3335158 59,96.3335158 L57,96.3335158 Z M34,88.3335158 L34,90.3335158 C34,90.8858006 33.5522847,91.3335158 33,91.3335158 C32.4477153,91.3335158 32,90.8858006 32,90.3335158 L32,87.3335158 C32,86.7812311 32.4477153,86.3335158 33,86.3335158 L36,86.3335158 C36.5522847,86.3335158 37,86.7812311 37,87.3335158 C37,87.8858006 36.5522847,88.3335158 36,88.3335158 L34,88.3335158 Z M45,88.3335158 L45,90.3335158 C45,90.8858006 44.5522847,91.3335158 44,91.3335158 C43.4477153,91.3335158 43,90.8858006 43,90.3335158 L43,87.3335158 C43,86.7812311 43.4477153,86.3335158 44,86.3335158 L47,86.3335158 C47.5522847,86.3335158 48,86.7812311 48,87.3335158 C48,87.8858006 47.5522847,88.3335158 47,88.3335158 L45,88.3335158 Z M57,88.3335158 L57,90.3335158 C57,90.8858006 56.5522847,91.3335158 56,91.3335158 C55.4477153,91.3335158 55,90.8858006 55,90.3335158 L55,87.3335158 C55,86.7812311 55.4477153,86.3335158 56,86.3335158 L59,86.3335158 C59.5522847,86.3335158 60,86.7812311 60,87.3335158 C60,87.8858006 59.5522847,88.3335158 59,88.3335158 L57,88.3335158 Z" id="Combined-Shape" fill="url(#linearGradient-1)"></path>
    </g>
</svg>