<?xml version="1.0" encoding="UTF-8"?>
<svg width="126px" height="126px" viewBox="0 0 126 126" version="1.1" xmlns="http://www.w3.org/2000/svg" xmlns:xlink="http://www.w3.org/1999/xlink">
    <!-- Generator: Sketch 52.6 (67491) - http://www.bohemiancoding.com/sketch -->
    <title>pricing_enterprise</title>
    <desc>Created with Sketch.</desc>
    <defs>
        <linearGradient x1="100%" y1="21.5072813%" x2="-71.5609716%" y2="26.0903505%" id="linearGradient-1">
            <stop stop-color="#001F4A" offset="0%"></stop>
            <stop stop-color="#00889C" offset="100%"></stop>
        </linearGradient>
    </defs>
    <g id="pricing_enterprise" stroke="none" stroke-width="1" fill="none" fill-rule="evenodd">
        <path d="M28.9812192,15.2431235 L29.1225493,15.3169182 C29.6121152,15.5725423 29.8017625,16.1766382 29.5461384,16.6662041 C29.2905143,17.1557699 28.6864184,17.3454172 28.1968525,17.0897931 L27.5295008,16.737557 L26.8398147,16.4429108 L26.1323633,16.2068789 L25.4117702,16.0301216 L24.6826897,15.9129336 L23.9497813,15.8552419 L23.2176829,15.8566073 L22.4909839,15.9162254 L21.7741965,16.0329316 L21.0717268,16.2052071 L20.3878456,16.4311884 L19.7266592,16.7086797 L19.0920807,17.0351679 L18.4878028,17.4078409 L17.9172713,17.8236087 L17.3836613,18.279127 L16.8898547,18.7708237 L16.4384212,19.294927 L16.0316015,19.8474962 L15.6712934,20.4244531 L15.3590424,21.0216152 L15.0960335,21.6347296 L14.8830891,22.2595073 L14.720668,22.8916571 L14.6088698,23.5269195 L14.547442,24.1610996 L14.5357901,24.7900983 L14.5729919,25.4099418 L14.6578139,26.0168091 L14.7887304,26.6070567 L14.963945,27.1772396 L15.181413,27.7241307 L15.4388652,28.2447349 L15.7338322,28.7363016 L16.0636678,29.1963331 L16.4255725,29.6225904 L16.8166152,30.013097 L17.233754,30.3661404 L17.6738552,30.6802727 L18.1337113,30.9543102 L18.610058,31.1873329 L19.0995901,31.3786837 L19.5989777,31.5279683 L20.1048821,31.635054 L20.6139729,31.7000699 L21.1229454,31.7234055 L21.628539,31.7057089 L22.127557,31.6478841 L22.6168869,31.5510861 L23.0935213,31.4167143 L23.5545792,31.246404 L23.9973271,31.0420152 L24.4191997,30.8056189 L24.8178189,30.5394813 L25.1910128,30.2460457 L25.5368317,29.9279119 L25.8535627,29.587814 L26.139742,29.228597 L26.3941643,28.853191 L26.6158898,28.4645854 L26.8042482,28.0658019 L26.9588398,27.6598675 L27.0795336,27.2497873 L27.1664617,26.8385179 L27.2200119,26.4289421 L27.2408161,26.0238441 L27.2297367,25.6258872 L27.1878502,25.2375938 L27.1164289,24.861327 L27.0169208,24.4992764 L26.8909281,24.1534462 L26.7401857,23.8256469 L26.5665389,23.5174902 L26.3719232,23.2303872 L26.1583437,22.9655492 L25.9278576,22.7239903 L25.6825576,22.5065326 L25.4245588,22.3138114 L25.1559856,22.1462817 L24.8789625,22.0042232 L24.5956044,21.8877465 L24.3080085,21.7967964 L24.0182463,21.7311561 L23.728355,21.6904495 L23.4403283,21.6741434 L23.1561061,21.6815501 L22.8775635,21.7118295 L22.6064979,21.7639934 L22.3446162,21.8369097 L22.0935209,21.9293093 L21.8546959,22.0397942 L21.629493,22.1668484 L21.4191184,22.3088496 L21.2246208,22.4640841 L21.0468805,22.6307629 L20.8866002,22.8070391 L20.7442984,22.991028 L20.6203038,23.1808267 L20.5147539,23.3745357 L20.3988445,23.6459382 C20.1819308,24.1538426 19.5943496,24.3897372 19.0864452,24.1728235 C18.5785408,23.9559098 18.3426462,23.3683286 18.5595599,22.8604242 L18.7100653,22.5162757 L18.8903916,22.1803456 L19.1000631,21.8552099 L19.3383991,21.543439 L19.6045106,21.2475828 L19.8972974,20.9701552 L20.2154468,20.7136171 L20.5574327,20.4803582 L20.9215168,20.2726781 L21.3057509,20.0927656 L21.7079815,19.9426775 L22.125857,19.8243173 L22.5568369,19.7394121 L22.9982042,19.689491 L23.4470813,19.6758632 L23.9004478,19.6995968 L24.3551632,19.7615003 L24.8079913,19.8621055 L25.2556275,20.0016538 L25.6947292,20.180086 L26.121946,20.397036 L26.5339526,20.6518287 L26.9274796,20.9434825 L27.2993449,21.2707157 L27.6464825,21.6319569 L27.9659694,22.0253582 L28.2550494,22.448812 L28.5111546,22.8999683 L28.7319232,23.3762547 L28.9152148,23.8748958 L29.0591238,24.392934 L29.1619895,24.9272495 L29.2224052,25.4745797 L29.2392258,26.0315395 L29.2115737,26.5946398 L29.1388442,27.1603067 L29.0207102,27.7249006 L28.8571259,28.2847348 L28.6483299,28.8360952 L28.3948478,29.3752595 L28.0974937,29.8985171 L27.7573713,30.4021905 L27.3758731,30.8826554 L26.9546797,31.3363636 L26.495757,31.7598647 L26.0013518,32.1498295 L25.4739869,32.5030736 L24.9164527,32.8165816 L24.3317988,33.0875312 L23.7233216,33.3133185 L23.0945505,33.4915823 L22.4492312,33.6202288 L21.7913063,33.6974554 L21.1248925,33.7217733 L20.4542552,33.6920293 L19.78378,33.6074244 L19.117941,33.4675306 L18.4612672,33.2723041 L17.8183062,33.0220943 L17.1935871,32.7176493 L16.5915822,32.3601162 L16.016669,31.9510369 L15.4730935,31.4923396 L14.9649341,30.9863257 L14.4960692,30.4356529 L14.0701467,29.8433159 L13.6905568,29.2126228 L13.3604078,28.5471715 L13.082506,27.8508233 L12.8593374,27.1276766 L12.693053,26.3820396 L12.5854563,25.6184029 L12.5379929,24.8414127 L12.5517426,24.0558431 L12.6274119,23.2665693 L12.7653295,22.4785402 L12.9654426,21.6967515 L13.227314,20.9262181 L13.5501216,20.1719466 L13.9326588,19.4389074 L14.3733363,18.7320068 L14.8701855,18.0560583 L15.4208641,17.4157539 L16.0226624,16.8156352 L16.6725124,16.2600645 L17.3669988,15.7531949 L18.1023713,15.2989416 L18.8745601,14.9009524 L19.6791935,14.5625791 L20.5116177,14.2868485 L21.36692,14.0764352 L22.2399545,13.9336349 L23.1253706,13.8603387 L24.0176451,13.85801 L24.9111171,13.9276635 L25.8000255,14.0698474 L26.6785496,14.2846283 L27.0430011,14.405909 L27.0190151,13.898731 L27.0511888,12.8329699 L27.1681587,11.7792742 L27.3681099,10.744174 L27.6487109,9.73399439 L28.0071364,8.75481451 L28.4400944,7.81243013 L28.9438557,6.9123186 L29.5142861,6.05960717 L30.1468808,5.25904475 L30.836801,4.51497703 L31.5789109,3.8313251 L32.3678167,3.21156761 L33.1979055,2.65872623 L34.0633851,2.17535446 L34.9583231,1.76352968 L35.8766869,1.42484823 L36.8123827,1.16042347 L37.7592935,0.970886635 L38.7113176,0.856390444 L39.6624049,0.816615195 L40.6065934,0.850777364 L41.538044,0.957640525 L42.4510742,1.13552851 L43.3401905,1.38234073 L44.2001201,1.69556955 L45.0258403,2.07231969 L45.812607,2.50932965 L46.5559815,3.00299489 L47.2518559,3.54939314 L47.8964757,4.14431138 L48.4864619,4.78327475 L49.0188298,5.4615772 L49.4910059,6.17431385 L49.900842,6.91641496 L50.2466271,7.68268127 L50.5270952,8.46782059 L50.7414309,9.26648527 L50.8892705,10.0733103 L50.9707003,10.8829517 L50.9862509,11.6901242 L50.9368876,12.4896392 L50.8239977,13.2764406 L50.6493736,14.0456393 L50.4151935,14.7925464 L50.1239985,15.5127029 L49.778668,16.2019079 L49.382392,16.8562429 L48.938642,17.4720938 L48.4511414,18.0461697 L47.9238332,18.5755182 L47.3608492,19.0575383 L46.7664769,19.4899894 L46.145128,19.8709989 L45.5013065,20.1990652 L44.8395772,20.4730601 L44.164535,20.6922272 L43.4807752,20.8561794 L42.7928643,20.9648932 L42.1053123,21.0187021 L41.4225454,21.0182874 L40.7488804,20.964668 L40.0885001,20.8591885 L39.4454293,20.7035054 L38.8235128,20.4995728 L38.2263942,20.2496261 L37.6574955,19.9561649 L37.1199985,19.621934 L36.6168271,19.2499043 L36.1506313,18.8432509 L35.7237719,18.4053314 L35.3383074,17.9396621 L34.9959825,17.4498928 L34.6982181,16.9397813 L34.4461039,16.4131653 L34.2403932,15.8739349 L34.0814999,15.326003 L33.969499,14.773276 L33.9041297,14.2196238 L33.884801,13.6688504 L33.9106017,13.1246647 L33.9803118,12.590653 L34.0924185,12.0702517 L34.2451334,11.5667237 L34.4364129,11.0831352 L34.6639805,10.6223361 L34.9253502,10.1869429 L35.2178522,9.77932419 L35.5386581,9.40158892 L35.8848071,9.05557795 L36.2532329,8.74285792 L36.6407887,8.46471789 L37.0442735,8.2221683 L37.460456,8.01594224 L37.8860986,7.84649866 L38.31798,7.7140273 L38.7529163,7.6184553 L39.1877814,7.559455 L39.6195258,7.536453 L40.0451941,7.54864014 C40.5971107,7.56880285 41.0281824,8.03256476 41.0080197,8.58448133 C40.987857,9.13639791 40.5240951,9.56746959 39.9721785,9.54730687 L39.6284998,9.53475154 L39.360192,9.550332 L39.0871868,9.58863571 L38.8115613,9.65045396 L38.5354898,9.73638679 L38.2612243,9.84683394 L37.9910736,9.98198798 L37.727383,10.1418297 L37.4725132,10.3261255 L37.22882,10.5344274 L36.9986336,10.7660741 L36.7842393,11.0201945 L36.5878588,11.2957128 L36.4116319,11.5913547 L36.2575997,11.905655 L36.1276887,12.2369665 L36.0236953,12.583469 L35.9472721,12.9431797 L35.899914,13.3139642 L35.8829459,13.6935476 L35.8975104,14.0795269 L35.9445559,14.4693832 L36.0248259,14.8604954 L36.1388478,15.2501547 L36.2869236,15.6355797 L36.4691194,16.0139332 L36.6852579,16.3823401 L36.9349106,16.7379064 L37.2173919,17.07774 L37.5317552,17.3989725 L37.8767903,17.6987819 L38.251024,17.9744165 L38.6527225,18.2232193 L39.0798963,18.4426525 L39.5303088,18.6303218 L40.0014864,18.784001 L40.4907321,18.9016546 L40.9951417,18.9814602 L41.5116218,19.0218289 L42.036911,19.0214238 L42.5676022,18.979177 L43.1001674,18.8943037 L43.6309834,18.7663139 L44.1563586,18.5950219 L44.6725616,18.3805529 L45.1758487,18.1233468 L45.6624931,17.8241592 L46.128813,17.4840601 L46.5711998,17.1044293 L46.9861454,16.6869505 L47.3702685,16.2336015 L47.7203401,15.7466438 L48.0333075,15.2286092 L48.3063163,14.6822849 L48.5367325,14.1106979 L48.7221609,13.5170967 L48.8604639,12.9049328 L48.9497777,12.2778415 L48.9885273,11.6396209 L48.9754401,10.9942108 L48.9095586,10.3456708 L48.7902513,9.69815715 L48.6172222,9.05589939 L48.3905197,8.42317559 L48.1105431,7.80428692 L47.7780483,7.20353113 L47.394151,6.62517509 L46.9603286,6.07342637 L46.4784189,5.552404 L45.9506175,5.06610862 L45.3794711,4.61839216 L44.7678689,4.21292752 L44.1190311,3.85317832 L43.4364932,3.54236936 L42.7240886,3.28345796 L41.9859273,3.07910665 L41.2263719,2.93165764 L40.4500113,2.8431092 L39.6616312,2.81509455 L38.8661831,2.8488633 L38.0687511,2.94526583 L37.2745168,3.10474073 L36.4887236,3.3273055 L35.7166398,3.61255051 L34.9635211,3.95963645 L34.2345732,4.36729512 L33.5349143,4.83383358 L32.8695387,5.35714166 L32.2432808,5.93470256 L31.6607805,6.56360647 L31.1264504,7.24056706 L30.6444438,7.96194044 L30.218626,8.7237466 L29.8525463,9.52169281 L29.549413,10.3511989 L29.3120704,11.2074241 L29.1429779,12.0852954 L29.0441914,12.9795366 L29.0173471,13.884699 L29.0636469,14.7951929 C29.0711717,14.9543033 29.0410843,15.1064843 28.9812192,15.2431235 Z M59.196577,23.3507412 L61.5075413,23.3507412 C62.059826,23.3507412 62.5075413,23.7984564 62.5075413,24.3507412 C62.5075413,24.9030259 62.059826,25.3507412 61.5075413,25.3507412 L59.1725618,25.3507412 L59.1566464,26.6761848 C59.1500153,27.2284298 58.6969567,27.6707372 58.1447118,27.664106 C57.5924668,27.6574749 57.1501594,27.2044163 57.1567906,26.6521714 L57.1724381,25.349035 C56.6475721,25.3185463 56.2313437,24.8832514 56.2313437,24.3507412 C56.2313437,23.8101437 56.6603106,23.3697368 57.1964256,23.3513394 L57.2127961,21.9879933 C57.2194272,21.4357483 57.6724858,20.993441 58.2247307,21.0000721 C58.7769757,21.0067032 59.2192831,21.4597618 59.2126519,22.0120067 L59.196577,23.3507412 Z M31,60.5 L35,60.5 C35.5522847,60.5 36,60.9477153 36,61.5 C36,62.0522847 35.5522847,62.5 35,62.5 L31,62.5 L31,72 C31,72.1736917 30.9557173,72.3370407 30.8778259,72.4793729 C30.8732996,72.4938034 30.8684285,72.5082014 30.8632081,72.5225575 C30.6744686,73.0415911 30.1007051,73.3093473 29.5816716,73.1206078 L23.8225188,71.0263705 C23.7491087,70.9996759 23.6807251,70.9652792 23.6179488,70.9244246 C23.2552096,70.7743437 23,70.4169755 23,70 L23,60 L6,60 L6,68.5 L10,68.5 C10.5522847,68.5 11,68.9477153 11,69.5 C11,70.0522847 10.5522847,70.5 10,70.5 L6,70.5 L6,76.5 L10,76.5 C10.5522847,76.5 11,76.9477153 11,77.5 C11,78.0522847 10.5522847,78.5 10,78.5 L6,78.5 L6,84.5 L10,84.5 C10.5522847,84.5 11,84.9477153 11,85.5 C11,86.0522847 10.5522847,86.5 10,86.5 L6,86.5 L6,92.5 L10,92.5 C10.5522847,92.5 11,92.9477153 11,93.5 C11,94.0522847 10.5522847,94.5 10,94.5 L6,94.5 L6,103 C6,103.552285 5.55228475,104 5,104 L2,104 C1.44771525,104 1,103.552285 1,103 C1,102.447715 1.44771525,102 2,102 L4,102 L4,59 C4,58.4477153 4.44771525,58 5,58 L24,58 C24.5522847,58 25,58.4477153 25,59 L25,69.3264182 L29,70.7809637 L29,47 C29,46.4477153 29.4477153,46 30,46 L40.0110626,46 C40.0037761,45.951309 40,45.9014703 40,45.8507496 L40,44 C40,43.4477153 40.4477153,43 41,43 L48.4472426,43 C48.9995273,43 49.4472426,43.4477153 49.4472426,44 L49.4472426,45.8507496 C49.4472426,45.9014703 49.4434664,45.951309 49.43618,46 L50,46 C50.5522847,46 51,46.4477153 51,47 L51,102 L53,102 L53,40 C53,39.6027022 53.2351938,39.2430871 53.5991812,39.0838427 L69.5991812,32.0838427 C70.1051609,31.8624765 70.6947912,32.0932014 70.9161573,32.5991812 C71.1375235,33.1051609 70.9067986,33.6947912 70.4008188,33.9161573 L55,40.6540156 L55,44.5 L57,44.5 C57.5522847,44.5 58,44.9477153 58,45.5 C58,46.0522847 57.5522847,46.5 57,46.5 L55,46.5 L55,52.5 L57,52.5 C57.5522847,52.5 58,52.9477153 58,53.5 C58,54.0522847 57.5522847,54.5 57,54.5 L55,54.5 L55,60.5 L57,60.5 C57.5522847,60.5 58,60.9477153 58,61.5 C58,62.0522847 57.5522847,62.5 57,62.5 L55,62.5 L55,68.5 L57,68.5 C57.5522847,68.5 58,68.9477153 58,69.5 C58,70.0522847 57.5522847,70.5 57,70.5 L55,70.5 L55,76.5 L57,76.5 C57.5522847,76.5 58,76.9477153 58,77.5 C58,78.0522847 57.5522847,78.5 57,78.5 L55,78.5 L55,84.5 L57,84.5 C57.5522847,84.5 58,84.9477153 58,85.5 C58,86.0522847 57.5522847,86.5 57,86.5 L55,86.5 L55,92.5 L57,92.5 C57.5522847,92.5 58,92.9477153 58,93.5 C58,94.0522847 57.5522847,94.5 57,94.5 L55,94.5 L55,103 C55,103.552285 54.5522847,104 54,104 L50,104 C49.4477153,104 49,103.552285 49,103 L49,48 L31,48 L31,52.5 L35,52.5 C35.5522847,52.5 36,52.9477153 36,53.5 C36,54.0522847 35.5522847,54.5 35,54.5 L31,54.5 L31,60.5 Z M21,86 L21,92.5 L25,92.5 C25.5522847,92.5 26,92.9477153 26,93.5 C26,94.0522847 25.5522847,94.5 25,94.5 L21,94.5 L21,102.5723 C21,103.124585 20.5522847,103.5723 20,103.5723 C19.4477153,103.5723 19,103.124585 19,102.5723 L19,77 C19,75.8954305 19.8954305,75 21,75 C21.233105,75 21.4644155,75.0407511 21.6834861,75.1204132 L41.6834861,82.3931404 C42.4738645,82.6805507 43,83.4317144 43,84.2727273 L43,102.5723 C43,103.124585 42.5522847,103.5723 42,103.5723 C41.4477153,103.5723 41,103.124585 41,102.5723 L41,84.2727273 L21,77 L21,84 L25,84 C25.5522847,84 26,84.4477153 26,85 C26,85.5522847 25.5522847,86 25,86 L21,86 Z M103.5,46.8662178 C103.352913,46.9513029 103.182144,47 103,47 C102.447715,47 102,46.5522847 102,46 L102,20 L75.0025293,20 L75.0025293,103 C75.0025293,103.552285 74.554814,104 74.0025293,104 L70,104 C69.4477153,104 69,103.552285 69,103 C69,102.447715 69.4477153,102 70,102 L73.0025293,102 L73.0025293,19 C73.0025293,18.4477153 73.4502445,18 74.0025293,18 L77,18 L77,14 C77,12.8954305 77.8954305,12 79,12 L98,12 C99.1045695,12 100,12.8954305 100,14 L100,18 L103,18 C103.552285,18 104,18.4477153 104,19 L104,45 L110,45 L110,43 C110,41.8954305 110.895431,41 112,41 L120,41 C121.104569,41 122,41.8954305 122,43 L122,45 C122,45.204977 121.969164,45.402752 121.911878,45.588939 C121.96849,45.7143287 122,45.8534846 122,46 L122,102 L125,102 C125.552285,102 126,102.447715 126,103 C126,103.552285 125.552285,104 125,104 L121,104 C120.447715,104 120,103.552285 120,103 L120,47 L104,47 C103.817856,47 103.647087,46.9513029 103.5,46.8662178 Z M112,45 L120,45 L120,43 L112,43 L112,45 Z M79,18 L98,18 L98,14 L79,14 L79,18 Z M41.9889374,46 L47.4583052,46 C47.4510187,45.951309 47.4472426,45.9014703 47.4472426,45.8507496 L47.4472426,45 L42,45 L42,45.8507496 C42,45.9014703 41.9962239,45.951309 41.9889374,46 Z M15.1082267,50.8059965 C15.1082267,51.3582812 14.6605114,51.8059965 14.1082267,51.8059965 C13.5559419,51.8059965 13.1082267,51.3582812 13.1082267,50.8059965 L13.1082267,48.3544974 C13.1082267,47.8022126 13.5559419,47.3544974 14.1082267,47.3544974 L21.7789139,47.3544974 L21.7789139,41 C21.7789139,40.4477153 22.2266292,40 22.7789139,40 L27,40 C27.5522847,40 28,40.4477153 28,41 C28,41.5522847 27.5522847,42 27,42 L23.7789139,42 L23.7789139,48.3544974 C23.7789139,48.9067821 23.3311987,49.3544974 22.7789139,49.3544974 L15.1082267,49.3544974 L15.1082267,50.8059965 Z M113.891773,32.8059965 L113.891773,32.3544974 L110.929113,32.3544974 C110.376828,32.3544974 109.929113,31.9067821 109.929113,31.3544974 L109.929113,28 L109,28 C108.447715,28 108,27.5522847 108,27 C108,26.4477153 108.447715,26 109,26 L110.929113,26 C111.481397,26 111.929113,26.4477153 111.929113,27 L111.929113,30.3544974 L114.891773,30.3544974 C115.444058,30.3544974 115.891773,30.8022126 115.891773,31.3544974 L115.891773,32.8059965 C115.891773,33.3582812 115.444058,33.8059965 114.891773,33.8059965 C114.339489,33.8059965 113.891773,33.3582812 113.891773,32.8059965 Z M80,27 C80.5522847,27 81,27.4477153 81,28 L81,94 C81,94.5522847 80.5522847,95 80,95 C79.4477153,95 79,94.5522847 79,94 L79,28 C79,27.4477153 79.4477153,27 80,27 Z M86,27 C86.5522847,27 87,27.4477153 87,28 L87,94 C87,94.5522847 86.5522847,95 86,95 C85.4477153,95 85,94.5522847 85,94 L85,28 C85,27.4477153 85.4477153,27 86,27 Z M92,27 C92.5522847,27 93,27.4477153 93,28 L93,94 C93,94.5522847 92.5522847,95 92,95 C91.4477153,95 91,94.5522847 91,94 L91,28 C91,27.4477153 91.4477153,27 92,27 Z M98,27 C98.5522847,27 99,27.4477153 99,28 L99,94 C99,94.5522847 98.5522847,95 98,95 C97.4477153,95 97,94.5522847 97,94 L97,28 C97,27.4477153 97.4477153,27 98,27 Z M104,53 C104.552285,53 105,53.4477153 105,54 L105,94 C105,94.5522847 104.552285,95 104,95 C103.447715,95 103,94.5522847 103,94 L103,54 C103,53.4477153 103.447715,53 104,53 Z M110,53 C110.552285,53 111,53.4477153 111,54 L111,94 C111,94.5522847 110.552285,95 110,95 C109.447715,95 109,94.5522847 109,94 L109,54 C109,53.4477153 109.447715,53 110,53 Z M116,53 C116.552285,53 117,53.4477153 117,54 L117,94 C117,94.5522847 116.552285,95 116,95 C115.447715,95 115,94.5522847 115,94 L115,54 C115,53.4477153 115.447715,53 116,53 Z M64,54.5 C63.4477153,54.5 63,54.0522847 63,53.5 C63,52.9477153 63.4477153,52.5 64,52.5 L66,52.5 C66.5522847,52.5 67,52.9477153 67,53.5 C67,54.0522847 66.5522847,54.5 66,54.5 L64,54.5 Z M64,46.5 C63.4477153,46.5 63,46.0522847 63,45.5 C63,44.9477153 63.4477153,44.5 64,44.5 L66,44.5 C66.5522847,44.5 67,44.9477153 67,45.5 C67,46.0522847 66.5522847,46.5 66,46.5 L64,46.5 Z M64,62.5 C63.4477153,62.5 63,62.0522847 63,61.5 C63,60.9477153 63.4477153,60.5 64,60.5 L66,60.5 C66.5522847,60.5 67,60.9477153 67,61.5 C67,62.0522847 66.5522847,62.5 66,62.5 L64,62.5 Z M64,70.5 C63.4477153,70.5 63,70.0522847 63,69.5 C63,68.9477153 63.4477153,68.5 64,68.5 L66,68.5 C66.5522847,68.5 67,68.9477153 67,69.5 C67,70.0522847 66.5522847,70.5 66,70.5 L64,70.5 Z M64,78.5 C63.4477153,78.5 63,78.0522847 63,77.5 C63,76.9477153 63.4477153,76.5 64,76.5 L66,76.5 C66.5522847,76.5 67,76.9477153 67,77.5 C67,78.0522847 66.5522847,78.5 66,78.5 L64,78.5 Z M64,86.5 C63.4477153,86.5 63,86.0522847 63,85.5 C63,84.9477153 63.4477153,84.5 64,84.5 L66,84.5 C66.5522847,84.5 67,84.9477153 67,85.5 C67,86.0522847 66.5522847,86.5 66,86.5 L64,86.5 Z M64,94.5 C63.4477153,94.5 63,94.0522847 63,93.5 C63,92.9477153 63.4477153,92.5 64,92.5 L66,92.5 C66.5522847,92.5 67,92.9477153 67,93.5 C67,94.0522847 66.5522847,94.5 66,94.5 L64,94.5 Z M7,125 L20,125 L7,125 Z M7,124 L20,124 C20.5522847,124 21,124.447715 21,125 C21,125.552285 20.5522847,126 20,126 L7,126 C6.44771525,126 6,125.552285 6,125 C6,124.447715 6.44771525,124 7,124 Z M1,116 L7,116 L1,116 Z M1,115 L7,115 C7.55228475,115 8,115.447715 8,116 C8,116.552285 7.55228475,117 7,117 L1,117 C0.44771525,117 6.76353751e-17,116.552285 0,116 C-6.76353751e-17,115.447715 0.44771525,115 1,115 Z M19,116 L45,116 L19,116 Z M19,115 L45,115 C45.5522847,115 46,115.447715 46,116 C46,116.552285 45.5522847,117 45,117 L19,117 C18.4477153,117 18,116.552285 18,116 C18,115.447715 18.4477153,115 19,115 Z M8,107 L30,107 L8,107 Z M8,106 L30,106 C30.5522847,106 31,106.447715 31,107 C31,107.552285 30.5522847,108 30,108 L8,108 C7.44771525,108 7,107.552285 7,107 C7,106.447715 7.44771525,106 8,106 Z M120,107 L124,107 L120,107 Z M120,106 L124,106 C124.552285,106 125,106.447715 125,107 C125,107.552285 124.552285,108 124,108 L120,108 C119.447715,108 119,107.552285 119,107 C119,106.447715 119.447715,106 120,106 Z M39.3094269,107 L111.309427,107 L39.3094269,107 Z M39.3094269,106 L111.309427,106 C111.861712,106 112.309427,106.447715 112.309427,107 C112.309427,107.552285 111.861712,108 111.309427,108 L39.3094269,108 C38.7571421,108 38.3094269,107.552285 38.3094269,107 C38.3094269,106.447715 38.7571421,106 39.3094269,106 Z M52,116 L78,116 L52,116 Z M52,115 L78,115 C78.5522847,115 79,115.447715 79,116 C79,116.552285 78.5522847,117 78,117 L52,117 C51.4477153,117 51,116.552285 51,116 C51,115.447715 51.4477153,115 52,115 Z M84,116 L86,116 L84,116 Z M84,115 L86,115 C86.5522847,115 87,115.447715 87,116 C87,116.552285 86.5522847,117 86,117 L84,117 C83.4477153,117 83,116.552285 83,116 C83,115.447715 83.4477153,115 84,115 Z M97,116 L115,116 L97,116 Z M97,115 L115,115 C115.552285,115 116,115.447715 116,116 C116,116.552285 115.552285,117 115,117 L97,117 C96.4477153,117 96,116.552285 96,116 C96,115.447715 96.4477153,115 97,115 Z M25,125 L88,125 L25,125 Z M25,124 L88,124 C88.5522847,124 89,124.447715 89,125 C89,125.552285 88.5522847,126 88,126 L25,126 C24.4477153,126 24,125.552285 24,125 C24,124.447715 24.4477153,124 25,124 Z M93,125 L123,125 L93,125 Z M93,124 L123,124 C123.552285,124 124,124.447715 124,125 C124,125.552285 123.552285,126 123,126 L93,126 C92.4477153,126 92,125.552285 92,125 C92,124.447715 92.4477153,124 93,124 Z M5,42 C4.44771525,42 4,41.5522847 4,41 C4,40.4477153 4.44771525,40 5,40 L11.8909217,40 C12.4432064,40 12.8909217,40.4477153 12.8909217,41 C12.8909217,41.5522847 12.4432064,42 11.8909217,42 L5,42 Z M43,32 C42.4477153,32 42,31.5522847 42,31 C42,30.4477153 42.4477153,30 43,30 L56.4472426,30 C56.9995273,30 57.4472426,30.4477153 57.4472426,31 C57.4472426,31.5522847 56.9995273,32 56.4472426,32 L43,32 Z M38.5691385,25.4450043 C38.9312527,25.028001 39.5628522,24.9835046 39.9798555,25.3456188 C40.3968588,25.7077331 40.4413552,26.3393326 40.079241,26.7563359 L39.8517069,27.0131263 L39.602272,27.251622 L39.3324176,27.4700603 L39.0437751,27.666825 L38.7381069,27.8404576 L38.4172885,27.9896649 L38.0832902,28.1133236 L37.7381602,28.2104829 L37.3840085,28.2803644 L37.022993,28.3223611 L36.6573066,28.3360352 L36.2891656,28.3211154 L35.9208,28.2774942 L35.5544433,28.2052255 L35.1923247,28.1045214 L34.8366604,27.9757508 L34.4896454,27.8194371 L34.2186783,27.6744095 C33.7317506,27.4137951 33.5482874,26.8077924 33.8089019,26.3208648 C34.0695163,25.8339371 34.6755189,25.650474 35.1624466,25.9110884 L35.3653599,26.0229426 L35.5737464,26.1180804 L35.7860558,26.1962044 L36.0007411,26.2571617 L36.2162753,26.300941 L36.4311672,26.3276688 L36.6439766,26.3376023 L36.8533282,26.331121 L37.057923,26.3087154 L37.2565493,26.2709756 L37.4480893,26.218577 L37.6315245,26.1522673 L37.8059374,26.0728516 L37.9705116,25.9811797 L38.1245276,25.8781336 L38.2673586,25.7646175 L38.3984635,25.6415501 L38.5691385,25.4450043 Z" id="Combined-Shape" fill="url(#linearGradient-1)"></path>
    </g>
</svg>