<?xml version="1.0" encoding="UTF-8"?>
<svg width="58px" height="58px" viewBox="0 0 58 58" version="1.1" xmlns="http://www.w3.org/2000/svg" xmlns:xlink="http://www.w3.org/1999/xlink">
    <!-- Generator: Sketch 52.6 (67491) - http://www.bohemiancoding.com/sketch -->
    <title>telegram</title>
    <desc>Created with Sketch.</desc>
    <g id="Page-1" stroke="none" stroke-width="1" fill="none" fill-rule="evenodd">
        <g id="telegram" transform="translate(1.000000, 1.000000)">
            <circle id="Oval-8-Copy-2" stroke="#005CC7" opacity="0.200000003" cx="28" cy="28" r="28"></circle>
            <path d="M18.3532595,28.1145539 L22.9616655,29.7861287 L24.7454012,35.3610899 C24.8595346,35.7181461 25.3088019,35.8501227 25.6070023,35.6131867 L28.1758056,33.578012 C28.4450727,33.364789 28.8286065,33.3541635 29.1100069,33.5526792 L33.7432129,36.8217742 C34.0622134,37.0471128 34.5141473,36.8772342 34.5941474,36.50262 L37.9882185,20.6362003 C38.0755519,20.2269884 37.6618181,19.8856114 37.2608842,20.0363123 L18.3478594,27.1269642 C17.8811255,27.3018964 17.8851922,27.9440921 18.3532595,28.1145539 Z M24.4579341,28.8963067 L33.4644792,23.5053483 C33.6263461,23.4087468 33.7928797,23.6214515 33.6538795,23.7467548 L26.2208698,30.4615616 C25.9596027,30.6979145 25.7910692,31.0142179 25.7433358,31.3575386 L25.4901355,33.1811101 C25.4566021,33.4245899 25.1046683,33.4487565 25.0355349,33.2131163 L24.0617336,29.8877838 C23.9502001,29.5085048 24.1127337,29.1033746 24.4579341,28.8963067 Z" id="XMLID_497_" fill="#FFFFFF" fill-rule="nonzero"></path>
        </g>
    </g>
</svg>