<?xml version="1.0" encoding="UTF-8"?>
<svg width="48px" height="48px" viewBox="0 0 48 48" version="1.1" xmlns="http://www.w3.org/2000/svg" xmlns:xlink="http://www.w3.org/1999/xlink">
    <!-- Generator: Sketch 52.6 (67491) - http://www.bohemiancoding.com/sketch -->
    <title>03_analyse</title>
    <desc>Created with Sketch.</desc>
    <g id="03_analyse" stroke="none" stroke-width="1" fill="none" fill-rule="evenodd">
        <path d="M32.3324864,22.9191375 C32.9265336,23.1379061 33.496422,23.3759098 34.0390482,23.6318815 C34.6838935,22.1220469 35.0408163,20.4598482 35.0408163,18.7142857 C35.0408163,17.0559147 34.7186598,15.4727874 34.1335153,14.0240722 C33.5733534,14.2811567 32.9869113,14.5185806 32.3775185,14.7354138 C32.6223515,16.0022882 32.7527956,17.3375204 32.7527956,18.7142857 C32.7527956,20.173178 32.6063248,21.5854342 32.3324864,22.9191375 Z M31.8260011,24.8649292 C31.5341036,25.7817513 31.1785185,26.6474277 30.7668422,27.4492666 C30.9565537,27.5024264 31.1446174,27.5574516 31.3309523,27.614323 C32.0027265,26.9484964 32.5995218,26.2071458 33.1075481,25.4040615 C32.6983664,25.2135086 32.2706096,25.0335184 31.8260011,24.8649292 Z M13.1473269,22.5524789 C12.9196986,21.3275758 12.798714,20.0401914 12.798714,18.7142857 C12.798714,17.4047207 12.9167349,16.1327333 13.1389595,14.9214087 C12.3482409,14.6614989 11.5928157,14.3678908 10.879485,14.0424548 C10.2990299,15.4861756 9.97959184,17.0629263 9.97959184,18.7142857 C9.97959184,20.3696979 10.3005998,21.9501347 10.8837634,23.3967437 C11.6001377,23.0833662 12.3568541,22.8013374 13.1473269,22.5524789 Z M13.6142338,24.5025041 C12.9746132,24.7082577 12.3615068,24.9372644 11.7793317,25.1881734 C12.3125093,26.0700542 12.9513282,26.88091 13.6782505,27.6032029 C14.0182872,27.4999838 14.364063,27.4028998 14.7150869,27.3120672 C14.2797958,26.4431144 13.9097075,25.5013516 13.6142338,24.5025041 Z M29.9264954,24.2434666 C28.9814614,23.9794575 27.9874202,23.7641653 26.9570798,23.6014189 C26.8556234,24.6654979 26.7212267,25.6760138 26.5570654,26.6122261 C27.3052898,26.7055131 28.0396529,26.8244557 28.7564345,26.9681778 C29.2174226,26.1486768 29.6124381,25.233739 29.9264954,24.2434666 Z M30.4167133,22.3038901 C30.63492,21.169241 30.7527956,19.9648613 30.7527956,18.7142857 C30.7527956,17.5391887 30.6487194,16.4048795 30.4551226,15.3308836 C29.3889874,15.6153165 28.2706057,15.8422657 27.114498,16.0076749 C27.1588299,16.8923717 27.1813671,17.7975648 27.1813671,18.7142857 C27.1813671,19.6933032 27.1556617,20.6590384 27.105186,21.6004755 C28.2518324,21.7751948 29.3604712,22.0109876 30.4167133,22.3038901 Z M20.5728589,23.2778375 C20.6754818,24.3905061 20.8151843,25.4391139 20.9873425,26.396081 C21.4833622,26.3740072 21.9833576,26.3628544 22.4863508,26.3628544 C23.1837406,26.3628544 23.8753806,26.384292 24.5586679,26.4265544 C24.7291754,25.4844557 24.8682019,24.4525858 24.9712327,23.3574763 C24.0632805,23.276852 23.1382246,23.2359519 22.2027611,23.2359519 C21.6545135,23.2359519 21.1107024,23.2500698 20.5728589,23.2778375 Z M20.4325966,21.2824256 C21.0171177,21.2515949 21.6077215,21.2359519 22.2027611,21.2359519 C23.1857668,21.2359519 24.1586916,21.2784661 25.1149044,21.362382 C25.1589354,20.4982032 25.1813671,19.6123426 25.1813671,18.7142857 C25.1813671,17.8724336 25.1616562,17.0411758 25.1228956,16.2282568 C24.2577081,16.2968209 23.3770187,16.3318744 22.4863508,16.3318744 C21.7929192,16.3318744 21.1054986,16.3106324 20.4266947,16.2688648 C20.3892003,17.0689084 20.3701426,17.8864956 20.3701426,18.7142857 C20.3701426,19.5845766 20.3912081,20.4434866 20.4325966,21.2824256 Z M15.5414481,23.9717655 C15.855748,25.0261253 16.2608704,25.9993837 16.7394484,26.8682449 C17.4715438,26.7352888 18.2206807,26.6278034 18.9830231,26.5466978 C18.8161003,25.5830858 18.6805879,24.542018 18.5798686,23.4458631 C17.5308362,23.5693746 16.5138504,23.7459532 15.5414481,23.9717655 Z M15.083446,22.0250484 C16.1595163,21.7748703 17.2824595,21.5815233 18.438419,21.4488394 C18.3931607,20.5553433 18.3701426,19.6407281 18.3701426,18.7142857 C18.3701426,17.8241308 18.3913922,16.9448073 18.4332193,16.0845031 C17.273201,15.9405206 16.1478821,15.735167 15.0714655,15.4723485 C14.8938731,16.5043208 14.798714,17.5906566 14.798714,18.7142857 C14.798714,19.8629237 14.8981562,20.9725898 15.083446,22.0250484 Z M22.7774176,31.2421053 L22.7739248,31.2421779 C22.7792356,31.2360535 22.8065246,31.2176079 22.8618734,31.1678687 C23.0059108,31.0384293 23.1724724,30.810206 23.3437541,30.4895068 C23.6196349,29.9729612 23.8824585,29.2663974 24.1178805,28.4047398 C23.579175,28.3769431 23.034833,28.3628544 22.4863508,28.3628544 C22.1313636,28.3628544 21.7781156,28.3687565 21.4270128,28.3804567 C21.6627628,29.248135 21.9262821,29.96006 22.2031712,30.4809033 C22.3753798,30.8048369 22.54302,31.0355525 22.6881803,31.1665575 C22.7441153,31.217038 22.7718508,31.2358416 22.7774176,31.2421053 Z M33.2375887,12.2346329 C32.7008208,11.347891 32.0572073,10.5330484 31.3245966,9.80795343 C31.1561923,9.89715388 30.9852015,9.98367218 30.8117495,10.0674662 C31.2368802,10.9087096 31.6006792,11.8189067 31.8945246,12.7836529 C32.3591001,12.6133355 32.8074226,12.4301325 33.2375887,12.2346329 Z M23.3828918,4.20944767 C31.0016179,4.6607496 37.0408163,10.9822525 37.0408163,18.7142857 C37.0408163,26.446319 31.0016179,32.7678218 23.3828918,33.2191238 C23.1822719,33.2362237 22.9798434,33.244898 22.7757548,33.244898 C22.7393664,33.244898 22.7030307,33.2446222 22.6667487,33.2440721 C22.6146325,33.2446222 22.5624505,33.244898 22.5102041,33.244898 C14.4851685,33.244898 7.97959184,26.7393213 7.97959184,18.7142857 C7.97959184,10.6892502 14.4851685,4.18367347 22.5102041,4.18367347 C22.5624505,4.18367347 22.6146325,4.18394921 22.6667487,4.18449932 C22.7030307,4.18394922 22.7393664,4.18367347 22.7757548,4.18367347 C22.9798434,4.18367347 23.1822719,4.19234773 23.3828918,4.20944767 Z M16.012802,7.99766521 C15.79435,8.13039492 15.5802784,8.26961593 15.3708547,8.41506049 C15.4582979,8.45464177 15.5464529,8.4934763 15.6352992,8.53155643 C15.7578332,8.34883435 15.8837096,8.17080018 16.012802,7.99766521 Z M13.6870898,9.81659417 C12.9534468,10.5441262 12.3092958,11.3617617 11.7726124,12.2515249 C12.351515,12.512999 12.962815,12.7522269 13.6019364,12.9678186 C13.8814171,12.014828 14.2287223,11.1134377 14.6357166,10.27724 C14.311404,10.1328125 13.9949404,9.97917828 13.6870898,9.81659417 Z M15.5814788,29.1566457 C15.7232503,29.2509025 15.8670512,29.3423492 16.012802,29.4309062 C15.9341788,29.3254591 15.8567486,29.2181946 15.7805398,29.1091607 C15.713986,29.1247554 15.6476311,29.140584 15.5814788,29.1566457 Z M22.7759648,6.18643583 L22.7756404,6.18642908 C22.7678756,6.19395098 22.7310502,6.21916891 22.6592937,6.28914861 C22.4928904,6.45143159 22.305189,6.73140664 22.1160186,7.11886481 C21.7908404,7.78489341 21.4893738,8.70735471 21.2323802,9.82792721 C21.6498988,9.85539936 22.0720608,9.86935834 22.4976744,9.86935834 C23.1097787,9.86935834 23.7147439,9.8404865 24.3090244,9.78406908 C24.0555278,8.68879532 23.7593773,7.78513513 23.4401176,7.12836162 C23.2500809,6.7374226 23.0613376,6.45473241 22.8938122,6.29070846 C22.8212217,6.21963513 22.7838801,6.19403667 22.7759648,6.18643583 Z M27.505498,28.7713504 C27.0576007,28.696256 26.6028023,28.6312013 26.1421316,28.5764478 C25.9686835,29.2660575 25.7776269,29.8890388 25.5665278,30.4387001 C26.2613215,30.0244219 26.9135882,29.4606663 27.505498,28.7713504 Z M17.9774312,28.6906011 C18.587352,29.4166626 19.2631363,30.0082608 19.9848034,30.4385937 C19.7674421,29.8726705 19.5713504,29.2290188 19.3939024,28.5149335 C18.9155927,28.562588 18.4430624,28.6212395 17.9774312,28.6906011 Z M29.988638,13.3855275 C29.7097709,12.4652707 29.3615314,11.6076331 28.9555884,10.8282671 C28.2195444,11.0805816 27.4525914,11.2892976 26.6621621,11.4519162 C26.7879647,12.2598398 26.8924414,13.1155763 26.9738755,14.0070883 C28.0199128,13.8521225 29.0292133,13.6435804 29.988638,13.3855275 Z M20.5617192,14.2733773 C21.1953811,14.3121188 21.8377696,14.3318744 22.4863508,14.3318744 C23.3320982,14.3318744 24.1672374,14.2982698 24.9861441,14.2328008 C24.9077925,13.3654533 24.806903,12.535712 24.6854832,11.7564471 C23.9677935,11.8311705 23.2368855,11.8693583 22.4976744,11.8693583 C21.945912,11.8693583 21.3987756,11.8480822 20.8583091,11.8062171 C20.7384424,12.5832172 20.6389242,13.4098195 20.5617192,14.2733773 Z M15.5216723,13.5236623 C16.4954217,13.7623807 17.5160119,13.9511371 18.570495,14.0859982 C18.6495224,13.2040712 18.7510445,12.3566227 18.8734171,11.5552225 C18.0627123,11.4118249 17.2743505,11.220588 16.516047,10.9841054 C16.1243068,11.7608594 15.7891466,12.6123442 15.5216723,13.5236623 Z M19.2350788,9.58819563 C19.4501033,8.60106303 19.6974725,7.73024168 19.9817708,6.99178718 C19.1080446,7.51343338 18.3016389,8.27149262 17.5980313,9.2183751 C18.1285833,9.36596316 18.6753606,9.48964616 19.2350788,9.58819563 Z M26.2940263,9.48580131 C26.8276225,9.37491261 27.3480998,9.24082983 27.8524767,9.08466822 C27.1731134,8.20002761 26.4020299,7.48872291 25.5698771,6.99186977 C25.8443453,7.7046704 26.084373,8.54079482 26.2940263,9.48580131 Z M32.786706,46.9029382 C32.7632188,47.4547233 32.2968685,47.8829933 31.7450834,47.8595061 C31.1932983,47.836019 30.7650282,47.3696686 30.7885154,46.8178835 L31.0690198,40.2279866 C31.0922592,39.6820227 31.5494589,39.2558158 32.0957091,39.2708947 C35.6088121,39.367872 37.7261413,38.9611363 38.3302024,38.2664474 C39.2694859,37.1862424 39.334433,36.3634035 38.9458149,33.7008008 C38.6506674,31.6786086 38.5951331,30.5466903 38.8628627,29.1009361 C38.9392154,28.6886277 39.158072,28.4898256 39.4448815,28.3432777 C39.5438367,28.2927157 39.6445663,28.2561387 39.7597551,28.2231459 C39.9117122,28.1796218 40.0988478,28.1405391 40.3348823,28.1001779 C40.673989,28.0421916 40.9956429,27.9978741 41.7772889,27.8966695 C42.312695,27.8273471 42.6262184,27.7853654 42.872214,27.7480187 C42.6290437,27.1284332 41.9882686,26.1465314 40.8597914,24.645704 C40.8025161,24.5695554 40.8025161,24.5695554 40.7450752,24.4932536 C38.617315,21.6671483 38.0380249,20.726067 38.1081995,19.4879811 C38.2072803,17.7399059 38.2244898,17.2847535 38.2244898,16.122449 C38.2244898,6.69327626 32.3932273,2 21.7142857,2 C11.468403,2 5,7.94840996 5,17.7142857 C5,20.4721187 6.81263853,24.7701739 9.81324701,30.1225397 C10.6092943,31.5424972 11.9468704,33.7004709 13.8217485,36.5882289 C13.9228193,36.743902 13.9785708,36.9246322 13.9827626,37.1101904 L14.2073829,47.05331 C14.2198561,47.6054539 13.7823666,48.0631665 13.2302227,48.0756397 C12.6780788,48.0881129 12.2203662,47.6506234 12.207893,47.0984795 L11.9896796,37.4389661 C10.1738049,34.6368005 8.86810513,32.5265234 8.06869143,31.1005611 C4.88943531,25.4295307 3,20.9493782 3,17.7142857 C3,6.80467612 10.3995215,-1.25766064e-12 21.7142857,-1.25766064e-12 C33.4138851,-1.25766064e-12 40.2244898,5.48149731 40.2244898,16.122449 C40.2244898,17.3304134 40.2060339,17.8185311 40.1049946,19.6011593 C40.076418,20.1053355 40.6658399,21.0628764 42.3428522,23.2902954 C42.4005462,23.3669332 42.4005462,23.3669332 42.4583298,23.4437576 C44.4974254,26.1556694 45.1743352,27.3311602 44.9515004,28.6577704 C44.8811974,29.0763077 44.6604678,29.2806105 44.3714685,29.4300208 C44.2718159,29.4815404 44.1704784,29.5186667 44.0545784,29.5521041 C43.9022878,29.5960403 43.7148171,29.6353959 43.4783557,29.675983 C43.1383858,29.7343366 42.8106261,29.7795713 42.0340978,29.8801133 C41.3395843,29.9700363 41.0224415,30.0132993 40.7402036,30.0600769 C40.6352496,30.9938724 40.7053341,31.9079705 40.9248467,33.4119527 C41.3938695,36.6254459 41.2926758,37.9075084 39.8394308,39.5787849 C38.7924997,40.7827879 36.55152,41.2962384 33.0258102,41.285659 L32.786706,46.9029382 Z" id="Shape" fill="#005676" fill-rule="nonzero"></path>
        <rect id="Rectangle" fill-opacity="0.7" fill="#D8D8D8" fill-rule="nonzero" opacity="0" x="0" y="0" width="48" height="48"></rect>
    </g>
</svg>