<?xml version="1.0" encoding="UTF-8"?>
<svg width="48px" height="48px" viewBox="0 0 48 48" version="1.1" xmlns="http://www.w3.org/2000/svg" xmlns:xlink="http://www.w3.org/1999/xlink">
    <!-- Generator: Sketch 52.6 (67491) - http://www.bohemiancoding.com/sketch -->
    <title>04_role</title>
    <desc>Created with Sketch.</desc>
    <g id="04_role" stroke="none" stroke-width="1" fill="none" fill-rule="evenodd">
        <path d="M28.2276838,28.960855 C27.2589198,29.9871957 25.9596159,30.6981706 24.5,30.9235518 L24.5,35.0330425 C24.5,35.0592197 24.4989942,35.085162 24.4970191,35.1108329 C26.502505,35.5644604 28,37.3573509 28,39.5 C28,41.9852814 25.9852814,44 23.5,44 C21.0147186,44 19,41.9852814 19,39.5 C19,37.3573509 20.497495,35.5644604 22.5029809,35.1108329 C22.5010058,35.085162 22.5,35.0592197 22.5,35.0330425 L22.5,30.9235518 C21.6455563,30.791616 20.8460485,30.4932766 20.1356245,30.0626817 L17.5583035,32.7967062 C17.8396651,33.3008171 18,33.8816844 18,34.5 C18,36.4329966 16.4329966,38 14.5,38 C13.955257,38 13.4395807,37.8755511 12.9798508,37.6535333 L10.4481895,40.3391221 C10.7999595,40.9804854 11,41.7168817 11,42.5 C11,44.9852814 8.98528137,47 6.5,47 C4.01471863,47 2,44.9852814 2,42.5 C2,40.0147186 4.01471863,38 6.5,38 C7.47530337,38 8.3781388,38.3102721 9.1151844,38.8374944 L11.5014294,36.3061634 C11.1831383,35.7788735 11,35.1608239 11,34.5 C11,32.5670034 12.5670034,31 14.5,31 C15.0871043,31 15.6404455,31.1445567 16.1263727,31.400019 L18.6022746,28.7735798 C18.1930095,28.3049313 17.8499166,27.7770078 17.5875661,27.2043797 L12.9373073,28.4987704 C12.7157139,29.3620078 11.9323625,30 11,30 C10.4543019,30 9.9596489,29.7814501 9.59879453,29.4271038 L5.96861642,30.4355228 C5.75767582,31.8859727 4.50893542,33 3,33 C1.34314575,33 0,31.6568542 0,30 C0,28.3431458 1.34314575,27 3,27 C4.09708314,27 5.05662383,27.5888892 5.57976359,28.4678092 L9.06295156,27.5002222 C9.28489565,26.6374959 10.0680003,26 11,26 C11.545324,26 12.0396728,26.2182503 12.4004631,26.5721676 L17.0462036,25.2790345 C17.0156957,25.0236112 17,24.7636386 17,24.5 C17,23.9712429 17.0631357,23.457232 17.1822796,22.9650946 L7.07433126,18.5591589 C6.34059419,19.4396393 5.23573673,20 4,20 C1.790861,20 0,18.209139 0,16 C0,13.790861 1.790861,12 4,12 C6.209139,12 8,13.790861 8,16 C8,16.2564469 7.97586703,16.5072573 7.92974823,16.750284 L17.9484542,21.1173199 C18.2062652,20.6951125 18.5108867,20.3046096 18.8551043,19.9530259 L17.7209488,18.4814108 C16.92561,18.7586983 16.0187297,18.701295 15.2320508,18.2471058 C13.7971729,17.4186786 13.3055475,15.5839074 14.1339746,14.1490295 C14.9624017,12.7141517 16.7971729,12.2225262 18.2320508,13.0509533 C19.6669287,13.8793805 20.1585541,15.7141517 19.330127,17.1490295 C19.3143242,17.1764008 19.2981552,17.2034289 19.2816297,17.2301111 L20.4567939,18.7549367 C21.0839047,18.4220603 21.7720132,18.1888576 22.5,18.0764482 L22.5,12.8550607 C21.0542555,12.4247861 20,11.0855103 20,9.5 C20,7.56700338 21.5670034,6 23.5,6 C25.4329966,6 27,7.56700338 27,9.5 C27,11.0855103 25.9457445,12.4247861 24.5,12.8550607 L24.5,18.0764482 C25.0682216,18.164188 25.6121478,18.32552 26.1217355,18.550401 L30.8237777,9.11806789 C29.7172625,8.29824403 29,6.98288483 29,5.5 C29,3.01471863 31.0147186,1 33.5,1 C35.9852814,1 38,3.01471863 38,5.5 C38,7.98528137 35.9852814,10 33.5,10 C33.212246,10 32.9308003,9.97299116 32.6580597,9.92137027 L27.8142501,19.6380897 C28.3891789,20.14863 28.8729236,20.7595969 29.2379794,21.4434859 L38.504607,18.1936856 C38.5015473,18.1295084 38.5,18.0649349 38.5,18 C38.5,15.790861 40.290861,14 42.5,14 C44.709139,14 46.5,15.790861 46.5,18 C46.5,20.209139 44.709139,22 42.5,22 C41.0632037,22 39.8033406,21.2424589 39.0980308,20.1049968 L29.8954094,23.3323501 C29.9641186,23.7111504 30,24.1013849 30,24.5 C30,25.504031 29.7723558,26.4548928 29.3658655,27.3037873 L30.5971336,28.3475358 C31.0157647,28.1256654 31.493207,28 32,28 C33.6568542,28 35,29.3431458 35,31 C35,31.4275482 34.9105615,31.8342068 34.7493734,32.2022871 L40.0479935,36.7260902 C40.7533855,36.2668399 41.5955308,36 42.5,36 C44.9852814,36 47,38.0147186 47,40.5 C47,42.9852814 44.9852814,45 42.5,45 C40.0147186,45 38,42.9852814 38,40.5 C38,39.6448504 38.2385325,38.845413 38.6526916,38.1645937 L33.3811139,33.6638787 C32.9677275,33.8786397 32.4980364,34 32,34 C30.3431458,34 29,32.6568542 29,31 C29,30.5810132 29.0858925,30.1820876 29.24103,29.8198708 L28.2276838,28.960855 Z M23.5,29 C25.9852814,29 28,26.9852814 28,24.5 C28,22.0147186 25.9852814,20 23.5,20 C21.0147186,20 19,22.0147186 19,24.5 C19,26.9852814 21.0147186,29 23.5,29 Z M23.5,11 C24.3284271,11 25,10.3284271 25,9.5 C25,8.67157288 24.3284271,8 23.5,8 C22.6715729,8 22,8.67157288 22,9.5 C22,10.3284271 22.6715729,11 23.5,11 Z M42.5,20 C43.6045695,20 44.5,19.1045695 44.5,18 C44.5,16.8954305 43.6045695,16 42.5,16 C41.3954305,16 40.5,16.8954305 40.5,18 C40.5,19.1045695 41.3954305,20 42.5,20 Z M32,32 C32.5522847,32 33,31.5522847 33,31 C33,30.4477153 32.5522847,30 32,30 C31.4477153,30 31,30.4477153 31,31 C31,31.5522847 31.4477153,32 32,32 Z M14.5,36 C15.3284271,36 16,35.3284271 16,34.5 C16,33.6715729 15.3284271,33 14.5,33 C13.6715729,33 13,33.6715729 13,34.5 C13,35.3284271 13.6715729,36 14.5,36 Z M3,31 C3.55228475,31 4,30.5522847 4,30 C4,29.4477153 3.55228475,29 3,29 C2.44771525,29 2,29.4477153 2,30 C2,30.5522847 2.44771525,31 3,31 Z M33.5,8 C34.8807119,8 36,6.88071187 36,5.5 C36,4.11928813 34.8807119,3 33.5,3 C32.1192881,3 31,4.11928813 31,5.5 C31,6.88071187 32.1192881,8 33.5,8 Z M23.5,42 C24.8807119,42 26,40.8807119 26,39.5 C26,38.1192881 24.8807119,37 23.5,37 C22.1192881,37 21,38.1192881 21,39.5 C21,40.8807119 22.1192881,42 23.5,42 Z M6.5,45 C7.88071187,45 9,43.8807119 9,42.5 C9,41.1192881 7.88071187,40 6.5,40 C5.11928813,40 4,41.1192881 4,42.5 C4,43.8807119 5.11928813,45 6.5,45 Z M42.5,43 C43.8807119,43 45,41.8807119 45,40.5 C45,39.1192881 43.8807119,38 42.5,38 C41.1192881,38 40,39.1192881 40,40.5 C40,41.8807119 41.1192881,43 42.5,43 Z M4,18 C5.1045695,18 6,17.1045695 6,16 C6,14.8954305 5.1045695,14 4,14 C2.8954305,14 2,14.8954305 2,16 C2,17.1045695 2.8954305,18 4,18 Z M15.8660254,15.1490295 C15.589883,15.6273222 15.7537582,16.2389126 16.2320508,16.5150549 C16.7103434,16.7911973 17.3219338,16.6273222 17.5980762,16.1490295 C17.8742186,15.6707369 17.7103434,15.0591465 17.2320508,14.7830041 C16.7537582,14.5068618 16.1421678,14.6707369 15.8660254,15.1490295 Z" id="Combined-Shape" fill="#005676" fill-rule="nonzero"></path>
        <rect id="Rectangle" fill-opacity="0.7" fill="#D8D8D8" fill-rule="nonzero" opacity="0" x="0" y="0" width="48" height="48"></rect>
    </g>
</svg>