<?xml version="1.0" encoding="UTF-8"?>
<svg width="48px" height="48px" viewBox="0 0 48 48" version="1.1" xmlns="http://www.w3.org/2000/svg" xmlns:xlink="http://www.w3.org/1999/xlink">
    <!-- Generator: Sketch 52.6 (67491) - http://www.bohemiancoding.com/sketch -->
    <title>05_safe</title>
    <desc>Created with Sketch.</desc>
    <g id="05_safe" stroke="none" stroke-width="1" fill="none" fill-rule="evenodd">
        <path d="M42,20.7324356 L42,24.2675644 C42.5978014,24.6133738 43,25.2597176 43,26 C43,27.1045695 42.1045695,28 41,28 C39.8954305,28 39,27.1045695 39,26 C39,25.2597176 39.4021986,24.6133738 40,24.2675644 L40,20.7324356 C39.4021986,20.3866262 39,19.7402824 39,19 C39,17.8954305 39.8954305,17 41,17 C42.1045695,17 43,17.8954305 43,19 C43,19.7402824 42.5978014,20.3866262 42,20.7324356 Z M3,29 L5,29 L5,14 L3,14 L3,29 Z M3,35 L3,40 C3,40.5522847 3.44771525,41 4,41 L5.17070571,41 C5.06015422,40.6872211 5,40.3506354 5,40 L5,35 L3,35 Z M7,35 L7,40 C7,40.5522847 7.44771525,41 8,41 L44,41 C44.5522847,41 45,40.5522847 45,40 L45,4 C45,3.44771525 44.5522847,3 44,3 L7.99999948,3 C7.44771525,3 7,3.44771525 7,4 L7,8 L8,8 C9.65685425,8 11,9.34314575 11,11 C11,12.6568542 9.65685425,14 8,14 L7,14 L7,29 L8,29 C9.65685425,29 11,30.3431458 11,32 C11,33.6568542 9.65685425,35 8,35 L7,35 Z M3,8 L5,8 L5,4 C5,3.64936458 5.06015422,3.31277893 5.17070571,3 L4,3 C3.44771525,3 3,3.44771525 3,4 L3,8 Z M5.85528703,10 L4,10 L4,12 L8,12 C8.55228475,12 9,11.5522847 9,11 C9,10.4477153 8.55228475,10 8,10 L6.14471297,10 C6.09746457,10.0068489 6.04914631,10.0103942 6,10.0103942 C5.95085369,10.0103942 5.90253543,10.0068489 5.85528703,10 Z M4,43 C2.34314575,43 1,41.6568542 1,40 L1,4 C1,2.34314575 2.34314575,1 4,1 L44,1 C45.6568542,1 47,2.34314575 47,4 L47,40 C47,41.6568542 45.6568542,43 44,43 L43.5147186,43 L43.5147186,44 C43.5147186,45.6568542 42.1715729,47 40.5147186,47 L36.2711344,47 C35.5037745,47 34.7655868,46.7059504 34.208399,46.1783302 L32.674797,44.7261101 C32.1851412,44.2624382 31.9605384,43.6238979 32.0061539,43 L15.5089403,43 C15.5545558,43.6238979 15.329953,44.2624382 14.8402972,44.7261101 L13.3066952,46.1783302 C12.7495074,46.7059504 12.0113196,47 11.2439598,47 L7.00037557,47 C5.34352132,47 4.00037557,45.6568542 4.00037557,44 L4.00037557,43 L4,43 Z M6.00037557,43 L6.00037557,44 C6.00037557,44.5522847 6.44809082,45 7.00037557,45 L11.2439598,45 C11.4997464,45 11.745809,44.9019835 11.9315382,44.7261101 L13.4651402,43.2738899 C13.5287719,43.2136349 13.5315092,43.113205 13.4712542,43.0495734 C13.4412872,43.017927 13.3996224,43 13.356039,43 L6.00037557,43 Z M41.5147186,43 L34.1590552,43 C34.1154718,43 34.073807,43.017927 34.04384,43.0495734 C33.983585,43.113205 33.9863223,43.2136349 34.049954,43.2738899 L35.583556,44.7261101 C35.7692852,44.9019835 36.0153478,45 36.2711344,45 L40.5147186,45 C41.0670034,45 41.5147186,44.5522847 41.5147186,44 L41.5147186,43 Z M4,31 L4,33 L8,33 C8.55228475,33 9,32.5522847 9,32 C9,31.4477153 8.55228475,31 8,31 L4,31 Z M29.3301057,13.9835527 C29.4524988,13.8870723 29.6018869,13.8170892 29.7745421,13.786241 L31.9621219,13.3953878 C32.6183958,13.2781318 33.2034788,13.8237305 33.1322878,14.4865852 L32.8949846,16.6961007 C32.8899724,16.7427689 32.882048,16.7879704 32.8714482,16.831617 C34.2048762,18.5308206 35,20.6725547 35,23 C35,28.5228475 30.5228475,33 25,33 C19.4771525,33 15,28.5228475 15,23 C15,17.4771525 19.4771525,13 25,13 C26.551205,13 28.019917,13.3531947 29.3301038,13.983552 L29.3301057,13.9835527 Z M31.0607814,15.0452843 C31.2472253,15.1875551 31.4285188,15.3362316 31.6043336,15.4909855 L32.0951318,15.4032949 L31.1199935,14.4939638 L31.0607814,15.0452843 Z M19.1319638,17.5624706 C18.3273155,18.4304159 17.7128617,19.4771899 17.3548651,20.6365298 L19.3458139,20.9875878 C19.5925718,20.2943298 19.9632126,19.6598257 20.431096,19.1107161 L19.1319638,17.5624706 Z M20.6634542,16.2761821 L21.9626364,17.8244872 C22.5796698,17.4615855 23.2673216,17.2058786 24,17.0829584 L24,15.0618938 C22.7815138,15.2138368 21.6481271,15.6398044 20.6634542,16.2761821 Z M17.0095092,22.6064875 C17.0031941,22.7368636 17,22.8680588 17,23 C17,24.1006032 17.2222529,25.1492965 17.6243257,26.103647 L19.3750944,25.0928402 C19.1325541,24.4412317 19,23.7360957 19,23 C19,22.9858187 19.0000492,22.9716489 19.0001474,22.9574907 L17.0095092,22.6064875 Z M18.6257562,27.8348719 C19.3472683,28.7846351 20.27619,29.5682263 21.345027,30.1181513 L22.0365285,28.2182665 C21.4017581,27.8570013 20.8393356,27.3832543 20.3763826,26.8241473 L18.6257562,27.8348719 Z M23.2243893,30.8022546 C23.7954792,30.9316739 24.3897604,31 25,31 C25.6102396,31 26.2045208,30.9316739 26.7756107,30.8022546 L26.0840896,28.9023161 C25.7324679,28.9664822 25.3701482,29 25,29 C24.6298518,29 24.2675321,28.9664822 23.9159104,28.9023161 L23.2243893,30.8022546 Z M28.654973,30.1181513 C29.72381,29.5682263 30.6527317,28.7846351 31.3742438,27.8348719 L29.6236174,26.8241473 C29.1606644,27.3832543 28.5982419,27.8570013 27.9634715,28.2182665 L28.654973,30.1181513 Z M32.3756743,26.103647 C32.7777471,25.1492965 33,24.1006032 33,23 C33,22.8680588 32.9968059,22.7368636 32.9904908,22.6064875 L30.9998534,22.9574906 C30.9999508,22.9716489 31,22.9858187 31,23 C31,23.7360957 30.8674459,24.4412317 30.6249056,25.0928402 L32.3756743,26.103647 Z M32.6451349,20.6365298 C31.7320167,17.6794779 29.1504559,15.45475 26,15.0618938 L26,17.0829584 C28.1639237,17.4459961 29.9350894,18.9673095 30.6541861,20.9875878 L32.6451349,20.6365298 Z M25,27 C27.209139,27 29,25.209139 29,23 C29,20.790861 27.209139,19 25,19 C22.790861,19 21,20.790861 21,23 C21,25.209139 22.790861,27 25,27 Z" id="Shape" fill="#005676" fill-rule="nonzero"></path>
        <rect id="Rectangle" fill-opacity="0.7" fill="#D8D8D8" fill-rule="nonzero" opacity="0" x="0" y="0" width="48" height="48"></rect>
        <g id="Group-3" transform="translate(15.000000, 12.000000)">
            <g id="Group" transform="translate(0.000000, 0.666667)"></g>
        </g>
    </g>
</svg>