<?xml version="1.0" encoding="UTF-8"?>
<svg width="48px" height="48px" viewBox="0 0 48 48" version="1.1" xmlns="http://www.w3.org/2000/svg" xmlns:xlink="http://www.w3.org/1999/xlink">
    <!-- Generator: Sketch 52.6 (67491) - http://www.bohemiancoding.com/sketch -->
    <title>06_white_label</title>
    <desc>Created with Sketch.</desc>
    <g id="06_white_label" stroke="none" stroke-width="1" fill="none" fill-rule="evenodd">
        <path d="M37.6024377,30.4652208 C38.06958,28.3145349 38.3149721,26.0365536 38.3149721,23.6995074 C38.3149721,21.4592902 38.0906101,19.3032697 37.6759104,17.279329 C35.5565905,17.882473 33.2999334,18.3446965 30.9512409,18.6525966 C31.0006658,19.5155923 31.0373865,20.3919173 31.0610991,21.2782826 C31.0758689,21.8303698 30.6402871,22.2898982 30.0881999,22.304668 C29.5361126,22.3194378 29.0765842,21.883856 29.0618144,21.3317688 C29.0396268,20.5024083 29.0057957,19.6823152 28.9605939,18.8743742 C28.0947743,18.954054 27.2185959,19.0131032 26.3341947,19.0508901 C25.7824134,19.0744654 25.3159946,18.6462699 25.2924193,18.0944885 C25.2688439,17.5427072 25.6970394,17.0762884 26.2488208,17.0527131 C27.1165953,17.0156366 27.9756728,16.957324 28.8238071,16.878483 C28.6672009,14.955984 28.4449442,13.1344547 28.1643654,11.4616824 C26.8028332,11.6289278 25.4090591,11.7148 23.9961507,11.7148 C22.8944078,11.7148 21.804299,11.6625863 20.7320388,11.5602918 C20.6049672,12.3268015 20.4898953,13.125286 20.387662,13.9511247 C20.3198107,14.4992257 19.8204828,14.888545 19.2723819,14.8206938 C18.7242809,14.7528425 18.3349616,14.2535146 18.4028128,13.7054137 C18.504929,12.8805209 18.6196177,12.0808979 18.7461819,11.310666 C17.0189167,11.0402629 15.3507257,10.6373237 13.7694687,10.1114102 C13.1291258,11.3082357 12.5672735,12.6218638 12.0992236,14.0374415 C11.9258464,14.5618066 11.3602144,14.8463385 10.8358493,14.6729612 C10.3114842,14.4995839 10.0269523,13.933952 10.2003296,13.4095869 C10.6723556,11.9819835 11.236425,10.6430895 11.8802908,9.40733328 C10.9831846,9.03518784 10.1209705,8.62077374 9.29954049,8.16611319 C7.64251773,9.73639029 6.22628172,11.581161 5.12364577,13.6495171 C4.86383647,14.1368749 4.2581379,14.3213393 3.77078016,14.06153 C3.28342241,13.8017207 3.09895796,13.1960221 3.35876726,12.7086644 C7.39540767,5.13661859 15.2792144,0.30401126 24.0168895,0.30401126 C24.1041744,0.30401126 24.1913477,0.304489253 24.2784068,0.305442765 C24.3376756,0.304489153 24.3970145,0.30401126 24.4564218,0.30401126 C24.7753667,0.30401126 25.091888,0.317652954 25.4057474,0.34455337 C37.6801889,1.06316049 47.4123856,11.2447958 47.4123856,23.6995074 C47.4123856,31.238776 43.8201568,38.1805384 37.860139,42.5617341 C37.4151485,42.8888456 36.7892362,42.7932858 36.4621247,42.3482953 C36.1350132,41.9033049 36.230573,41.2773926 36.6755635,40.9502811 C37.1900497,40.5720834 37.6852298,40.1730698 38.1601666,39.7547425 C37.2183199,39.4584165 36.242821,39.1915704 35.2385796,38.9559514 C34.7008959,38.829798 34.3672847,38.2916517 34.4934381,37.753968 C34.5876632,37.3523675 34.9117277,37.0646133 35.2937698,36.9972473 C36.0259248,35.5819577 36.6355402,34.0401276 37.1109109,32.4055382 C36.8946531,32.3411966 36.6767116,32.2783805 36.4571432,32.2171109 C35.9251812,32.0686693 35.6142765,31.5170932 35.7627182,30.9851313 C35.9111598,30.4531693 36.4627359,30.1422646 36.9946979,30.2907063 C37.1985649,30.3475945 37.4011582,30.4057706 37.6024377,30.4652208 Z M39.5143841,31.0821241 C40.8996613,31.5686407 42.2070022,32.117867 43.4219998,32.7237046 C44.712326,29.9501613 45.4123856,26.8834256 45.4123856,23.6995074 C45.4123856,20.622222 44.7627214,17.6966739 43.5930655,15.0525355 C42.3431019,15.6589227 41.0048243,16.2037162 39.5934478,16.6824143 C40.0627743,18.9003969 40.3149721,21.2582053 40.3149721,23.6995074 C40.3149721,26.2472708 40.0398021,28.7336678 39.5143841,31.0821241 Z M39.0130932,33.0262602 C38.5592943,34.5741945 37.9918789,36.0476559 37.3188026,37.4222006 C38.1580254,37.6531815 38.9760681,37.905945 39.7701605,38.17957 C40.8104344,37.0491493 41.7229534,35.8139196 42.4940099,34.4958555 C41.4120256,33.958245 40.2477175,33.4664965 39.0130932,33.0262602 Z M10.9307188,6.76867855 C11.5595595,7.089831 12.2129363,7.38686632 12.8879264,7.65871461 C13.8220957,6.19061786 14.8806239,4.90837289 16.036703,3.8435627 C14.2035047,4.58019362 12.485887,5.5661552 10.9307188,6.76867855 Z M33.6251109,4.57757708 C34.4163724,5.40368403 35.152917,6.33406045 35.8260948,7.35481245 C36.2554509,7.16596143 36.6751828,6.96657954 37.0844848,6.75696665 C36.0081101,5.92554705 34.8503188,5.19441719 33.6251109,4.57757708 Z M38.7164077,8.15300771 C38.1182537,8.48496465 37.4984018,8.79555042 36.8591335,9.08398186 C37.7808754,10.7892575 38.5432655,12.688654 39.115298,14.7323668 C40.3799235,14.2967232 41.5787034,13.8057251 42.6989357,13.2633738 C41.6344542,11.361892 40.2880832,9.63957495 38.7164077,8.15300771 Z M24.5415021,2.31031711 C24.4928141,2.30914547 24.4440859,2.30813647 24.3953178,2.30729065 C23.3960928,2.41364908 22.0454905,5.10172384 21.1012795,9.5859372 C22.052406,9.67123445 23.0190329,9.71480002 23.9961507,9.71480002 C25.283337,9.71480002 26.5523174,9.63919807 27.7916395,9.49218688 C26.8560807,5.10111171 25.5323093,2.45552034 24.5415021,2.31031711 Z M37.207902,15.3331266 C36.6511045,13.325346 35.9008304,11.47713 34.9952549,9.84220389 C33.4580352,10.4029119 31.8310279,10.8445085 30.1413083,11.1577004 C30.4263423,12.8622719 30.6521269,14.7093172 30.8120855,16.6535702 C33.0514622,16.3543423 35.198137,15.9095524 37.207902,15.3331266 Z M19.1080407,9.34294982 C19.6605269,6.64045315 20.352699,4.45668345 21.1894682,2.9130272 C18.7914191,3.81992438 16.5929239,5.70669857 14.8236485,8.35056985 C16.1892428,8.78001122 17.6242293,9.11331379 19.1080407,9.34294982 Z M29.7737303,9.19182439 C31.2128798,8.92526 32.6008019,8.55989253 33.9179342,8.10288393 C32.195783,5.61485408 30.0685626,3.7969709 27.7220648,2.91070503 C28.5439116,4.42568117 29.2263554,6.55772842 29.7737303,9.19182439 Z M3,36.1096184 L9,36.1096184 L9,31.1096184 L3,31.1096184 L3,36.1096184 Z M3,38.1096184 L3,45.6096184 L4,45.6096184 L8.43455112,45.6096184 C8.44971629,45.4777061 8.49155829,45.3466717 8.56217783,45.2243551 L9,44.4660248 L9,38.1096184 L3,38.1096184 Z M3,29.1096184 L9,29.1096184 L9,24.4919713 L3,24.4919713 L3,29.1096184 Z M3,22.4919713 L9,22.4919713 L9,17.6096184 L3,17.6096184 L3,22.4919713 Z M11,41.0019232 L15.6210014,32.9981141 L12.3570289,31.1136587 C11.8787362,30.8375163 11.7148611,30.2259259 11.9910035,29.7476333 C12.2671458,29.2693407 12.8787362,29.1054655 13.3570289,29.3816079 L16.6210014,31.2660633 L19.1210014,26.9359363 L13.9248489,23.9359363 L13.9088184,23.963702 C13.632676,24.4419946 13.0210856,24.6058698 12.542793,24.3297274 C12.0645003,24.053585 11.9006252,23.4419946 12.1767676,22.963702 L15.6339746,16.9756438 C16.1862593,16.0190585 17.4094402,15.6913082 18.3660254,16.243593 L23.5621778,19.243593 C24.5187631,19.7958777 24.8465134,21.0190585 24.2942286,21.9756438 L12.4591483,42.4746043 L19.7435061,38.3900542 L18.6798282,36.4711285 C18.4120752,35.9880894 18.5865992,35.3794521 19.0696383,35.1116992 C19.5526774,34.8439462 20.1613147,35.0184701 20.4290676,35.5015093 L21.4879967,37.4118679 L25.8492232,34.9664021 L22.4936873,28.9128551 C22.4731464,28.8757983 22.4552084,28.8380022 22.439813,28.7996776 C22.1808777,28.3184671 22.3564156,27.7171253 22.8357331,27.4514353 L27.9738464,24.6033326 C28.9399247,24.0678267 30.1571992,24.4168745 30.6927051,25.3829528 L33.6015628,30.630671 C34.1370687,31.5967493 33.7880209,32.8140237 32.8262207,33.3471446 L11,45.5857511 L11,45.6096184 L18.1176471,45.6096184 L18.1176471,44 C18.1176471,43.4477153 18.5653623,43 19.1176471,43 C19.6699318,43 20.1176471,43.4477153 20.1176471,44 L20.1176471,45.6096184 L26.1176471,45.6096184 L26.1176471,39.0806244 C26.0425692,38.940272 26,38.7799164 26,38.6096184 C26,38.0573336 26.4477153,37.6096184 27,37.6096184 L32,37.6096184 C33.1045695,37.6096184 34,38.5050489 34,39.6096184 L34,45.6096184 C34,46.7141879 33.1045695,47.6096184 32,47.6096184 L3,47.6096184 C1.8954305,47.6096184 1,46.7141879 1,45.6096184 L1,17.6096184 C1,16.5050489 1.8954305,15.6096184 3,15.6096184 L9,15.6096184 C10.1045695,15.6096184 11,16.5050489 11,17.6096184 L11,41.0019232 Z M14.9248489,22.2038855 L20.1210014,25.2038855 L22.5621778,20.9756438 L17.3660254,17.9756438 L14.9248489,22.2038855 Z M27.5937138,33.9882158 L31.8523234,31.6002902 L28.9434657,26.352572 L24.6732634,28.7195838 L27.5937138,33.9882158 Z M28.1176471,45.6096184 L32,45.6096184 L32,39.6096184 L28.1176471,39.6096184 L28.1176471,45.6096184 Z M6,44.6096184 C4.8954305,44.6096184 4,43.7141879 4,42.6096184 C4,41.5050489 4.8954305,40.6096184 6,40.6096184 C7.1045695,40.6096184 8,41.5050489 8,42.6096184 C8,43.7141879 7.1045695,44.6096184 6,44.6096184 Z" id="Shape" fill="#005676" fill-rule="nonzero"></path>
        <rect id="Rectangle" fill-opacity="0.7" fill="#D8D8D8" fill-rule="nonzero" opacity="0" x="0" y="0" width="48" height="48"></rect>
    </g>
</svg>