<?xml version="1.0" encoding="UTF-8"?>
<svg width="164px" height="164px" viewBox="0 0 164 164" version="1.1" xmlns="http://www.w3.org/2000/svg" xmlns:xlink="http://www.w3.org/1999/xlink">
    <!-- Generator: Sketch 52.6 (67491) - http://www.bohemiancoding.com/sketch -->
    <title>academic_h</title>
    <desc>Created with Sketch.</desc>
    <g id="academic_h" stroke="none" stroke-width="1" fill="none" fill-rule="evenodd">
        <g id="Group" fill-rule="nonzero">
            <path d="M68.3723044,110.108156 L71.8146233,100.612047 L46.3328305,100.612047 C44.6818403,100.612047 43.3434483,99.2694516 43.3434483,97.613276 L43.3434483,44.3576725 L37.466377,47.7614582 C32.8417866,50.4398526 29.9929215,55.3897296 29.9929215,60.7465183 L29.9929215,104.253482 C29.9929215,109.61027 32.8417866,114.560147 37.466377,117.238542 L52.0710146,125.697016 L112.393822,125.697016 C112.533988,125.697016 112.667395,125.726047 112.788393,125.778442 L127.533623,117.238542 C132.158213,114.560147 135.007079,109.61027 135.007079,104.253482 L135.007079,60.7465183 C135.007079,55.3897296 132.158213,50.4398526 127.533623,47.7614582 L122.358429,44.7641745 L122.358429,87.497952 C122.358429,87.9635849 122.252636,88.4044309 122.063846,88.7976216 L122.063846,97.613276 C122.063846,99.2694516 120.725454,100.612047 119.074464,100.612047 L93.5926713,100.612047 L97.0349902,110.108156 L106.704209,110.108156 C107.254539,110.108156 107.70067,110.555688 107.70067,111.107746 C107.70067,111.659805 107.254539,112.107337 106.704209,112.107337 L57.791862,112.107337 C57.2415319,112.107337 56.7954013,111.659805 56.7954013,111.107746 C56.7954013,110.555688 57.2415319,110.108156 57.791862,110.108156 L68.3723044,110.108156 Z M46.3328305,98.6128664 L90.7741278,98.6128664 L119.074464,98.6128664 C119.624794,98.6128664 120.070925,98.1653345 120.070925,97.613276 L120.070925,90.413605 C119.845814,90.4679404 119.610781,90.4967231 119.369047,90.4967231 L46.6274135,90.4967231 C46.1650364,90.4967231 45.7271775,90.3914181 45.3363697,90.2034118 L45.3363697,97.613276 C45.3363697,98.1653345 45.7825004,98.6128664 46.3328305,98.6128664 Z M109.477144,127.696197 L55.5228558,127.696197 L75.0265445,138.992023 C79.6511349,141.670418 85.3488651,141.670418 89.9734555,138.992023 L109.477144,127.696197 Z M107.283012,120.012217 C107.723744,119.616512 108.305751,119.3759 108.94378,119.3759 L110.604548,119.3759 C111.980373,119.3759 113.0957,120.494729 113.0957,121.874876 C113.0957,123.255022 111.980373,124.373852 110.604548,124.373852 L108.94378,124.373852 C108.305751,124.373852 107.723744,124.133239 107.283012,123.737534 C106.84228,124.133239 106.260273,124.373852 105.622244,124.373852 L94.6730325,124.373852 C94.4954525,124.373852 94.3182257,124.357979 94.1434545,124.326421 L86.0147339,122.858656 C84.9214876,122.661253 84.9214876,121.088498 86.0147339,120.891095 L94.1434545,119.42333 C94.3182257,119.391773 94.4954525,119.3759 94.6730325,119.3759 L105.622244,119.3759 C106.260273,119.3759 106.84228,119.616512 107.283012,120.012217 Z M58.2212989,33.5200707 C58.2986836,33.4188301 58.3967996,33.3308643 58.5137955,33.2631045 L74.0300837,24.2766352 C79.2712862,21.2411216 85.7287138,21.2411216 90.9699163,24.2766352 L106.477592,33.2581166 C106.596505,33.3269868 106.695915,33.4167307 106.773876,33.5200707 L119.369047,33.5200707 C121.020037,33.5200707 122.358429,34.8626663 122.358429,36.5188419 L122.358429,42.4557194 L128.530084,46.0301169 C133.771286,49.0656305 137,54.6754911 137,60.7465183 L137,104.253482 C137,110.324509 133.771286,115.934369 128.530084,118.969883 L90.9699163,140.723365 C85.7287138,143.758878 79.2712862,143.758878 74.0300837,140.723365 L36.4699163,118.969883 C31.2287138,115.934369 28,110.324509 28,104.253482 L28,60.7465183 C28,54.6754911 31.2287138,49.0656305 36.4699163,46.0301169 L43.3434483,42.0492174 L43.3434483,36.638262 C43.3434483,35.3228974 44.1876824,34.2053335 45.3622497,33.8010853 C45.746469,33.62079 46.175216,33.5200707 46.6274135,33.5200707 L58.2212989,33.5200707 Z M102.944047,33.5200707 L89.9734555,26.0079766 C85.3488651,23.3295822 79.6511349,23.3295822 75.0265445,26.0079766 L62.0559534,33.5200707 L102.944047,33.5200707 Z M46.111681,35.663376 C45.8235167,35.838569 45.6309528,36.156147 45.6309528,36.5188419 L45.6309528,87.497952 C45.6309528,88.0500105 46.0770835,88.4975424 46.6274135,88.4975424 L119.369047,88.4975424 C119.642828,88.4975424 119.890821,88.3867822 120.070925,88.2074937 L120.070925,36.638262 C120.070925,36.0862035 119.624794,35.6386716 119.074464,35.6386716 L46.3328305,35.6386716 C46.2568263,35.6386716 46.1828096,35.6472076 46.111681,35.663376 Z M94.4965065,122.358861 C94.5547636,122.36938 94.6138392,122.374671 94.6730325,122.374671 L105.622244,122.374671 C105.897409,122.374671 106.120475,122.150905 106.120475,121.874876 C106.120475,121.598846 105.897409,121.37508 105.622244,121.37508 L94.6730325,121.37508 C94.6138392,121.37508 94.5547636,121.380371 94.4965065,121.390891 L91.8161194,121.874876 L94.4965065,122.358861 Z M108.94378,121.37508 C108.668615,121.37508 108.44555,121.598846 108.44555,121.874876 C108.44555,122.150905 108.668615,122.374671 108.94378,122.374671 L110.604548,122.374671 C110.879713,122.374671 111.102778,122.150905 111.102778,121.874876 C111.102778,121.598846 110.879713,121.37508 110.604548,121.37508 L108.94378,121.37508 Z M53.3080556,43.6353948 C52.7577256,43.6353948 52.3115949,44.0829266 52.3115949,44.6349852 L52.3115949,65.6263834 C52.3115949,66.1784419 52.7577256,66.6259738 53.3080556,66.6259738 L85.1947992,66.6259738 C85.7451292,66.6259738 86.1912599,66.1784419 86.1912599,65.6263834 L86.1912599,44.6349852 C86.1912599,44.0829266 85.7451292,43.6353948 85.1947992,43.6353948 L53.3080556,43.6353948 Z M53.3080556,41.636214 L85.1947992,41.636214 C86.8457894,41.636214 88.1841814,42.9788096 88.1841814,44.6349852 L88.1841814,65.6263834 C88.1841814,67.282559 86.8457894,68.6251546 85.1947992,68.6251546 L53.3080556,68.6251546 C51.6570654,68.6251546 50.3186734,67.282559 50.3186734,65.6263834 L50.3186734,44.6349852 C50.3186734,42.9788096 51.6570654,41.636214 53.3080556,41.636214 Z M64.2691237,59.6333744 L73.0915101,55.1265043 L64.2691237,50.3118734 L64.2691237,59.6333744 Z M63.7488524,47.752076 L75.7063812,54.2776445 C76.4108696,54.6621041 76.3970379,55.6813716 75.682378,56.0464518 L63.7248492,62.154893 C63.0618985,62.493558 62.2762022,62.0104499 62.2762022,61.2641506 L62.2762022,48.6301408 C62.2762022,47.8718805 63.0848633,47.3897179 63.7488524,47.752076 Z M82.7036473,97.1134808 C81.3278221,97.1134808 80.2124955,95.9946511 80.2124955,94.6145048 C80.2124955,93.2343585 81.3278221,92.1155288 82.7036473,92.1155288 C84.0794725,92.1155288 85.1947992,93.2343585 85.1947992,94.6145048 C85.1947992,95.9946511 84.0794725,97.1134808 82.7036473,97.1134808 Z M82.7036473,95.1143 C82.9788123,95.1143 83.2018777,94.8905341 83.2018777,94.6145048 C83.2018777,94.3384755 82.9788123,94.1147096 82.7036473,94.1147096 C82.4284823,94.1147096 82.2054169,94.3384755 82.2054169,94.6145048 C82.2054169,94.8905341 82.4284823,95.1143 82.7036473,95.1143 Z M50.6885661,77.7020602 C50.138236,77.7020602 49.6921054,77.2545284 49.6921054,76.7024698 C49.6921054,76.1504113 50.138236,75.7028794 50.6885661,75.7028794 L58.0753477,75.7028794 C58.6256778,75.7028794 59.0718085,76.1504113 59.0718085,76.7024698 C59.0718085,77.2545284 58.6256778,77.7020602 58.0753477,77.7020602 L50.6885661,77.7020602 Z M63.272663,74.1229018 C63.272663,73.5708432 63.7187936,73.1233114 64.2691237,73.1233114 C64.8194538,73.1233114 65.2655844,73.5708432 65.2655844,74.1229018 L65.2655844,78.2615485 C65.2655844,78.813607 64.8194538,79.2611389 64.2691237,79.2611389 C63.7187936,79.2611389 63.272663,78.813607 63.272663,78.2615485 L63.272663,74.1229018 Z M70.4259118,77.7020602 C69.8755817,77.7020602 69.4294511,77.2545284 69.4294511,76.7024698 C69.4294511,76.1504113 69.8755817,75.7028794 70.4259118,75.7028794 L87.8741088,75.7028794 C88.4244389,75.7028794 88.8705695,76.1504113 88.8705695,76.7024698 C88.8705695,77.2545284 88.4244389,77.7020602 87.8741088,77.7020602 L70.4259118,77.7020602 Z M95.7729788,44.13519 C95.2226487,44.13519 94.7765181,43.6876581 94.7765181,43.1355996 C94.7765181,42.583541 95.2226487,42.1360092 95.7729788,42.1360092 L115.083174,42.1360092 C115.633504,42.1360092 116.079634,42.583541 116.079634,43.1355996 C116.079634,43.6876581 115.633504,44.13519 115.083174,44.13519 L95.7729788,44.13519 Z M95.7729788,56.1302747 C95.2226487,56.1302747 94.7765181,55.6827428 94.7765181,55.1306843 C94.7765181,54.5786258 95.2226487,54.1310939 95.7729788,54.1310939 L115.083174,54.1310939 C115.633504,54.1310939 116.079634,54.5786258 116.079634,55.1306843 C116.079634,55.6827428 115.633504,56.1302747 115.083174,56.1302747 L95.7729788,56.1302747 Z M95.7729788,67.125769 C95.2226487,67.125769 94.7765181,66.6782371 94.7765181,66.1261786 C94.7765181,65.5741201 95.2226487,65.1265882 95.7729788,65.1265882 L115.083174,65.1265882 C115.633504,65.1265882 116.079634,65.5741201 116.079634,66.1261786 C116.079634,66.6782371 115.633504,67.125769 115.083174,67.125769 L95.7729788,67.125769 Z M95.7729788,79.1208537 C95.2226487,79.1208537 94.7765181,78.6733219 94.7765181,78.1212633 C94.7765181,77.5692048 95.2226487,77.1216729 95.7729788,77.1216729 L115.083174,77.1216729 C115.633504,77.1216729 116.079634,77.5692048 116.079634,78.1212633 C116.079634,78.6733219 115.633504,79.1208537 115.083174,79.1208537 L95.7729788,79.1208537 Z M91.710595,101.270034 C91.5673985,100.875007 91.1931459,100.612047 90.7741278,100.612047 L74.6331669,100.612047 C74.2141487,100.612047 73.8398962,100.875007 73.6966996,101.270034 L70.6740744,109.608361 L94.7332203,109.608361 L91.710595,101.270034 Z M56.2591124,117.605084 C55.2199484,117.605084 54.3045164,118.690356 54.3045164,120.10406 C54.3045164,121.517764 55.2199484,122.603036 56.2591124,122.603036 L78.268928,122.603036 C77.8462412,121.879788 77.6063674,121.015469 77.6063674,120.10406 C77.6063674,119.192651 77.8462412,118.328332 78.268928,117.605084 L56.2591124,117.605084 Z M81.0413523,117.693336 C80.2180438,117.983825 79.5992889,118.952676 79.5992889,120.10406 C79.5992889,121.255444 80.2180438,122.224294 81.0413523,122.514783 C81.9291313,122.828019 81.9291313,124.087473 81.0413523,124.400709 C80.6645194,124.533668 80.2696407,124.602217 79.8675668,124.602217 L56.2591124,124.602217 C54.0386291,124.602217 52.3115949,122.554766 52.3115949,120.10406 C52.3115949,117.653354 54.0386291,115.605903 56.2591124,115.605903 L79.8675668,115.605903 C80.2696407,115.605903 80.6645194,115.674452 81.0413523,115.80741 C81.9291313,116.120646 81.9291313,117.380101 81.0413523,117.693336 Z" id="academic_h" fill="#005676"></path>
            <rect id="Rectangle" fill="#D8D8D8" opacity="0" x="0" y="0" width="164" height="164"></rect>
        </g>
    </g>
</svg>