<?xml version="1.0" encoding="UTF-8"?>
<svg width="300px" height="54px" viewBox="0 0 300 54" version="1.1" xmlns="http://www.w3.org/2000/svg" xmlns:xlink="http://www.w3.org/1999/xlink">
    <!-- Generator: Sketch 52.6 (67491) - http://www.bohemiancoding.com/sketch -->
    <title>gwm_web_white</title>
    <desc>Created with Sketch.</desc>
    <defs>
        <linearGradient x1="99.9994928%" y1="49.9996634%" x2="-0.000345867591%" y2="49.9996634%" id="linearGradient-1">
            <stop stop-color="#FFFFFF" offset="0%"></stop>
            <stop stop-color="#FFFFFF" offset="100%"></stop>
        </linearGradient>
    </defs>
    <g id="gwm_web_white" stroke="none" stroke-width="1" fill="none" fill-rule="evenodd">
        <g id="gwm_header_logo" transform="translate(1.000000, 1.000000)">
            <path d="M62.54,33.12 C63.5080048,33.12 64.2599973,33.3479977 64.796,33.804 C65.3320027,34.2600023 65.6,34.9279956 65.6,35.808 C65.6,36.6880044 65.3320027,37.3599977 64.796,37.824 C64.2599973,38.2880023 63.5080048,38.52 62.54,38.52 L60.62,38.52 L60.62,41.196 C60.62,41.2840004 60.5880003,41.3599997 60.524,41.424 C60.4599997,41.4880003 60.3840004,41.52 60.296,41.52 L59.324,41.52 C59.2359996,41.52 59.1600003,41.4880003 59.096,41.424 C59.0319997,41.3599997 59,41.2840004 59,41.196 L59,33.444 C59,33.3559996 59.0319997,33.2800003 59.096,33.216 C59.1600003,33.1519997 59.2359996,33.12 59.324,33.12 L62.54,33.12 Z M60.62,37.02 L62.48,37.02 C62.9360023,37.02 63.2999986,36.9300009 63.572,36.75 C63.8440014,36.5699991 63.98,36.2560022 63.98,35.808 C63.98,35.3599978 63.8440014,35.0500009 63.572,34.878 C63.2999986,34.7059991 62.9360023,34.62 62.48,34.62 L60.62,34.62 L60.62,37.02 Z M69.464,35.16 C69.9040022,35.16 70.3019982,35.2279993 70.658,35.364 C71.0140018,35.5000007 71.3219987,35.6879988 71.582,35.928 C71.8420013,36.1680012 72.0499992,36.4479984 72.206,36.768 C72.3620008,37.0880016 72.4519999,37.4319982 72.476,37.8 C72.484,37.8720004 72.488,37.9639994 72.488,38.076 L72.488,38.742 C72.488,38.8500005 72.484,38.9399996 72.476,39.012 C72.4439998,39.3800018 72.3520008,39.7239984 72.2,40.044 C72.0479992,40.3640016 71.8420013,40.6419988 71.582,40.878 C71.3219987,41.1140012 71.0140018,41.2999993 70.658,41.436 C70.3019982,41.5720007 69.9040022,41.64 69.464,41.64 C69.0239978,41.64 68.6260018,41.5720007 68.27,41.436 C67.9139982,41.2999993 67.6060013,41.1140012 67.346,40.878 C67.0859987,40.6419988 66.8800008,40.3640016 66.728,40.044 C66.5759992,39.7239984 66.4840002,39.3800018 66.452,39.012 C66.444,38.9399996 66.438,38.8500005 66.434,38.742 C66.43,38.6339995 66.428,38.5240006 66.428,38.412 C66.428,38.2999994 66.43,38.1880006 66.434,38.076 C66.438,37.9639994 66.444,37.8720004 66.452,37.8 C66.4760001,37.4319982 66.5659992,37.0880016 66.722,36.768 C66.8780008,36.4479984 67.0859987,36.1680012 67.346,35.928 C67.6060013,35.6879988 67.9139982,35.5000007 68.27,35.364 C68.6260018,35.2279993 69.0239978,35.16 69.464,35.16 Z M70.916,37.86 C70.8919999,37.6119988 70.8340005,37.4060008 70.742,37.242 C70.6499995,37.0779992 70.5360007,36.9480005 70.4,36.852 C70.2639993,36.7559995 70.1160008,36.6900002 69.956,36.654 C69.7959992,36.6179998 69.6320008,36.6 69.464,36.6 C69.2959992,36.6 69.1320008,36.6179998 68.972,36.654 C68.8119992,36.6900002 68.6640007,36.7559995 68.528,36.852 C68.3919993,36.9480005 68.2780005,37.0779992 68.186,37.242 C68.0939995,37.4060008 68.0360001,37.6119988 68.012,37.86 C68.004,37.9240003 67.998,38.0039995 67.994,38.1 C67.99,38.1960005 67.988,38.2959995 67.988,38.4 C67.988,38.5040005 67.99,38.6059995 67.994,38.706 C67.998,38.8060005 68.004,38.8839997 68.012,38.94 C68.0360001,39.1880012 68.0939995,39.3939992 68.186,39.558 C68.2780005,39.7220008 68.3919993,39.8519995 68.528,39.948 C68.6640007,40.0440005 68.8119992,40.1099998 68.972,40.146 C69.1320008,40.1820002 69.2959992,40.2 69.464,40.2 C69.6320008,40.2 69.7959992,40.1820002 69.956,40.146 C70.1160008,40.1099998 70.2639993,40.0440005 70.4,39.948 C70.5360007,39.8519995 70.6499995,39.7220008 70.742,39.558 C70.8340005,39.3939992 70.8919999,39.1880012 70.916,38.94 C70.924,38.8839997 70.928,38.8060005 70.928,38.706 L70.928,38.1 C70.928,38.0039995 70.924,37.9240003 70.916,37.86 Z M76.772,36.72 C76.2919976,36.72 75.9460011,36.8259989 75.734,37.038 C75.5219989,37.2500011 75.416,37.5959976 75.416,38.076 L75.416,41.196 C75.416,41.2840004 75.3840003,41.3599997 75.32,41.424 C75.2559997,41.4880003 75.1800004,41.52 75.092,41.52 L74.18,41.52 C74.0919996,41.52 74.0160003,41.4880003 73.952,41.424 C73.8879997,41.3599997 73.856,41.2840004 73.856,41.196 L73.856,35.604 C73.856,35.5159996 73.8879997,35.4400003 73.952,35.376 C74.0160003,35.3119997 74.0919996,35.28 74.18,35.28 L75.092,35.28 C75.1800004,35.28 75.2559997,35.3119997 75.32,35.376 C75.3840003,35.4400003 75.416,35.5159996 75.416,35.604 L75.416,35.88 C75.624001,35.687999 75.8459988,35.5400005 76.082,35.436 C76.3180012,35.3319995 76.6279981,35.28 77.012,35.28 L77.552,35.28 C77.6400004,35.28 77.7159997,35.3119997 77.78,35.376 C77.8440003,35.4400003 77.876,35.5159996 77.876,35.604 L77.876,36.396 C77.876,36.4840004 77.8440003,36.5599997 77.78,36.624 C77.7159997,36.6880003 77.6400004,36.72 77.552,36.72 L76.772,36.72 Z M80.972,39.264 C80.972,39.5120012 81.0379993,39.7099993 81.17,39.858 C81.3020007,40.0060007 81.5479982,40.08 81.908,40.08 L82.64,40.08 C82.7280004,40.08 82.8039997,40.1119997 82.868,40.176 C82.9320003,40.2400003 82.964,40.3159996 82.964,40.404 L82.964,41.196 C82.964,41.2840004 82.9320003,41.3599997 82.868,41.424 C82.8039997,41.4880003 82.7280004,41.52 82.64,41.52 L81.752,41.52 C80.9999962,41.52 80.422002,41.3380018 80.018,40.974 C79.613998,40.6099982 79.412,40.0520038 79.412,39.3 L79.412,36.72 L78.62,36.72 C78.5319996,36.72 78.4560003,36.6880003 78.392,36.624 C78.3279997,36.5599997 78.296,36.4840004 78.296,36.396 L78.296,35.604 C78.296,35.5159996 78.3279997,35.4400003 78.392,35.376 C78.4560003,35.3119997 78.5319996,35.28 78.62,35.28 L79.412,35.28 L79.412,33.324 C79.412,33.2359996 79.4439997,33.1600003 79.508,33.096 C79.5720003,33.0319997 79.6479996,33 79.736,33 L80.648,33 C80.7360004,33 80.8119997,33.0319997 80.876,33.096 C80.9400003,33.1600003 80.972,33.2359996 80.972,33.324 L80.972,35.28 L82.52,35.28 C82.6080004,35.28 82.6839997,35.3119997 82.748,35.376 C82.8120003,35.4400003 82.844,35.5159996 82.844,35.604 L82.844,36.396 C82.844,36.4840004 82.8120003,36.5599997 82.748,36.624 C82.6839997,36.6880003 82.6080004,36.72 82.52,36.72 L80.972,36.72 L80.972,39.264 Z M88.46,41.184 L86.084,35.688 C86.076,35.6639999 86.072,35.6360002 86.072,35.604 C86.072,35.5159996 86.1039997,35.4400003 86.168,35.376 C86.2320003,35.3119997 86.3079996,35.28 86.396,35.28 L87.296,35.28 C87.3920005,35.28 87.4759996,35.3119997 87.548,35.376 C87.6200004,35.4400003 87.6679999,35.5039997 87.692,35.568 L89.288,39.276 L90.884,35.568 C90.9080001,35.5039997 90.9559996,35.4400003 91.028,35.376 C91.1000004,35.3119997 91.1839995,35.28 91.28,35.28 L92.18,35.28 C92.2680004,35.28 92.3439997,35.3119997 92.408,35.376 C92.4720003,35.4400003 92.504,35.5159996 92.504,35.604 C92.504,35.6360002 92.5,35.6639999 92.492,35.688 L89.12,43.512 C89.0959999,43.5760003 89.0480004,43.6399997 88.976,43.704 C88.9039996,43.7680003 88.8200005,43.8 88.724,43.8 L87.824,43.8 C87.7359996,43.8 87.6600003,43.7680003 87.596,43.704 C87.5319997,43.6399997 87.5,43.5640004 87.5,43.476 C87.5,43.4439998 87.504,43.4160001 87.512,43.392 L88.46,41.184 Z M96.116,35.16 C96.5560022,35.16 96.9539982,35.2279993 97.31,35.364 C97.6660018,35.5000007 97.9739987,35.6879988 98.234,35.928 C98.4940013,36.1680012 98.7019992,36.4479984 98.858,36.768 C99.0140008,37.0880016 99.1039999,37.4319982 99.128,37.8 C99.136,37.8720004 99.14,37.9639994 99.14,38.076 L99.14,38.742 C99.14,38.8500005 99.136,38.9399996 99.128,39.012 C99.0959998,39.3800018 99.0040008,39.7239984 98.852,40.044 C98.6999992,40.3640016 98.4940013,40.6419988 98.234,40.878 C97.9739987,41.1140012 97.6660018,41.2999993 97.31,41.436 C96.9539982,41.5720007 96.5560022,41.64 96.116,41.64 C95.6759978,41.64 95.2780018,41.5720007 94.922,41.436 C94.5659982,41.2999993 94.2580013,41.1140012 93.998,40.878 C93.7379987,40.6419988 93.5320008,40.3640016 93.38,40.044 C93.2279992,39.7239984 93.1360002,39.3800018 93.104,39.012 C93.096,38.9399996 93.09,38.8500005 93.086,38.742 C93.082,38.6339995 93.08,38.5240006 93.08,38.412 C93.08,38.2999994 93.082,38.1880006 93.086,38.076 C93.09,37.9639994 93.096,37.8720004 93.104,37.8 C93.1280001,37.4319982 93.2179992,37.0880016 93.374,36.768 C93.5300008,36.4479984 93.7379987,36.1680012 93.998,35.928 C94.2580013,35.6879988 94.5659982,35.5000007 94.922,35.364 C95.2780018,35.2279993 95.6759978,35.16 96.116,35.16 Z M97.568,37.86 C97.5439999,37.6119988 97.4860005,37.4060008 97.394,37.242 C97.3019995,37.0779992 97.1880007,36.9480005 97.052,36.852 C96.9159993,36.7559995 96.7680008,36.6900002 96.608,36.654 C96.4479992,36.6179998 96.2840008,36.6 96.116,36.6 C95.9479992,36.6 95.7840008,36.6179998 95.624,36.654 C95.4639992,36.6900002 95.3160007,36.7559995 95.18,36.852 C95.0439993,36.9480005 94.9300005,37.0779992 94.838,37.242 C94.7459995,37.4060008 94.6880001,37.6119988 94.664,37.86 C94.656,37.9240003 94.65,38.0039995 94.646,38.1 C94.642,38.1960005 94.64,38.2959995 94.64,38.4 C94.64,38.5040005 94.642,38.6059995 94.646,38.706 C94.65,38.8060005 94.656,38.8839997 94.664,38.94 C94.6880001,39.1880012 94.7459995,39.3939992 94.838,39.558 C94.9300005,39.7220008 95.0439993,39.8519995 95.18,39.948 C95.3160007,40.0440005 95.4639992,40.1099998 95.624,40.146 C95.7840008,40.1820002 95.9479992,40.2 96.116,40.2 C96.2840008,40.2 96.4479992,40.1820002 96.608,40.146 C96.7680008,40.1099998 96.9159993,40.0440005 97.052,39.948 C97.1880007,39.8519995 97.3019995,39.7220008 97.394,39.558 C97.4860005,39.3939992 97.5439999,39.1880012 97.568,38.94 C97.576,38.8839997 97.58,38.8060005 97.58,38.706 L97.58,38.1 C97.58,38.0039995 97.576,37.9240003 97.568,37.86 Z M100.448,35.604 C100.448,35.5159996 100.48,35.4400003 100.544,35.376 C100.608,35.3119997 100.684,35.28 100.772,35.28 L101.684,35.28 C101.772,35.28 101.848,35.3119997 101.912,35.376 C101.976,35.4400003 102.008,35.5159996 102.008,35.604 L102.008,38.652 C102.008,39.1320024 102.109999,39.5159986 102.314,39.804 C102.518001,40.0920014 102.851998,40.236 103.316,40.236 C103.740002,40.236 104.063999,40.0920014 104.288,39.804 C104.512001,39.5159986 104.624,39.1320024 104.624,38.652 L104.624,35.604 C104.624,35.5159996 104.656,35.4400003 104.72,35.376 C104.784,35.3119997 104.86,35.28 104.948,35.28 L105.86,35.28 C105.948,35.28 106.024,35.3119997 106.088,35.376 C106.152,35.4400003 106.184,35.5159996 106.184,35.604 L106.184,41.196 C106.184,41.2840004 106.152,41.3599997 106.088,41.424 C106.024,41.4880003 105.948,41.52 105.86,41.52 L104.948,41.52 C104.86,41.52 104.784,41.4880003 104.72,41.424 C104.656,41.3599997 104.624,41.2840004 104.624,41.196 L104.624,40.92 C104.439999,41.1040009 104.212001,41.2699993 103.94,41.418 C103.667999,41.5660007 103.340002,41.64 102.956,41.64 C102.467998,41.64 102.064002,41.5640008 101.744,41.412 C101.423998,41.2599992 101.168001,41.0560013 100.976,40.8 C100.783999,40.5439987 100.648,40.2460017 100.568,39.906 C100.488,39.5659983 100.448,39.2080019 100.448,38.832 L100.448,35.604 Z M110.756,36.72 C110.275998,36.72 109.930001,36.8259989 109.718,37.038 C109.505999,37.2500011 109.4,37.5959976 109.4,38.076 L109.4,41.196 C109.4,41.2840004 109.368,41.3599997 109.304,41.424 C109.24,41.4880003 109.164,41.52 109.076,41.52 L108.164,41.52 C108.076,41.52 108,41.4880003 107.936,41.424 C107.872,41.3599997 107.84,41.2840004 107.84,41.196 L107.84,35.604 C107.84,35.5159996 107.872,35.4400003 107.936,35.376 C108,35.3119997 108.076,35.28 108.164,35.28 L109.076,35.28 C109.164,35.28 109.24,35.3119997 109.304,35.376 C109.368,35.4400003 109.4,35.5159996 109.4,35.604 L109.4,35.88 C109.608001,35.687999 109.829999,35.5400005 110.066,35.436 C110.302001,35.3319995 110.611998,35.28 110.996,35.28 L111.536,35.28 C111.624,35.28 111.7,35.3119997 111.764,35.376 C111.828,35.4400003 111.86,35.5159996 111.86,35.604 L111.86,36.396 C111.86,36.4840004 111.828,36.5599997 111.764,36.624 C111.7,36.6880003 111.624,36.72 111.536,36.72 L110.756,36.72 Z M116.888,35.88 C117.080001,35.6479988 117.311999,35.4700006 117.584,35.346 C117.856001,35.2219994 118.139999,35.16 118.436,35.16 C118.940003,35.16 119.351998,35.2539991 119.672,35.442 C119.992002,35.6300009 120.243999,35.8759985 120.428,36.18 C120.532001,36.0199992 120.659999,35.8760006 120.812,35.748 C120.964001,35.6199994 121.125999,35.5120004 121.298,35.424 C121.470001,35.3359996 121.647999,35.2700002 121.832,35.226 C122.016001,35.1819998 122.195999,35.16 122.372,35.16 C122.828002,35.16 123.207998,35.2359992 123.512,35.388 C123.816002,35.5400008 124.061999,35.7439987 124.25,36 C124.438001,36.2560013 124.57,36.5539983 124.646,36.894 C124.722,37.2340017 124.76,37.5919981 124.76,37.968 L124.76,41.196 C124.76,41.2840004 124.728,41.3599997 124.664,41.424 C124.6,41.4880003 124.524,41.52 124.436,41.52 L123.524,41.52 C123.436,41.52 123.36,41.4880003 123.296,41.424 C123.232,41.3599997 123.2,41.2840004 123.2,41.196 L123.2,38.028 C123.2,37.4839973 123.096001,37.1040011 122.888,36.888 C122.679999,36.6719989 122.388002,36.564 122.012,36.564 C121.691998,36.564 121.418001,36.667999 121.19,36.876 C120.961999,37.084001 120.84,37.4479974 120.824,37.968 L120.824,41.196 C120.824,41.2840004 120.792,41.3599997 120.728,41.424 C120.664,41.4880003 120.588,41.52 120.5,41.52 L119.588,41.52 C119.5,41.52 119.424,41.4880003 119.36,41.424 C119.296,41.3599997 119.264,41.2840004 119.264,41.196 L119.264,38.028 C119.264,37.4839973 119.160001,37.1040011 118.952,36.888 C118.743999,36.6719989 118.452002,36.564 118.076,36.564 C117.747998,36.564 117.468001,36.6739989 117.236,36.894 C117.003999,37.1140011 116.888,37.4919973 116.888,38.028 L116.888,41.196 C116.888,41.2840004 116.856,41.3599997 116.792,41.424 C116.728,41.4880003 116.652,41.52 116.564,41.52 L115.652,41.52 C115.564,41.52 115.488,41.4880003 115.424,41.424 C115.36,41.3599997 115.328,41.2840004 115.328,41.196 L115.328,35.604 C115.328,35.5159996 115.36,35.4400003 115.424,35.376 C115.488,35.3119997 115.564,35.28 115.652,35.28 L116.564,35.28 C116.652,35.28 116.728,35.3119997 116.792,35.376 C116.856,35.4400003 116.888,35.5159996 116.888,35.604 L116.888,35.88 Z M126.356,36.816 C126.388,36.6479992 126.461999,36.468001 126.578,36.276 C126.694001,36.083999 126.857999,35.9040008 127.07,35.736 C127.282001,35.5679992 127.541998,35.4300005 127.85,35.322 C128.158002,35.2139995 128.515998,35.16 128.924,35.16 C129.332002,35.16 129.699998,35.2139995 130.028,35.322 C130.356002,35.4300005 130.637999,35.587999 130.874,35.796 C131.110001,36.004001 131.291999,36.2659984 131.42,36.582 C131.548001,36.8980016 131.612,37.259998 131.612,37.668 L131.612,41.196 C131.612,41.2840004 131.58,41.3599997 131.516,41.424 C131.452,41.4880003 131.376,41.52 131.288,41.52 L130.376,41.52 C130.288,41.52 130.212,41.4880003 130.148,41.424 C130.084,41.3599997 130.052,41.2840004 130.052,41.196 L130.052,40.8 C129.883999,41.0320012 129.642002,41.2299992 129.326,41.394 C129.009998,41.5580008 128.608002,41.64 128.12,41.64 C127.775998,41.64 127.468001,41.5940005 127.196,41.502 C126.923999,41.4099995 126.696001,41.2800008 126.512,41.112 C126.327999,40.9439992 126.186,40.7460011 126.086,40.518 C125.985999,40.2899989 125.936,40.0400014 125.936,39.768 C125.936,39.2159972 126.131998,38.7840016 126.524,38.472 C126.916002,38.1599984 127.439997,37.9480006 128.096,37.836 L130.052,37.5 C130.052,37.1719984 129.944001,36.9400007 129.728,36.804 C129.511999,36.6679993 129.244002,36.6 128.924,36.6 C128.723999,36.6 128.568001,36.6279997 128.456,36.684 C128.343999,36.7400003 128.236001,36.8159995 128.132,36.912 C128.06,36.9760003 127.994,37.0199999 127.934,37.044 C127.874,37.0680001 127.808,37.08 127.736,37.08 L126.62,37.08 C126.54,37.08 126.472,37.0560002 126.416,37.008 C126.36,36.9599998 126.34,36.8960004 126.356,36.816 Z M128.36,40.2 C128.632001,40.2 128.873999,40.1620004 129.086,40.086 C129.298001,40.0099996 129.475999,39.9080006 129.62,39.78 C129.764001,39.6519994 129.872,39.5080008 129.944,39.348 C130.016,39.1879992 130.052,39.0240008 130.052,38.856 L130.052,38.736 L128.42,39.024 C128.091998,39.0800003 127.856001,39.1619995 127.712,39.27 C127.567999,39.3780005 127.496,39.5239991 127.496,39.708 C127.496,39.8760008 127.581999,39.9999996 127.754,40.08 C127.926001,40.1600004 128.127999,40.2 128.36,40.2 Z M136.58,41.64 C136.331999,41.64 136.110001,41.6160002 135.914,41.568 C135.717999,41.5199998 135.546001,41.4600004 135.398,41.388 C135.249999,41.3159996 135.124001,41.2380004 135.02,41.154 C134.915999,41.0699996 134.832,40.9920004 134.768,40.92 L134.768,43.476 C134.768,43.5640004 134.736,43.6399997 134.672,43.704 C134.608,43.7680003 134.532,43.8 134.444,43.8 L133.532,43.8 C133.444,43.8 133.368,43.7680003 133.304,43.704 C133.24,43.6399997 133.208,43.5640004 133.208,43.476 L133.208,35.604 C133.208,35.5159996 133.24,35.4400003 133.304,35.376 C133.368,35.3119997 133.444,35.28 133.532,35.28 L134.444,35.28 C134.532,35.28 134.608,35.3119997 134.672,35.376 C134.736,35.4400003 134.768,35.5159996 134.768,35.604 L134.768,35.88 C134.832,35.8079996 134.915999,35.7300004 135.02,35.646 C135.124001,35.5619996 135.249999,35.4840004 135.398,35.412 C135.546001,35.3399996 135.717999,35.2800002 135.914,35.232 C136.110001,35.1839998 136.331999,35.16 136.58,35.16 C136.980002,35.16 137.341998,35.2379992 137.666,35.394 C137.990002,35.5500008 138.265999,35.7579987 138.494,36.018 C138.722001,36.2780013 138.901999,36.5779983 139.034,36.918 C139.166001,37.2580017 139.24,37.6119982 139.256,37.98 C139.264,38.1000006 139.268,38.2399992 139.268,38.4 C139.268,38.5600008 139.264,38.6999994 139.256,38.82 C139.24,39.1880018 139.166001,39.5419983 139.034,39.882 C138.901999,40.2220017 138.722001,40.5219987 138.494,40.782 C138.265999,41.0420013 137.990002,41.2499992 137.666,41.406 C137.341998,41.5620008 136.980002,41.64 136.58,41.64 Z M137.696,38.736 C137.72,38.5119989 137.72,38.2880011 137.696,38.064 C137.648,37.5439974 137.488001,37.1700011 137.216,36.942 C136.943999,36.7139989 136.612002,36.6 136.22,36.6 C135.827998,36.6 135.498001,36.7159988 135.23,36.948 C134.961999,37.1800012 134.808,37.5119978 134.768,37.944 C134.752,38.0640006 134.744,38.2159991 134.744,38.4 C134.744,38.5840009 134.752,38.7359994 134.768,38.856 C134.808,39.2720021 134.961999,39.5999988 135.23,39.84 C135.498001,40.0800012 135.827998,40.2 136.22,40.2 C136.612002,40.2 136.943999,40.0860011 137.216,39.858 C137.488001,39.6299989 137.648,39.2560026 137.696,38.736 Z M145.772,35.16 C146.020001,35.16 146.241999,35.1839998 146.438,35.232 C146.634001,35.2800002 146.805999,35.3399996 146.954,35.412 C147.102001,35.4840004 147.227999,35.5619996 147.332,35.646 C147.436001,35.7300004 147.52,35.8079996 147.584,35.88 L147.584,33.324 C147.584,33.2359996 147.616,33.1600003 147.68,33.096 C147.744,33.0319997 147.82,33 147.908,33 L148.82,33 C148.908,33 148.984,33.0319997 149.048,33.096 C149.112,33.1600003 149.144,33.2359996 149.144,33.324 L149.144,41.196 C149.144,41.2840004 149.112,41.3599997 149.048,41.424 C148.984,41.4880003 148.908,41.52 148.82,41.52 L147.908,41.52 C147.82,41.52 147.744,41.4880003 147.68,41.424 C147.616,41.3599997 147.584,41.2840004 147.584,41.196 L147.584,40.92 C147.52,40.9920004 147.436001,41.0699996 147.332,41.154 C147.227999,41.2380004 147.102001,41.3159996 146.954,41.388 C146.805999,41.4600004 146.634001,41.5199998 146.438,41.568 C146.241999,41.6160002 146.020001,41.64 145.772,41.64 C145.371998,41.64 145.010002,41.5620008 144.686,41.406 C144.361998,41.2499992 144.086001,41.0420013 143.858,40.782 C143.629999,40.5219987 143.450001,40.2220017 143.318,39.882 C143.185999,39.5419983 143.112,39.1880018 143.096,38.82 C143.088,38.6999994 143.084,38.5600008 143.084,38.4 C143.084,38.2399992 143.088,38.1000006 143.096,37.98 C143.112,37.6119982 143.185999,37.2580017 143.318,36.918 C143.450001,36.5779983 143.629999,36.2780013 143.858,36.018 C144.086001,35.7579987 144.361998,35.5500008 144.686,35.394 C145.010002,35.2379992 145.371998,35.16 145.772,35.16 Z M144.656,38.064 C144.632,38.2880011 144.632,38.5119989 144.656,38.736 C144.704,39.2560026 144.863999,39.6299989 145.136,39.858 C145.408001,40.0860011 145.739998,40.2 146.132,40.2 C146.524002,40.2 146.853999,40.0840012 147.122,39.852 C147.390001,39.6199988 147.544,39.2880022 147.584,38.856 C147.6,38.7359994 147.608,38.5840009 147.608,38.4 C147.608,38.2159991 147.6,38.0640006 147.584,37.944 C147.544,37.5279979 147.390001,37.2000012 147.122,36.96 C146.853999,36.7199988 146.524002,36.6 146.132,36.6 C145.739998,36.6 145.408001,36.7139989 145.136,36.942 C144.863999,37.1700011 144.704,37.5439974 144.656,38.064 Z M150.8,36.816 C150.832,36.6479992 150.905999,36.468001 151.022,36.276 C151.138001,36.083999 151.301999,35.9040008 151.514,35.736 C151.726001,35.5679992 151.985998,35.4300005 152.294,35.322 C152.602002,35.2139995 152.959998,35.16 153.368,35.16 C153.776002,35.16 154.143998,35.2139995 154.472,35.322 C154.800002,35.4300005 155.081999,35.587999 155.318,35.796 C155.554001,36.004001 155.735999,36.2659984 155.864,36.582 C155.992001,36.8980016 156.056,37.259998 156.056,37.668 L156.056,41.196 C156.056,41.2840004 156.024,41.3599997 155.96,41.424 C155.896,41.4880003 155.82,41.52 155.732,41.52 L154.82,41.52 C154.732,41.52 154.656,41.4880003 154.592,41.424 C154.528,41.3599997 154.496,41.2840004 154.496,41.196 L154.496,40.8 C154.327999,41.0320012 154.086002,41.2299992 153.77,41.394 C153.453998,41.5580008 153.052002,41.64 152.564,41.64 C152.219998,41.64 151.912001,41.5940005 151.64,41.502 C151.367999,41.4099995 151.140001,41.2800008 150.956,41.112 C150.771999,40.9439992 150.63,40.7460011 150.53,40.518 C150.429999,40.2899989 150.38,40.0400014 150.38,39.768 C150.38,39.2159972 150.575998,38.7840016 150.968,38.472 C151.360002,38.1599984 151.883997,37.9480006 152.54,37.836 L154.496,37.5 C154.496,37.1719984 154.388001,36.9400007 154.172,36.804 C153.955999,36.6679993 153.688002,36.6 153.368,36.6 C153.167999,36.6 153.012001,36.6279997 152.9,36.684 C152.787999,36.7400003 152.680001,36.8159995 152.576,36.912 C152.504,36.9760003 152.438,37.0199999 152.378,37.044 C152.318,37.0680001 152.252,37.08 152.18,37.08 L151.064,37.08 C150.984,37.08 150.916,37.0560002 150.86,37.008 C150.804,36.9599998 150.784,36.8960004 150.8,36.816 Z M152.804,40.2 C153.076001,40.2 153.317999,40.1620004 153.53,40.086 C153.742001,40.0099996 153.919999,39.9080006 154.064,39.78 C154.208001,39.6519994 154.316,39.5080008 154.388,39.348 C154.46,39.1879992 154.496,39.0240008 154.496,38.856 L154.496,38.736 L152.864,39.024 C152.535998,39.0800003 152.300001,39.1619995 152.156,39.27 C152.011999,39.3780005 151.94,39.5239991 151.94,39.708 C151.94,39.8760008 152.025999,39.9999996 152.198,40.08 C152.370001,40.1600004 152.571999,40.2 152.804,40.2 Z M159.704,39.264 C159.704,39.5120012 159.769999,39.7099993 159.902,39.858 C160.034001,40.0060007 160.279998,40.08 160.64,40.08 L161.372,40.08 C161.46,40.08 161.536,40.1119997 161.6,40.176 C161.664,40.2400003 161.696,40.3159996 161.696,40.404 L161.696,41.196 C161.696,41.2840004 161.664,41.3599997 161.6,41.424 C161.536,41.4880003 161.46,41.52 161.372,41.52 L160.484,41.52 C159.731996,41.52 159.154002,41.3380018 158.75,40.974 C158.345998,40.6099982 158.144,40.0520038 158.144,39.3 L158.144,36.72 L157.352,36.72 C157.264,36.72 157.188,36.6880003 157.124,36.624 C157.06,36.5599997 157.028,36.4840004 157.028,36.396 L157.028,35.604 C157.028,35.5159996 157.06,35.4400003 157.124,35.376 C157.188,35.3119997 157.264,35.28 157.352,35.28 L158.144,35.28 L158.144,33.324 C158.144,33.2359996 158.176,33.1600003 158.24,33.096 C158.304,33.0319997 158.38,33 158.468,33 L159.38,33 C159.468,33 159.544,33.0319997 159.608,33.096 C159.672,33.1600003 159.704,33.2359996 159.704,33.324 L159.704,35.28 L161.252,35.28 C161.34,35.28 161.416,35.3119997 161.48,35.376 C161.544,35.4400003 161.576,35.5159996 161.576,35.604 L161.576,36.396 C161.576,36.4840004 161.544,36.5599997 161.48,36.624 C161.416,36.6880003 161.34,36.72 161.252,36.72 L159.704,36.72 L159.704,39.264 Z M162.872,36.816 C162.904,36.6479992 162.977999,36.468001 163.094,36.276 C163.210001,36.083999 163.373999,35.9040008 163.586,35.736 C163.798001,35.5679992 164.057998,35.4300005 164.366,35.322 C164.674002,35.2139995 165.031998,35.16 165.44,35.16 C165.848002,35.16 166.215998,35.2139995 166.544,35.322 C166.872002,35.4300005 167.153999,35.587999 167.39,35.796 C167.626001,36.004001 167.807999,36.2659984 167.936,36.582 C168.064001,36.8980016 168.128,37.259998 168.128,37.668 L168.128,41.196 C168.128,41.2840004 168.096,41.3599997 168.032,41.424 C167.968,41.4880003 167.892,41.52 167.804,41.52 L166.892,41.52 C166.804,41.52 166.728,41.4880003 166.664,41.424 C166.6,41.3599997 166.568,41.2840004 166.568,41.196 L166.568,40.8 C166.399999,41.0320012 166.158002,41.2299992 165.842,41.394 C165.525998,41.5580008 165.124002,41.64 164.636,41.64 C164.291998,41.64 163.984001,41.5940005 163.712,41.502 C163.439999,41.4099995 163.212001,41.2800008 163.028,41.112 C162.843999,40.9439992 162.702,40.7460011 162.602,40.518 C162.501999,40.2899989 162.452,40.0400014 162.452,39.768 C162.452,39.2159972 162.647998,38.7840016 163.04,38.472 C163.432002,38.1599984 163.955997,37.9480006 164.612,37.836 L166.568,37.5 C166.568,37.1719984 166.460001,36.9400007 166.244,36.804 C166.027999,36.6679993 165.760002,36.6 165.44,36.6 C165.239999,36.6 165.084001,36.6279997 164.972,36.684 C164.859999,36.7400003 164.752001,36.8159995 164.648,36.912 C164.576,36.9760003 164.51,37.0199999 164.45,37.044 C164.39,37.0680001 164.324,37.08 164.252,37.08 L163.136,37.08 C163.056,37.08 162.988,37.0560002 162.932,37.008 C162.876,36.9599998 162.856,36.8960004 162.872,36.816 Z M164.876,40.2 C165.148001,40.2 165.389999,40.1620004 165.602,40.086 C165.814001,40.0099996 165.991999,39.9080006 166.136,39.78 C166.280001,39.6519994 166.388,39.5080008 166.46,39.348 C166.532,39.1879992 166.568,39.0240008 166.568,38.856 L166.568,38.736 L164.936,39.024 C164.607998,39.0800003 164.372001,39.1619995 164.228,39.27 C164.083999,39.3780005 164.012,39.5239991 164.012,39.708 C164.012,39.8760008 164.097999,39.9999996 164.27,40.08 C164.442001,40.1600004 164.643999,40.2 164.876,40.2 Z M174.32,39.264 C174.32,39.5120012 174.385999,39.7099993 174.518,39.858 C174.650001,40.0060007 174.895998,40.08 175.256,40.08 L175.988,40.08 C176.076,40.08 176.152,40.1119997 176.216,40.176 C176.28,40.2400003 176.312,40.3159996 176.312,40.404 L176.312,41.196 C176.312,41.2840004 176.28,41.3599997 176.216,41.424 C176.152,41.4880003 176.076,41.52 175.988,41.52 L175.1,41.52 C174.347996,41.52 173.770002,41.3380018 173.366,40.974 C172.961998,40.6099982 172.76,40.0520038 172.76,39.3 L172.76,36.72 L171.968,36.72 C171.88,36.72 171.804,36.6880003 171.74,36.624 C171.676,36.5599997 171.644,36.4840004 171.644,36.396 L171.644,35.604 C171.644,35.5159996 171.676,35.4400003 171.74,35.376 C171.804,35.3119997 171.88,35.28 171.968,35.28 L172.76,35.28 L172.76,33.324 C172.76,33.2359996 172.792,33.1600003 172.856,33.096 C172.92,33.0319997 172.996,33 173.084,33 L173.996,33 C174.084,33 174.16,33.0319997 174.224,33.096 C174.288,33.1600003 174.32,33.2359996 174.32,33.324 L174.32,35.28 L175.868,35.28 C175.956,35.28 176.032,35.3119997 176.096,35.376 C176.16,35.4400003 176.192,35.5159996 176.192,35.604 L176.192,36.396 C176.192,36.4840004 176.16,36.5599997 176.096,36.624 C176.032,36.6880003 175.956,36.72 175.868,36.72 L174.32,36.72 L174.32,39.264 Z M180.236,35.16 C180.676002,35.16 181.073998,35.2279993 181.43,35.364 C181.786002,35.5000007 182.093999,35.6879988 182.354,35.928 C182.614001,36.1680012 182.821999,36.4479984 182.978,36.768 C183.134001,37.0880016 183.224,37.4319982 183.248,37.8 C183.256,37.8720004 183.26,37.9639994 183.26,38.076 L183.26,38.742 C183.26,38.8500005 183.256,38.9399996 183.248,39.012 C183.216,39.3800018 183.124001,39.7239984 182.972,40.044 C182.819999,40.3640016 182.614001,40.6419988 182.354,40.878 C182.093999,41.1140012 181.786002,41.2999993 181.43,41.436 C181.073998,41.5720007 180.676002,41.64 180.236,41.64 C179.795998,41.64 179.398002,41.5720007 179.042,41.436 C178.685998,41.2999993 178.378001,41.1140012 178.118,40.878 C177.857999,40.6419988 177.652001,40.3640016 177.5,40.044 C177.347999,39.7239984 177.256,39.3800018 177.224,39.012 C177.216,38.9399996 177.21,38.8500005 177.206,38.742 C177.202,38.6339995 177.2,38.5240006 177.2,38.412 C177.2,38.2999994 177.202,38.1880006 177.206,38.076 C177.21,37.9639994 177.216,37.8720004 177.224,37.8 C177.248,37.4319982 177.337999,37.0880016 177.494,36.768 C177.650001,36.4479984 177.857999,36.1680012 178.118,35.928 C178.378001,35.6879988 178.685998,35.5000007 179.042,35.364 C179.398002,35.2279993 179.795998,35.16 180.236,35.16 Z M181.688,37.86 C181.664,37.6119988 181.606,37.4060008 181.514,37.242 C181.422,37.0779992 181.308001,36.9480005 181.172,36.852 C181.035999,36.7559995 180.888001,36.6900002 180.728,36.654 C180.567999,36.6179998 180.404001,36.6 180.236,36.6 C180.067999,36.6 179.904001,36.6179998 179.744,36.654 C179.583999,36.6900002 179.436001,36.7559995 179.3,36.852 C179.163999,36.9480005 179.05,37.0779992 178.958,37.242 C178.866,37.4060008 178.808,37.6119988 178.784,37.86 C178.776,37.9240003 178.77,38.0039995 178.766,38.1 C178.762,38.1960005 178.76,38.2959995 178.76,38.4 C178.76,38.5040005 178.762,38.6059995 178.766,38.706 C178.77,38.8060005 178.776,38.8839997 178.784,38.94 C178.808,39.1880012 178.866,39.3939992 178.958,39.558 C179.05,39.7220008 179.163999,39.8519995 179.3,39.948 C179.436001,40.0440005 179.583999,40.1099998 179.744,40.146 C179.904001,40.1820002 180.067999,40.2 180.236,40.2 C180.404001,40.2 180.567999,40.1820002 180.728,40.146 C180.888001,40.1099998 181.035999,40.0440005 181.172,39.948 C181.308001,39.8519995 181.422,39.7220008 181.514,39.558 C181.606,39.3939992 181.664,39.1880012 181.688,38.94 C181.696,38.8839997 181.7,38.8060005 181.7,38.706 L181.7,38.1 C181.7,38.0039995 181.696,37.9240003 181.688,37.86 Z M189.224,39.264 C189.224,39.5120012 189.289999,39.7099993 189.422,39.858 C189.554001,40.0060007 189.799998,40.08 190.16,40.08 L190.892,40.08 C190.98,40.08 191.056,40.1119997 191.12,40.176 C191.184,40.2400003 191.216,40.3159996 191.216,40.404 L191.216,41.196 C191.216,41.2840004 191.184,41.3599997 191.12,41.424 C191.056,41.4880003 190.98,41.52 190.892,41.52 L190.004,41.52 C189.251996,41.52 188.674002,41.3380018 188.27,40.974 C187.865998,40.6099982 187.664,40.0520038 187.664,39.3 L187.664,36.72 L186.872,36.72 C186.784,36.72 186.708,36.6880003 186.644,36.624 C186.58,36.5599997 186.548,36.4840004 186.548,36.396 L186.548,35.604 C186.548,35.5159996 186.58,35.4400003 186.644,35.376 C186.708,35.3119997 186.784,35.28 186.872,35.28 L187.664,35.28 L187.664,33.324 C187.664,33.2359996 187.696,33.1600003 187.76,33.096 C187.824,33.0319997 187.9,33 187.988,33 L188.9,33 C188.988,33 189.064,33.0319997 189.128,33.096 C189.192,33.1600003 189.224,33.2359996 189.224,33.324 L189.224,35.28 L190.772,35.28 C190.86,35.28 190.936,35.3119997 191,35.376 C191.064,35.4400003 191.096,35.5159996 191.096,35.604 L191.096,36.396 C191.096,36.4840004 191.064,36.5599997 191,36.624 C190.936,36.6880003 190.86,36.72 190.772,36.72 L189.224,36.72 L189.224,39.264 Z M198.248,41.196 C198.248,41.2840004 198.216,41.3599997 198.152,41.424 C198.088,41.4880003 198.012,41.52 197.924,41.52 L197.012,41.52 C196.924,41.52 196.848,41.4880003 196.784,41.424 C196.72,41.3599997 196.688,41.2840004 196.688,41.196 L196.688,38.148 C196.688,37.6679976 196.576001,37.2840014 196.352,36.996 C196.127999,36.7079986 195.784002,36.564 195.32,36.564 C194.895998,36.564 194.562001,36.7079986 194.318,36.996 C194.073999,37.2840014 193.952,37.6679976 193.952,38.148 L193.952,41.196 C193.952,41.2840004 193.92,41.3599997 193.856,41.424 C193.792,41.4880003 193.716,41.52 193.628,41.52 L192.716,41.52 C192.628,41.52 192.552,41.4880003 192.488,41.424 C192.424,41.3599997 192.392,41.2840004 192.392,41.196 L192.392,33.324 C192.392,33.2359996 192.424,33.1600003 192.488,33.096 C192.552,33.0319997 192.628,33 192.716,33 L193.628,33 C193.716,33 193.792,33.0319997 193.856,33.096 C193.92,33.1600003 193.952,33.2359996 193.952,33.324 L193.952,35.88 C194.160001,35.671999 194.403999,35.5000007 194.684,35.364 C194.964001,35.2279993 195.295998,35.16 195.68,35.16 C196.168002,35.16 196.575998,35.2359992 196.904,35.388 C197.232002,35.5400008 197.495999,35.7439987 197.696,36 C197.896001,36.2560013 198.038,36.5539983 198.122,36.894 C198.206,37.2340017 198.248,37.5919981 198.248,37.968 L198.248,41.196 Z M199.532,38.4 C199.532,37.9519978 199.599999,37.530002 199.736,37.134 C199.872001,36.737998 200.067999,36.3940015 200.324,36.102 C200.580001,35.8099985 200.889998,35.5800008 201.254,35.412 C201.618002,35.2439992 202.023998,35.16 202.472,35.16 C202.920002,35.16 203.325998,35.2419992 203.69,35.406 C204.054002,35.5700008 204.363999,35.7899986 204.62,36.066 C204.876001,36.3420014 205.073999,36.6659981 205.214,37.038 C205.354001,37.4100019 205.424,37.799998 205.424,38.208 L205.424,38.748 C205.424,38.8360004 205.392,38.9119997 205.328,38.976 C205.264,39.0400003 205.188,39.072 205.1,39.072 L201.092,39.072 C201.092,39.2560009 201.13,39.4179993 201.206,39.558 C201.282,39.6980007 201.383999,39.8159995 201.512,39.912 C201.640001,40.0080005 201.787999,40.0799998 201.956,40.128 C202.124001,40.1760002 202.295999,40.2 202.472,40.2 C202.728001,40.2 202.935999,40.1740003 203.096,40.122 C203.256001,40.0699997 203.387999,40.0040004 203.492,39.924 C203.58,39.8599997 203.652,39.8160001 203.708,39.792 C203.764,39.7679999 203.84,39.756 203.936,39.756 L204.896,39.756 C204.984,39.756 205.062,39.7879997 205.13,39.852 C205.198,39.9160003 205.228,39.9919996 205.22,40.08 C205.212,40.1920006 205.150001,40.3359991 205.034,40.512 C204.917999,40.6880009 204.744001,40.8599992 204.512,41.028 C204.279999,41.1960008 203.994002,41.3399994 203.654,41.46 C203.313998,41.5800006 202.920002,41.64 202.472,41.64 C202.023998,41.64 201.618002,41.5620008 201.254,41.406 C200.889998,41.2499992 200.580001,41.0280014 200.324,40.74 C200.067999,40.4519986 199.872001,40.110002 199.736,39.714 C199.599999,39.317998 199.532,38.8800024 199.532,38.4 Z M202.472,36.6 C202.239999,36.6 202.042001,36.6339997 201.878,36.702 C201.713999,36.7700003 201.576001,36.8579995 201.464,36.966 C201.351999,37.0740005 201.266,37.1939993 201.206,37.326 C201.146,37.4580007 201.108,37.5839994 201.092,37.704 L203.804,37.704 C203.788,37.5839994 203.758,37.4580007 203.714,37.326 C203.67,37.1939993 203.598,37.0740005 203.498,36.966 C203.397999,36.8579995 203.266001,36.7700003 203.102,36.702 C202.937999,36.6339997 202.728001,36.6 202.472,36.6 Z M215.3,39 L216.38,35.568 C216.404,35.5039997 216.438,35.4400003 216.482,35.376 C216.526,35.3119997 216.603999,35.28 216.716,35.28 L217.628,35.28 C217.716,35.28 217.792,35.3119997 217.856,35.376 C217.92,35.4400003 217.952,35.5159996 217.952,35.604 C217.952,35.6360002 217.948,35.6639999 217.94,35.688 L216.128,41.22 C216.104,41.2920004 216.068,41.3599997 216.02,41.424 C215.972,41.4880003 215.892001,41.52 215.78,41.52 L214.868,41.52 C214.755999,41.52 214.678,41.4880003 214.634,41.424 C214.59,41.3599997 214.552,41.2920004 214.52,41.22 L213.356,38.016 L212.192,41.22 C212.16,41.2920004 212.122,41.3599997 212.078,41.424 C212.034,41.4880003 211.956001,41.52 211.844,41.52 L210.932,41.52 C210.819999,41.52 210.74,41.4880003 210.692,41.424 C210.644,41.3599997 210.608,41.2920004 210.584,41.22 L208.772,35.688 C208.764,35.6639999 208.76,35.6360002 208.76,35.604 C208.76,35.5159996 208.792,35.4400003 208.856,35.376 C208.92,35.3119997 208.996,35.28 209.084,35.28 L209.996,35.28 C210.108001,35.28 210.186,35.3119997 210.23,35.376 C210.274,35.4400003 210.308,35.5039997 210.332,35.568 L211.412,39 L212.564,35.568 C212.58,35.5039997 212.618,35.4400003 212.678,35.376 C212.738,35.3119997 212.812,35.28 212.9,35.28 L213.812,35.28 C213.9,35.28 213.974,35.3119997 214.034,35.376 C214.094,35.4400003 214.132,35.5039997 214.148,35.568 L215.3,39 Z M218.672,38.4 C218.672,37.9519978 218.739999,37.530002 218.876,37.134 C219.012001,36.737998 219.207999,36.3940015 219.464,36.102 C219.720001,35.8099985 220.029998,35.5800008 220.394,35.412 C220.758002,35.2439992 221.163998,35.16 221.612,35.16 C222.060002,35.16 222.465998,35.2419992 222.83,35.406 C223.194002,35.5700008 223.503999,35.7899986 223.76,36.066 C224.016001,36.3420014 224.213999,36.6659981 224.354,37.038 C224.494001,37.4100019 224.564,37.799998 224.564,38.208 L224.564,38.748 C224.564,38.8360004 224.532,38.9119997 224.468,38.976 C224.404,39.0400003 224.328,39.072 224.24,39.072 L220.232,39.072 C220.232,39.2560009 220.27,39.4179993 220.346,39.558 C220.422,39.6980007 220.523999,39.8159995 220.652,39.912 C220.780001,40.0080005 220.927999,40.0799998 221.096,40.128 C221.264001,40.1760002 221.435999,40.2 221.612,40.2 C221.868001,40.2 222.075999,40.1740003 222.236,40.122 C222.396001,40.0699997 222.527999,40.0040004 222.632,39.924 C222.72,39.8599997 222.792,39.8160001 222.848,39.792 C222.904,39.7679999 222.98,39.756 223.076,39.756 L224.036,39.756 C224.124,39.756 224.202,39.7879997 224.27,39.852 C224.338,39.9160003 224.368,39.9919996 224.36,40.08 C224.352,40.1920006 224.290001,40.3359991 224.174,40.512 C224.057999,40.6880009 223.884001,40.8599992 223.652,41.028 C223.419999,41.1960008 223.134002,41.3399994 222.794,41.46 C222.453998,41.5800006 222.060002,41.64 221.612,41.64 C221.163998,41.64 220.758002,41.5620008 220.394,41.406 C220.029998,41.2499992 219.720001,41.0280014 219.464,40.74 C219.207999,40.4519986 219.012001,40.110002 218.876,39.714 C218.739999,39.317998 218.672,38.8800024 218.672,38.4 Z M221.612,36.6 C221.379999,36.6 221.182001,36.6339997 221.018,36.702 C220.853999,36.7700003 220.716001,36.8579995 220.604,36.966 C220.491999,37.0740005 220.406,37.1939993 220.346,37.326 C220.286,37.4580007 220.248,37.5839994 220.232,37.704 L222.944,37.704 C222.928,37.5839994 222.898,37.4580007 222.854,37.326 C222.81,37.1939993 222.738,37.0740005 222.638,36.966 C222.537999,36.8579995 222.406001,36.7700003 222.242,36.702 C222.077999,36.6339997 221.868001,36.6 221.612,36.6 Z M229.244,35.16 C229.644002,35.16 230.005998,35.2379992 230.33,35.394 C230.654002,35.5500008 230.929999,35.7579987 231.158,36.018 C231.386001,36.2780013 231.565999,36.5779983 231.698,36.918 C231.830001,37.2580017 231.904,37.6119982 231.92,37.98 C231.928,38.1000006 231.932,38.2399992 231.932,38.4 C231.932,38.5600008 231.928,38.6999994 231.92,38.82 C231.904,39.1880018 231.830001,39.5419983 231.698,39.882 C231.565999,40.2220017 231.386001,40.5219987 231.158,40.782 C230.929999,41.0420013 230.654002,41.2499992 230.33,41.406 C230.005998,41.5620008 229.644002,41.64 229.244,41.64 C228.995999,41.64 228.774001,41.6160002 228.578,41.568 C228.381999,41.5199998 228.210001,41.4600004 228.062,41.388 C227.913999,41.3159996 227.788001,41.2380004 227.684,41.154 C227.579999,41.0699996 227.496,40.9920004 227.432,40.92 L227.432,41.196 C227.432,41.2840004 227.4,41.3599997 227.336,41.424 C227.272,41.4880003 227.196,41.52 227.108,41.52 L226.196,41.52 C226.108,41.52 226.032,41.4880003 225.968,41.424 C225.904,41.3599997 225.872,41.2840004 225.872,41.196 L225.872,33.324 C225.872,33.2359996 225.904,33.1600003 225.968,33.096 C226.032,33.0319997 226.108,33 226.196,33 L227.108,33 C227.196,33 227.272,33.0319997 227.336,33.096 C227.4,33.1600003 227.432,33.2359996 227.432,33.324 L227.432,35.88 C227.496,35.8079996 227.579999,35.7300004 227.684,35.646 C227.788001,35.5619996 227.913999,35.4840004 228.062,35.412 C228.210001,35.3399996 228.381999,35.2800002 228.578,35.232 C228.774001,35.1839998 228.995999,35.16 229.244,35.16 Z M230.36,38.064 C230.312,37.5439974 230.152001,37.1700011 229.88,36.942 C229.607999,36.7139989 229.276002,36.6 228.884,36.6 C228.491998,36.6 228.162001,36.7199988 227.894,36.96 C227.625999,37.2000012 227.472,37.5279979 227.432,37.944 C227.416,38.0640006 227.408,38.2159991 227.408,38.4 C227.408,38.5840009 227.416,38.7359994 227.432,38.856 C227.472,39.2880022 227.625999,39.6199988 227.894,39.852 C228.162001,40.0840012 228.491998,40.2 228.884,40.2 C229.276002,40.2 229.607999,40.0860011 229.88,39.858 C230.152001,39.6299989 230.312,39.2560026 230.36,38.736 C230.384,38.5119989 230.384,38.2880011 230.36,38.064 Z M239.432,39.732 C239.432,39.6439996 239.404,39.5720003 239.348,39.516 C239.292,39.4599997 239.194001,39.4080002 239.054,39.36 C238.913999,39.3119998 238.728001,39.2640002 238.496,39.216 C238.263999,39.1679998 237.968002,39.1040004 237.608,39.024 C237.255998,38.9439996 236.964001,38.8440006 236.732,38.724 C236.499999,38.6039994 236.314001,38.4640008 236.174,38.304 C236.033999,38.1439992 235.936,37.962001 235.88,37.758 C235.824,37.553999 235.796,37.3320012 235.796,37.092 C235.796,36.8519988 235.851999,36.6160012 235.964,36.384 C236.076001,36.1519988 236.237999,35.9460009 236.45,35.766 C236.662001,35.5859991 236.919998,35.4400006 237.224,35.328 C237.528002,35.2159994 237.875998,35.16 238.268,35.16 C238.660002,35.16 239.009998,35.2039996 239.318,35.292 C239.626002,35.3800004 239.887999,35.4959993 240.104,35.64 C240.320001,35.7840007 240.487999,35.9499991 240.608,36.138 C240.728001,36.3260009 240.796,36.515999 240.812,36.708 C240.82,36.7960004 240.79,36.8719997 240.722,36.936 C240.654,37.0000003 240.576,37.032 240.488,37.032 L239.564,37.032 C239.443999,37.032 239.354,37.0100002 239.294,36.966 C239.234,36.9219998 239.168,36.8720003 239.096,36.816 C239.024,36.7599997 238.928001,36.7100002 238.808,36.666 C238.687999,36.6219998 238.508001,36.6 238.268,36.6 C238.027999,36.6 237.816001,36.6359996 237.632,36.708 C237.447999,36.7800004 237.356,36.9079991 237.356,37.092 C237.356,37.1800004 237.378,37.2539997 237.422,37.314 C237.466,37.3740003 237.549999,37.4279998 237.674,37.476 C237.798001,37.5240002 237.969999,37.5739997 238.19,37.626 C238.410001,37.6780003 238.695998,37.7399996 239.048,37.812 C239.760004,37.9640008 240.261999,38.2019984 240.554,38.526 C240.846001,38.8500016 240.992,39.2519976 240.992,39.732 C240.992,39.9720012 240.932001,40.2059989 240.812,40.434 C240.691999,40.6620011 240.518001,40.8659991 240.29,41.046 C240.061999,41.2260009 239.782002,41.3699995 239.45,41.478 C239.117998,41.5860005 238.744002,41.64 238.328,41.64 C237.903998,41.64 237.530002,41.5900005 237.206,41.49 C236.881998,41.3899995 236.608001,41.2600008 236.384,41.1 C236.159999,40.9399992 235.988001,40.760001 235.868,40.56 C235.747999,40.359999 235.684,40.164001 235.676,39.972 C235.668,39.8839996 235.698,39.8080003 235.766,39.744 C235.834,39.6799997 235.912,39.648 236,39.648 L236.924,39.648 C237.044001,39.648 237.134,39.6759997 237.194,39.732 C237.254,39.7880003 237.322,39.8519996 237.398,39.924 C237.474,39.9960004 237.579999,40.0599997 237.716,40.116 C237.852001,40.1720003 238.055999,40.2 238.328,40.2 C238.448001,40.2 238.571999,40.1920001 238.7,40.176 C238.828001,40.1599999 238.945999,40.1340002 239.054,40.098 C239.162001,40.0619998 239.252,40.0140003 239.324,39.954 C239.396,39.8939997 239.432,39.8200004 239.432,39.732 Z M241.964,38.4 C241.964,37.9519978 242.031999,37.530002 242.168,37.134 C242.304001,36.737998 242.499999,36.3940015 242.756,36.102 C243.012001,35.8099985 243.321998,35.5800008 243.686,35.412 C244.050002,35.2439992 244.455998,35.16 244.904,35.16 C245.352002,35.16 245.757998,35.2419992 246.122,35.406 C246.486002,35.5700008 246.795999,35.7899986 247.052,36.066 C247.308001,36.3420014 247.505999,36.6659981 247.646,37.038 C247.786001,37.4100019 247.856,37.799998 247.856,38.208 L247.856,38.748 C247.856,38.8360004 247.824,38.9119997 247.76,38.976 C247.696,39.0400003 247.62,39.072 247.532,39.072 L243.524,39.072 C243.524,39.2560009 243.562,39.4179993 243.638,39.558 C243.714,39.6980007 243.815999,39.8159995 243.944,39.912 C244.072001,40.0080005 244.219999,40.0799998 244.388,40.128 C244.556001,40.1760002 244.727999,40.2 244.904,40.2 C245.160001,40.2 245.367999,40.1740003 245.528,40.122 C245.688001,40.0699997 245.819999,40.0040004 245.924,39.924 C246.012,39.8599997 246.084,39.8160001 246.14,39.792 C246.196,39.7679999 246.272,39.756 246.368,39.756 L247.328,39.756 C247.416,39.756 247.494,39.7879997 247.562,39.852 C247.63,39.9160003 247.66,39.9919996 247.652,40.08 C247.644,40.1920006 247.582001,40.3359991 247.466,40.512 C247.349999,40.6880009 247.176001,40.8599992 246.944,41.028 C246.711999,41.1960008 246.426002,41.3399994 246.086,41.46 C245.745998,41.5800006 245.352002,41.64 244.904,41.64 C244.455998,41.64 244.050002,41.5620008 243.686,41.406 C243.321998,41.2499992 243.012001,41.0280014 242.756,40.74 C242.499999,40.4519986 242.304001,40.110002 242.168,39.714 C242.031999,39.317998 241.964,38.8800024 241.964,38.4 Z M244.904,36.6 C244.671999,36.6 244.474001,36.6339997 244.31,36.702 C244.145999,36.7700003 244.008001,36.8579995 243.896,36.966 C243.783999,37.0740005 243.698,37.1939993 243.638,37.326 C243.578,37.4580007 243.54,37.5839994 243.524,37.704 L246.236,37.704 C246.22,37.5839994 246.19,37.4580007 246.146,37.326 C246.102,37.1939993 246.03,37.0740005 245.93,36.966 C245.829999,36.8579995 245.698001,36.7700003 245.534,36.702 C245.369999,36.6339997 245.160001,36.6 244.904,36.6 Z M249.164,36.816 C249.196,36.6479992 249.269999,36.468001 249.386,36.276 C249.502001,36.083999 249.665999,35.9040008 249.878,35.736 C250.090001,35.5679992 250.349998,35.4300005 250.658,35.322 C250.966002,35.2139995 251.323998,35.16 251.732,35.16 C252.140002,35.16 252.507998,35.2139995 252.836,35.322 C253.164002,35.4300005 253.445999,35.587999 253.682,35.796 C253.918001,36.004001 254.099999,36.2659984 254.228,36.582 C254.356001,36.8980016 254.42,37.259998 254.42,37.668 L254.42,41.196 C254.42,41.2840004 254.388,41.3599997 254.324,41.424 C254.26,41.4880003 254.184,41.52 254.096,41.52 L253.184,41.52 C253.096,41.52 253.02,41.4880003 252.956,41.424 C252.892,41.3599997 252.86,41.2840004 252.86,41.196 L252.86,40.8 C252.691999,41.0320012 252.450002,41.2299992 252.134,41.394 C251.817998,41.5580008 251.416002,41.64 250.928,41.64 C250.583998,41.64 250.276001,41.5940005 250.004,41.502 C249.731999,41.4099995 249.504001,41.2800008 249.32,41.112 C249.135999,40.9439992 248.994,40.7460011 248.894,40.518 C248.793999,40.2899989 248.744,40.0400014 248.744,39.768 C248.744,39.2159972 248.939998,38.7840016 249.332,38.472 C249.724002,38.1599984 250.247997,37.9480006 250.904,37.836 L252.86,37.5 C252.86,37.1719984 252.752001,36.9400007 252.536,36.804 C252.319999,36.6679993 252.052002,36.6 251.732,36.6 C251.531999,36.6 251.376001,36.6279997 251.264,36.684 C251.151999,36.7400003 251.044001,36.8159995 250.94,36.912 C250.868,36.9760003 250.802,37.0199999 250.742,37.044 C250.682,37.0680001 250.616,37.08 250.544,37.08 L249.428,37.08 C249.348,37.08 249.28,37.0560002 249.224,37.008 C249.168,36.9599998 249.148,36.8960004 249.164,36.816 Z M251.168,40.2 C251.440001,40.2 251.681999,40.1620004 251.894,40.086 C252.106001,40.0099996 252.283999,39.9080006 252.428,39.78 C252.572001,39.6519994 252.68,39.5080008 252.752,39.348 C252.824,39.1879992 252.86,39.0240008 252.86,38.856 L252.86,38.736 L251.228,39.024 C250.899998,39.0800003 250.664001,39.1619995 250.52,39.27 C250.375999,39.3780005 250.304,39.5239991 250.304,39.708 C250.304,39.8760008 250.389999,39.9999996 250.562,40.08 C250.734001,40.1600004 250.935999,40.2 251.168,40.2 Z M257.576,35.88 C257.768001,35.6479988 257.999999,35.4700006 258.272,35.346 C258.544001,35.2219994 258.827999,35.16 259.124,35.16 C259.628003,35.16 260.039998,35.2539991 260.36,35.442 C260.680002,35.6300009 260.931999,35.8759985 261.116,36.18 C261.220001,36.0199992 261.347999,35.8760006 261.5,35.748 C261.652001,35.6199994 261.813999,35.5120004 261.986,35.424 C262.158001,35.3359996 262.335999,35.2700002 262.52,35.226 C262.704001,35.1819998 262.883999,35.16 263.06,35.16 C263.516002,35.16 263.895998,35.2359992 264.2,35.388 C264.504002,35.5400008 264.749999,35.7439987 264.938,36 C265.126001,36.2560013 265.258,36.5539983 265.334,36.894 C265.41,37.2340017 265.448,37.5919981 265.448,37.968 L265.448,41.196 C265.448,41.2840004 265.416,41.3599997 265.352,41.424 C265.288,41.4880003 265.212,41.52 265.124,41.52 L264.212,41.52 C264.124,41.52 264.048,41.4880003 263.984,41.424 C263.92,41.3599997 263.888,41.2840004 263.888,41.196 L263.888,38.028 C263.888,37.4839973 263.784001,37.1040011 263.576,36.888 C263.367999,36.6719989 263.076002,36.564 262.7,36.564 C262.379998,36.564 262.106001,36.667999 261.878,36.876 C261.649999,37.084001 261.528,37.4479974 261.512,37.968 L261.512,41.196 C261.512,41.2840004 261.48,41.3599997 261.416,41.424 C261.352,41.4880003 261.276,41.52 261.188,41.52 L260.276,41.52 C260.188,41.52 260.112,41.4880003 260.048,41.424 C259.984,41.3599997 259.952,41.2840004 259.952,41.196 L259.952,38.028 C259.952,37.4839973 259.848001,37.1040011 259.64,36.888 C259.431999,36.6719989 259.140002,36.564 258.764,36.564 C258.435998,36.564 258.156001,36.6739989 257.924,36.894 C257.691999,37.1140011 257.576,37.4919973 257.576,38.028 L257.576,41.196 C257.576,41.2840004 257.544,41.3599997 257.48,41.424 C257.416,41.4880003 257.34,41.52 257.252,41.52 L256.34,41.52 C256.252,41.52 256.176,41.4880003 256.112,41.424 C256.048,41.3599997 256.016,41.2840004 256.016,41.196 L256.016,35.604 C256.016,35.5159996 256.048,35.4400003 256.112,35.376 C256.176,35.3119997 256.252,35.28 256.34,35.28 L257.252,35.28 C257.34,35.28 257.416,35.3119997 257.48,35.376 C257.544,35.4400003 257.576,35.5159996 257.576,35.604 L257.576,35.88 Z M268.604,41.196 C268.604,41.2840004 268.572,41.3599997 268.508,41.424 C268.444,41.4880003 268.368,41.52 268.28,41.52 L267.368,41.52 C267.28,41.52 267.204,41.4880003 267.14,41.424 C267.076,41.3599997 267.044,41.2840004 267.044,41.196 L267.044,33.324 C267.044,33.2359996 267.076,33.1600003 267.14,33.096 C267.204,33.0319997 267.28,33 267.368,33 L268.28,33 C268.368,33 268.444,33.0319997 268.508,33.096 C268.572,33.1600003 268.604,33.2359996 268.604,33.324 L268.604,41.196 Z M269.948,38.4 C269.948,37.9519978 270.015999,37.530002 270.152,37.134 C270.288001,36.737998 270.483999,36.3940015 270.74,36.102 C270.996001,35.8099985 271.305998,35.5800008 271.67,35.412 C272.034002,35.2439992 272.439998,35.16 272.888,35.16 C273.336002,35.16 273.741998,35.2419992 274.106,35.406 C274.470002,35.5700008 274.779999,35.7899986 275.036,36.066 C275.292001,36.3420014 275.489999,36.6659981 275.63,37.038 C275.770001,37.4100019 275.84,37.799998 275.84,38.208 L275.84,38.748 C275.84,38.8360004 275.808,38.9119997 275.744,38.976 C275.68,39.0400003 275.604,39.072 275.516,39.072 L271.508,39.072 C271.508,39.2560009 271.546,39.4179993 271.622,39.558 C271.698,39.6980007 271.799999,39.8159995 271.928,39.912 C272.056001,40.0080005 272.203999,40.0799998 272.372,40.128 C272.540001,40.1760002 272.711999,40.2 272.888,40.2 C273.144001,40.2 273.351999,40.1740003 273.512,40.122 C273.672001,40.0699997 273.803999,40.0040004 273.908,39.924 C273.996,39.8599997 274.068,39.8160001 274.124,39.792 C274.18,39.7679999 274.256,39.756 274.352,39.756 L275.312,39.756 C275.4,39.756 275.478,39.7879997 275.546,39.852 C275.614,39.9160003 275.644,39.9919996 275.636,40.08 C275.628,40.1920006 275.566001,40.3359991 275.45,40.512 C275.333999,40.6880009 275.160001,40.8599992 274.928,41.028 C274.695999,41.1960008 274.410002,41.3399994 274.07,41.46 C273.729998,41.5800006 273.336002,41.64 272.888,41.64 C272.439998,41.64 272.034002,41.5620008 271.67,41.406 C271.305998,41.2499992 270.996001,41.0280014 270.74,40.74 C270.483999,40.4519986 270.288001,40.110002 270.152,39.714 C270.015999,39.317998 269.948,38.8800024 269.948,38.4 Z M272.888,36.6 C272.655999,36.6 272.458001,36.6339997 272.294,36.702 C272.129999,36.7700003 271.992001,36.8579995 271.88,36.966 C271.767999,37.0740005 271.682,37.1939993 271.622,37.326 C271.562,37.4580007 271.524,37.5839994 271.508,37.704 L274.22,37.704 C274.204,37.5839994 274.174,37.4580007 274.13,37.326 C274.086,37.1939993 274.014,37.0740005 273.914,36.966 C273.813999,36.8579995 273.682001,36.7700003 273.518,36.702 C273.353999,36.6339997 273.144001,36.6 272.888,36.6 Z M280.544,39.732 C280.544,39.6439996 280.516,39.5720003 280.46,39.516 C280.404,39.4599997 280.306001,39.4080002 280.166,39.36 C280.025999,39.3119998 279.840001,39.2640002 279.608,39.216 C279.375999,39.1679998 279.080002,39.1040004 278.72,39.024 C278.367998,38.9439996 278.076001,38.8440006 277.844,38.724 C277.611999,38.6039994 277.426001,38.4640008 277.286,38.304 C277.145999,38.1439992 277.048,37.962001 276.992,37.758 C276.936,37.553999 276.908,37.3320012 276.908,37.092 C276.908,36.8519988 276.963999,36.6160012 277.076,36.384 C277.188001,36.1519988 277.349999,35.9460009 277.562,35.766 C277.774001,35.5859991 278.031998,35.4400006 278.336,35.328 C278.640002,35.2159994 278.987998,35.16 279.38,35.16 C279.772002,35.16 280.121998,35.2039996 280.43,35.292 C280.738002,35.3800004 280.999999,35.4959993 281.216,35.64 C281.432001,35.7840007 281.599999,35.9499991 281.72,36.138 C281.840001,36.3260009 281.908,36.515999 281.924,36.708 C281.932,36.7960004 281.902,36.8719997 281.834,36.936 C281.766,37.0000003 281.688,37.032 281.6,37.032 L280.676,37.032 C280.555999,37.032 280.466,37.0100002 280.406,36.966 C280.346,36.9219998 280.28,36.8720003 280.208,36.816 C280.136,36.7599997 280.040001,36.7100002 279.92,36.666 C279.799999,36.6219998 279.620001,36.6 279.38,36.6 C279.139999,36.6 278.928001,36.6359996 278.744,36.708 C278.559999,36.7800004 278.468,36.9079991 278.468,37.092 C278.468,37.1800004 278.49,37.2539997 278.534,37.314 C278.578,37.3740003 278.661999,37.4279998 278.786,37.476 C278.910001,37.5240002 279.081999,37.5739997 279.302,37.626 C279.522001,37.6780003 279.807998,37.7399996 280.16,37.812 C280.872004,37.9640008 281.373999,38.2019984 281.666,38.526 C281.958001,38.8500016 282.104,39.2519976 282.104,39.732 C282.104,39.9720012 282.044001,40.2059989 281.924,40.434 C281.803999,40.6620011 281.630001,40.8659991 281.402,41.046 C281.173999,41.2260009 280.894002,41.3699995 280.562,41.478 C280.229998,41.5860005 279.856002,41.64 279.44,41.64 C279.015998,41.64 278.642002,41.5900005 278.318,41.49 C277.993998,41.3899995 277.720001,41.2600008 277.496,41.1 C277.271999,40.9399992 277.100001,40.760001 276.98,40.56 C276.859999,40.359999 276.796,40.164001 276.788,39.972 C276.78,39.8839996 276.81,39.8080003 276.878,39.744 C276.946,39.6799997 277.024,39.648 277.112,39.648 L278.036,39.648 C278.156001,39.648 278.246,39.6759997 278.306,39.732 C278.366,39.7880003 278.434,39.8519996 278.51,39.924 C278.586,39.9960004 278.691999,40.0599997 278.828,40.116 C278.964001,40.1720003 279.167999,40.2 279.44,40.2 C279.560001,40.2 279.683999,40.1920001 279.812,40.176 C279.940001,40.1599999 280.057999,40.1340002 280.166,40.098 C280.274001,40.0619998 280.364,40.0140003 280.436,39.954 C280.508,39.8939997 280.544,39.8200004 280.544,39.732 Z M286.784,39.732 C286.784,39.6439996 286.756,39.5720003 286.7,39.516 C286.644,39.4599997 286.546001,39.4080002 286.406,39.36 C286.265999,39.3119998 286.080001,39.2640002 285.848,39.216 C285.615999,39.1679998 285.320002,39.1040004 284.96,39.024 C284.607998,38.9439996 284.316001,38.8440006 284.084,38.724 C283.851999,38.6039994 283.666001,38.4640008 283.526,38.304 C283.385999,38.1439992 283.288,37.962001 283.232,37.758 C283.176,37.553999 283.148,37.3320012 283.148,37.092 C283.148,36.8519988 283.203999,36.6160012 283.316,36.384 C283.428001,36.1519988 283.589999,35.9460009 283.802,35.766 C284.014001,35.5859991 284.271998,35.4400006 284.576,35.328 C284.880002,35.2159994 285.227998,35.16 285.62,35.16 C286.012002,35.16 286.361998,35.2039996 286.67,35.292 C286.978002,35.3800004 287.239999,35.4959993 287.456,35.64 C287.672001,35.7840007 287.839999,35.9499991 287.96,36.138 C288.080001,36.3260009 288.148,36.515999 288.164,36.708 C288.172,36.7960004 288.142,36.8719997 288.074,36.936 C288.006,37.0000003 287.928,37.032 287.84,37.032 L286.916,37.032 C286.795999,37.032 286.706,37.0100002 286.646,36.966 C286.586,36.9219998 286.52,36.8720003 286.448,36.816 C286.376,36.7599997 286.280001,36.7100002 286.16,36.666 C286.039999,36.6219998 285.860001,36.6 285.62,36.6 C285.379999,36.6 285.168001,36.6359996 284.984,36.708 C284.799999,36.7800004 284.708,36.9079991 284.708,37.092 C284.708,37.1800004 284.73,37.2539997 284.774,37.314 C284.818,37.3740003 284.901999,37.4279998 285.026,37.476 C285.150001,37.5240002 285.321999,37.5739997 285.542,37.626 C285.762001,37.6780003 286.047998,37.7399996 286.4,37.812 C287.112004,37.9640008 287.613999,38.2019984 287.906,38.526 C288.198001,38.8500016 288.344,39.2519976 288.344,39.732 C288.344,39.9720012 288.284001,40.2059989 288.164,40.434 C288.043999,40.6620011 287.870001,40.8659991 287.642,41.046 C287.413999,41.2260009 287.134002,41.3699995 286.802,41.478 C286.469998,41.5860005 286.096002,41.64 285.68,41.64 C285.255998,41.64 284.882002,41.5900005 284.558,41.49 C284.233998,41.3899995 283.960001,41.2600008 283.736,41.1 C283.511999,40.9399992 283.340001,40.760001 283.22,40.56 C283.099999,40.359999 283.036,40.164001 283.028,39.972 C283.02,39.8839996 283.05,39.8080003 283.118,39.744 C283.186,39.6799997 283.264,39.648 283.352,39.648 L284.276,39.648 C284.396001,39.648 284.486,39.6759997 284.546,39.732 C284.606,39.7880003 284.674,39.8519996 284.75,39.924 C284.826,39.9960004 284.931999,40.0599997 285.068,40.116 C285.204001,40.1720003 285.407999,40.2 285.68,40.2 C285.800001,40.2 285.923999,40.1920001 286.052,40.176 C286.180001,40.1599999 286.297999,40.1340002 286.406,40.098 C286.514001,40.0619998 286.604,40.0140003 286.676,39.954 C286.748,39.8939997 286.784,39.8200004 286.784,39.732 Z M291.188,41.196 C291.188,41.2840004 291.156,41.3599997 291.092,41.424 C291.028,41.4880003 290.952,41.52 290.864,41.52 L289.952,41.52 C289.864,41.52 289.788,41.4880003 289.724,41.424 C289.66,41.3599997 289.628,41.2840004 289.628,41.196 L289.628,33.324 C289.628,33.2359996 289.66,33.1600003 289.724,33.096 C289.788,33.0319997 289.864,33 289.952,33 L290.864,33 C290.952,33 291.028,33.0319997 291.092,33.096 C291.156,33.1600003 291.188,33.2359996 291.188,33.324 L291.188,41.196 Z M294.74,41.184 L292.364,35.688 C292.356,35.6639999 292.352,35.6360002 292.352,35.604 C292.352,35.5159996 292.384,35.4400003 292.448,35.376 C292.512,35.3119997 292.588,35.28 292.676,35.28 L293.576,35.28 C293.672,35.28 293.756,35.3119997 293.828,35.376 C293.9,35.4400003 293.948,35.5039997 293.972,35.568 L295.568,39.276 L297.164,35.568 C297.188,35.5039997 297.236,35.4400003 297.308,35.376 C297.38,35.3119997 297.464,35.28 297.56,35.28 L298.46,35.28 C298.548,35.28 298.624,35.3119997 298.688,35.376 C298.752,35.4400003 298.784,35.5159996 298.784,35.604 C298.784,35.6360002 298.78,35.6639999 298.772,35.688 L295.4,43.512 C295.376,43.5760003 295.328,43.6399997 295.256,43.704 C295.184,43.7680003 295.1,43.8 295.004,43.8 L294.104,43.8 C294.016,43.8 293.94,43.7680003 293.876,43.704 C293.812,43.6399997 293.78,43.5640004 293.78,43.476 C293.78,43.4439998 293.784,43.4160001 293.792,43.392 L294.74,41.184 Z" id="Port-your-map-data-t" fill="#FFFFFF" fill-rule="nonzero"></path>
            <g id="Group-23-Copy" fill="url(#linearGradient-1)">
                <path d="M2.48220265,24.0849013 C2.47506005,23.8664065 2.47537338,23.6471632 2.47861238,23.42792 C2.51344671,21.0235359 3.2260137,18.6262609 4.40986871,16.4970988 C5.75662545,14.1374003 7.67968547,12.1219831 9.88449376,10.5163522 C10.6897816,9.93188628 11.5416859,9.42308104 12.4125442,8.95032886 C12.5160226,8.79494523 12.6061821,8.63194474 12.7137587,8.47910006 C14.3130643,6.21740489 16.3339678,4.2222993 18.730365,2.80810509 C20.9438818,1.53355303 23.4698831,0.767806222 26.002544,0.75561927 C26.101412,0.747494635 26.20028,0.742924528 26.2996603,0.742924528 C26.361063,0.742924528 26.4226739,0.744782283 26.4843603,0.748761004 C25.3935489,0.904497931 24.5317842,1.58588293 23.8629989,2.35434299 C23.1857523,3.16993046 22.6456954,4.0939252 22.2156975,5.06959071 C22.0841387,5.35884564 21.9735678,5.65721894 21.8558303,5.95204621 C22.9994199,5.81172464 24.1481285,5.72307383 25.2953014,5.71344889 C27.4263503,5.73168563 29.5635422,5.98598681 31.6464723,6.46571434 C31.4514376,5.96116458 31.2430934,5.46218716 31.0086421,4.97486098 C30.5489539,4.00122178 29.9899567,3.06912182 29.2702222,2.26771849 C28.5780291,1.53180604 27.6993284,0.891489878 26.6405912,0.755243272 C27.7337693,0.712944397 28.7952751,1.26909023 29.6089218,1.99411826 C30.4592894,2.75732612 31.1529024,3.67591763 31.7430369,4.6402102 C32.1513158,5.33385088 32.5068309,6.05135767 32.830073,6.78308258 C35.3985927,7.49144916 37.8595358,8.56694767 40.0745895,10.0496935 C40.3102335,10.2076161 40.5535615,10.3497972 40.7830583,10.5163522 C41.4372266,10.9926589 42.0627077,11.509081 42.6595018,12.0549549 C42.9448359,12.6622713 43.2035321,13.2792357 43.4402006,13.906356 C44.0595346,15.5439776 44.5236508,17.2394873 44.829988,18.9649566 C44.9221965,19.48798 45.0051842,20.0135423 45.0707547,20.5406279 C44.7070433,20.3354809 44.3346233,20.1440442 43.9524702,19.9734269 C43.7588323,19.8860871 43.5580226,19.8139809 43.3613111,19.7332424 C41.6313767,19.0172589 39.7989884,18.5241952 37.951232,18.131166 C37.1679718,17.9712122 36.3795889,17.836648 35.589157,17.7142707 C35.0763751,17.6350555 34.5620565,17.5619338 34.0456887,17.4969367 C31.1631478,17.1338671 28.2457725,16.9830536 25.3335199,16.9718822 C23.3833096,16.9789912 21.4305379,17.0505896 19.4869871,17.2039421 C19.4736681,17.3567867 19.4552264,17.5086159 19.4429319,17.6614605 C19.2441713,19.8139809 19.1458156,21.9791961 19.1632327,24.144919 C19.1458156,26.3101341 19.2441713,28.4748414 19.4429319,30.6283774 C19.4685454,30.9609796 19.5054288,31.2930741 19.5382141,31.6236451 C21.46486,31.7973092 23.3981654,31.8927737 25.3335199,31.8841412 C26.6884729,31.8897269 28.0413769,31.8353934 29.3927441,31.7516081 C30.1411699,31.7064149 30.8890835,31.660206 31.6339235,31.5865765 C31.6841259,32.0872571 31.7415001,32.5869221 31.8070706,33.0840482 C31.9817546,34.4093792 32.2020305,35.7286168 32.4556039,37.0387141 C32.6482173,37.9354707 32.8674687,38.8276571 33.1159194,39.7101955 C33.3172414,40.4251634 33.5395664,41.13353 33.7977502,41.8276784 C33.7321797,41.8515445 33.6671215,41.8764262 33.601551,41.8972456 C33.2199101,42.0135294 32.8310975,42.1018849 32.4448463,42.2014116 C30.1227282,42.7975567 27.729917,43.1068006 25.3335199,43.1418381 C24.2679992,43.1260966 23.203503,43.0423113 22.1431049,42.9209496 C22.1820374,43.009305 22.211749,43.0996915 22.2517061,43.1865236 C22.6820125,44.165542 23.2224569,45.0907348 23.9001896,45.9082762 C24.57741,46.6877333 25.4523664,47.3783272 26.5624546,47.5230473 C26.591654,47.5245707 26.6193166,47.5291408 26.6480036,47.5306641 C26.6408319,47.5311719 26.6336601,47.5311719 26.6259761,47.5311719 C26.6167552,47.5311719 26.6070221,47.5306641 26.597289,47.5311719 C26.3990406,47.5540225 26.20028,47.5499602 26.0015194,47.5342187 C23.4693709,47.5215239 20.9433696,46.7552693 18.730365,45.4812251 C16.5050659,44.168081 14.6091561,42.3517174 13.0687615,40.2880602 C12.949915,40.1296298 12.8285071,39.9717072 12.7137587,39.8102301 C12.0293665,38.8383207 11.441281,37.8110622 10.9131311,36.7553675 C9.92393852,34.7785423 9.20163841,32.6752775 8.72164181,30.5166637 C7.85539394,30.1424227 7.00605097,29.7270507 6.19359141,29.2375415 C5.25921169,28.6434276 4.35556814,27.9726375 3.63480483,27.119043 C2.93348901,26.301033 2.42851191,25.2474809 2.48319755,24.1829836 C2.60643555,25.2257568 3.20636088,26.1079881 3.93038633,26.7945817 C4.69320032,27.5101262 5.59170473,28.0706276 6.52883265,28.5413671 C7.14630033,28.8494133 7.78562078,29.1120687 8.43154789,29.3568736 C8.12154353,27.6233485 7.95536087,25.8633029 7.93909835,24.1093774 C7.95434446,22.4829544 8.10528101,20.8519414 8.36903881,19.2397988 C7.79121103,19.4448229 7.2204981,19.6646374 6.66503128,19.9196425 C5.72383774,20.3460112 4.82482512,20.8652017 4.0452404,21.5307651 C3.29189305,22.1808762 2.65931473,23.0265006 2.48220265,24.0849013 Z M19.0446221,3.25106632 C17.094734,4.53072859 15.4331303,6.20916695 14.0838773,8.10079715 C16.0568077,7.21275346 18.1429012,6.58493673 20.2781516,6.19843067 C20.5623396,5.62071658 20.8654735,5.05067126 21.2034268,4.4980085 C21.8224958,3.52918708 22.53527,2.59615327 23.427774,1.8425687 C23.9413606,1.41056126 24.5476283,1.04910651 25.1866673,0.845117204 C22.9756334,1.18458814 20.8670097,2.01077041 19.0446221,3.25106632 Z M20.2985018,11.2572561 C20.0861702,12.3485129 19.8953276,13.4453321 19.7362067,14.5467024 C21.5750498,14.3449362 23.4241257,14.2438003 25.2691084,14.2402605 C28.075979,14.2453173 30.8910359,14.4637709 33.6651614,14.9477064 C33.4845516,13.6855299 33.2747782,12.4268932 33.004631,11.1814042 C32.744205,10.0456477 32.4423359,8.91697062 32.0775348,7.81206054 C29.8518901,7.26997193 27.5587085,6.98426292 25.2691084,6.97667772 C23.9700482,6.98122884 22.6684298,7.07073414 21.3780674,7.24569931 C20.9380549,8.55591534 20.5906497,9.9025403 20.2985018,11.2572561 Z M12.9993432,9.76929395 C11.7138678,11.9591298 10.7674805,14.3274987 10.1474336,16.7871745 C10.8133721,16.5295768 11.4854295,16.2888122 12.1661552,16.0806936 C13.9289036,15.5445843 15.7227562,15.1446701 17.5313962,14.8528961 C17.7822704,13.4827822 18.0892344,12.12236 18.4798231,10.778771 C18.8031041,9.66472457 19.1829848,8.56241028 19.6352723,7.4876411 C17.3304929,7.95131703 15.0945509,8.71543864 12.9993432,9.76929395 Z M38.4340974,16.0792132 C39.982184,16.5530272 41.5048254,17.1491158 42.9511312,17.911294 C42.5104201,15.7944154 41.8386666,13.7325603 40.9200945,11.7812619 C40.6768383,11.6019258 40.4310375,11.4266656 40.1806567,11.2585381 C38.085498,9.8513615 35.7755818,8.81304656 33.362358,8.10079715 C33.7043417,9.0081764 34.0066308,9.92982102 34.2651541,10.8606362 C34.6631172,12.3060236 34.9638796,13.7712806 35.2081536,15.2457082 C36.2926285,15.4785394 37.3694698,15.7551856 38.4340974,16.0792132 Z M4.82465952,16.7438206 C3.685612,18.4740193 2.92162923,20.4465271 2.57734955,22.5099644 C2.76770389,21.9709917 3.06734522,21.4579263 3.4213735,21.0108991 C4.12583848,20.1066848 5.03143256,19.3949971 5.96319396,18.7554433 C6.85185626,18.1864995 7.78413074,17.6998494 8.74000711,17.2700936 C9.28695515,14.9653633 10.1160997,12.7332749 11.2577126,10.655614 C10.9488357,10.8410288 10.6348281,11.0152678 10.3341606,11.2149061 C8.15252539,12.6657128 6.22845863,14.5274797 4.82465952,16.7438206 Z M12.6500141,30.5902904 C14.1908605,30.9252573 15.7466515,31.2006633 17.3137798,31.4007271 C16.9803592,28.9907978 16.8252439,26.5584694 16.8056613,24.133268 C16.8236979,21.8872586 16.9530466,19.6351405 17.2359645,17.4003306 C15.7342835,17.574941 14.2413631,17.8035127 12.7628721,18.1043721 C11.7425123,18.3207261 10.7252445,18.5635517 9.72755942,18.8577932 C9.41732881,20.5998249 9.24726885,22.36731 9.23902352,24.133268 C9.24778418,26.0366744 9.43794214,27.9436443 9.79970607,29.8170156 C10.7381279,30.1132934 11.690979,30.3678275 12.6500141,30.5902904 Z M17.7184194,39.6759526 C18.2849674,39.8329933 18.8581628,39.9661476 19.4334034,40.0871045 C19.0938836,39.2200771 18.7865773,38.3418688 18.5268242,37.4514631 C18.0829941,35.9354357 17.741429,34.3975547 17.4765626,32.8479846 C15.7349897,32.5842172 14.0072225,32.2254122 12.3065556,31.740568 C11.5451927,31.5230488 10.7925223,31.2679212 10.0464992,30.9919564 C10.5941282,33.3084341 11.422986,35.5542689 12.5560822,37.6486534 C14.1948788,38.5116151 15.9246913,39.2027975 17.7184194,39.6759526 Z M21.1491048,40.4030956 C22.495076,40.5961 23.8543939,40.7002208 25.2162785,40.7002208 C25.2311653,40.7002208 25.2460521,40.7002208 25.2604255,40.7002208 C27.3425228,40.7037762 29.4179466,40.4686155 31.4446034,40.0247053 C31.1135007,39.1790412 30.8137115,38.3222031 30.5590961,37.454699 C30.1525327,36.071162 29.8347768,34.6683245 29.5791346,33.2563448 C28.1412761,33.3680842 26.7003375,33.4295409 25.2604255,33.4381753 C23.38469,33.4264934 21.5053611,33.3304991 19.6352723,33.1380026 C19.8087804,34.432656 20.0248955,35.7212145 20.2733509,37.0016465 C20.5202663,38.1469754 20.8046553,39.2867174 21.1491048,40.4030956 Z M18.9651589,44.9492614 C20.7814786,46.1833979 22.8825712,47.00463 25.0857328,47.3427845 C24.4488216,47.1393833 23.8455932,46.7803803 23.3337166,46.3512038 C22.4441844,45.6016706 21.7337834,44.6731443 21.1167756,43.7085144 C20.910596,43.372394 20.7284027,43.023561 20.5426369,42.6772705 C19.344856,42.4769204 18.1567716,42.2165669 16.9952251,41.8601064 C16.2143965,41.611957 15.4473471,41.3210934 14.689484,41.0068386 C15.9025754,42.5277707 17.3310325,43.8798799 18.9651589,44.9492614 Z" id="Combined-Shape" fill-rule="nonzero"></path>
                <path d="M20.2697019,0.48478988 C17.7393285,0.994022947 15.2744828,1.89027314 13.0062198,3.15826348 C7.88498612,5.96413768 3.81219395,10.7101899 1.71531086,16.2761073 C0.656788142,19.0514275 0.0771209407,22.0253486 0.00151217531,25.019639 C0.000504058436,25.1016256 0,25.1836121 0,25.2650894 L0,25.3272158 C0.00352840905,28.2196596 0.468270287,31.126362 1.40783521,33.8808036 C3.32275321,39.5882879 7.30027833,44.6200198 12.5122426,47.7309246 C15.1031029,49.3044548 17.9711954,50.4201844 20.9552214,51.0108948 C21.7062684,51.1229261 22.4522749,51.30625 23.2083626,51.3571733 L25.4917473,51.509434 L27.775132,51.4386506 C28.5413008,51.4131889 29.2923479,51.2553267 30.0534761,51.1682478 C36.0971368,50.2113989 41.8282812,47.0536446 45.8758705,42.3081017 C49.0363169,38.6416236 51.1533623,34.0636183 52.004717,29.2360888 L46.9444743,29.2360888 C46.3043201,32.9076593 44.7770231,36.4366444 42.4281108,39.3851039 C39.2117139,43.4589684 34.4987675,46.3106736 29.388119,47.3291397 C28.7429242,47.425894 28.10277,47.5939409 27.4525346,47.6351888 L25.4917473,47.7767556 L23.5208788,47.7166661 C22.8656028,47.7008799 22.220408,47.5577854 21.5651321,47.4920943 C18.9742717,47.0801247 16.4438984,46.208827 14.120189,44.9204673 C9.4521038,42.374302 5.73719312,38.0509132 3.82227512,32.9891365 C2.85448292,30.4628313 2.33026215,27.7542206 2.25465339,25.019639 C2.22440988,22.2850575 2.64277838,19.5453836 3.52488064,16.9432026 C5.26892283,11.7388407 8.89310299,7.1302814 13.6514146,4.28366856 C15.2341581,3.32121806 16.9378756,2.5471838 18.7071207,1.97684277 C19.1960574,1.81337895 19.6955793,1.67130293 20.1940931,1.54908699 C21.7213902,1.15748676 23.2839713,0.917637987 24.8616742,0.841253027 C25.3052457,0.821392937 25.7488171,0.810699043 26.1918845,0.816300606 C27.3567635,0.821392937 28.5261791,0.917637987 29.6804729,1.10605422 C31.182567,1.34030143 32.6594583,1.72222623 34.0904802,2.24673629 C35.9660816,2.93420093 37.7605296,3.85591278 39.4239225,4.98641019 C41.1674606,6.17292324 42.7708705,7.58808193 44.1620718,9.20795232 C43.0329809,7.78719206 41.7375507,6.4988324 40.3161059,5.36833499 C38.7585653,4.12071398 37.0498072,3.06711076 35.2402375,2.22636697 C33.5062764,1.42687105 31.6760402,0.831068365 29.7913658,0.46492979 C28.732339,0.250033436 27.654158,0.108466643 26.5754729,0.0468494422 C26.1772668,0.0213877888 25.7835971,0.0061107968 25.385895,0.00101846613 C25.3173431,0.000509233067 25.2492952,0 25.1807432,0 C23.988645,0 22.797555,0.0865696214 21.6150339,0.255635 C21.1613813,0.316742968 20.7127693,0.398220258 20.2697019,0.48478988 Z" id="Fill-9"></path>
                <path d="M35.4127358,29.2216981 C35.5801126,30.5129736 35.7982096,31.7952016 36.0416667,33.0713979 C36.1025309,33.3584039 36.1684672,33.6398808 36.2394756,33.9268868 L43.8272215,33.9268868 C44.5068726,32.4335511 45.0039308,30.8552697 45.3183962,29.2216981 L35.4127358,29.2216981 Z" id="Fill-12"></path>
            </g>
            <path d="M64.5276981,15.8256604 C64.1273942,15.8256604 63.7918504,15.8815844 63.5210566,15.993434 C63.2502628,16.1052836 63.0295102,16.2553953 62.8587924,16.4437736 C62.6880746,16.6321519 62.5615098,16.8499611 62.4790943,17.0972076 C62.3966788,17.3444541 62.3378115,17.6034704 62.3024905,17.8742642 C62.2789432,18.0273216 62.2642264,18.239244 62.2583396,18.5100378 C62.2524528,18.7808316 62.2495094,19.0604514 62.2495094,19.3489057 C62.2495094,19.63736 62.2553961,19.9199232 62.2671698,20.1966038 C62.2789434,20.4732844 62.2907169,20.6881502 62.3024905,20.8412076 C62.3260378,21.1120014 62.3819618,21.3710177 62.4702641,21.6182642 C62.5585664,21.8655107 62.6880746,22.0833199 62.8587924,22.2716982 C63.0295102,22.4600765 63.2532061,22.6101882 63.5298867,22.7220378 C63.8065674,22.8338874 64.1391678,22.8898114 64.5276981,22.8898114 C64.8338128,22.8898114 65.1222628,22.854491 65.3930566,22.7838491 C65.6638504,22.7132072 65.8993197,22.6013593 66.0994717,22.4483019 C66.2996236,22.2952446 66.4585654,22.0950956 66.5763018,21.8478491 C66.6940383,21.6006026 66.7529056,21.3003792 66.7529056,20.9471698 L65.2694339,20.9471698 C65.1399238,20.9471698 65.0280759,20.900076 64.9338867,20.8058868 C64.8396976,20.7116977 64.7926037,20.5998497 64.7926037,20.4703397 L64.7926037,18.5983397 C64.7926037,18.4688296 64.8396976,18.3569816 64.9338867,18.2627925 C65.0280759,18.1686033 65.1399238,18.1215095 65.2694339,18.1215095 L69.5432452,18.1215095 C69.6727553,18.1215095 69.7846033,18.1686033 69.8787924,18.2627925 C69.9729816,18.3569816 70.0200754,18.4688296 70.0200754,18.5983397 L70.0200754,20.858868 C70.0200754,21.6123812 69.8787938,22.2893555 69.5962264,22.8898114 C69.3136589,23.4902672 68.9251345,23.9994696 68.4306415,24.417434 C67.9361484,24.8353984 67.3563052,25.1562253 66.6910943,25.3799246 C66.0258834,25.6036238 65.3047586,25.7154717 64.5276981,25.7154717 C63.6799957,25.7154717 62.9235505,25.588907 62.2583396,25.3357736 C61.5931287,25.0826403 61.0250589,24.7382664 60.5541132,24.3026415 C60.0831674,23.8670167 59.7211333,23.3578143 59.468,22.7750189 C59.2148666,22.1922235 59.0706416,21.5770599 59.0353207,20.9295095 C59.0117734,20.4467901 59,19.9287575 59,19.3753963 C59,18.822035 59.0117734,18.292229 59.0353207,17.7859623 C59.058868,17.1384119 59.2001496,16.5232482 59.4591698,15.9404529 C59.7181899,15.3576575 60.080224,14.848455 60.545283,14.4128302 C61.0103419,13.9772054 61.5784117,13.6328315 62.2495094,13.3796982 C62.9206071,13.1265648 63.6799957,13 64.5276981,13 C65.3518531,13 66.0935816,13.1206781 66.7529056,13.3620378 C67.4122297,13.6033975 67.9714694,13.9095076 68.4306415,14.2803774 C68.8898136,14.6512472 69.2489043,15.0574318 69.5079245,15.4989434 C69.7669446,15.9404551 69.9082263,16.3613565 69.9317735,16.7616604 C69.9435472,16.8676232 69.9082268,16.9588676 69.8258113,17.0353963 C69.7433958,17.1119249 69.649208,17.1501887 69.5432452,17.1501887 L67.1944151,17.1501887 C67.0178104,17.1501887 66.8794722,17.0972081 66.7793962,16.9912453 C66.6793202,16.8852825 66.5821891,16.7793213 66.488,16.6733585 C66.3231689,16.4614329 66.0994731,16.2671707 65.8169056,16.0905661 C65.5343382,15.9139614 65.1046066,15.8256604 64.5276981,15.8256604 Z M74.5587924,21.9538114 C74.5587924,22.2246052 74.6088296,22.448301 74.7089056,22.6249057 C74.8089816,22.8015104 74.9355464,22.942792 75.0886037,23.0487548 C75.2416611,23.1547175 75.4123764,23.2283017 75.6007547,23.2695095 C75.789133,23.3107172 75.9716217,23.3313208 76.1482264,23.3313208 C76.5014357,23.3313208 76.7810555,23.2960004 76.9870943,23.2253585 C77.1931331,23.1547167 77.3667917,23.0546422 77.5080754,22.9251321 C77.6375855,22.8191693 77.7317732,22.7514719 77.7906415,22.7220378 C77.8495097,22.6926037 77.9495842,22.6778868 78.0908679,22.6778868 L80.3867169,22.6778868 C80.6457371,22.6778868 80.7752452,22.807395 80.7752452,23.0664151 C80.7752452,23.2076989 80.6869442,23.4225646 80.5103396,23.7110189 C80.3337349,23.9994732 80.0600018,24.2938099 79.689132,24.5940378 C79.3182623,24.8942657 78.8384935,25.1562253 78.2498113,25.3799246 C77.6611291,25.6036238 76.9606078,25.7154717 76.1482264,25.7154717 C75.3829395,25.7154717 74.7030218,25.6065672 74.1084528,25.3887548 C73.5138838,25.1709423 73.0135114,24.8560021 72.6073207,24.4439246 C72.20113,24.031847 71.8950199,23.5314747 71.6889811,22.9427925 C71.4829423,22.3541103 71.3799245,21.6889094 71.3799245,20.9471698 C71.3799245,20.2642985 71.4829423,19.6314746 71.6889811,19.0486793 C71.8950199,18.4658839 72.20113,17.9625682 72.6073207,17.538717 C73.0135114,17.1148658 73.5138838,16.7822654 74.1084528,16.5409057 C74.7030218,16.299546 75.3829395,16.178868 76.1482264,16.178868 C77.0077024,16.178868 77.7406007,16.3230929 78.3469434,16.6115472 C78.953286,16.9000015 79.4477716,17.2738091 79.8304151,17.7329812 C80.2130585,18.1921533 80.489735,18.7072425 80.6604528,19.2782642 C80.8311706,19.8492859 80.9165283,20.4173557 80.9165283,20.9824906 L80.9165283,21.4769812 C80.9165283,21.6064913 80.8694344,21.7183392 80.7752452,21.8125283 C80.6810561,21.9067175 80.5692082,21.9538114 80.4396981,21.9538114 L74.5587924,21.9538114 Z M76.1482264,18.5630189 C75.6537333,18.5630189 75.2769824,18.7101872 75.0179622,19.0045283 C74.7589421,19.2988694 74.605887,19.6285265 74.5587924,19.9935095 L77.7376603,19.9935095 C77.6905658,19.6285265 77.5375107,19.2988694 77.2784905,19.0045283 C77.0194704,18.7101872 76.6427194,18.5630189 76.1482264,18.5630189 Z M91.7423396,20.2760755 C91.7541132,20.4526802 91.76,20.6793194 91.76,20.956 C91.76,21.2326807 91.7541132,21.4593199 91.7423396,21.6359246 C91.7187923,22.2010595 91.5892842,22.7308655 91.3538113,23.2253585 C91.1183384,23.7198516 90.7945681,24.1525265 90.3824905,24.5233963 C89.970413,24.894266 89.472984,25.1856594 88.8901886,25.3975849 C88.3073933,25.6095105 87.6569092,25.7154717 86.9387169,25.7154717 C86.2205247,25.7154717 85.5700406,25.6095105 84.9872452,25.3975849 C84.4044499,25.1856594 83.9070209,24.894266 83.4949434,24.5233963 C83.0828658,24.1525265 82.7590955,23.7198516 82.5236226,23.2253585 C82.2881497,22.7308655 82.1586416,22.2010595 82.1350943,21.6359246 C82.1233207,21.4593199 82.1174339,21.2326807 82.1174339,20.956 C82.1174339,20.6793194 82.1233207,20.4526802 82.1350943,20.2760755 C82.1468679,19.7109406 82.2704893,19.1811346 82.5059622,18.6866415 C82.7414351,18.1921485 83.0681488,17.7594736 83.4861132,17.3886038 C83.9040775,17.017734 84.4044499,16.7233974 84.9872452,16.5055849 C85.5700406,16.2877725 86.2205247,16.178868 86.9387169,16.178868 C87.6569092,16.178868 88.3073933,16.2877725 88.8901886,16.5055849 C89.472984,16.7233974 89.9733564,17.017734 90.3913207,17.3886038 C90.8092851,17.7594736 91.1330554,18.1921485 91.3626415,18.6866415 C91.5922275,19.1811346 91.7187923,19.7109406 91.7423396,20.2760755 Z M85.3139622,21.5476227 C85.3492832,21.9950211 85.5111683,22.3452818 85.7996226,22.5984151 C86.0880769,22.8515485 86.4677712,22.9781132 86.9387169,22.9781132 C87.4096627,22.9781132 87.789357,22.8515485 88.0778113,22.5984151 C88.3662655,22.3452818 88.5281507,21.9950211 88.5634717,21.5476227 C88.5870189,21.371018 88.5987924,21.1708691 88.5987924,20.9471698 C88.5987924,20.7234706 88.5870189,20.5233217 88.5634717,20.346717 C88.5281507,19.8993186 88.3662655,19.5490579 88.0778113,19.2959246 C87.789357,19.0427912 87.4096627,18.9162265 86.9387169,18.9162265 C86.4677712,18.9162265 86.0880769,19.0427912 85.7996226,19.2959246 C85.5111683,19.5490579 85.3492832,19.8993186 85.3139622,20.346717 C85.2904149,20.5233217 85.2786415,20.7234706 85.2786415,20.9471698 C85.2786415,21.1708691 85.2904149,21.371018 85.3139622,21.5476227 Z M101.632151,19.6226415 L102.762415,13.653434 C102.797736,13.4768293 102.868377,13.3532079 102.97434,13.2825661 C103.080302,13.2119242 103.19215,13.1766038 103.309887,13.1766038 L105.623396,13.1766038 C105.729359,13.1766038 105.820603,13.2148676 105.897132,13.2913963 C105.973661,13.3679249 106.011925,13.4591693 106.011925,13.5651321 C106.011925,13.600453 106.006038,13.6475469 105.994264,13.7064151 L103.716076,24.8677736 C103.692528,25.0326046 103.598341,25.1856597 103.433509,25.3269434 C103.268678,25.4682272 103.06853,25.538868 102.833057,25.538868 L101.367245,25.538868 C101.131772,25.538868 100.940454,25.4682272 100.793283,25.3269434 C100.646113,25.1856597 100.543095,25.0326046 100.484226,24.8677736 L99.1596981,20.8765283 L97.8351698,24.8677736 C97.7763015,25.0326046 97.6732837,25.1856597 97.5261132,25.3269434 C97.3789426,25.4682272 97.1876238,25.538868 96.9521509,25.538868 L95.4863396,25.538868 C95.2508667,25.538868 95.0507178,25.4682272 94.8858867,25.3269434 C94.7210557,25.1856597 94.626868,25.0326046 94.6033207,24.8677736 L92.325132,13.7064151 C92.3133584,13.6475469 92.3074717,13.600453 92.3074717,13.5651321 C92.3074717,13.4591693 92.3457354,13.3679249 92.4222641,13.2913963 C92.4987928,13.2148676 92.5900372,13.1766038 92.696,13.1766038 L95.0095094,13.1766038 C95.1272458,13.1766038 95.2390938,13.2119242 95.3450566,13.2825661 C95.4510194,13.3532079 95.5216602,13.4768293 95.5569811,13.653434 L96.6872452,19.6226415 L97.7292075,16.4261132 C97.7527548,16.3436977 97.8057354,16.2377365 97.8881509,16.1082265 C97.9705664,15.9787164 98.1177347,15.9139623 98.3296603,15.9139623 L99.9897358,15.9139623 C100.201661,15.9139623 100.34883,15.9787164 100.431245,16.1082265 C100.513661,16.2377365 100.566641,16.3436977 100.590189,16.4261132 L101.632151,19.6226415 Z M109.720604,21.9538114 C109.720604,22.2246052 109.770641,22.448301 109.870717,22.6249057 C109.970793,22.8015104 110.097358,22.942792 110.250415,23.0487548 C110.403473,23.1547175 110.574188,23.2283017 110.762566,23.2695095 C110.950944,23.3107172 111.133433,23.3313208 111.310038,23.3313208 C111.663247,23.3313208 111.942867,23.2960004 112.148906,23.2253585 C112.354944,23.1547167 112.528603,23.0546422 112.669887,22.9251321 C112.799397,22.8191693 112.893585,22.7514719 112.952453,22.7220378 C113.011321,22.6926037 113.111396,22.6778868 113.252679,22.6778868 L115.548528,22.6778868 C115.807549,22.6778868 115.937057,22.807395 115.937057,23.0664151 C115.937057,23.2076989 115.848756,23.4225646 115.672151,23.7110189 C115.495546,23.9994732 115.221813,24.2938099 114.850943,24.5940378 C114.480074,24.8942657 114.000305,25.1562253 113.411623,25.3799246 C112.822941,25.6036238 112.122419,25.7154717 111.310038,25.7154717 C110.544751,25.7154717 109.864833,25.6065672 109.270264,25.3887548 C108.675695,25.1709423 108.175323,24.8560021 107.769132,24.4439246 C107.362941,24.031847 107.056831,23.5314747 106.850793,22.9427925 C106.644754,22.3541103 106.541736,21.6889094 106.541736,20.9471698 C106.541736,20.2642985 106.644754,19.6314746 106.850793,19.0486793 C107.056831,18.4658839 107.362941,17.9625682 107.769132,17.538717 C108.175323,17.1148658 108.675695,16.7822654 109.270264,16.5409057 C109.864833,16.299546 110.544751,16.178868 111.310038,16.178868 C112.169514,16.178868 112.902412,16.3230929 113.508755,16.6115472 C114.115097,16.9000015 114.609583,17.2738091 114.992226,17.7329812 C115.37487,18.1921533 115.651546,18.7072425 115.822264,19.2782642 C115.992982,19.8492859 116.07834,20.4173557 116.07834,20.9824906 L116.07834,21.4769812 C116.07834,21.6064913 116.031246,21.7183392 115.937057,21.8125283 C115.842868,21.9067175 115.73102,21.9538114 115.601509,21.9538114 L109.720604,21.9538114 Z M111.310038,18.5630189 C110.815545,18.5630189 110.438794,18.7101872 110.179774,19.0045283 C109.920753,19.2988694 109.767698,19.6285265 109.720604,19.9935095 L112.899472,19.9935095 C112.852377,19.6285265 112.699322,19.2988694 112.440302,19.0045283 C112.181282,18.7101872 111.804531,18.5630189 111.310038,18.5630189 Z M123.230793,16.178868 C123.760606,16.178868 124.260979,16.2612822 124.731925,16.4261132 C125.20287,16.5909443 125.614942,16.8411304 125.968151,17.1766793 C126.32136,17.5122281 126.606867,17.9331296 126.824679,18.4393963 C127.042492,18.9456629 127.16317,19.5461098 127.186717,20.2407548 C127.198491,20.4173594 127.204377,20.6557721 127.204377,20.956 C127.204377,21.256228 127.198491,21.4946407 127.186717,21.6712453 C127.16317,22.3658903 127.042492,22.9663371 126.824679,23.4726038 C126.606867,23.9788705 126.32136,24.3997719 125.968151,24.7353208 C125.614942,25.0708696 125.20287,25.3181125 124.731925,25.4770566 C124.260979,25.6360008 123.760606,25.7154717 123.230793,25.7154717 C122.842262,25.7154717 122.515549,25.6830947 122.250642,25.6183397 C121.985735,25.5535846 121.762039,25.4711703 121.579547,25.3710944 C121.397056,25.2710184 121.244001,25.1591705 121.120377,25.0355472 C120.996754,24.9119239 120.881963,24.7853592 120.776,24.6558491 L120.776,25.0620378 C120.776,25.1915479 120.728906,25.3033958 120.634717,25.3975849 C120.540528,25.4917741 120.42868,25.538868 120.29917,25.538868 L118.162264,25.538868 C118.032754,25.538868 117.920906,25.4917741 117.826717,25.3975849 C117.732528,25.3033958 117.685434,25.1915479 117.685434,25.0620378 L117.685434,13.4768302 C117.685434,13.3473201 117.732528,13.2354722 117.826717,13.1412831 C117.920906,13.0470939 118.032754,13 118.162264,13 L120.387472,13 C120.516982,13 120.62883,13.0470939 120.723019,13.1412831 C120.817208,13.2354722 120.864302,13.3473201 120.864302,13.4768302 L120.864302,17.2384906 C120.946717,17.1325278 121.052679,17.0177365 121.182189,16.8941132 C121.311699,16.77049 121.470641,16.6556987 121.659019,16.5497359 C121.847397,16.4437731 122.071093,16.3554721 122.330113,16.2848302 C122.589133,16.2141884 122.889357,16.178868 123.230793,16.178868 Z M124.025509,20.4526793 C123.990189,20.0406018 123.854794,19.681511 123.619321,19.3753963 C123.383848,19.0692815 122.989437,18.9162265 122.436076,18.9162265 C122.177055,18.9162265 121.953359,18.9574336 121.764981,19.0398491 C121.576603,19.1222646 121.420604,19.2311692 121.296981,19.3665661 C121.173358,19.501963 121.076227,19.6520747 121.005585,19.8169057 C120.934943,19.9817367 120.887849,20.152452 120.864302,20.3290566 C120.840755,20.5056613 120.828981,20.711697 120.828981,20.9471698 C120.828981,21.1826427 120.840755,21.3886784 120.864302,21.5652831 C120.887849,21.7418877 120.934943,21.912603 121.005585,22.077434 C121.076227,22.242265 121.173358,22.3923767 121.296981,22.5277736 C121.420604,22.6631705 121.576603,22.7720751 121.764981,22.8544906 C121.953359,22.9369061 122.177055,22.9781132 122.436076,22.9781132 C122.989437,22.9781132 123.383848,22.8250582 123.619321,22.5189434 C123.854794,22.2128287 123.990189,21.8537379 124.025509,21.4416604 C124.06083,21.1119984 124.06083,20.7823413 124.025509,20.4526793 Z M134.674717,22.5719246 C134.498112,22.5719246 134.359774,22.5218873 134.259698,22.4218114 C134.159622,22.3217354 134.080151,22.2246043 134.021283,22.1304151 L132.361208,19.2164529 L132.361208,25.0620378 C132.361208,25.1915479 132.314114,25.3033958 132.219925,25.3975849 C132.125735,25.4917741 132.013887,25.538868 131.884377,25.538868 L129.570868,25.538868 C129.441358,25.538868 129.32951,25.4917741 129.235321,25.3975849 C129.141132,25.3033958 129.094038,25.1915479 129.094038,25.0620378 L129.094038,13.653434 C129.094038,13.5239239 129.141132,13.412076 129.235321,13.3178868 C129.32951,13.2236977 129.441358,13.1766038 129.570868,13.1766038 L131.619472,13.1766038 C131.854945,13.1766038 132.031547,13.2413579 132.149283,13.370868 C132.26702,13.500378 132.343547,13.5945658 132.378868,13.653434 L135.239849,18.5453585 L138.10083,13.653434 C138.136151,13.5945658 138.212679,13.500378 138.330415,13.370868 C138.448152,13.2413579 138.624754,13.1766038 138.860226,13.1766038 L140.90883,13.1766038 C141.03834,13.1766038 141.150188,13.2236977 141.244377,13.3178868 C141.338567,13.412076 141.38566,13.5239239 141.38566,13.653434 L141.38566,25.0620378 C141.38566,25.1915479 141.338567,25.3033958 141.244377,25.3975849 C141.150188,25.4917741 141.03834,25.538868 140.90883,25.538868 L138.595321,25.538868 C138.465811,25.538868 138.353963,25.4917741 138.259774,25.3975849 C138.165584,25.3033958 138.118491,25.1915479 138.118491,25.0620378 L138.118491,19.2164529 L136.458415,22.1304151 C136.399547,22.2246043 136.320076,22.3217354 136.22,22.4218114 C136.119924,22.5218873 135.981586,22.5719246 135.804981,22.5719246 L134.674717,22.5719246 Z M143.045736,22.9251321 C143.045736,22.1480716 143.343016,21.5064177 143.937585,21.000151 C144.532154,20.4938843 145.500522,20.1230201 146.842717,19.8875472 L148.908981,19.5343397 C148.908981,19.2517722 148.832454,19.0192462 148.679396,18.8367548 C148.526339,18.6542633 148.261436,18.5630189 147.884679,18.5630189 C147.613885,18.5630189 147.404906,18.6012827 147.257736,18.6778114 C147.110565,18.75434 147.001661,18.8220375 146.931019,18.8809057 C146.825056,18.9750948 146.724982,19.0339622 146.630793,19.0575095 C146.536603,19.0810568 146.424755,19.0928302 146.295245,19.0928302 L144.052377,19.0928302 C143.934641,19.0928302 143.83751,19.0575098 143.760981,18.986868 C143.684453,18.9162261 143.652075,18.8220384 143.663849,18.7043019 C143.687396,18.4335081 143.805131,18.1509449 144.017057,17.8566038 C144.228982,17.5622627 144.520376,17.291473 144.891245,17.0442265 C145.262115,16.7969799 145.70362,16.5909443 146.215774,16.4261132 C146.727927,16.2612822 147.284223,16.178868 147.884679,16.178868 C148.602872,16.178868 149.226865,16.267169 149.756679,16.4437736 C150.286493,16.6203783 150.725055,16.8646777 151.072377,17.1766793 C151.4197,17.4886808 151.675773,17.8595451 151.840604,18.2892831 C152.005435,18.7190211 152.087849,19.1929031 152.087849,19.7109434 L152.087849,25.0620378 C152.087849,25.1915479 152.040755,25.3033958 151.946566,25.3975849 C151.852377,25.4917741 151.740529,25.538868 151.611019,25.538868 L149.385811,25.538868 C149.256301,25.538868 149.144453,25.4917741 149.050264,25.3975849 C148.956075,25.3033958 148.908981,25.1915479 148.908981,25.0620378 L148.908981,24.5675472 C148.626414,24.9207565 148.276153,25.2003764 147.858189,25.4064151 C147.440224,25.6124539 146.889815,25.7154717 146.206943,25.7154717 C145.700677,25.7154717 145.250342,25.6448309 144.855925,25.5035472 C144.461508,25.3622635 144.13185,25.1680013 143.866943,24.9207548 C143.602036,24.6735082 143.398944,24.3791716 143.25766,24.0377359 C143.116377,23.6963002 143.045736,23.325436 143.045736,22.9251321 Z M147.072302,23.3313208 C147.331322,23.3313208 147.572678,23.2871703 147.796377,23.198868 C148.020077,23.1105656 148.214339,22.9898876 148.37917,22.8368302 C148.544001,22.6837729 148.673509,22.5042275 148.767698,22.2981887 C148.861887,22.09215 148.908981,21.8713974 148.908981,21.6359246 L147.284226,21.8831698 C146.966338,21.9420381 146.710265,22.0421125 146.516,22.1833963 C146.321735,22.32468 146.224604,22.5071687 146.224604,22.730868 C146.224604,22.9545672 146.298188,23.1105656 146.445359,23.198868 C146.592529,23.2871703 146.801508,23.3313208 147.072302,23.3313208 Z M159.593509,25.7154717 C159.252074,25.7154717 158.95185,25.6801513 158.69283,25.6095095 C158.43381,25.5388676 158.210114,25.4505666 158.021736,25.3446038 C157.833358,25.238641 157.674416,25.1238497 157.544906,25.0002265 C157.415396,24.8766032 157.309434,24.7618119 157.227019,24.6558491 L157.227019,28.4175095 C157.227019,28.5470196 157.179925,28.6588675 157.085736,28.7530566 C156.991547,28.8472458 156.879699,28.8943397 156.750189,28.8943397 L154.524981,28.8943397 C154.395471,28.8943397 154.283623,28.8472458 154.189434,28.7530566 C154.095245,28.6588675 154.048151,28.5470196 154.048151,28.4175095 L154.048151,16.8323019 C154.048151,16.7027918 154.095245,16.5909439 154.189434,16.4967548 C154.283623,16.4025656 154.395471,16.3554717 154.524981,16.3554717 L156.661887,16.3554717 C156.791397,16.3554717 156.903245,16.4025656 156.997434,16.4967548 C157.091623,16.5909439 157.138717,16.7027918 157.138717,16.8323019 L157.138717,17.2384906 C157.24468,17.1207542 157.359471,16.9971328 157.483094,16.8676227 C157.606718,16.7381126 157.759773,16.6233213 157.942264,16.5232453 C158.124756,16.4231693 158.348452,16.3407551 158.613359,16.276 C158.878266,16.211245 159.204979,16.178868 159.593509,16.178868 C160.123323,16.178868 160.623696,16.2583389 161.094642,16.4172831 C161.565587,16.5762272 161.977659,16.8234701 162.330868,17.1590189 C162.684077,17.4945678 162.969584,17.9154692 163.187396,18.4217359 C163.405209,18.9280026 163.525887,19.5284494 163.549434,20.2230944 C163.561208,20.399699 163.567094,20.6381117 163.567094,20.9383397 C163.567094,21.2385676 163.561208,21.4769803 163.549434,21.6535849 C163.525887,22.3482299 163.405209,22.9486768 163.187396,23.4549434 C162.969584,23.9612101 162.684077,24.3821116 162.330868,24.7176604 C161.977659,25.0532093 161.565587,25.3033954 161.094642,25.4682265 C160.623696,25.6330575 160.123323,25.7154717 159.593509,25.7154717 Z M160.388226,21.4416604 C160.423547,21.1119984 160.423547,20.7823413 160.388226,20.4526793 C160.352906,20.0406018 160.217511,19.681511 159.982038,19.3753963 C159.746565,19.0692815 159.352154,18.9162265 158.798793,18.9162265 C158.539772,18.9162265 158.316076,18.9574336 158.127698,19.0398491 C157.93932,19.1222646 157.783321,19.2311692 157.659698,19.3665661 C157.536075,19.501963 157.438944,19.6520747 157.368302,19.8169057 C157.29766,19.9817367 157.250566,20.152452 157.227019,20.3290566 C157.203472,20.5056613 157.191698,20.711697 157.191698,20.9471698 C157.191698,21.1826427 157.203472,21.3886784 157.227019,21.5652831 C157.250566,21.7418877 157.29766,21.912603 157.368302,22.077434 C157.438944,22.242265 157.536075,22.3923767 157.659698,22.5277736 C157.783321,22.6631705 157.93932,22.7720751 158.127698,22.8544906 C158.316076,22.9369061 158.539772,22.9781132 158.798793,22.9781132 C159.352154,22.9781132 159.746565,22.8250582 159.982038,22.5189434 C160.217511,22.2128287 160.352906,21.8537379 160.388226,21.4416604 Z" id="GeoWebMap" fill="#FFFFFF" fill-rule="nonzero"></path>
            <path d="M59.115566,28.4528302 L151.978774,28.4528302 C152.115542,28.4528302 152.226415,28.5637031 152.226415,28.7004717 C152.226415,28.8372403 152.115542,28.9481132 151.978774,28.9481132 L59.115566,28.9481132 C58.9787974,28.9481132 58.8679245,28.8372403 58.8679245,28.7004717 C58.8679245,28.5637031 58.9787974,28.4528302 59.115566,28.4528302 Z" id="Rectangle-4" fill="#FFFFFF"></path>
        </g>
    </g>
</svg>